<svg width="158" height="30" viewBox="0 0 158 30" fill="none" xmlns="http://www.w3.org/2000/svg">
<path fill-rule="evenodd" clip-rule="evenodd" d="M144 29.4H149.399V24H144V29.4Z" fill="#191919"/>
<path fill-rule="evenodd" clip-rule="evenodd" d="M144 17.4H149.399V12H144V17.4Z" fill="#191919"/>
<path fill-rule="evenodd" clip-rule="evenodd" d="M144 5.4H149.399V0H144V5.4Z" fill="#191919"/>
<path fill-rule="evenodd" clip-rule="evenodd" d="M132 29.4H137.4V24H132V29.4Z" fill="#191919"/>
<path fill-rule="evenodd" clip-rule="evenodd" d="M132 17.4H137.4V12H132V17.4Z" fill="#191919"/>
<path fill-rule="evenodd" clip-rule="evenodd" d="M120 29.4H125.4V24H120V29.4Z" fill="#191919"/>
<path fill-rule="evenodd" clip-rule="evenodd" d="M120 17.4H125.4V12H120V17.4Z" fill="#191919"/>
<path fill-rule="evenodd" clip-rule="evenodd" d="M120 5.4H125.4V0H120V5.4Z" fill="#191919"/>
<path fill-rule="evenodd" clip-rule="evenodd" d="M108 17.4H125V12H108V17.4Z" fill="#191919"/>
<path fill-rule="evenodd" clip-rule="evenodd" d="M108 5.4H113.4V0H108V5.4Z" fill="#191919"/>
<path fill-rule="evenodd" clip-rule="evenodd" d="M96 17.4H101.4V12H96V17.4Z" fill="#191919"/>
<path fill-rule="evenodd" clip-rule="evenodd" d="M96 5.4H101.4V0H96V5.4Z" fill="#191919"/>
<path fill-rule="evenodd" clip-rule="evenodd" d="M84 29.4H89.4V24H84V29.4Z" fill="#191919"/>
<path fill-rule="evenodd" clip-rule="evenodd" d="M72 29.4H77.4V24H72V29.4Z" fill="#191919"/>
<path fill-rule="evenodd" clip-rule="evenodd" d="M72 17.4H77.4V12H72V17.4Z" fill="#191919"/>
<path fill-rule="evenodd" clip-rule="evenodd" d="M72 5.4H77.4V0H72V5.4Z" fill="#191919"/>
<path fill-rule="evenodd" clip-rule="evenodd" d="M60 29.4H65.4V24H60V29.4Z" fill="#191919"/>
<path fill-rule="evenodd" clip-rule="evenodd" d="M60 17.4H65.4V12H60V17.4Z" fill="#191919"/>
<path fill-rule="evenodd" clip-rule="evenodd" d="M60 5.4H75V0H60V5.4Z" fill="#191919"/>
<path fill-rule="evenodd" clip-rule="evenodd" d="M48 5.4H53.4V0H48V5.4Z" fill="#191919"/>
<path fill-rule="evenodd" clip-rule="evenodd" d="M36 5.4H41.4V0H36V5.4Z" fill="#191919"/>
<path fill-rule="evenodd" clip-rule="evenodd" d="M24 17.4H29.4V12H24V17.4Z" fill="#191919"/>
<path fill-rule="evenodd" clip-rule="evenodd" d="M24 5.4H29.4V0H24V5.4Z" fill="#191919"/>
<path fill-rule="evenodd" clip-rule="evenodd" d="M12 17.4H17.4V12H12V17.4Z" fill="#191919"/>
<path fill-rule="evenodd" clip-rule="evenodd" d="M0 5.4H15V0H0V5.4Z" fill="#191919"/>
<path fill-rule="evenodd" clip-rule="evenodd" d="M7.5 17.4H54V12H7.5V17.4Z" fill="#191919"/>
</svg>
