<svg width="562" height="376" viewBox="0 0 562 376" fill="none" xmlns="http://www.w3.org/2000/svg">
<path fill-rule="evenodd" clip-rule="evenodd" d="M-429 435H591V-57H-429V435Z" fill="#F0EFEE"/>
<g clip-path="url(#clip0)">
<path fill-rule="evenodd" clip-rule="evenodd" d="M389.201 33.1397C483.35 33.1397 559.672 109.461 559.672 203.609C559.672 297.757 483.35 374.079 389.201 374.079C315.35 374.079 249.897 326.525 227.076 256.287L389.201 203.609V33.1397Z" stroke="#D1FF52" stroke-width="1.3"/>
<path fill-rule="evenodd" clip-rule="evenodd" d="M389.201 33.1397C483.35 33.1397 559.672 109.461 559.672 203.609C559.672 297.757 483.35 374.079 389.201 374.079C315.35 374.079 249.897 326.525 227.076 256.287L389.201 203.609V33.1397Z" fill="#D1FF52"/>
<path fill-rule="evenodd" clip-rule="evenodd" d="M389.201 33.1397C483.35 33.1397 559.672 109.461 559.672 203.609C559.672 297.757 483.35 374.079 389.201 374.079C315.35 374.079 249.897 326.525 227.076 256.287L389.201 203.609V33.1397Z" stroke="#E3E3E3" stroke-width="1.3"/>
<path fill-rule="evenodd" clip-rule="evenodd" d="M227.076 256.288C217.08 225.522 216.043 192.547 224.087 161.216L389.202 203.609L227.076 256.288Z" fill="#B4B4B5"/>
<path fill-rule="evenodd" clip-rule="evenodd" d="M227.076 256.288C217.08 225.522 216.043 192.547 224.087 161.216L389.202 203.609L227.076 256.288Z" stroke="#F0EFEE" stroke-width="2.6" stroke-linejoin="bevel"/>
<path fill-rule="evenodd" clip-rule="evenodd" d="M227.076 150.931C243.938 99.034 284.627 58.3453 336.523 41.483L389.201 203.609L227.076 150.931Z" fill="#3E3A39"/>
<path fill-rule="evenodd" clip-rule="evenodd" d="M227.076 150.931C243.938 99.034 284.627 58.3453 336.523 41.483L389.201 203.609L227.076 150.931Z" stroke="#F0EFEE" stroke-width="2.6" stroke-linejoin="bevel"/>
<path fill-rule="evenodd" clip-rule="evenodd" d="M336.523 41.4831C353.537 35.9555 371.314 33.1397 389.201 33.1397V203.609L336.523 41.4831Z" fill="black"/>
<path fill-rule="evenodd" clip-rule="evenodd" d="M336.523 41.4831C353.537 35.9555 371.314 33.1397 389.201 33.1397V203.609L336.523 41.4831Z" stroke="#F0EFEE" stroke-width="2.6" stroke-linecap="square" stroke-linejoin="bevel"/>
<path d="M16.1901 45.794H14.6301V44.39H13.1481V45.794H9.43006V47.159H12.5501C11.5621 48.342 10.2621 49.33 9.09206 49.954C9.43006 50.227 9.85906 50.708 10.0541 50.994C11.0551 50.461 12.1861 49.655 13.1481 48.693V50.448C13.1481 50.604 13.0961 50.643 12.9271 50.643C12.7581 50.656 12.2511 50.656 11.7701 50.63C11.9651 51.007 12.1991 51.605 12.2641 52.008C13.0571 52.008 13.6421 51.982 14.0711 51.748C14.5261 51.514 14.6301 51.163 14.6301 50.461V47.159H16.1901V45.794ZM8.87106 52.398V44H16.6581V52.398H8.87106ZM7.27206 42.583V54.244H8.87106V53.789H16.6581V54.244H18.3351V42.583H7.27206ZM24.1292 42.531L23.8822 42.596H20.4372V54.205H21.8932V43.974H23.3232C23.0632 44.819 22.7252 45.898 22.4262 46.678C23.3102 47.575 23.5442 48.407 23.5442 49.005C23.5442 49.382 23.4662 49.642 23.2842 49.759C23.1672 49.824 23.0242 49.85 22.8682 49.863C22.6992 49.863 22.4912 49.863 22.2182 49.85C22.4652 50.24 22.5952 50.864 22.6082 51.28C22.9332 51.293 23.2842 51.28 23.5572 51.241C23.8692 51.202 24.1552 51.098 24.3632 50.942C24.8312 50.617 25.0262 50.058 25.0262 49.187C25.0262 48.433 24.8442 47.523 23.9212 46.496C24.3372 45.521 24.8182 44.26 25.2212 43.181L24.1292 42.531ZM27.1322 42.141C27.0932 46.379 27.2492 50.695 23.6742 53.048C24.1032 53.334 24.5842 53.841 24.8312 54.244C26.4952 53.087 27.4312 51.501 27.9772 49.72C28.4972 51.358 29.3682 53.113 30.9282 54.27C31.1752 53.854 31.6302 53.373 32.0592 53.087C29.1862 51.072 28.7702 47.198 28.6142 45.846C28.7052 44.637 28.7052 43.376 28.7182 42.141H27.1322ZM35.3573 44.624C35.1623 44.091 34.6553 43.298 34.2003 42.726L33.0563 43.35C33.4853 43.948 33.9533 44.78 34.1223 45.313L35.3573 44.624ZM35.6563 48.706H37.1513V42.089H35.6563V45.235C34.5903 45.794 33.5373 46.34 32.8093 46.678L33.4463 48.03C34.1093 47.64 34.9023 47.185 35.6563 46.717V48.706ZM43.9503 43.129L43.6903 43.168H40.9733C41.1293 42.96 41.2853 42.739 41.4153 42.531L39.9463 42.05C39.4523 42.934 38.3603 43.948 37.2553 44.533C37.5413 44.819 37.9573 45.339 38.1783 45.664C38.7373 45.339 39.2833 44.936 39.8033 44.455H42.9363C42.5333 45.144 41.9743 45.703 41.3113 46.132C40.9473 45.703 40.4143 45.196 39.9983 44.832L38.8933 45.495C39.2703 45.859 39.7253 46.327 40.0633 46.743C39.2313 47.055 38.2953 47.263 37.2683 47.393C37.5413 47.666 37.9443 48.316 38.0743 48.68C41.3243 48.108 43.8723 46.743 44.8733 43.558L43.9503 43.129ZM44.6263 50.799V49.447H39.5693C39.6083 49.2 39.6473 48.94 39.6733 48.68H38.0613C38.0353 48.94 37.9963 49.2 37.9573 49.447H33.0563V50.799H37.5283C36.9433 51.839 35.7213 52.528 32.8613 52.905C33.1473 53.23 33.4853 53.828 33.6023 54.205C36.6183 53.724 38.1003 52.853 38.8673 51.592C39.9333 53.1 41.5453 53.867 44.0543 54.14C44.2363 53.737 44.6263 53.1 44.9643 52.775C42.4943 52.619 40.8173 52.034 39.9463 50.799H44.6263ZM50.9534 48.927C50.8754 51.423 50.7584 52.346 50.5894 52.593C50.4854 52.749 50.3814 52.775 50.2254 52.762C50.0434 52.775 49.7314 52.762 49.3804 52.723C49.8224 51.657 50.0434 50.37 50.1604 48.927H50.9534ZM55.2304 45.183C55.2564 44.26 55.2564 43.311 55.2564 42.297H53.8264C53.8264 43.311 53.8264 44.273 53.8134 45.183H52.6824V46.6H53.7744C53.6574 49.291 53.2674 51.462 51.9414 52.97C52.1234 52.255 52.2144 50.851 52.3054 48.173C52.3184 48.004 52.3314 47.627 52.3314 47.627H50.2254C50.2384 47.263 50.2514 46.899 50.2514 46.522H52.3834V45.17H47.9504V44.208H52.7604V42.804H46.5594V47.601C46.5594 49.421 46.4944 51.852 45.7144 53.503C46.0524 53.633 46.7024 54.01 46.9754 54.244C47.8334 52.437 47.9504 49.577 47.9504 47.588V46.522H48.8474C48.8084 49.486 48.6914 51.852 47.3264 53.308C47.6644 53.529 48.1064 54.01 48.3144 54.361C48.7564 53.893 49.0944 53.36 49.3544 52.762C49.5494 53.1 49.6534 53.594 49.6794 53.958C50.1734 53.984 50.6414 53.971 50.9274 53.919C51.2654 53.867 51.5124 53.75 51.7334 53.438C51.7724 53.386 51.8114 53.334 51.8374 53.269C52.1754 53.503 52.6044 53.945 52.7864 54.257C54.4894 52.476 55.0094 49.837 55.1784 46.6H56.1924C56.1144 50.747 55.9974 52.268 55.7504 52.619C55.6204 52.801 55.5164 52.84 55.3214 52.84C55.0874 52.84 54.6324 52.84 54.1514 52.801C54.3854 53.204 54.5284 53.789 54.5414 54.205C55.1394 54.218 55.6984 54.231 56.0624 54.153C56.4784 54.075 56.7514 53.945 57.0244 53.529C57.4144 52.97 57.5184 51.098 57.6224 45.846C57.6224 45.664 57.6354 45.183 57.6354 45.183H55.2304Z" fill="#A9A9A9"/>
<path d="M360.541 35.2059H5.00049" stroke="black" stroke-width="1.3"/>
<path d="M303.683 94.6231H5.01074" stroke="black" stroke-width="1.3"/>
<path d="M12.4981 108.548C12.2251 108.223 10.9771 106.962 10.5871 106.65V106.572H12.5111V105.129H10.5871V103.413C11.2891 103.257 11.9651 103.101 12.5501 102.893L11.7441 101.606C10.5091 102.074 8.62406 102.49 6.96006 102.711C7.11606 103.049 7.29806 103.569 7.35006 103.92C7.90906 103.855 8.49406 103.79 9.09206 103.686V105.129H7.01206V106.572H8.83206C8.28606 107.846 7.42806 109.224 6.59606 110.056C6.84306 110.459 7.20706 111.109 7.35006 111.564C7.98706 110.875 8.57206 109.848 9.09206 108.756V113.631H10.5871V108.236C10.9901 108.795 11.3801 109.432 11.6011 109.822L12.4981 108.548ZM18.9591 112.76C18.6471 111.2 17.7371 108.756 16.9311 106.858L15.5011 107.365C15.8911 108.366 16.2941 109.497 16.6321 110.563L13.7591 110.979C14.6301 108.418 15.4751 105.259 16.0211 102.165L14.3441 101.866C13.8501 105.142 12.7971 108.782 12.4461 109.757C12.0821 110.771 11.8351 111.304 11.4451 111.447C11.6271 111.889 11.9001 112.669 11.9651 112.968C12.4461 112.734 13.0701 112.604 17.0481 111.98C17.1911 112.5 17.2951 112.994 17.3731 113.41L18.9591 112.76ZM22.9202 103.855H24.4282V103.4H27.2102V103.855H28.7312V103.4H31.4742V102.178H28.7312V101.502H27.2102V102.178H24.4282V101.502H22.9202V102.178H20.1902V103.4H22.9202V103.855ZM24.8052 109.575C24.7662 109.822 24.7272 110.043 24.6752 110.251H23.0762C23.4662 109.978 23.7912 109.692 24.0902 109.38H27.5742C27.8472 109.692 28.1462 109.978 28.4842 110.251H26.1702C26.2222 110.03 26.2612 109.809 26.2872 109.575H24.8052ZM22.9072 106.299H28.7572V106.819H22.9072V106.299ZM22.9072 104.947H28.7572V105.454H22.9072V104.947ZM31.6562 109.38V108.184H25.0002C25.0912 108.028 25.1692 107.872 25.2472 107.716H30.3172V104.05H21.4252V107.716H23.6482C23.5572 107.872 23.4532 108.028 23.3362 108.184H20.0212V109.38H22.0492C21.4122 109.809 20.6192 110.173 19.6182 110.472C19.9172 110.693 20.3462 111.213 20.5022 111.564C21.0352 111.369 21.5422 111.148 21.9972 110.914V111.356H24.0772C23.5702 111.889 22.6732 112.266 21.0742 112.513C21.3342 112.799 21.6852 113.332 21.8152 113.696C24.1682 113.228 25.2602 112.487 25.8062 111.356H28.0292C27.9642 111.902 27.8732 112.175 27.7562 112.292C27.6522 112.383 27.5352 112.409 27.3402 112.409C27.1192 112.409 26.6122 112.396 26.0922 112.344C26.3002 112.669 26.4432 113.176 26.4692 113.553C27.0932 113.566 27.6912 113.579 28.0292 113.54C28.4062 113.501 28.7052 113.41 28.9782 113.163C29.2642 112.864 29.4202 112.24 29.5372 110.979C30.0312 111.278 30.5772 111.525 31.1102 111.707C31.3312 111.317 31.7732 110.771 32.0982 110.472C31.1362 110.251 30.2002 109.848 29.4592 109.38H31.6562ZM37.5413 110.992V110.056H36.9693C37.2033 109.627 37.4373 109.12 37.6843 108.678L36.7483 108.301C36.5923 108.821 36.2933 109.523 36.0463 110.056H34.5903V110.992H35.5263V113.176H36.6183V110.992H37.5413ZM36.0073 109.718C35.9033 109.354 35.6303 108.795 35.3573 108.379L34.5643 108.665C34.8243 109.094 35.0583 109.666 35.1623 110.043L36.0073 109.718ZM39.1013 107.027H33.1213V113.618H34.2913V108.158H37.8663V112.123C37.8663 112.24 37.8273 112.279 37.7103 112.279C37.6063 112.279 37.2423 112.279 36.9043 112.266C37.0473 112.604 37.1903 113.085 37.2293 113.423C37.8663 113.423 38.3343 113.41 38.6593 113.215C39.0233 113.02 39.1013 112.695 39.1013 112.136V107.027ZM37.3723 105.532H34.8373V104.778H37.3723V105.532ZM38.7503 103.751H33.5503V106.572H38.7503V103.751ZM32.9003 103.27H39.3613V101.97H32.9003V103.27ZM40.6613 105.259H41.4543V107.963H40.6613V105.259ZM43.2873 107.963H42.5333V105.259H43.2873V107.963ZM44.9513 113.332C44.8213 112.448 44.4313 110.94 44.0543 109.809L43.0143 110.017C43.1443 110.433 43.2613 110.901 43.3783 111.343L42.6633 111.46V109.289H44.4313V103.946H42.6633V101.684H41.3243V103.946H39.5823V109.289H41.3243V111.668C40.6093 111.785 39.9463 111.876 39.4003 111.941L39.7253 113.345C40.8433 113.124 42.2603 112.864 43.6643 112.604C43.7423 112.981 43.7943 113.332 43.8333 113.618L44.9513 113.332ZM49.7574 103.14C49.1594 102.698 47.9764 102.139 47.1054 101.827L46.3384 102.867C47.2224 103.218 48.3794 103.855 48.9514 104.297L49.7574 103.14ZM49.7704 104.609C48.3794 105.077 46.9364 105.545 45.9614 105.805L46.4294 107.222C47.4954 106.858 48.8084 106.39 50.0304 105.935L49.7704 104.609ZM56.4134 111.057V107.638H47.5214V111.2H49.0424V109.042H54.8014V111.057H56.4134ZM51.1614 109.38C50.7714 110.979 49.9524 111.915 45.8314 112.357C46.0914 112.682 46.4164 113.306 46.5204 113.657C51.0834 113.02 52.2144 111.642 52.6694 109.38H51.1614ZM51.9544 111.85C53.5014 112.292 55.6464 113.085 56.6994 113.579L57.6614 112.357C56.5174 111.85 54.3334 111.135 52.8514 110.758L51.9544 111.85ZM55.7244 103.738C55.6074 104.089 55.4774 104.414 55.3734 104.674L56.7254 105.025C57.0244 104.44 57.3624 103.582 57.6354 102.815L56.5044 102.542L56.2444 102.607H52.5524C52.6564 102.347 52.7734 102.074 52.8644 101.814L51.4084 101.593C51.1224 102.516 50.5114 103.543 49.4974 104.31C49.8224 104.479 50.3294 104.947 50.5634 105.272C51.1354 104.804 51.5644 104.297 51.9284 103.738H52.9424C52.5914 104.882 51.8634 105.909 49.7054 106.507C49.9914 106.767 50.3554 107.287 50.4984 107.625C52.2144 107.079 53.2024 106.299 53.8004 105.35C54.5414 106.351 55.5944 107.092 56.9204 107.495C57.1024 107.105 57.5054 106.559 57.8174 106.286C56.2574 105.961 55.0224 105.181 54.3594 104.115C54.3984 103.998 54.4374 103.868 54.4764 103.738H55.7244Z" fill="#A9A9A9"/>
<path d="M11.4451 166.37H13.6941V173.689H14.9031V165.278H10.2881V173.767H11.4451V166.37ZM10.2751 165.967C9.78106 165.59 8.79306 165.031 8.11706 164.693L7.20706 165.824C7.90906 166.214 8.88406 166.825 9.33906 167.215L10.2751 165.967ZM9.74206 169.386C9.24806 169.022 8.26006 168.489 7.58406 168.164L6.71306 169.282C7.40206 169.659 8.36406 170.244 8.83206 170.621L9.74206 169.386ZM8.59806 171.622C8.09106 173.143 7.41506 174.781 6.93406 175.795L8.33806 176.588C8.85806 175.314 9.41706 173.819 9.84606 172.428L8.59806 171.622ZM12.6931 174.495C13.0311 173.702 13.1091 172.857 13.1091 172.064V167.085H11.9911V172.038C11.9911 173.481 11.7831 174.872 9.74206 175.795C9.93706 175.977 10.2881 176.471 10.4051 176.731C11.5751 176.198 12.2641 175.444 12.6411 174.612C13.2131 175.236 13.8761 176.094 14.1881 176.627L15.1761 176.016C14.8251 175.457 14.1101 174.625 13.5121 174.001L12.6931 174.495ZM16.6841 165.785H15.5141V173.741H16.6841V165.785ZM17.2951 164.797V175.171C17.2951 175.366 17.2171 175.431 17.0221 175.431C16.8271 175.431 16.2161 175.444 15.5921 175.418C15.7481 175.782 15.9301 176.341 15.9821 176.679C16.9181 176.692 17.5551 176.64 17.9581 176.432C18.3741 176.224 18.5041 175.873 18.5041 175.171V164.797H17.2951ZM23.6742 166.708C23.2452 166.149 22.3092 165.33 21.6202 164.771L20.6192 165.707C21.3082 166.318 22.2182 167.189 22.6082 167.774L23.6742 166.708ZM26.7552 171.453H27.7302V170.036H24.2852V171.453H25.3382V174.248C25.0522 174.326 24.7792 174.391 24.5322 174.456L24.5452 174.443C24.4022 174.131 24.2202 173.52 24.1422 173.117L22.9852 173.845V168.58H19.9952V170.062H21.5162V174.001C21.5162 174.56 21.1132 174.989 20.8402 175.171C21.0742 175.483 21.4382 176.146 21.5552 176.523C21.7762 176.263 22.1792 176.003 24.1162 174.729L24.4672 175.99C25.5722 175.678 26.9632 175.275 28.2632 174.872L28.0552 173.533C27.6132 173.65 27.1842 173.767 26.7552 173.884V171.453ZM31.8512 168.554V167.085H30.8762L31.8382 166.461C31.6042 165.98 31.0582 165.252 30.5772 164.732L29.5372 165.369C29.9662 165.889 30.4472 166.578 30.6812 167.085H29.4722C29.4462 166.305 29.4462 165.499 29.4462 164.693H27.8732C27.8862 165.525 27.8992 166.318 27.9252 167.085H23.8952V168.554H27.9772C28.1982 173.598 28.7832 176.627 30.4212 176.64C30.9542 176.653 31.6822 176.146 32.0072 173.65C31.7602 173.507 31.0582 173.078 30.7982 172.753C30.7462 173.923 30.6422 174.573 30.4732 174.56C30.0312 174.547 29.6672 171.986 29.5112 168.554H31.8512ZM42.7803 172.87C42.5073 172.285 42.0783 171.583 41.5713 170.881C41.8573 169.828 42.0653 168.697 42.2083 167.488L40.8433 167.358C40.7653 168.099 40.6483 168.814 40.5053 169.503C40.1413 169.061 39.7643 168.645 39.4003 168.268L38.4643 169.113C39.0233 169.711 39.5823 170.4 40.0893 171.089C39.6343 172.493 39.0103 173.65 38.1133 174.495C38.4253 174.664 39.0493 175.093 39.3093 175.314C40.0113 174.56 40.5833 173.598 41.0253 172.493C41.3243 172.987 41.5843 173.442 41.7663 173.845L42.7803 172.87ZM34.9283 169.243C35.4483 169.815 35.9943 170.491 36.5273 171.141C36.1373 172.311 35.6173 173.325 34.9283 174.079V169.243ZM44.3533 165.304H33.3813V176.705H34.9283V174.547C35.2663 174.742 35.6563 175.028 35.8383 175.197C36.5273 174.456 37.0603 173.507 37.4893 172.415C37.7883 172.831 38.0483 173.208 38.2303 173.52L39.1663 172.441C38.8673 172.012 38.4643 171.453 38.0093 170.881C38.2823 169.841 38.5033 168.697 38.6593 167.475L37.2813 167.332C37.1903 168.112 37.0863 168.879 36.9303 169.594C36.5143 169.113 36.0853 168.632 35.6823 168.203L34.9283 169.009V166.773H42.8063V174.833C42.8063 175.08 42.7023 175.171 42.4293 175.184C42.1693 175.184 41.2203 175.197 40.4013 175.132C40.6353 175.548 40.8953 176.263 40.9733 176.692C42.2083 176.705 43.0403 176.666 43.5863 176.406C44.1583 176.159 44.3533 175.73 44.3533 174.859V165.304ZM48.3794 167.124C48.1844 166.591 47.6774 165.798 47.2224 165.226L46.0784 165.85C46.5074 166.448 46.9754 167.28 47.1444 167.813L48.3794 167.124ZM48.6784 171.206H50.1734V164.589H48.6784V167.735C47.6124 168.294 46.5594 168.84 45.8314 169.178L46.4684 170.53C47.1314 170.14 47.9244 169.685 48.6784 169.217V171.206ZM56.9724 165.629L56.7124 165.668H53.9954C54.1514 165.46 54.3074 165.239 54.4374 165.031L52.9684 164.55C52.4744 165.434 51.3824 166.448 50.2774 167.033C50.5634 167.319 50.9794 167.839 51.2004 168.164C51.7594 167.839 52.3054 167.436 52.8254 166.955H55.9584C55.5554 167.644 54.9964 168.203 54.3334 168.632C53.9694 168.203 53.4364 167.696 53.0204 167.332L51.9154 167.995C52.2924 168.359 52.7474 168.827 53.0854 169.243C52.2534 169.555 51.3174 169.763 50.2904 169.893C50.5634 170.166 50.9664 170.816 51.0964 171.18C54.3464 170.608 56.8944 169.243 57.8954 166.058L56.9724 165.629ZM57.6484 173.299V171.947H52.5914C52.6304 171.7 52.6694 171.44 52.6954 171.18H51.0834C51.0574 171.44 51.0184 171.7 50.9794 171.947H46.0784V173.299H50.5504C49.9654 174.339 48.7434 175.028 45.8834 175.405C46.1694 175.73 46.5074 176.328 46.6244 176.705C49.6404 176.224 51.1224 175.353 51.8894 174.092C52.9554 175.6 54.5674 176.367 57.0764 176.64C57.2584 176.237 57.6484 175.6 57.9864 175.275C55.5164 175.119 53.8394 174.534 52.9684 173.299H57.6484ZM63.9755 171.427C63.8975 173.923 63.7805 174.846 63.6115 175.093C63.5075 175.249 63.4035 175.275 63.2475 175.262C63.0655 175.275 62.7535 175.262 62.4025 175.223C62.8445 174.157 63.0655 172.87 63.1825 171.427H63.9755ZM68.2525 167.683C68.2785 166.76 68.2785 165.811 68.2785 164.797H66.8485C66.8485 165.811 66.8485 166.773 66.8355 167.683H65.7045V169.1H66.7965C66.6795 171.791 66.2895 173.962 64.9635 175.47C65.1455 174.755 65.2365 173.351 65.3275 170.673C65.3405 170.504 65.3535 170.127 65.3535 170.127H63.2475C63.2605 169.763 63.2735 169.399 63.2735 169.022H65.4055V167.67H60.9725V166.708H65.7825V165.304H59.5815V170.101C59.5815 171.921 59.5165 174.352 58.7365 176.003C59.0745 176.133 59.7245 176.51 59.9975 176.744C60.8555 174.937 60.9725 172.077 60.9725 170.088V169.022H61.8695C61.8305 171.986 61.7135 174.352 60.3485 175.808C60.6865 176.029 61.1285 176.51 61.3365 176.861C61.7785 176.393 62.1165 175.86 62.3765 175.262C62.5715 175.6 62.6755 176.094 62.7015 176.458C63.1955 176.484 63.6635 176.471 63.9495 176.419C64.2875 176.367 64.5345 176.25 64.7555 175.938C64.7945 175.886 64.8335 175.834 64.8595 175.769C65.1975 176.003 65.6265 176.445 65.8085 176.757C67.5115 174.976 68.0315 172.337 68.2005 169.1H69.2145C69.1365 173.247 69.0195 174.768 68.7725 175.119C68.6425 175.301 68.5385 175.34 68.3435 175.34C68.1095 175.34 67.6545 175.34 67.1735 175.301C67.4075 175.704 67.5505 176.289 67.5635 176.705C68.1615 176.718 68.7205 176.731 69.0845 176.653C69.5005 176.575 69.7735 176.445 70.0465 176.029C70.4365 175.47 70.5405 173.598 70.6445 168.346C70.6445 168.164 70.6575 167.683 70.6575 167.683H68.2525Z" fill="#A9A9A9"/>
<path fill-rule="evenodd" clip-rule="evenodd" d="M236.165 157.638C236.165 159.048 235.021 160.191 233.611 160.191C232.2 160.191 231.058 159.048 231.058 157.638C231.058 156.227 232.2 155.084 233.611 155.084C235.021 155.084 236.165 156.227 236.165 157.638Z" fill="#B4B4B5"/>
<path d="M315.059 304.48H5.01074" stroke="black" stroke-width="1.3"/>
<path d="M9.40406 321.5H11.3281V313.479H14.0581V311.88H6.70006V313.479H9.40406V321.5ZM15.6402 321.5H21.6852V319.888H17.5642V317.314H20.9442V315.702H17.5642V313.479H21.5422V311.88H15.6402V321.5ZM23.6603 321.5H29.7053V319.888H25.5843V317.314H28.9643V315.702H25.5843V313.479H29.5623V311.88H23.6603V321.5ZM34.4365 319.706H33.1755V316.443H34.4365V319.706ZM42.9775 312.231H40.8585L40.9495 312.192C40.7415 311.711 40.3255 310.983 39.9485 310.437L38.5575 310.983C38.7915 311.36 39.0515 311.815 39.2465 312.231H36.5815V315.832C36.5815 317.353 36.5035 319.329 35.7625 320.915V315.091H33.2925C33.5655 314.246 33.7995 313.349 33.9685 312.465H36.0485V311.061H31.0435V312.465H32.5255C32.1875 314.181 31.6545 315.767 30.8485 316.846C31.0565 317.288 31.3295 318.302 31.3945 318.731C31.5635 318.536 31.7195 318.315 31.8755 318.094V322.02H33.1755V321.058H35.6975C35.5675 321.318 35.4245 321.552 35.2555 321.773C35.6325 321.955 36.3085 322.41 36.5945 322.683C37.9205 320.837 38.1415 317.886 38.1415 315.845V313.713H42.9775V312.231ZM50.8646 320.174V313.453H55.2326V311.841H44.8456V313.453H49.0966V320.174H44.1436V321.734H55.9606V320.174H50.8646Z" fill="#A9A9A9"/>
<path d="M232.862 229.558H5.00977" stroke="black" stroke-width="1.3"/>
<path d="M10.6391 237.441C10.1061 237.09 9.02706 236.518 8.32506 236.154L7.46706 237.285C8.18206 237.688 9.23506 238.312 9.72906 238.702L10.6391 237.441ZM9.91106 240.886C9.36506 240.522 8.27306 239.989 7.55806 239.664L6.70006 240.808C7.45406 241.198 8.52006 241.783 9.01406 242.173L9.91106 240.886ZM9.06606 243.018C8.41606 244.526 7.57106 246.164 6.94706 247.165L8.32506 248.088C8.98806 246.827 9.70306 245.332 10.2751 243.941L9.06606 243.018ZM11.4321 246.944C11.9781 245.618 12.2251 244.071 12.3031 242.667C12.7581 243.759 13.3041 244.721 14.0061 245.566C13.2521 246.164 12.3811 246.632 11.4321 246.944ZM13.8501 239.222V241.029H12.3551V239.222H13.8501ZM16.2291 242.394C15.9431 243.2 15.5401 243.915 15.0331 244.513C14.4871 243.889 14.0321 243.174 13.6811 242.394H16.2291ZM17.1261 240.977L16.8531 241.029H15.3841V239.222H16.9441C16.8011 239.677 16.6321 240.106 16.4891 240.405L17.8281 240.795C18.2051 240.093 18.6081 238.988 18.8811 238L17.7631 237.727L17.5031 237.792H15.3841V236.076H13.8501V237.792H10.8731V241.107C10.8731 242.992 10.7561 245.618 9.44306 247.438C9.82006 247.581 10.4701 247.971 10.7431 248.205C11.0031 247.841 11.2371 247.425 11.4191 246.983C11.7181 247.282 12.1731 247.906 12.3681 248.244C13.3561 247.867 14.2661 247.334 15.0721 246.632C15.8911 247.308 16.8271 247.854 17.9321 248.218C18.1401 247.828 18.5951 247.217 18.9201 246.905C17.8541 246.606 16.9181 246.125 16.1251 245.54C17.0091 244.435 17.6851 243.057 18.0881 241.393L17.1261 240.977ZM31.7472 242.199V240.665H26.3002V239.105H30.5122V237.623H26.3002V236.076H24.6622V240.665H19.9692V242.199H24.7272V248.218H26.3782V244.539C27.7042 245.098 29.4982 245.891 30.3822 246.372L31.2402 244.981C30.2262 244.487 28.2112 243.707 26.9242 243.213L26.3782 244.032V242.199H31.7472ZM38.0873 243.135C37.8273 242.888 36.8913 241.978 36.3583 241.51C36.9563 240.678 37.4893 239.742 37.8533 238.793L37.0343 238.195L36.7743 238.26H35.5653L36.5923 237.662C36.3583 237.194 35.8643 236.518 35.4093 236.024L34.1873 236.661C34.5903 237.142 35.0063 237.779 35.2403 238.26H32.9653V239.651H35.9293C35.1493 241.029 33.8883 242.303 32.5883 243.018C32.7703 243.304 33.0693 244.162 33.1733 244.591C33.6803 244.292 34.1613 243.889 34.6553 243.447V248.231H36.1763V243.161C36.5403 243.603 36.9043 244.084 37.1253 244.422L38.0873 243.135ZM42.1433 246.294V241.471H44.6003V239.976H42.1433V236.167H40.5443V239.976H37.9833V241.471H40.5443V246.294H37.4113V247.828H44.9123V246.294H42.1433ZM47.9894 246.385V238.143H57.4534V236.661H46.4814V247.867H57.7914V246.385H47.9894ZM56.5694 244.643C55.9194 243.928 54.9444 243.044 53.8654 242.147C54.7364 241.211 55.5164 240.197 56.1664 239.131L54.6974 238.546C54.1514 239.469 53.4884 240.353 52.7084 241.185C51.7334 240.379 50.7324 239.612 49.8874 238.949L48.8084 239.898C49.6924 240.587 50.6804 241.406 51.6424 242.238C50.6024 243.174 49.4584 244.006 48.2754 244.617C48.6264 244.903 49.1984 245.501 49.4584 245.813C50.5894 245.124 51.7204 244.253 52.7864 243.239C53.8264 244.188 54.7624 245.085 55.3604 245.787L56.5694 244.643ZM68.6165 238.273V238.845H67.1215V238.273H68.6165ZM68.6165 240.587H67.1215V240.028H68.6165V240.587ZM65.6655 238.845H62.7405V240.028H65.6655V240.587H63.3905V241.757H65.6655V242.381H63.3125V243.499H65.6655V244.136H62.7925V245.358H65.6655V246.242H67.1215V245.358H70.5275V244.136H67.1215V243.499H70.0985V242.381H67.1215V241.757H69.9685V240.028H70.6835V238.845H69.9685V237.103H67.1215V236.128H65.6655V237.103H63.4555V238.273H65.6655V238.845ZM62.0775 240.431L61.8175 240.457H61.5055C62.0515 239.339 62.6625 237.974 63.1565 236.804H59.1525V238.143H61.0765C60.5305 239.443 59.8675 240.834 59.3475 241.796H61.4275C61.3105 242.667 61.1545 243.434 60.9205 244.097C60.6735 243.681 60.4525 243.174 60.2835 242.589L59.1525 242.966C59.4645 243.993 59.8545 244.812 60.2965 245.488C59.8805 246.203 59.3735 246.775 58.7495 247.204C59.0745 247.386 59.6465 247.919 59.8675 248.218C60.4135 247.802 60.8945 247.269 61.2975 246.593C62.6365 247.698 64.4175 247.984 66.6015 247.984H70.4235C70.5145 247.568 70.7485 246.892 70.9695 246.567C70.0855 246.606 67.3945 246.606 66.6405 246.606C64.7295 246.593 63.1175 246.372 61.9215 245.345C62.4285 244.097 62.7665 242.537 62.9355 240.626L62.0775 240.431ZM78.9606 237.935H80.7026V239.326C80.7026 240.613 80.9626 241.159 82.2496 241.159H83.0816C83.3546 241.159 83.6796 241.146 83.8876 241.055C83.8226 240.704 83.7966 240.171 83.7706 239.781C83.5886 239.833 83.2636 239.872 83.0556 239.872H82.3796C82.1976 239.872 82.1716 239.716 82.1716 239.339V236.505H77.5176V237.909C77.5176 238.806 77.3226 239.742 75.6846 240.444C75.9706 240.652 76.5296 241.263 76.7116 241.562C78.5576 240.704 78.9606 239.248 78.9606 237.961V237.935ZM75.8276 238.221C75.3986 237.662 74.4366 236.817 73.7476 236.245L72.7596 237.194C73.4486 237.805 74.3586 238.715 74.7746 239.287L75.8276 238.221ZM74.9436 245.007V240.08H71.9016V241.562H73.4486V245.462C73.4486 246.086 73.0846 246.528 72.7986 246.736C73.0586 247.035 73.4616 247.672 73.5786 248.049C73.8126 247.737 74.2416 247.373 76.6466 245.332C76.4516 245.059 76.1916 244.474 76.0616 244.058L74.9436 245.007ZM81.3266 243.148C80.9366 243.876 80.4166 244.5 79.8056 245.02C79.1426 244.487 78.5966 243.85 78.2196 243.148H81.3266ZM82.3536 241.64L82.0936 241.705H76.3736V243.148H77.3096L76.7766 243.33C77.2446 244.292 77.8556 245.124 78.5706 245.839C77.6736 246.333 76.6336 246.658 75.5026 246.866C75.7496 247.191 76.0616 247.802 76.2046 248.205C77.5176 247.893 78.7266 247.451 79.7666 246.814C80.7156 247.464 81.8336 247.932 83.1206 248.244C83.3156 247.815 83.7316 247.204 84.0696 246.866C82.9256 246.645 81.9246 246.307 81.0536 245.839C82.0546 244.903 82.8216 243.668 83.2896 242.056L82.3536 241.64ZM88.9277 241.38H90.8127V239.95H88.9277V237.961C89.6167 237.805 90.2927 237.623 90.8647 237.415L89.8637 236.206C88.6807 236.674 86.7827 237.09 85.0927 237.324C85.2617 237.662 85.4437 238.182 85.5087 238.533C86.1067 238.455 86.7307 238.364 87.3677 238.26V239.95H85.0537V241.38H86.9907C86.4837 242.81 85.6517 244.305 84.7677 245.241C85.0277 245.631 85.4047 246.242 85.5477 246.697C86.2367 245.93 86.8477 244.812 87.3677 243.59V248.218H88.9277V243.421C89.3567 244.032 89.7727 244.682 90.0197 245.124L90.9037 243.837C90.6177 243.486 89.4477 242.121 88.9277 241.601V241.38ZM92.6717 245.098V238.793H94.7517V245.098H92.6717ZM91.1507 237.311V247.607H92.6717V246.58H94.7517V247.516H96.3507V237.311H91.1507ZM109.88 242.368H104.771V238.429H109.126V236.895H98.7778V238.429H103.159V242.368H98.1018V243.941H103.159V248.231H104.771V243.941H109.88V242.368ZM99.5708 239.261C99.9868 240.132 100.39 241.276 100.52 241.965L102.028 241.497C101.885 240.769 101.417 239.677 100.988 238.845L99.5708 239.261ZM107.163 241.939C107.592 241.276 108.125 240.223 108.593 239.222L106.942 238.806C106.695 239.651 106.227 240.795 105.811 241.549L107.163 241.939ZM122.616 236.83H116.298V238.299H122.616V236.83ZM113.802 236.089C113.178 236.999 111.943 238.169 110.864 238.858C111.137 239.157 111.527 239.781 111.722 240.119C112.957 239.261 114.361 237.922 115.297 236.7L113.802 236.089ZM114.296 238.897C113.464 240.366 112.047 241.874 110.721 242.784C111.033 243.109 111.553 243.811 111.774 244.123C112.125 243.837 112.476 243.512 112.84 243.161V248.244H114.387V241.458C114.907 240.808 115.388 240.132 115.778 239.469L114.296 238.897ZM122.941 240.405H115.752V241.874H119.587V246.398C119.587 246.593 119.496 246.645 119.262 246.645C119.028 246.658 118.17 246.658 117.429 246.619C117.637 247.061 117.832 247.737 117.897 248.192C119.054 248.192 119.886 248.166 120.432 247.932C121.004 247.698 121.16 247.269 121.16 246.437V241.874H122.941V240.405ZM132.791 241.887V243.109H130.386V244.461H132.791V246.203H134.234V244.461H136.015V243.109H134.234V241.887H135.664V240.626H134.234V239.261H132.791V240.626H132.024C132.258 240.08 132.518 239.456 132.752 238.819H135.885V237.467H133.194C133.311 237.077 133.402 236.7 133.493 236.31L131.959 236.037C131.894 236.518 131.803 236.999 131.699 237.467H130.321V238.819H131.361C131.205 239.326 131.062 239.729 130.984 239.911C130.789 240.366 130.62 240.691 130.386 240.756C130.542 241.133 130.763 241.809 130.841 242.095C130.958 241.965 131.426 241.887 131.881 241.887H132.791ZM130.009 238.988C129.853 238.273 129.502 237.22 129.19 236.401L127.916 236.778C128.215 237.597 128.54 238.702 128.67 239.417L130.009 238.988ZM126.681 245.553V243.733H127.916V242.42H126.681V241.068H127.552V239.768H125.017C125.238 239.43 125.433 239.079 125.628 238.689H127.864V237.363H126.148C126.252 237.064 126.343 236.778 126.421 236.492L125.147 236.128C124.861 237.246 124.406 238.351 123.808 239.092C124.029 239.417 124.393 240.171 124.497 240.483C124.575 240.405 124.666 240.301 124.731 240.184V241.068H125.329V242.42H124.172V243.733H125.329V245.774C125.329 246.463 124.952 246.944 124.679 247.165C124.913 247.36 125.29 247.88 125.42 248.153C125.42 248.127 125.42 248.101 125.433 248.075L125.446 248.153C125.654 247.88 126.018 247.555 128.072 246.034C127.916 245.774 127.721 245.228 127.63 244.851L126.681 245.553ZM130.022 240.301H127.877V241.692H128.631V245.774C128.215 246.008 127.786 246.372 127.396 246.788L128.345 248.231C128.722 247.581 129.229 246.814 129.541 246.814C129.788 246.814 130.178 247.139 130.633 247.412C131.335 247.841 132.115 248.036 133.233 248.036C134.039 248.036 135.209 247.997 135.859 247.945C135.872 247.555 136.067 246.801 136.197 246.398C135.352 246.515 134.026 246.593 133.246 246.593C132.245 246.593 131.439 246.476 130.789 246.086C130.477 245.904 130.243 245.722 130.022 245.605V240.301ZM141.341 241.601L140.093 241.913V240.067H141.38V238.559H140.093V236.102H138.507V238.559H137.038V240.067H138.507V242.303C137.896 242.446 137.337 242.576 136.869 242.667L137.207 244.24L138.507 243.915V246.528C138.507 246.697 138.455 246.749 138.286 246.762C138.13 246.762 137.662 246.762 137.207 246.749C137.402 247.165 137.597 247.802 137.649 248.205C138.52 248.218 139.105 248.166 139.534 247.919C139.963 247.672 140.093 247.282 140.093 246.541V243.486C140.574 243.356 141.055 243.226 141.523 243.096L141.341 241.601ZM143.434 246.034V243.629H146.918V246.034H143.434ZM146.918 239.846V242.173H143.434V239.846H146.918ZM145.618 238.39C145.865 237.753 146.112 237.025 146.333 236.31L144.487 236.115C144.409 236.791 144.227 237.662 144.032 238.39H141.9V248.153H143.434V247.503H146.918V248.075H148.53V238.39H145.618ZM152.53 241.627C153.336 241.9 154.324 242.394 154.805 242.771L155.611 241.809C155.091 241.458 154.103 241.003 153.323 240.769H159.758C159.537 241.159 159.303 241.523 159.082 241.796L160.239 242.485C160.824 241.796 161.435 240.769 161.89 239.833L160.785 239.378L160.538 239.456H156.885V238.611H160.915V237.298H156.885V236.154H155.299V237.298H151.386V238.611H155.299V239.456H150.541V240.769H153.271L152.53 241.627ZM161.734 245.098V243.759H157.223C157.418 242.979 157.509 242.082 157.574 241.107H155.962C155.897 242.134 155.819 243.018 155.598 243.759H153.466L154.103 242.94C153.57 242.563 152.569 242.147 151.776 241.939L151.087 242.849C151.763 243.057 152.608 243.434 153.115 243.759H150.359V245.098H154.883C154.103 245.982 152.751 246.593 150.268 246.983C150.554 247.308 150.918 247.893 151.035 248.296C154.363 247.698 155.962 246.658 156.755 245.098H161.734ZM156.521 246.567C158.263 247.009 160.096 247.659 161.188 248.218L162.046 246.931C160.876 246.424 158.939 245.8 157.184 245.41L156.521 246.567Z" fill="#A9A9A9"/>
<path fill-rule="evenodd" clip-rule="evenodd" d="M224.087 161.215C224.977 157.757 225.972 154.328 227.076 150.931L389.202 203.609L224.087 161.215Z" fill="#717071"/>
<path fill-rule="evenodd" clip-rule="evenodd" d="M224.087 161.215C224.977 157.757 225.972 154.328 227.076 150.931L389.202 203.609L224.087 161.215Z" stroke="#F0EFEE" stroke-width="2.6" stroke-linejoin="bevel"/>
<path d="M232.862 157.684H5.00977" stroke="black" stroke-width="1.3"/>
</g>
<path d="M7.0332 10.2206L6.1713 19.1048H8.5802C8.8896 18.5523 9.3095 18.1545 9.862 17.8893C10.3482 17.6462 10.9449 17.5357 11.63 17.5357C12.6466 17.5357 13.4422 17.823 13.9726 18.4418C14.503 19.0385 14.7903 19.8783 14.7903 20.9391C14.7903 21.9115 14.4588 22.685 13.84 23.2596C13.1991 23.8342 12.4035 24.1215 11.4753 24.1215C10.6134 24.1215 9.9283 23.9226 9.4421 23.569C8.8675 23.1491 8.536 22.5082 8.4255 21.6463H5.884C5.9945 23.1049 6.6133 24.2762 7.7625 25.1381C8.7791 25.9116 10.0167 26.3094 11.4532 26.3094C13.0223 26.3094 14.3704 25.8453 15.5196 24.9171C16.7572 23.8784 17.376 22.5524 17.376 20.917C17.376 19.2153 16.8898 17.8672 15.9616 16.8948C15.0334 15.9224 13.8179 15.4362 12.3372 15.4362C11.63 15.4362 10.9891 15.5467 10.4145 15.7677C9.7736 15.9887 9.2211 16.3423 8.7349 16.8285H8.6686L9.1106 12.4969H16.6467V10.2206H7.0332ZM34.9541 17.3589C33.7165 17.3589 32.7441 17.7788 32.0811 18.6628C31.4623 19.4142 31.175 20.4308 31.175 21.6905C31.175 22.9281 31.4623 23.9226 32.0811 24.7182C32.7441 25.558 33.7165 26 34.9541 26C36.1917 26 37.142 25.558 37.805 24.7182C38.3796 23.9447 38.689 22.9281 38.689 21.6905C38.689 20.4308 38.3796 19.4142 37.805 18.6628C37.142 17.7788 36.1917 17.3589 34.9541 17.3589ZM32.6999 9.9112L23.8378 26.3094H25.7605L34.6226 9.9112H32.6999ZM23.5505 10.2206C22.3129 10.2206 21.3405 10.6405 20.6775 11.5245C20.0587 12.2759 19.7714 13.2925 19.7714 14.5522C19.7714 15.7898 20.0587 16.7843 20.6775 17.5799C21.3405 18.4197 22.3129 18.8617 23.5505 18.8617C24.7881 18.8617 25.7384 18.4197 26.4014 17.5799C26.976 16.8064 27.2854 15.7898 27.2854 14.5522C27.2854 13.2925 26.976 12.2759 26.4014 11.5245C25.7384 10.6405 24.7881 10.2206 23.5505 10.2206ZM34.9541 18.9722C35.4845 18.9722 35.8602 19.2595 36.0812 19.8562C36.258 20.2982 36.3464 20.8949 36.3464 21.6905C36.3464 22.4419 36.258 23.0386 36.1033 23.4806C35.8602 24.0773 35.4845 24.3867 34.9541 24.3867C34.4016 24.3867 34.0038 24.0994 33.7828 23.5248C33.606 23.0828 33.5176 22.464 33.5176 21.6905C33.5176 20.8949 33.606 20.2761 33.7828 19.8341C34.0038 19.2595 34.4016 18.9722 34.9541 18.9722ZM23.5505 11.8339C24.0809 11.8339 24.4566 12.1212 24.6776 12.7179C24.8544 13.1599 24.9428 13.7566 24.9428 14.5522C24.9428 15.3036 24.8544 15.9003 24.6997 16.3423C24.4566 16.939 24.0809 17.2484 23.5505 17.2484C22.998 17.2484 22.6002 16.9611 22.3792 16.3865C22.2024 15.9445 22.114 15.3257 22.114 14.5522C22.114 13.7566 22.2024 13.1378 22.3792 12.6958C22.6002 12.1212 22.998 11.8339 23.5505 11.8339Z" fill="black"/>
<path d="M10.1272 70.0206C9.5968 70.5731 8.9338 71.0814 8.1382 71.5676C7.3426 72.0096 6.5912 72.319 5.884 72.4958V75.0594C7.3426 74.6395 8.536 73.9986 9.4863 73.1367V85.8H12.072V70.0206H10.1272ZM16.0707 70.0206L15.2088 78.9048H17.6177C17.9271 78.3523 18.347 77.9545 18.8995 77.6893C19.3857 77.4462 19.9824 77.3357 20.6675 77.3357C21.6841 77.3357 22.4797 77.623 23.0101 78.2418C23.5405 78.8385 23.8278 79.6783 23.8278 80.7391C23.8278 81.7115 23.4963 82.485 22.8775 83.0596C22.2366 83.6342 21.441 83.9215 20.5128 83.9215C19.6509 83.9215 18.9658 83.7226 18.4796 83.369C17.905 82.9491 17.5735 82.3082 17.463 81.4463H14.9215C15.032 82.9049 15.6508 84.0762 16.8 84.9381C17.8166 85.7116 19.0542 86.1094 20.4907 86.1094C22.0598 86.1094 23.4079 85.6453 24.5571 84.7171C25.7947 83.6784 26.4135 82.3524 26.4135 80.717C26.4135 79.0153 25.9273 77.6672 24.9991 76.6948C24.0709 75.7224 22.8554 75.2362 21.3747 75.2362C20.6675 75.2362 20.0266 75.3467 19.452 75.5677C18.8111 75.7887 18.2586 76.1423 17.7724 76.6285H17.7061L18.1481 72.2969H25.6842V70.0206H16.0707ZM43.9917 77.1589C42.7541 77.1589 41.7817 77.5788 41.1187 78.4628C40.4999 79.2142 40.2126 80.2308 40.2126 81.4905C40.2126 82.7281 40.4999 83.7226 41.1187 84.5182C41.7817 85.358 42.7541 85.8 43.9917 85.8C45.2293 85.8 46.1796 85.358 46.8426 84.5182C47.4172 83.7447 47.7266 82.7281 47.7266 81.4905C47.7266 80.2308 47.4172 79.2142 46.8426 78.4628C46.1796 77.5788 45.2293 77.1589 43.9917 77.1589ZM41.7375 69.7112L32.8754 86.1094H34.7981L43.6602 69.7112H41.7375ZM32.5881 70.0206C31.3505 70.0206 30.3781 70.4405 29.7151 71.3245C29.0963 72.0759 28.809 73.0925 28.809 74.3522C28.809 75.5898 29.0963 76.5843 29.7151 77.3799C30.3781 78.2197 31.3505 78.6617 32.5881 78.6617C33.8257 78.6617 34.776 78.2197 35.439 77.3799C36.0136 76.6064 36.323 75.5898 36.323 74.3522C36.323 73.0925 36.0136 72.0759 35.439 71.3245C34.776 70.4405 33.8257 70.0206 32.5881 70.0206ZM43.9917 78.7722C44.5221 78.7722 44.8978 79.0595 45.1188 79.6562C45.2956 80.0982 45.384 80.6949 45.384 81.4905C45.384 82.2419 45.2956 82.8386 45.1409 83.2806C44.8978 83.8773 44.5221 84.1867 43.9917 84.1867C43.4392 84.1867 43.0414 83.8994 42.8204 83.3248C42.6436 82.8828 42.5552 82.264 42.5552 81.4905C42.5552 80.6949 42.6436 80.0761 42.8204 79.6341C43.0414 79.0595 43.4392 78.7722 43.9917 78.7722ZM32.5881 71.6339C33.1185 71.6339 33.4942 71.9212 33.7152 72.5179C33.892 72.9599 33.9804 73.5566 33.9804 74.3522C33.9804 75.1036 33.892 75.7003 33.7373 76.1423C33.4942 76.739 33.1185 77.0484 32.5881 77.0484C32.0356 77.0484 31.6378 76.7611 31.4168 76.1865C31.24 75.7445 31.1516 75.1257 31.1516 74.3522C31.1516 73.5566 31.24 72.9378 31.4168 72.4958C31.6378 71.9212 32.0356 71.6339 32.5881 71.6339Z" fill="black"/>
<path d="M10.1272 133.721C9.5968 134.273 8.9338 134.781 8.1382 135.268C7.3426 135.71 6.5912 136.019 5.884 136.196V138.759C7.3426 138.339 8.536 137.699 9.4863 136.837V149.5H12.072V133.721H10.1272ZM30.7672 140.859C29.5296 140.859 28.5572 141.279 27.8942 142.163C27.2754 142.914 26.9881 143.931 26.9881 145.19C26.9881 146.428 27.2754 147.423 27.8942 148.218C28.5572 149.058 29.5296 149.5 30.7672 149.5C32.0048 149.5 32.9551 149.058 33.6181 148.218C34.1927 147.445 34.5021 146.428 34.5021 145.19C34.5021 143.931 34.1927 142.914 33.6181 142.163C32.9551 141.279 32.0048 140.859 30.7672 140.859ZM28.513 133.411L19.6509 149.809H21.5736L30.4357 133.411H28.513ZM19.3636 133.721C18.126 133.721 17.1536 134.14 16.4906 135.024C15.8718 135.776 15.5845 136.792 15.5845 138.052C15.5845 139.29 15.8718 140.284 16.4906 141.08C17.1536 141.92 18.126 142.362 19.3636 142.362C20.6012 142.362 21.5515 141.92 22.2145 141.08C22.7891 140.306 23.0985 139.29 23.0985 138.052C23.0985 136.792 22.7891 135.776 22.2145 135.024C21.5515 134.14 20.6012 133.721 19.3636 133.721ZM30.7672 142.472C31.2976 142.472 31.6733 142.759 31.8943 143.356C32.0711 143.798 32.1595 144.395 32.1595 145.19C32.1595 145.942 32.0711 146.539 31.9164 146.981C31.6733 147.577 31.2976 147.887 30.7672 147.887C30.2147 147.887 29.8169 147.599 29.5959 147.025C29.4191 146.583 29.3307 145.964 29.3307 145.19C29.3307 144.395 29.4191 143.776 29.5959 143.334C29.8169 142.759 30.2147 142.472 30.7672 142.472ZM19.3636 135.334C19.894 135.334 20.2697 135.621 20.4907 136.218C20.6675 136.66 20.7559 137.257 20.7559 138.052C20.7559 138.804 20.6675 139.4 20.5128 139.842C20.2697 140.439 19.894 140.748 19.3636 140.748C18.8111 140.748 18.4133 140.461 18.1923 139.886C18.0155 139.444 17.9271 138.826 17.9271 138.052C17.9271 137.257 18.0155 136.638 18.1923 136.196C18.4133 135.621 18.8111 135.334 19.3636 135.334Z" fill="black"/>
<path d="M11.4532 206.211C9.862 206.211 8.536 206.719 7.4752 207.758C6.4144 208.775 5.884 210.079 5.884 211.67C5.884 213.217 6.326 214.477 7.2542 215.449C8.1824 216.466 9.4421 216.974 10.9891 216.974C11.7847 216.974 12.4919 216.819 13.1107 216.532C13.7516 216.222 14.3041 215.736 14.7682 215.095H14.8787V215.294C14.8787 216.753 14.5693 217.968 13.9726 218.941C13.3317 219.957 12.4919 220.488 11.4532 220.488C9.9283 220.488 9.0222 219.758 8.7128 218.3H6.1934C6.5691 221.173 8.315 222.609 11.4311 222.609C13.2433 222.609 14.7019 221.814 15.7848 220.223C16.8456 218.631 17.3981 216.532 17.3981 213.968C17.3981 211.537 16.8898 209.659 15.8732 208.289C14.8566 206.896 13.3759 206.211 11.4532 206.211ZM11.5416 208.355C12.4256 208.355 13.177 208.642 13.7516 209.217C14.3262 209.791 14.6135 210.565 14.6135 211.581C14.6135 212.598 14.3262 213.394 13.7958 213.99C13.2433 214.565 12.4919 214.874 11.5416 214.874C10.5692 214.874 9.8178 214.565 9.2874 213.99C8.7128 213.416 8.4476 212.642 8.4476 211.67C8.4476 210.697 8.7128 209.902 9.2874 209.283C9.862 208.664 10.6134 208.355 11.5416 208.355ZM34.9541 213.659C33.7165 213.659 32.7441 214.079 32.0811 214.963C31.4623 215.714 31.175 216.731 31.175 217.99C31.175 219.228 31.4623 220.223 32.0811 221.018C32.7441 221.858 33.7165 222.3 34.9541 222.3C36.1917 222.3 37.142 221.858 37.805 221.018C38.3796 220.245 38.689 219.228 38.689 217.99C38.689 216.731 38.3796 215.714 37.805 214.963C37.142 214.079 36.1917 213.659 34.9541 213.659ZM32.6999 206.211L23.8378 222.609H25.7605L34.6226 206.211H32.6999ZM23.5505 206.521C22.3129 206.521 21.3405 206.94 20.6775 207.824C20.0587 208.576 19.7714 209.592 19.7714 210.852C19.7714 212.09 20.0587 213.084 20.6775 213.88C21.3405 214.72 22.3129 215.162 23.5505 215.162C24.7881 215.162 25.7384 214.72 26.4014 213.88C26.976 213.106 27.2854 212.09 27.2854 210.852C27.2854 209.592 26.976 208.576 26.4014 207.824C25.7384 206.94 24.7881 206.521 23.5505 206.521ZM34.9541 215.272C35.4845 215.272 35.8602 215.559 36.0812 216.156C36.258 216.598 36.3464 217.195 36.3464 217.99C36.3464 218.742 36.258 219.339 36.1033 219.781C35.8602 220.377 35.4845 220.687 34.9541 220.687C34.4016 220.687 34.0038 220.399 33.7828 219.825C33.606 219.383 33.5176 218.764 33.5176 217.99C33.5176 217.195 33.606 216.576 33.7828 216.134C34.0038 215.559 34.4016 215.272 34.9541 215.272ZM23.5505 208.134C24.0809 208.134 24.4566 208.421 24.6776 209.018C24.8544 209.46 24.9428 210.057 24.9428 210.852C24.9428 211.604 24.8544 212.2 24.6997 212.642C24.4566 213.239 24.0809 213.548 23.5505 213.548C22.998 213.548 22.6002 213.261 22.3792 212.686C22.2024 212.244 22.114 211.626 22.114 210.852C22.114 210.057 22.2024 209.438 22.3792 208.996C22.6002 208.421 22.998 208.134 23.5505 208.134Z" fill="black"/>
<path d="M5.663 280.621V282.963H13.7295L8.0719 296.4H10.8123L16.3373 282.698V280.621H5.663ZM23.8185 280.311C21.9621 280.311 20.5256 281.063 19.509 282.61C18.5366 284.068 18.0504 286.035 18.0504 288.51C18.0504 290.986 18.5366 292.952 19.509 294.411C20.5256 295.936 21.9621 296.709 23.8185 296.709C25.6528 296.709 27.0893 295.936 28.128 294.411C29.1004 292.952 29.5866 290.986 29.5866 288.51C29.5866 286.035 29.1004 284.068 28.128 282.61C27.0893 281.063 25.6528 280.311 23.8185 280.311ZM23.8185 282.499C25.0561 282.499 25.9401 283.184 26.4705 284.599C26.8241 285.549 27.0009 286.853 27.0009 288.51C27.0009 290.146 26.8241 291.45 26.4705 292.422C25.9401 293.814 25.0561 294.522 23.8185 294.522C22.5588 294.522 21.6748 293.814 21.1665 292.422C20.8129 291.45 20.6361 290.146 20.6361 288.51C20.6361 286.853 20.8129 285.549 21.1665 284.599C21.6748 283.184 22.5588 282.499 23.8185 282.499ZM47.1426 287.759C45.905 287.759 44.9326 288.179 44.2696 289.063C43.6508 289.814 43.3635 290.831 43.3635 292.091C43.3635 293.328 43.6508 294.323 44.2696 295.118C44.9326 295.958 45.905 296.4 47.1426 296.4C48.3802 296.4 49.3305 295.958 49.9935 295.118C50.5681 294.345 50.8775 293.328 50.8775 292.091C50.8775 290.831 50.5681 289.814 49.9935 289.063C49.3305 288.179 48.3802 287.759 47.1426 287.759ZM44.8884 280.311L36.0263 296.709H37.949L46.8111 280.311H44.8884ZM35.739 280.621C34.5014 280.621 33.529 281.041 32.866 281.925C32.2472 282.676 31.9599 283.693 31.9599 284.952C31.9599 286.19 32.2472 287.184 32.866 287.98C33.529 288.82 34.5014 289.262 35.739 289.262C36.9766 289.262 37.9269 288.82 38.5899 287.98C39.1645 287.206 39.4739 286.19 39.4739 284.952C39.4739 283.693 39.1645 282.676 38.5899 281.925C37.9269 281.041 36.9766 280.621 35.739 280.621ZM47.1426 289.372C47.673 289.372 48.0487 289.66 48.2697 290.256C48.4465 290.698 48.5349 291.295 48.5349 292.091C48.5349 292.842 48.4465 293.439 48.2918 293.881C48.0487 294.477 47.673 294.787 47.1426 294.787C46.5901 294.787 46.1923 294.499 45.9713 293.925C45.7945 293.483 45.7061 292.864 45.7061 292.091C45.7061 291.295 45.7945 290.676 45.9713 290.234C46.1923 289.66 46.5901 289.372 47.1426 289.372ZM35.739 282.234C36.2694 282.234 36.6451 282.521 36.8661 283.118C37.0429 283.56 37.1313 284.157 37.1313 284.952C37.1313 285.704 37.0429 286.3 36.8882 286.742C36.6451 287.339 36.2694 287.648 35.739 287.648C35.1865 287.648 34.7887 287.361 34.5677 286.787C34.3909 286.345 34.3025 285.726 34.3025 284.952C34.3025 284.157 34.3909 283.538 34.5677 283.096C34.7887 282.521 35.1865 282.234 35.739 282.234Z" fill="black"/>
<defs>
<clipPath id="clip0">
<rect width="556" height="342" fill="white" transform="translate(5 32.9)"/>
</clipPath>
</defs>
</svg>
