<?xml version="1.0" encoding="UTF-8"?>
<svg width="197px" height="29px" viewBox="0 0 197 29" version="1.1" xmlns="http://www.w3.org/2000/svg" xmlns:xlink="http://www.w3.org/1999/xlink">
    <title>bg</title>
    <g id="Page-1" stroke="none" stroke-width="1" fill="none" fill-rule="evenodd">
        <g id="bg" transform="translate(98.500000, 14.500000) scale(-1, 1) translate(-98.500000, -14.500000) " fill="#191919">
            <polygon id="Path" points="5 29 0 29 0 24 5 24"></polygon>
            <polygon id="Path" points="5 5 0 5 0 0 5 0"></polygon>
            <polygon id="Path" points="17 17 12 17 12 12 17 12"></polygon>
            <polygon id="Path" points="29 29 24 29 24 24 29 24"></polygon>
            <polygon id="Path" points="29 17 24 17 24 12 29 12"></polygon>
            <polygon id="Path" points="29 5 24 5 24 0 29 0"></polygon>
            <polygon id="Path" points="41 17 36 17 36 12 41 12"></polygon>
            <polygon id="Path" points="53 17 48 17 48 12 53 12"></polygon>
            <polygon id="Path" points="53 5 48 5 48 0 53 0"></polygon>
            <polygon id="Path" points="65 29 36 29 36 24 65 24"></polygon>
            <polygon id="Path" points="77 29 72 29 72 24 77 24"></polygon>
            <polygon id="Path" points="77 17 72 17 72 12 77 12"></polygon>
            <polygon id="Path" points="77 5 72 5 72 0 77 0"></polygon>
            <polygon id="Path" points="89 29 84 29 84 24 89 24"></polygon>
            <polygon id="Path" points="113 17 84 17 84 12 113 12"></polygon>
            <polygon id="Path" points="89 5 84 5 84 0 89 0"></polygon>
            <polygon id="Path" points="101 5 96 5 96 0 101 0"></polygon>
            <polygon id="Path" points="125 17 120 17 120 12 125 12"></polygon>
            <polygon id="Path" points="137 29 120 29 120 24 137 24"></polygon>
            <polygon id="Path" points="137 17 132 17 132 12 137 12"></polygon>
            <polygon id="Path" points="149 5 132 5 132 0 149 0"></polygon>
            <polygon id="Path" points="161 29 156 29 156 24 161 24"></polygon>
            <polygon id="Path" points="161 5 156 5 156 0 161 0"></polygon>
            <polygon id="Path" points="173 29 168 29 168 24 173 24"></polygon>
            <polygon id="Path" points="173 17 144 17 144 12 173 12"></polygon>
            <polygon id="Path" points="185 17 180 17 180 12 185 12"></polygon>
            <polygon id="Path" points="197 29 192 29 192 24 197 24"></polygon>
        </g>
    </g>
</svg>