<svg width="60" height="60" viewBox="0 0 60 60" fill="none" xmlns="http://www.w3.org/2000/svg">
<g clip-path="url(#clip0)">
<g filter="url(#filter0_d)">
<rect x="-19" y="-29" width="465" height="218" fill="white"/>
<rect x="-18.5" y="-28.5" width="464" height="217" stroke="#ECECEC"/>
</g>
<path fill-rule="evenodd" clip-rule="evenodd" d="M42.7148 9.38965H48.8672H51.0645V59.9268H0.0146484V9.38965H8.36426V8.14453C8.36426 7.41211 9.02344 6.82617 9.75586 6.82617H16.9336C17.2998 5.1416 18.1787 3.75 19.2773 2.65137C20.8887 1.04004 23.0859 0.0146484 25.5029 0.0146484C27.9932 0.0146484 30.1904 1.04004 31.8018 2.65137C32.9736 3.82324 33.7793 5.21484 34.1455 6.82617H41.3965C42.1289 6.82617 42.7148 7.41211 42.7148 8.14453V9.38965ZM12.3926 23.5986C11.1475 23.5986 10.1221 24.624 10.1221 25.8691C10.1221 27.1143 11.1475 28.1396 12.3926 28.1396C13.6377 28.1396 14.6631 27.1143 14.6631 25.8691C14.6631 24.5508 13.6377 23.5986 12.3926 23.5986ZM10.1221 35.3174C10.1221 34.0723 11.1475 33.0469 12.3926 33.0469C13.6377 33.0469 14.6631 34.0723 14.6631 35.3174C14.6631 36.5625 13.6377 37.5879 12.3926 37.5879C11.1475 37.5879 10.1221 36.5625 10.1221 35.3174ZM10.1221 44.8389C10.1221 43.5938 11.1475 42.5684 12.3926 42.5684C13.6377 42.5684 14.6631 43.5938 14.6631 44.8389C14.6631 46.084 13.6377 47.1094 12.3926 47.1094C11.1475 47.1094 10.1221 46.084 10.1221 44.8389ZM21.9141 5.21484C23.0127 4.11621 23.8916 3.38379 25.5762 3.38379C27.2607 3.38379 28.1396 4.04297 29.2383 5.21484C29.6526 5.62916 29.7007 5.82376 29.7969 6.21295L29.7969 6.21298L29.797 6.21309L29.797 6.21311C29.8368 6.37428 29.8849 6.56883 29.9707 6.82617H21.1084C21.2313 6.53124 21.2882 6.32703 21.3345 6.16096C21.4261 5.83213 21.4761 5.65282 21.9141 5.21484ZM39.3457 13.125V10.1953H11.8066V13.125H39.3457ZM46.5967 55.3125H4.48242V13.8574H8.36426V15.1025C8.36426 15.835 8.9502 16.4209 9.75586 16.4209H41.3965C42.1289 16.4209 42.7148 15.835 42.7148 15.1025V13.8574H46.6699V55.3125H46.5967ZM19.1309 23.7451H38.6133C39.3457 23.7451 39.9316 25.0635 40.0049 25.7959C40.0049 26.5283 39.3457 27.8467 38.6133 27.8467H19.1309C18.3984 27.8467 17.8125 26.5283 17.8125 25.7959C17.8125 25.0635 18.3984 23.7451 19.1309 23.7451ZM38.6133 42.7881H19.1309C18.3984 42.7881 17.8125 44.1064 17.8125 44.8389C17.8125 45.5713 18.3984 46.8164 19.1309 46.8164H38.6133C39.3457 46.8164 40.0049 45.5713 40.0049 44.8389C39.9316 44.0332 39.3457 42.7881 38.6133 42.7881ZM19.1309 33.2666H38.6133C39.3457 33.2666 39.9316 34.585 40.0049 35.3174C40.0049 36.123 39.3457 37.3682 38.6133 37.3682H19.1309C18.3984 37.3682 17.8125 36.0498 17.8125 35.3174C17.8125 34.5117 18.3984 33.2666 19.1309 33.2666Z" fill="black"/>
</g>
<defs>
<filter id="filter0_d" x="-24" y="-34" width="475" height="228" filterUnits="userSpaceOnUse" color-interpolation-filters="sRGB">
<feFlood flood-opacity="0" result="BackgroundImageFix"/>
<feColorMatrix in="SourceAlpha" type="matrix" values="0 0 0 0 0 0 0 0 0 0 0 0 0 0 0 0 0 0 127 0"/>
<feOffset/>
<feGaussianBlur stdDeviation="2.5"/>
<feColorMatrix type="matrix" values="0 0 0 0 0 0 0 0 0 0 0 0 0 0 0 0 0 0 0.1 0"/>
<feBlend mode="normal" in2="BackgroundImageFix" result="effect1_dropShadow"/>
<feBlend mode="normal" in="SourceGraphic" in2="effect1_dropShadow" result="shape"/>
</filter>
<clipPath id="clip0">
<rect width="465" height="218" fill="white" transform="translate(-19 -29)"/>
</clipPath>
</defs>
</svg>
