<svg width="60" height="60" viewBox="0 0 60 60" fill="none" xmlns="http://www.w3.org/2000/svg">
<g clip-path="url(#clip0)">
<g filter="url(#filter0_d)">
<rect x="-19" y="-29" width="465" height="218" fill="white"/>
<rect x="-18.5" y="-28.5" width="464" height="217" stroke="#ECECEC"/>
</g>
<path fill-rule="evenodd" clip-rule="evenodd" d="M3.00006 6H50.9999H54V9.2727V46.9092V50.1819H50.9999H33.0001V56.7273H49.4996C50.2495 56.7273 50.9994 57.5457 50.9994 58.3637C50.9994 59.1821 50.2495 60 49.4996 60H4.49982C3.74994 60 3.00006 59.1821 3.00006 58.3637C3.00006 57.5457 3.74994 56.7273 4.49982 56.7273H20.9999V50.1819H3.00006H0V46.9092V9.2727V6H3.00006ZM24.4746 55.2539H29.6367V50.0237H24.4746V55.2539ZM49.9395 45.7617H4.21875V10.0605H49.9395V45.7617ZM13.7589 25.7379C13.0233 26.424 12.9874 27.5699 13.6825 28.2987L22.5466 37.5895C22.9073 37.9671 23.3946 38.158 23.8818 38.158C23.9963 38.158 24.1102 38.1479 24.2225 38.1268C24.657 38.0815 25.0773 37.8832 25.3937 37.5378L40.4341 21.0288C41.1128 20.2836 41.0505 19.1398 40.298 18.4701C39.5455 17.803 38.3875 17.8642 37.7067 18.6046L23.9161 33.7414L16.3529 25.8134C15.66 25.0872 14.4993 25.0513 13.7589 25.7379Z" fill="black"/>
</g>
<defs>
<filter id="filter0_d" x="-24" y="-34" width="475" height="228" filterUnits="userSpaceOnUse" color-interpolation-filters="sRGB">
<feFlood flood-opacity="0" result="BackgroundImageFix"/>
<feColorMatrix in="SourceAlpha" type="matrix" values="0 0 0 0 0 0 0 0 0 0 0 0 0 0 0 0 0 0 127 0"/>
<feOffset/>
<feGaussianBlur stdDeviation="2.5"/>
<feColorMatrix type="matrix" values="0 0 0 0 0 0 0 0 0 0 0 0 0 0 0 0 0 0 0.1 0"/>
<feBlend mode="normal" in2="BackgroundImageFix" result="effect1_dropShadow"/>
<feBlend mode="normal" in="SourceGraphic" in2="effect1_dropShadow" result="shape"/>
</filter>
<clipPath id="clip0">
<rect width="465" height="218" fill="white" transform="translate(-19 -29)"/>
</clipPath>
</defs>
</svg>
