<svg width="30" height="30" viewBox="0 0 30 30" fill="none" xmlns="http://www.w3.org/2000/svg">
<path fill-rule="evenodd" clip-rule="evenodd" d="M-30 215H590V-35H-30V215Z" fill="#F0EFEE"/>
<path d="M5.00178 24.0062H25.0054C25.558 24.0062 26.006 23.5583 26.006 23.0057C26.006 22.4531 25.558 22.0051 25.0054 22.0051H5.00178C4.44919 22.0051 4.00122 22.4531 4.00122 23.0057C4.00122 23.5583 4.44919 24.0062 5.00178 24.0062Z" fill="black"/>
<path fill-rule="evenodd" clip-rule="evenodd" d="M29.9529 17.6597L26.3577 2.53788C26.1433 1.637 25.3389 1.00088 24.4128 1H5.57386C4.64738 1 3.84094 1.63766 3.62714 2.53975L0.0543883 17.6597C0.0168791 17.8097 0 17.9654 0 18.1211V26.0055C0 27.112 0.896469 28.0066 2.00111 28.0066H28.0062C29.1127 28.0066 30.0073 27.1101 30.0073 26.0055V18.1229C30.0073 17.9673 29.9886 17.8116 29.9529 17.6616V17.6597ZM24.4128 3.00111L27.9781 18.0048H15.9451L15.951 17.9853C15.9773 17.8982 16.0033 17.8121 16.0033 17.7178V15.004C16.0005 14.8878 15.9777 14.773 15.9358 14.6646C19.3116 14.3589 22.0047 12.4215 22.0047 9.85591C22.0047 7.30904 19.3472 5.38107 16.0033 5.05474V3.00111H24.4128ZM20.0055 9.85591C20.0055 8.39493 17.8356 7.00147 15.0037 7.00147C12.1736 7.00147 10.0018 8.39493 10.0018 9.85591C10.0018 11.3169 12.1717 12.7104 15.0037 12.7104C17.8337 12.7104 20.0055 11.3169 20.0055 9.85591ZM5.57574 3.00111H14.004V5.05474C10.6601 5.37919 8.00258 7.30904 8.00258 9.85591C8.00258 12.4215 10.6957 14.3589 14.0716 14.6646C14.0299 14.7724 14.007 14.8866 14.004 15.0022V17.7178C14.004 17.8099 14.0289 17.8958 14.0531 17.9797L14.0603 18.0048H2.03112L5.57574 3.00111ZM2.00111 20.004V26.0055H28.0062V20.004H2.00111Z" fill="black"/>
</svg>
