<svg width="30" height="30" viewBox="0 0 30 30" fill="none" xmlns="http://www.w3.org/2000/svg">
<path fill-rule="evenodd" clip-rule="evenodd" d="M-30 94H590V-156H-30V94Z" fill="#F0EFEE"/>
<path fill-rule="evenodd" clip-rule="evenodd" d="M0.0148926 14.9606C0.0148926 6.72405 6.73626 0.0192448 15.0008 0.0187378C23.2673 0.0192448 29.9886 6.72405 29.9886 14.9606C29.9886 23.1975 23.263 29.9006 14.9999 29.9006C6.73677 29.9006 0.0148926 23.1975 0.0148926 14.9606ZM15.0008 0.0187378C15.0011 0.0187378 15.0015 0.0187378 15.0018 0.0187378H14.9999C15.0002 0.0187378 15.0005 0.0187378 15.0008 0.0187378ZM20.4243 3.30374C19.0686 3.71999 17.8049 4.19436 16.6461 4.72874C16.1981 4.28755 15.5949 4.03979 14.9661 4.03874C14.5761 4.03874 14.2986 4.10249 13.9724 4.26936C13.2085 3.65435 12.4096 3.08403 11.5799 2.56124C12.6905 2.23991 13.8419 2.08201 14.998 2.09249C16.8738 2.09277 18.7264 2.50632 20.4243 3.30374ZM12.7724 5.46936C11.4843 4.46624 10.3349 3.77061 9.51552 3.33186C7.30366 4.35859 5.43843 6.00687 4.14739 8.07561C4.54864 8.88186 5.35864 10.1981 6.17239 10.9875C6.52489 10.7831 6.97864 10.6631 7.41552 10.6631C7.72884 10.6771 8.03841 10.7371 8.33427 10.8412C9.60379 9.38932 11.0493 8.10127 12.6374 7.00686C12.5008 6.49438 12.5486 5.95021 12.7724 5.46936ZM3.26052 9.70686C3.64677 10.4944 4.18864 11.4075 5.15614 12.2175C5.04274 12.5336 4.98132 12.8661 4.97427 13.2019C4.97427 13.7587 5.11302 14.355 5.49177 14.7431C4.22427 16.5731 3.55489 18.6319 3.26239 20.2481C2.49364 18.66 2.13177 16.7906 2.13177 14.9494C2.13177 13.1062 2.52739 11.355 3.23239 9.77061C3.23107 9.77149 3.22769 9.77588 3.22425 9.78034C3.21303 9.79489 3.20124 9.81018 3.25864 9.70686H3.26052ZM6.84177 15.6094C5.24427 18.36 4.68177 20.8537 4.46052 22.3444L4.58239 22.4869C6.15552 24.675 8.02114 26.07 10.5561 27.0075C13.0649 23.4375 16.5355 20.8687 19.3349 19.5187C14.7599 18.9562 11.2386 17.3869 8.59114 15.4312C8.27052 15.6525 7.89927 15.6994 7.51302 15.6994C7.32552 15.6994 7.01427 15.6469 6.84177 15.6094ZM23.1055 24.9412L23.1057 24.9395L23.2161 24.8494C24.9074 23.4037 26.2311 21.7387 27.0336 19.5225C26.0774 19.8262 25.1755 19.8862 24.2436 19.8694C24.1011 20.4862 23.7055 20.9212 23.0811 21.1912C23.2086 22.3982 23.2592 23.6782 23.1057 24.9395L23.1036 24.9412H23.1055ZM12.4293 27.5419C14.9624 24.5419 18.2399 22.2019 20.3905 20.8687C20.6943 21.1312 21.1293 21.3712 21.5343 21.4537C21.6861 22.9256 21.5793 24.4237 21.418 26.0944C19.3311 27.2756 17.3811 27.8194 14.998 27.8194C14.038 27.8194 13.4286 27.7744 12.5286 27.5737L12.4293 27.5419ZM13.6068 8.41124C12.0299 9.51749 10.8093 10.5937 9.71427 11.835L9.71239 11.8331L9.64864 11.9569C9.87364 12.3244 9.98427 12.7387 9.98427 13.2019C9.99947 13.5092 9.93145 13.8149 9.78739 14.0869C12.2755 15.8775 15.4761 17.4262 19.7418 17.9175C19.8977 17.4483 20.2482 17.0691 20.7036 16.8769C19.6743 13.3875 17.8124 10.7156 15.9786 8.61186C15.6505 8.77874 15.3636 8.84624 14.9699 8.84624C14.4243 8.84624 14.0099 8.71499 13.6068 8.41124ZM27.8718 14.9531C27.8718 15.885 27.853 16.7756 27.5999 17.6044C26.6061 17.9212 25.4436 18.1969 24.268 18.1969C24.0093 17.3194 23.1955 16.6012 22.3499 16.5844C21.6074 12.7912 19.3349 9.52874 17.1936 7.35186C17.323 7.05561 17.3736 6.78561 17.3736 6.44249C17.3736 6.35995 17.362 6.28178 17.3503 6.20285L17.3455 6.17061C18.9582 5.43067 20.636 4.8419 22.3574 4.41186C25.8091 6.81208 27.8686 10.7489 27.8718 14.9531Z" fill="black"/>
</svg>
