<svg width="30" height="30" viewBox="0 0 30 30" fill="none" xmlns="http://www.w3.org/2000/svg">
<path fill-rule="evenodd" clip-rule="evenodd" d="M-30 156H590V-94H-30V156Z" fill="#F0EFEE"/>
<path fill-rule="evenodd" clip-rule="evenodd" d="M27.2997 2.01501H2.67684C1.17835 2.01501 0.00244141 3.1928 0.00244141 4.69129V25.0288C0.00244141 26.5291 1.17835 27.705 2.67872 27.705H27.2979C28.7982 27.705 29.9741 26.5273 29.9741 25.0288V4.69129C29.951 3.22362 28.7674 2.03913 27.2997 2.01501ZM2.67872 4.15491H27.296C27.6167 4.15491 27.8324 4.36871 27.8324 4.69129V9.98946H2.14234V4.69129C2.14234 4.4231 2.41053 4.15491 2.67872 4.15491ZM2.67872 25.5651H27.296H27.2979C27.5851 25.5461 27.8142 25.3179 27.8342 25.0306V12.1837H2.14234V25.0288C2.14234 25.3495 2.35614 25.5651 2.67872 25.5651Z" fill="black"/>
<path fill-rule="evenodd" clip-rule="evenodd" d="M10.0634 8.33064C9.3244 8.33064 8.7253 7.73153 8.7253 6.9925C8.7253 6.25346 9.3244 5.65436 10.0634 5.65436C10.8025 5.65436 11.4016 6.25346 11.4016 6.9925C11.4016 7.73153 10.8025 8.33064 10.0634 8.33064ZM6.21031 8.3297C5.47179 8.3297 4.87311 7.73101 4.87311 6.9925C4.87311 6.25398 5.47179 5.6553 6.21031 5.6553C6.94882 5.6553 7.54751 6.25398 7.54751 6.9925C7.54751 7.73101 6.94882 8.3297 6.21031 8.3297ZM12.5794 6.9925C12.5794 7.73153 13.1785 8.33064 13.9175 8.33064C14.6565 8.33064 15.2556 7.73153 15.2556 6.9925C15.2556 6.25346 14.6565 5.65436 13.9175 5.65436C13.1785 5.65436 12.5794 6.25346 12.5794 6.9925ZM8.99349 17.0543C9.48012 16.8872 10.0138 17.1191 10.2238 17.5888C10.4395 18.0708 10.1713 18.6072 9.63489 18.8735L7.65629 19.6762L9.63489 20.5877C9.86444 20.684 10.0452 20.8691 10.136 21.1009C10.2268 21.3327 10.2199 21.5914 10.1169 21.818C9.9556 22.1387 9.63677 22.3525 9.26168 22.3525C9.1308 22.3421 9.00329 22.3057 8.88659 22.2456L4.92562 20.4264C4.60492 20.2651 4.39111 19.9444 4.39111 19.5693C4.39111 19.1961 4.65743 18.8735 4.98001 18.7141L8.99349 17.0543ZM25.5857 18.7141L21.5722 17.0543C21.0902 16.8405 20.5538 17.1087 20.34 17.5888C20.1262 18.0708 20.3944 18.6072 20.8764 18.821L22.8569 19.6237L20.8764 20.5333C20.6468 20.6296 20.4661 20.8148 20.3753 21.0465C20.2845 21.2783 20.2914 21.537 20.3944 21.7636C20.5535 22.0911 20.8855 22.2993 21.2496 22.3C21.3565 22.3 21.5178 22.3 21.6247 22.1931L25.5857 20.3739C25.9131 20.2139 26.1206 19.8812 26.1202 19.5168C26.1746 19.1961 25.9064 18.8735 25.5857 18.7141ZM15.31 15.5558C15.4756 15.0715 15.9989 14.8094 16.4859 14.9669C16.9712 15.1325 17.2336 15.6572 17.0748 16.1447L15.0418 22.3525C14.8824 22.7276 14.5073 22.9958 14.1322 22.9958C14.0779 22.9958 13.971 22.9958 13.8641 22.9414C13.3788 22.7758 13.1164 22.2512 13.2752 21.7636L15.31 15.5558Z" fill="black"/>
</svg>
