<svg width="122" height="30" viewBox="0 0 122 30" fill="none" xmlns="http://www.w3.org/2000/svg">
<path fill-rule="evenodd" clip-rule="evenodd" d="M108 29.4H113.399V24H108V29.4Z" fill="#191919"/>
<path fill-rule="evenodd" clip-rule="evenodd" d="M108 17.4H113.399V12H108V17.4Z" fill="#191919"/>
<path fill-rule="evenodd" clip-rule="evenodd" d="M96.3994 5.4H113.399V0H96.3994V5.4Z" fill="#191919"/>
<path fill-rule="evenodd" clip-rule="evenodd" d="M96 29H101.4V12H96V29Z" fill="#191919"/>
<path fill-rule="evenodd" clip-rule="evenodd" d="M84 29.4H89.4V24H84V29.4Z" fill="#191919"/>
<path fill-rule="evenodd" clip-rule="evenodd" d="M84 17.4H89.4V12H84V17.4Z" fill="#191919"/>
<path fill-rule="evenodd" clip-rule="evenodd" d="M84 5.4H89.4V0H84V5.4Z" fill="#191919"/>
<path fill-rule="evenodd" clip-rule="evenodd" d="M72 17.4H89V12H72V17.4Z" fill="#191919"/>
<path fill-rule="evenodd" clip-rule="evenodd" d="M72 5.4H77.4V0H72V5.4Z" fill="#191919"/>
<path fill-rule="evenodd" clip-rule="evenodd" d="M60 17.4H65.4V12H60V17.4Z" fill="#191919"/>
<path fill-rule="evenodd" clip-rule="evenodd" d="M51.4 29.4H65.4V24H51.4V29.4Z" fill="#191919"/>
<path fill-rule="evenodd" clip-rule="evenodd" d="M51.4 5.4H65.4V0H51.4V5.4Z" fill="#191919"/>
<path fill-rule="evenodd" clip-rule="evenodd" d="M17.4 29.4H41.4V24H17.4V29.4Z" fill="#191919"/>
<path fill-rule="evenodd" clip-rule="evenodd" d="M36 17.4H51V12H36V17.4Z" fill="#191919"/>
<path fill-rule="evenodd" clip-rule="evenodd" d="M36 5.4H41.4V0H36V5.4Z" fill="#191919"/>
<path fill-rule="evenodd" clip-rule="evenodd" d="M24 17.4H29.4V12H24V17.4Z" fill="#191919"/>
<path fill-rule="evenodd" clip-rule="evenodd" d="M12 5.4H17.4V0H12V5.4Z" fill="#191919"/>
<path fill-rule="evenodd" clip-rule="evenodd" d="M0 5.4H5.4V0H0V5.4Z" fill="#191919"/>
</svg>
