<svg width="205" height="29" viewBox="0 0 205 29" fill="none" xmlns="http://www.w3.org/2000/svg">
<path fill-rule="evenodd" clip-rule="evenodd" d="M191.612 7.2373e-06H197V5.32654H191.612V7.2373e-06Z" fill="#191919"/>
<path fill-rule="evenodd" clip-rule="evenodd" d="M191.612 23.6735H197V29H191.612V23.6735Z" fill="#191919"/>
<path fill-rule="evenodd" clip-rule="evenodd" d="M179.636 11.8367H185.025V17.1633H179.636V11.8367Z" fill="#191919"/>
<path fill-rule="evenodd" clip-rule="evenodd" d="M167.66 7.2373e-06H173.049V5.32654H167.66V7.2373e-06Z" fill="#191919"/>
<path fill-rule="evenodd" clip-rule="evenodd" d="M167.66 11.8367H173.049V17.1633H167.66V11.8367Z" fill="#191919"/>
<path fill-rule="evenodd" clip-rule="evenodd" d="M167.66 23.6735H173.049V29H167.66V23.6735Z" fill="#191919"/>
<path fill-rule="evenodd" clip-rule="evenodd" d="M155.684 11.8367H161.073V17.1633H155.684V11.8367Z" fill="#191919"/>
<path fill-rule="evenodd" clip-rule="evenodd" d="M143.709 11.8367H149.098V17.1633H143.709V11.8367Z" fill="#191919"/>
<path fill-rule="evenodd" clip-rule="evenodd" d="M143.709 23.6735H149.098V29H143.709V23.6735Z" fill="#191919"/>
<path fill-rule="evenodd" clip-rule="evenodd" d="M131.733 7.2373e-06H160.674V5.32654H131.733V7.2373e-06Z" fill="#191919"/>
<path fill-rule="evenodd" clip-rule="evenodd" d="M119.757 7.2373e-06H125.146V5.32654H119.757V7.2373e-06Z" fill="#191919"/>
<path fill-rule="evenodd" clip-rule="evenodd" d="M119.757 11.8367H125.146V17.1633H119.757V11.8367Z" fill="#191919"/>
<path fill-rule="evenodd" clip-rule="evenodd" d="M119.757 23.6735H125.146V29H119.757V23.6735Z" fill="#191919"/>
<path fill-rule="evenodd" clip-rule="evenodd" d="M107.781 7.2373e-06H113.171V5.32654H107.781V7.2373e-06Z" fill="#191919"/>
<path fill-rule="evenodd" clip-rule="evenodd" d="M84.2292 11.8367H113.171V17.1633H84.2292V11.8367Z" fill="#191919"/>
<path fill-rule="evenodd" clip-rule="evenodd" d="M107.781 23.6735H113.171V29H107.781V23.6735Z" fill="#191919"/>
<path fill-rule="evenodd" clip-rule="evenodd" d="M95.8057 23.6735H101.195V29H95.8057V23.6735Z" fill="#191919"/>
<path fill-rule="evenodd" clip-rule="evenodd" d="M71.8542 11.8367H77.2433V17.1633H71.8542V11.8367Z" fill="#191919"/>
<path fill-rule="evenodd" clip-rule="evenodd" d="M59.8787 7.2373e-06H76.8443V5.32654H59.8787V7.2373e-06Z" fill="#191919"/>
<path fill-rule="evenodd" clip-rule="evenodd" d="M59.8787 11.8367H65.2677V17.1633H59.8787V11.8367Z" fill="#191919"/>
<path fill-rule="evenodd" clip-rule="evenodd" d="M47.9028 23.6735H64.8684V29H47.9028V23.6735Z" fill="#191919"/>
<path fill-rule="evenodd" clip-rule="evenodd" d="M35.9272 7.2373e-06H41.3163V5.32654H35.9272V7.2373e-06Z" fill="#191919"/>
<path fill-rule="evenodd" clip-rule="evenodd" d="M35.9272 23.6735H41.3163V29H35.9272V23.6735Z" fill="#191919"/>
<path fill-rule="evenodd" clip-rule="evenodd" d="M23.9514 7.2373e-06H29.3405V5.32654H23.9514V7.2373e-06Z" fill="#191919"/>
<path fill-rule="evenodd" clip-rule="evenodd" d="M23.9514 11.8367H52.8927V17.1633H23.9514V11.8367Z" fill="#191919"/>
<path fill-rule="evenodd" clip-rule="evenodd" d="M11.9758 11.8367H17.3649V17.1633H11.9758V11.8367Z" fill="#191919"/>
<path fill-rule="evenodd" clip-rule="evenodd" d="M0 7.2373e-06H5.38907V5.32654H0V7.2373e-06Z" fill="#191919"/>
</svg>
