<?xml version="1.0" encoding="UTF-8" standalone="no"?>
<!DOCTYPE svg PUBLIC "-//W3C//DTD SVG 1.1//EN" "http://www.w3.org/Graphics/SVG/1.1/DTD/svg11.dtd">
<svg width="100%" height="100%" viewBox="0 0 100 100" version="1.1" xmlns="http://www.w3.org/2000/svg" xmlns:xlink="http://www.w3.org/1999/xlink" xml:space="preserve" xmlns:serif="http://www.serif.com/" style="fill-rule:evenodd;clip-rule:evenodd;">
    <g transform="matrix(1,0,0,1,3,3.916)">
        <g transform="matrix(1,0,0,1,3,13)">
            <path d="M9.678,2L77.027,2L77.027,46.036" style="fill:none;fill-rule:nonzero;stroke:black;stroke-width:4px;"/>
        </g>
        <g transform="matrix(1,0,0,1,3,13)">
            <path d="M76.977,46.632L69.953,39.66" style="fill:none;fill-rule:nonzero;stroke:black;stroke-width:4px;stroke-linecap:square;"/>
        </g>
        <g transform="matrix(1,0,0,1,3,13)">
            <path d="M76.976,46.607L84,39.636" style="fill:none;fill-rule:nonzero;stroke:black;stroke-width:4px;stroke-linecap:square;"/>
        </g>
        <g transform="matrix(1,0,0,1,3,13)">
            <path d="M78.322,64.168L10.973,64.168L10.973,20.132" style="fill:none;fill-rule:nonzero;stroke:black;stroke-width:4px;"/>
        </g>
        <g transform="matrix(1,0,0,1,3,13)">
            <path d="M11.023,19.536L18.047,26.508" style="fill:none;fill-rule:nonzero;stroke:black;stroke-width:4px;stroke-linecap:square;"/>
        </g>
        <g transform="matrix(1,0,0,1,3,13)">
            <path d="M11.024,19.561L4,26.532" style="fill:none;fill-rule:nonzero;stroke:black;stroke-width:4px;stroke-linecap:square;"/>
        </g>
        <g transform="matrix(1,0,0,1,3,13)">
            <path d="M44.971,41.017L36.788,45.319L38.351,36.207L31.73,29.753L40.88,28.423L44.971,20.132L49.063,28.423L58.213,29.753L51.592,36.207L53.155,45.319L44.971,41.017Z" style="fill:rgb(3,255,255);stroke:black;stroke-width:4px;"/>
        </g>
    </g>
</svg>
