<svg width="228" height="77" viewBox="0 0 228 77" fill="none" xmlns="http://www.w3.org/2000/svg">
<path d="M28.1 1.35C31.7 1.35 34.9333 1.88333 37.8 2.94999C40.7 3.98333 43.1667 5.43333 45.2 7.3C47.2333 9.16666 48.7833 11.4 49.85 14C50.95 16.5667 51.5 19.4 51.5 22.5C51.5 25.1667 51.1167 27.6333 50.35 29.9C49.6167 32.1667 48.6 34.3333 47.3 36.4C46 38.4333 44.4833 40.4167 42.75 42.35C41.05 44.25 39.2333 46.1833 37.3 48.15L23.05 62.75C24.8833 62.2167 26.6833 61.8 28.45 61.5C30.25 61.1667 31.9333 61 33.5 61H47.1C48.7667 61 50.0833 61.4667 51.05 62.4C52.0167 63.3 52.5 64.5 52.5 66V75H1.3V70C1.3 69.0333 1.5 68 1.9 66.9C2.3 65.8 3 64.8 4 63.9L25 42.75C26.8 40.95 28.3667 39.2333 29.7 37.6C31.0333 35.9667 32.1333 34.3667 33 32.8C33.8667 31.2 34.5167 29.6167 34.95 28.05C35.3833 26.45 35.6 24.7667 35.6 23C35.6 20.1 34.9 17.8833 33.5 16.35C32.1333 14.7833 30.0333 14 27.2 14C26.0333 14 24.9667 14.1667 24 14.5C23.0333 14.8333 22.1667 15.2833 21.4 15.85C20.6333 16.4167 19.9667 17.0833 19.4 17.85C18.8667 18.6167 18.4333 19.45 18.1 20.35C17.5667 21.85 16.8833 22.9333 16.05 23.6C15.25 24.2667 14.15 24.6 12.75 24.6C12.4167 24.6 12.05 24.5833 11.65 24.55C11.2833 24.5167 10.9 24.4667 10.5 24.4L2.3 22.95C2.83333 19.3167 3.85 16.15 5.35 13.45C6.88333 10.75 8.76667 8.5 11 6.7C13.2667 4.9 15.85 3.56666 18.75 2.7C21.65 1.8 24.7667 1.35 28.1 1.35ZM112.008 38.55C112.008 44.9167 111.324 50.4333 109.958 55.1C108.591 59.7667 106.691 63.6333 104.258 66.7C101.858 69.7667 98.9911 72.05 95.6578 73.55C92.3578 75.05 88.7745 75.8 84.9078 75.8C81.0411 75.8 77.4578 75.05 74.1578 73.55C70.8911 72.05 68.0578 69.7667 65.6578 66.7C63.2578 63.6333 61.3745 59.7667 60.0078 55.1C58.6745 50.4333 58.0078 44.9167 58.0078 38.55C58.0078 32.1833 58.6745 26.6667 60.0078 22C61.3745 17.3333 63.2578 13.4667 65.6578 10.4C68.0578 7.33333 70.8911 5.06666 74.1578 3.6C77.4578 2.1 81.0411 1.35 84.9078 1.35C88.7745 1.35 92.3578 2.1 95.6578 3.6C98.9911 5.06666 101.858 7.33333 104.258 10.4C106.691 13.4667 108.591 17.3333 109.958 22C111.324 26.6667 112.008 32.1833 112.008 38.55ZM96.0078 38.55C96.0078 33.5167 95.6911 29.4 95.0578 26.2C94.4245 22.9667 93.5745 20.4333 92.5078 18.6C91.4745 16.7667 90.2911 15.5167 88.9578 14.85C87.6245 14.15 86.2745 13.8 84.9078 13.8C83.5411 13.8 82.1911 14.15 80.8578 14.85C79.5578 15.5167 78.3911 16.7667 77.3578 18.6C76.3578 20.4333 75.5411 22.9667 74.9078 26.2C74.3078 29.4 74.0078 33.5167 74.0078 38.55C74.0078 43.6167 74.3078 47.75 74.9078 50.95C75.5411 54.15 76.3578 56.6833 77.3578 58.55C78.3911 60.3833 79.5578 61.65 80.8578 62.35C82.1911 63.0167 83.5411 63.35 84.9078 63.35C86.2745 63.35 87.6245 63.0167 88.9578 62.35C90.2911 61.65 91.4745 60.3833 92.5078 58.55C93.5745 56.6833 94.4245 54.15 95.0578 50.95C95.6911 47.75 96.0078 43.6167 96.0078 38.55ZM144.116 1.35C147.716 1.35 150.949 1.88333 153.816 2.94999C156.716 3.98333 159.182 5.43333 161.216 7.3C163.249 9.16666 164.799 11.4 165.866 14C166.966 16.5667 167.516 19.4 167.516 22.5C167.516 25.1667 167.132 27.6333 166.366 29.9C165.632 32.1667 164.616 34.3333 163.316 36.4C162.016 38.4333 160.499 40.4167 158.766 42.35C157.066 44.25 155.249 46.1833 153.316 48.15L139.066 62.75C140.899 62.2167 142.699 61.8 144.466 61.5C146.266 61.1667 147.949 61 149.516 61H163.116C164.782 61 166.099 61.4667 167.066 62.4C168.032 63.3 168.516 64.5 168.516 66V75H117.316V70C117.316 69.0333 117.516 68 117.916 66.9C118.316 65.8 119.016 64.8 120.016 63.9L141.016 42.75C142.816 40.95 144.382 39.2333 145.716 37.6C147.049 35.9667 148.149 34.3667 149.016 32.8C149.882 31.2 150.532 29.6167 150.966 28.05C151.399 26.45 151.616 24.7667 151.616 23C151.616 20.1 150.916 17.8833 149.516 16.35C148.149 14.7833 146.049 14 143.216 14C142.049 14 140.982 14.1667 140.016 14.5C139.049 14.8333 138.182 15.2833 137.416 15.85C136.649 16.4167 135.982 17.0833 135.416 17.85C134.882 18.6167 134.449 19.45 134.116 20.35C133.582 21.85 132.899 22.9333 132.066 23.6C131.266 24.2667 130.166 24.6 128.766 24.6C128.432 24.6 128.066 24.5833 127.666 24.55C127.299 24.5167 126.916 24.4667 126.516 24.4L118.316 22.95C118.849 19.3167 119.866 16.15 121.366 13.45C122.899 10.75 124.782 8.5 127.016 6.7C129.282 4.9 131.866 3.56666 134.766 2.7C137.666 1.8 140.782 1.35 144.116 1.35ZM202.123 1.35C205.723 1.35 208.957 1.88333 211.823 2.94999C214.723 3.98333 217.19 5.43333 219.223 7.3C221.257 9.16666 222.807 11.4 223.873 14C224.973 16.5667 225.523 19.4 225.523 22.5C225.523 25.1667 225.14 27.6333 224.373 29.9C223.64 32.1667 222.623 34.3333 221.323 36.4C220.023 38.4333 218.507 40.4167 216.773 42.35C215.073 44.25 213.257 46.1833 211.323 48.15L197.073 62.75C198.907 62.2167 200.707 61.8 202.473 61.5C204.273 61.1667 205.957 61 207.523 61H221.123C222.79 61 224.107 61.4667 225.073 62.4C226.04 63.3 226.523 64.5 226.523 66V75H175.323V70C175.323 69.0333 175.523 68 175.923 66.9C176.323 65.8 177.023 64.8 178.023 63.9L199.023 42.75C200.823 40.95 202.39 39.2333 203.723 37.6C205.057 35.9667 206.157 34.3667 207.023 32.8C207.89 31.2 208.54 29.6167 208.973 28.05C209.407 26.45 209.623 24.7667 209.623 23C209.623 20.1 208.923 17.8833 207.523 16.35C206.157 14.7833 204.057 14 201.223 14C200.057 14 198.99 14.1667 198.023 14.5C197.057 14.8333 196.19 15.2833 195.423 15.85C194.657 16.4167 193.99 17.0833 193.423 17.85C192.89 18.6167 192.457 19.45 192.123 20.35C191.59 21.85 190.907 22.9333 190.073 23.6C189.273 24.2667 188.173 24.6 186.773 24.6C186.44 24.6 186.073 24.5833 185.673 24.55C185.307 24.5167 184.923 24.4667 184.523 24.4L176.323 22.95C176.857 19.3167 177.873 16.15 179.373 13.45C180.907 10.75 182.79 8.5 185.023 6.7C187.29 4.9 189.873 3.56666 192.773 2.7C195.673 1.8 198.79 1.35 202.123 1.35Z" fill="white" fill-opacity="0.01"/>
<path d="M37.8 2.94999L37.4512 3.88731L37.4644 3.89198L37.8 2.94999ZM45.2 7.3L45.8763 6.56334L45.8763 6.56334L45.2 7.3ZM49.85 14L48.9248 14.3796L48.9278 14.3868L48.9309 14.3939L49.85 14ZM50.35 29.9L49.4026 29.5796L49.3986 29.5922L50.35 29.9ZM47.3 36.4L48.1425 36.9387L48.1465 36.9325L47.3 36.4ZM42.75 42.35L42.0054 41.6825L42.0048 41.6832L42.75 42.35ZM37.3 48.15L36.5869 47.449L36.5844 47.4515L37.3 48.15ZM23.05 62.75L22.3344 62.0515L19.679 64.7721L23.3293 63.7102L23.05 62.75ZM28.45 61.5L28.6174 62.4859L28.6248 62.4846L28.6321 62.4833L28.45 61.5ZM51.05 62.4L50.3554 63.1194L50.3619 63.1257L50.3686 63.1319L51.05 62.4ZM52.5 75V76H53.5V75H52.5ZM1.3 75H0.3V76H1.3V75ZM1.9 66.9L2.83979 67.2417L2.83979 67.2417L1.9 66.9ZM4 63.9L4.66897 64.6433L4.68984 64.6245L4.70962 64.6046L4 63.9ZM25 42.75L24.2929 42.0429L24.2904 42.0454L25 42.75ZM29.7 37.6L28.9253 36.9676L28.9253 36.9676L29.7 37.6ZM33 32.8L33.8751 33.2841L33.8793 33.2763L33 32.8ZM34.95 28.05L35.9138 28.3166L35.9152 28.3114L34.95 28.05ZM33.5 16.35L32.7464 17.0074L32.7539 17.0159L32.7615 17.0243L33.5 16.35ZM24 14.5L24.326 15.4454L24.326 15.4454L24 14.5ZM21.4 15.85L20.8056 15.0458L20.8056 15.0458L21.4 15.85ZM19.4 17.85L18.5958 17.2556L18.5873 17.2672L18.5791 17.2789L19.4 17.85ZM18.1 20.35L17.1622 20.0027L17.1578 20.015L18.1 20.35ZM16.05 23.6L15.4253 22.8191L15.4175 22.8254L15.4098 22.8318L16.05 23.6ZM11.65 24.55L11.5595 25.5459L11.567 25.5465L11.65 24.55ZM10.5 24.4L10.3259 25.3848L10.3356 25.3864L10.5 24.4ZM2.3 22.95L1.3106 22.8048L1.16956 23.7656L2.12587 23.9347L2.3 22.95ZM5.35 13.45L4.4804 12.9561L4.47584 12.9644L5.35 13.45ZM11 6.7L10.3781 5.91687L10.3725 5.9214L11 6.7ZM18.75 2.7L19.0364 3.65818L19.0464 3.65506L18.75 2.7ZM28.1 2.35C31.6016 2.35 34.714 2.8687 37.4513 3.88722L38.1487 2.01277C35.1527 0.897957 31.7984 0.349998 28.1 0.349998V2.35ZM37.4644 3.89198C40.2528 4.88556 42.5998 6.27044 44.5237 8.03665L45.8763 6.56334C43.7335 4.59621 41.1472 3.0811 38.1357 2.00801L37.4644 3.89198ZM44.5237 8.03665C46.4469 9.80216 47.9129 11.9129 48.9248 14.3796L50.7752 13.6204C49.6538 10.8871 48.0198 8.53117 45.8763 6.56334L44.5237 8.03665ZM48.9309 14.3939C49.9719 16.8231 50.5 19.5205 50.5 22.5H52.5C52.5 19.2795 51.9281 16.3103 50.7691 13.6061L48.9309 14.3939ZM50.5 22.5C50.5 25.0701 50.1307 27.4272 49.4027 29.5796L51.2973 30.2204C52.1026 27.8394 52.5 25.2633 52.5 22.5H50.5ZM49.3986 29.5922C48.6914 31.778 47.7105 33.8694 46.4535 35.8675L48.1465 36.9325C49.4895 34.7973 50.5419 32.5554 51.3014 30.2078L49.3986 29.5922ZM46.4575 35.8613C45.1887 37.8458 43.7054 39.7864 42.0054 41.6825L43.4946 43.0175C45.2613 41.047 46.8113 39.0208 48.1425 36.9387L46.4575 35.8613ZM42.0048 41.6832C40.316 43.5706 38.5101 45.4926 36.5869 47.449L38.0131 48.851C39.9566 46.8741 41.784 44.9294 43.4952 43.0168L42.0048 41.6832ZM36.5844 47.4515L22.3344 62.0515L23.7656 63.4485L38.0156 48.8485L36.5844 47.4515ZM23.3293 63.7102C25.1283 63.1869 26.8909 62.7791 28.6174 62.4859L28.2826 60.5141C26.4758 60.8209 24.6384 61.2465 22.7707 61.7898L23.3293 63.7102ZM28.6321 62.4833C30.3818 62.1593 32.0036 62 33.5 62V60C31.8631 60 30.1182 60.1741 28.2679 60.5167L28.6321 62.4833ZM33.5 62H47.1V60H33.5V62ZM47.1 62C48.5731 62 49.6176 62.407 50.3554 63.1194L51.7446 61.6806C50.5491 60.5263 48.9602 60 47.1 60V62ZM50.3686 63.1319C51.1036 63.8162 51.5 64.7361 51.5 66H53.5C53.5 64.2639 52.9298 62.7838 51.7314 61.6681L50.3686 63.1319ZM51.5 66V75H53.5V66H51.5ZM52.5 74H1.3V76H52.5V74ZM2.3 75V70H0.3V75H2.3ZM2.3 70C2.3 69.1715 2.47148 68.2546 2.83979 67.2417L0.960207 66.5583C0.528518 67.7454 0.3 68.8951 0.3 70H2.3ZM2.83979 67.2417C3.17592 66.3174 3.77244 65.4502 4.66897 64.6433L3.33104 63.1567C2.22756 64.1498 1.42408 65.2826 0.960207 66.5583L2.83979 67.2417ZM4.70962 64.6046L25.7096 43.4546L24.2904 42.0454L3.29038 63.1954L4.70962 64.6046ZM25.7071 43.4571C27.5262 41.638 29.1163 39.8964 30.4747 38.2324L28.9253 36.9676C27.6171 38.5703 26.0738 40.262 24.2929 42.0429L25.7071 43.4571ZM30.4747 38.2324C31.8394 36.5606 32.9749 34.9113 33.875 33.2841L32.125 32.3159C31.2918 33.822 30.2273 35.3727 28.9253 36.9676L30.4747 38.2324ZM33.8793 33.2763C34.7778 31.6176 35.4581 29.9642 35.9138 28.3166L33.9862 27.7834C33.5752 29.2692 32.9556 30.7824 32.1207 32.3237L33.8793 33.2763ZM35.9152 28.3114C36.3731 26.6208 36.6 24.8492 36.6 23H34.6C34.6 24.6842 34.3936 26.2792 33.9848 27.7886L35.9152 28.3114ZM36.6 23C36.6 19.9497 35.8634 17.4554 34.2385 15.6757L32.7615 17.0243C33.9366 18.3113 34.6 20.2503 34.6 23H36.6ZM34.2536 15.6926C32.6351 13.8373 30.2124 13 27.2 13V15C29.8543 15 31.6316 15.7294 32.7464 17.0074L34.2536 15.6926ZM27.2 13C25.9378 13 24.7592 13.1804 23.674 13.5546L24.326 15.4454C25.1741 15.1529 26.1289 15 27.2 15V13ZM23.674 13.5546C22.6182 13.9187 21.6598 14.4145 20.8056 15.0458L21.9944 16.6542C22.6736 16.1522 23.4485 15.748 24.326 15.4454L23.674 13.5546ZM20.8056 15.0458C19.959 15.6716 19.2216 16.409 18.5958 17.2556L20.2042 18.4444C20.7117 17.7577 21.3077 17.1617 21.9944 16.6542L20.8056 15.0458ZM18.5791 17.2789C17.9962 18.1169 17.5241 19.0257 17.1623 20.0027L19.0377 20.6973C19.3426 19.8743 19.7371 19.1165 20.2209 18.4211L18.5791 17.2789ZM17.1578 20.015C16.6582 21.4202 16.0587 22.3124 15.4253 22.8191L16.6747 24.3809C17.708 23.5542 18.4752 22.2798 19.0422 20.685L17.1578 20.015ZM15.4098 22.8318C14.8431 23.304 13.9969 23.6 12.75 23.6V25.6C14.3031 25.6 15.6569 25.2293 16.6902 24.3682L15.4098 22.8318ZM12.75 23.6C12.4493 23.6 12.1108 23.5849 11.733 23.5535L11.567 25.5465C11.9892 25.5817 12.384 25.6 12.75 25.6V23.6ZM11.7405 23.5541C11.4009 23.5232 11.0423 23.4766 10.6644 23.4136L10.3356 25.3864C10.7577 25.4567 11.1657 25.5101 11.5595 25.5459L11.7405 23.5541ZM10.6741 23.4153L2.47413 21.9653L2.12587 23.9347L10.3259 25.3847L10.6741 23.4153ZM3.2894 23.0952C3.80843 19.5593 4.79274 16.5122 6.22416 13.9356L4.47584 12.9644C2.90726 15.7878 1.85824 19.074 1.3106 22.8048L3.2894 23.0952ZM6.21956 13.9438C7.69598 11.344 9.49985 9.19343 11.6275 7.47859L10.3725 5.9214C8.03348 7.80656 6.07069 10.156 4.48044 12.9562L6.21956 13.9438ZM11.6219 7.48311C13.7843 5.76587 16.2526 4.49003 19.0363 3.65812L18.4637 1.74187C15.4474 2.64329 12.749 4.03413 10.3781 5.91689L11.6219 7.48311ZM19.0464 3.65506C21.8415 2.78761 24.8574 2.35 28.1 2.35V0.349998C24.6759 0.349998 21.4585 0.812387 18.4536 1.74493L19.0464 3.65506ZM109.958 55.1L108.998 54.8189L108.998 54.8189L109.958 55.1ZM104.258 66.7L103.474 66.0784L103.47 66.0837L104.258 66.7ZM95.6578 73.55L95.2474 72.6381L95.244 72.6396L95.6578 73.55ZM74.1578 73.55L73.7405 74.4588L73.744 74.4604L74.1578 73.55ZM65.6578 66.7L64.8703 67.3163L64.8703 67.3163L65.6578 66.7ZM60.0078 55.1L59.0463 55.3747L59.0481 55.3811L60.0078 55.1ZM60.0078 22L59.0481 21.7189L59.0463 21.7253L60.0078 22ZM65.6578 10.4L64.8703 9.78369L64.8703 9.78369L65.6578 10.4ZM74.1578 3.6L74.5674 4.51227L74.5716 4.51036L74.1578 3.6ZM95.6578 3.6L95.244 4.51043L95.2551 4.51531L95.6578 3.6ZM104.258 10.4L103.47 11.0163L103.474 11.0216L104.258 10.4ZM109.958 22L108.998 22.281L108.998 22.281L109.958 22ZM95.0578 26.2L94.0765 26.3922L94.0768 26.3941L95.0578 26.2ZM92.5078 18.6L91.6366 19.0911L91.6435 19.1029L92.5078 18.6ZM88.9578 14.85L88.493 15.7354L88.5017 15.74L88.5106 15.7444L88.9578 14.85ZM80.8578 14.85L81.3142 15.7399L81.3226 15.7354L80.8578 14.85ZM77.3578 18.6L76.4866 18.1089L76.4799 18.1211L77.3578 18.6ZM74.9078 26.2L73.9264 26.0078L73.9249 26.0157L74.9078 26.2ZM74.9078 50.95L73.9249 51.1343L73.9268 51.1441L74.9078 50.95ZM77.3578 58.55L76.4763 59.0222L76.4814 59.0317L76.4867 59.041L77.3578 58.55ZM80.8578 62.35L80.3837 63.2305L80.3971 63.2377L80.4106 63.2444L80.8578 62.35ZM88.9578 62.35L89.405 63.2444L89.4139 63.24L89.4226 63.2354L88.9578 62.35ZM92.5078 58.55L91.6396 58.0539L91.6367 58.059L92.5078 58.55ZM95.0578 50.95L94.0768 50.7558L94.0768 50.7558L95.0578 50.95ZM111.008 38.55C111.008 44.8491 110.331 50.2667 108.998 54.8189L110.918 55.3811C112.318 50.5999 113.008 44.9842 113.008 38.55H111.008ZM108.998 54.8189C107.659 59.3908 105.811 63.1341 103.474 66.0784L105.041 67.3216C107.572 64.1326 109.523 60.1426 110.918 55.3811L108.998 54.8189ZM103.47 66.0837C101.163 69.0313 98.4233 71.2089 95.2475 72.6381L96.0682 74.4619C99.559 72.8911 102.552 70.502 105.045 67.3163L103.47 66.0837ZM95.244 72.6396C92.0825 74.0767 88.6414 74.8 84.9078 74.8V76.8C88.9075 76.8 92.6331 76.0233 96.0716 74.4604L95.244 72.6396ZM84.9078 74.8C81.1742 74.8 77.7331 74.0767 74.5716 72.6396L73.744 74.4604C77.1825 76.0233 80.9081 76.8 84.9078 76.8V74.8ZM74.5751 72.6412C71.4653 71.2132 68.7554 69.0354 66.4453 66.0837L64.8703 67.3163C67.3602 70.4979 70.317 72.8868 73.7405 74.4588L74.5751 72.6412ZM66.4453 66.0837C64.1402 63.1383 62.3071 59.3931 60.9675 54.8189L59.0481 55.3811C60.4419 60.1402 62.3754 64.1284 64.8703 67.3163L66.4453 66.0837ZM60.9693 54.8253C59.668 50.2708 59.0078 44.8509 59.0078 38.55H57.0078C57.0078 44.9824 57.6809 50.5959 59.0463 55.3747L60.9693 54.8253ZM59.0078 38.55C59.0078 32.2491 59.668 26.8292 60.9693 22.2747L59.0463 21.7253C57.6809 26.5041 57.0078 32.1176 57.0078 38.55H59.0078ZM60.9675 22.281C62.3071 17.7069 64.1402 13.9617 66.4453 11.0163L64.8703 9.78369C62.3754 12.9716 60.4419 16.9598 59.0481 21.7189L60.9675 22.281ZM66.4453 11.0163C68.7542 8.06607 71.4616 5.90672 74.5674 4.51226L73.7482 2.68773C70.3207 4.22661 67.3614 6.60059 64.8703 9.78369L66.4453 11.0163ZM74.5716 4.51036C77.7331 3.07332 81.1742 2.35 84.9078 2.35V0.349998C80.9081 0.349998 77.1825 1.12668 73.744 2.68963L74.5716 4.51036ZM84.9078 2.35C88.6414 2.35 92.0825 3.07332 95.244 4.51036L96.0716 2.68963C92.6331 1.12668 88.9075 0.349998 84.9078 0.349998V2.35ZM95.2551 4.51531C98.4271 5.91098 101.165 8.07025 103.47 11.0163L105.045 9.78369C102.551 6.59641 99.5552 4.22235 96.0606 2.68468L95.2551 4.51531ZM103.474 11.0216C105.811 13.9659 107.659 17.7092 108.998 22.281L110.918 21.7189C109.523 16.9574 107.572 12.9674 105.041 9.77842L103.474 11.0216ZM108.998 22.281C110.331 26.8333 111.008 32.2509 111.008 38.55H113.008C113.008 32.1158 112.318 26.5001 110.918 21.7189L108.998 22.281ZM97.0078 38.55C97.0078 33.4825 96.6896 29.2943 96.0388 26.0058L94.0768 26.3941C94.6927 29.5056 95.0078 33.5508 95.0078 38.55H97.0078ZM96.0392 26.0078C95.3949 22.7187 94.517 20.0647 93.3722 18.0971L91.6435 19.1029C92.632 20.8019 93.454 23.2146 94.0765 26.3922L96.0392 26.0078ZM93.379 18.109C92.2865 16.1707 90.9763 14.7412 89.405 13.9556L88.5106 15.7444C89.606 16.2921 90.6625 17.3626 91.6367 19.091L93.379 18.109ZM89.4226 13.9646C87.9608 13.1971 86.4524 12.8 84.9078 12.8V14.8C86.0965 14.8 87.2881 15.1029 88.493 15.7354L89.4226 13.9646ZM84.9078 12.8C83.3632 12.8 81.8548 13.1971 80.393 13.9646L81.3226 15.7354C82.5275 15.1029 83.7191 14.8 84.9078 14.8V12.8ZM80.4015 13.9602C78.8661 14.7476 77.5759 16.1765 76.4867 18.109L78.229 19.091C79.2064 17.3568 80.2495 16.2858 81.3141 15.7398L80.4015 13.9602ZM76.4799 18.1211C75.4112 20.0805 74.5695 22.725 73.9265 26.0078L75.8892 26.3922C76.5128 23.2083 77.3044 20.7862 78.2357 19.0789L76.4799 18.1211ZM73.9249 26.0157C73.3092 29.2999 73.0078 33.4844 73.0078 38.55H75.0078C75.0078 33.5489 75.3065 29.5001 75.8907 26.3843L73.9249 26.0157ZM73.0078 38.55C73.0078 43.6485 73.3091 47.8498 73.9249 51.1343L75.8907 50.7657C75.3065 47.6502 75.0078 43.5849 75.0078 38.55H73.0078ZM73.9268 51.1441C74.5702 54.3948 75.4115 57.0346 76.4763 59.0222L78.2393 58.0778C77.3041 56.3321 76.5121 53.9052 75.8888 50.7558L73.9268 51.1441ZM76.4867 59.041C77.5753 60.9724 78.8607 62.4104 80.3837 63.2305L81.3319 61.4695C80.255 60.8896 79.207 59.7943 78.229 58.059L76.4867 59.041ZM80.4106 63.2444C81.87 63.9741 83.3722 64.35 84.9078 64.35V62.35C83.7101 62.35 82.5123 62.0592 81.305 61.4556L80.4106 63.2444ZM84.9078 64.35C86.4435 64.35 87.9457 63.9741 89.405 63.2444L88.5106 61.4556C87.3033 62.0592 86.1055 62.35 84.9078 62.35V64.35ZM89.4226 63.2354C90.9818 62.4169 92.2872 60.9781 93.379 59.041L91.6367 58.059C90.6618 59.7886 89.6005 60.8831 88.493 61.4646L89.4226 63.2354ZM93.3761 59.0461C94.5166 57.0503 95.3942 54.4012 96.0388 51.1441L94.0768 50.7558C93.4548 53.8988 92.6324 56.3164 91.6396 58.0539L93.3761 59.0461ZM96.0388 51.1441C96.6897 47.8553 97.0078 43.6503 97.0078 38.55H95.0078C95.0078 43.583 94.6926 47.6447 94.0768 50.7558L96.0388 51.1441ZM153.816 2.94999L153.467 3.88731L153.48 3.89198L153.816 2.94999ZM161.216 7.3L161.892 6.56334L161.892 6.56334L161.216 7.3ZM165.866 14L164.94 14.3796L164.943 14.3868L164.946 14.3939L165.866 14ZM166.366 29.9L165.418 29.5796L165.414 29.5922L166.366 29.9ZM163.316 36.4L164.158 36.9387L164.162 36.9325L163.316 36.4ZM158.766 42.35L158.021 41.6825L158.02 41.6832L158.766 42.35ZM153.316 48.15L152.602 47.449L152.6 47.4515L153.316 48.15ZM139.066 62.75L138.35 62.0515L135.695 64.7721L139.345 63.7102L139.066 62.75ZM144.466 61.5L144.633 62.4859L144.64 62.4846L144.648 62.4833L144.466 61.5ZM167.066 62.4L166.371 63.1194L166.378 63.1257L166.384 63.1319L167.066 62.4ZM168.516 75V76H169.516V75H168.516ZM117.316 75H116.316V76H117.316V75ZM117.916 66.9L118.855 67.2417L118.855 67.2417L117.916 66.9ZM120.016 63.9L120.685 64.6433L120.705 64.6245L120.725 64.6046L120.016 63.9ZM141.016 42.75L140.309 42.0429L140.306 42.0454L141.016 42.75ZM145.716 37.6L144.941 36.9676L144.941 36.9676L145.716 37.6ZM149.016 32.8L149.891 33.2841L149.895 33.2763L149.016 32.8ZM150.966 28.05L151.929 28.3166L151.931 28.3114L150.966 28.05ZM149.516 16.35L148.762 17.0074L148.77 17.0159L148.777 17.0243L149.516 16.35ZM140.016 14.5L140.342 15.4454L140.342 15.4454L140.016 14.5ZM137.416 15.85L136.821 15.0458L136.821 15.0458L137.416 15.85ZM135.416 17.85L134.611 17.2556L134.603 17.2672L134.595 17.2789L135.416 17.85ZM134.116 20.35L133.178 20.0027L133.173 20.015L134.116 20.35ZM132.066 23.6L131.441 22.8191L131.433 22.8254L131.425 22.8318L132.066 23.6ZM127.666 24.55L127.575 25.5459L127.583 25.5465L127.666 24.55ZM126.516 24.4L126.341 25.3848L126.351 25.3864L126.516 24.4ZM118.316 22.95L117.326 22.8048L117.185 23.7656L118.141 23.9347L118.316 22.95ZM121.366 13.45L120.496 12.9561L120.491 12.9644L121.366 13.45ZM127.016 6.7L126.394 5.91687L126.388 5.9214L127.016 6.7ZM134.766 2.7L135.052 3.65818L135.062 3.65506L134.766 2.7ZM144.116 2.35C147.617 2.35 150.73 2.8687 153.467 3.88722L154.164 2.01277C151.168 0.897957 147.814 0.349998 144.116 0.349998V2.35ZM153.48 3.89198C156.268 4.88556 158.615 6.27044 160.539 8.03665L161.892 6.56334C159.749 4.59621 157.163 3.0811 154.151 2.00801L153.48 3.89198ZM160.539 8.03665C162.463 9.80216 163.928 11.9129 164.94 14.3796L166.791 13.6204C165.669 10.8871 164.035 8.53117 161.892 6.56334L160.539 8.03665ZM164.946 14.3939C165.988 16.8231 166.516 19.5205 166.516 22.5H168.516C168.516 19.2795 167.944 16.3103 166.785 13.6061L164.946 14.3939ZM166.516 22.5C166.516 25.0701 166.146 27.4272 165.418 29.5796L167.313 30.2204C168.118 27.8394 168.516 25.2633 168.516 22.5H166.516ZM165.414 29.5922C164.707 31.778 163.726 33.8694 162.469 35.8675L164.162 36.9325C165.505 34.7973 166.558 32.5554 167.317 30.2078L165.414 29.5922ZM162.473 35.8613C161.204 37.8458 159.721 39.7864 158.021 41.6825L159.51 43.0175C161.277 41.047 162.827 39.0208 164.158 36.9387L162.473 35.8613ZM158.02 41.6832C156.332 43.5706 154.526 45.4926 152.603 47.449L154.029 48.851C155.972 46.8741 157.8 44.9294 159.511 43.0168L158.02 41.6832ZM152.6 47.4515L138.35 62.0515L139.781 63.4485L154.031 48.8485L152.6 47.4515ZM139.345 63.7102C141.144 63.1869 142.907 62.7791 144.633 62.4859L144.298 60.5141C142.491 60.8209 140.654 61.2465 138.786 61.7898L139.345 63.7102ZM144.648 62.4833C146.397 62.1593 148.019 62 149.516 62V60C147.879 60 146.134 60.1741 144.284 60.5167L144.648 62.4833ZM149.516 62H163.116V60H149.516V62ZM163.116 62C164.589 62 165.633 62.407 166.371 63.1194L167.76 61.6806C166.565 60.5263 164.976 60 163.116 60V62ZM166.384 63.1319C167.119 63.8162 167.516 64.7361 167.516 66H169.516C169.516 64.2639 168.945 62.7838 167.747 61.6681L166.384 63.1319ZM167.516 66V75H169.516V66H167.516ZM168.516 74H117.316V76H168.516V74ZM118.316 75V70H116.316V75H118.316ZM118.316 70C118.316 69.1715 118.487 68.2546 118.855 67.2417L116.976 66.5583C116.544 67.7454 116.316 68.8951 116.316 70H118.316ZM118.855 67.2417C119.192 66.3174 119.788 65.4502 120.685 64.6433L119.347 63.1567C118.243 64.1498 117.44 65.2826 116.976 66.5583L118.855 67.2417ZM120.725 64.6046L141.725 43.4546L140.306 42.0454L119.306 63.1954L120.725 64.6046ZM141.723 43.4571C143.542 41.638 145.132 39.8964 146.49 38.2324L144.941 36.9676C143.633 38.5703 142.089 40.262 140.309 42.0429L141.723 43.4571ZM146.49 38.2324C147.855 36.5606 148.99 34.9113 149.891 33.2841L148.141 32.3159C147.307 33.822 146.243 35.3727 144.941 36.9676L146.49 38.2324ZM149.895 33.2763C150.793 31.6176 151.474 29.9642 151.929 28.3166L150.002 27.7834C149.591 29.2692 148.971 30.7824 148.136 32.3237L149.895 33.2763ZM151.931 28.3114C152.389 26.6208 152.616 24.8492 152.616 23H150.616C150.616 24.6842 150.409 26.2792 150 27.7886L151.931 28.3114ZM152.616 23C152.616 19.9497 151.879 17.4554 150.254 15.6757L148.777 17.0243C149.952 18.3113 150.616 20.2503 150.616 23H152.616ZM150.269 15.6926C148.651 13.8373 146.228 13 143.216 13V15C145.87 15 147.647 15.7294 148.762 17.0074L150.269 15.6926ZM143.216 13C141.953 13 140.775 13.1804 139.69 13.5546L140.342 15.4454C141.19 15.1529 142.144 15 143.216 15V13ZM139.69 13.5546C138.634 13.9187 137.675 14.4145 136.821 15.0458L138.01 16.6542C138.689 16.1522 139.464 15.748 140.342 15.4454L139.69 13.5546ZM136.821 15.0458C135.975 15.6716 135.237 16.409 134.611 17.2556L136.22 18.4444C136.727 17.7577 137.323 17.1617 138.01 16.6542L136.821 15.0458ZM134.595 17.2789C134.012 18.1169 133.54 19.0257 133.178 20.0027L135.053 20.6973C135.358 19.8743 135.753 19.1165 136.237 18.4211L134.595 17.2789ZM133.173 20.015C132.674 21.4202 132.074 22.3124 131.441 22.8191L132.69 24.3809C133.724 23.5542 134.491 22.2798 135.058 20.685L133.173 20.015ZM131.425 22.8318C130.859 23.304 130.013 23.6 128.766 23.6V25.6C130.319 25.6 131.672 25.2293 132.706 24.3682L131.425 22.8318ZM128.766 23.6C128.465 23.6 128.126 23.5849 127.749 23.5535L127.583 25.5465C128.005 25.5817 128.4 25.6 128.766 25.6V23.6ZM127.756 23.5541C127.417 23.5232 127.058 23.4766 126.68 23.4136L126.351 25.3864C126.773 25.4567 127.181 25.5101 127.575 25.5459L127.756 23.5541ZM126.69 23.4153L118.49 21.9653L118.141 23.9347L126.341 25.3847L126.69 23.4153ZM119.305 23.0952C119.824 19.5593 120.808 16.5122 122.24 13.9356L120.491 12.9644C118.923 15.7878 117.874 19.074 117.326 22.8048L119.305 23.0952ZM122.235 13.9438C123.712 11.344 125.515 9.19343 127.643 7.47859L126.388 5.9214C124.049 7.80656 122.086 10.156 120.496 12.9562L122.235 13.9438ZM127.638 7.48311C129.8 5.76587 132.268 4.49003 135.052 3.65812L134.479 1.74187C131.463 2.64329 128.765 4.03413 126.394 5.91689L127.638 7.48311ZM135.062 3.65506C137.857 2.78761 140.873 2.35 144.116 2.35V0.349998C140.692 0.349998 137.474 0.812387 134.469 1.74493L135.062 3.65506ZM211.823 2.94999L211.475 3.88731L211.488 3.89198L211.823 2.94999ZM219.223 7.3L219.9 6.56334L219.9 6.56334L219.223 7.3ZM223.873 14L222.948 14.3796L222.951 14.3868L222.954 14.3939L223.873 14ZM224.373 29.9L223.426 29.5796L223.422 29.5922L224.373 29.9ZM221.323 36.4L222.166 36.9387L222.17 36.9325L221.323 36.4ZM216.773 42.35L216.029 41.6825L216.028 41.6832L216.773 42.35ZM211.323 48.15L210.61 47.449L210.608 47.4515L211.323 48.15ZM197.073 62.75L196.358 62.0515L193.702 64.7721L197.353 63.7102L197.073 62.75ZM202.473 61.5L202.641 62.4859L202.648 62.4846L202.656 62.4833L202.473 61.5ZM225.073 62.4L224.379 63.1194L224.385 63.1257L224.392 63.1319L225.073 62.4ZM226.523 75V76H227.523V75H226.523ZM175.323 75H174.323V76H175.323V75ZM175.923 66.9L176.863 67.2417L176.863 67.2417L175.923 66.9ZM178.023 63.9L178.692 64.6433L178.713 64.6245L178.733 64.6046L178.023 63.9ZM199.023 42.75L198.316 42.0429L198.314 42.0454L199.023 42.75ZM203.723 37.6L202.949 36.9676L202.949 36.9676L203.723 37.6ZM207.023 32.8L207.899 33.2841L207.903 33.2763L207.023 32.8ZM208.973 28.05L209.937 28.3166L209.939 28.3114L208.973 28.05ZM207.523 16.35L206.77 17.0074L206.777 17.0159L206.785 17.0243L207.523 16.35ZM198.023 14.5L198.349 15.4454L198.349 15.4454L198.023 14.5ZM195.423 15.85L194.829 15.0458L194.829 15.0458L195.423 15.85ZM193.423 17.85L192.619 17.2556L192.611 17.2672L192.603 17.2789L193.423 17.85ZM192.123 20.35L191.186 20.0027L191.181 20.015L192.123 20.35ZM190.073 23.6L189.449 22.8191L189.441 22.8254L189.433 22.8318L190.073 23.6ZM185.673 24.55L185.583 25.5459L185.59 25.5465L185.673 24.55ZM184.523 24.4L184.349 25.3848L184.359 25.3864L184.523 24.4ZM176.323 22.95L175.334 22.8048L175.193 23.7656L176.149 23.9347L176.323 22.95ZM179.373 13.45L178.504 12.9561L178.499 12.9644L179.373 13.45ZM185.023 6.7L184.402 5.91687L184.396 5.9214L185.023 6.7ZM192.773 2.7L193.06 3.65818L193.07 3.65506L192.773 2.7ZM202.123 2.35C205.625 2.35 208.737 2.8687 211.475 3.88722L212.172 2.01277C209.176 0.897957 205.822 0.349998 202.123 0.349998V2.35ZM211.488 3.89198C214.276 4.88556 216.623 6.27044 218.547 8.03665L219.9 6.56334C217.757 4.59621 215.171 3.0811 212.159 2.00801L211.488 3.89198ZM218.547 8.03665C220.47 9.80216 221.936 11.9129 222.948 14.3796L224.799 13.6204C223.677 10.8871 222.043 8.53117 219.9 6.56334L218.547 8.03665ZM222.954 14.3939C223.995 16.8231 224.523 19.5205 224.523 22.5H226.523C226.523 19.2795 225.952 16.3103 224.793 13.6061L222.954 14.3939ZM224.523 22.5C224.523 25.0701 224.154 27.4272 223.426 29.5796L225.321 30.2204C226.126 27.8394 226.523 25.2633 226.523 22.5H224.523ZM223.422 29.5922C222.715 31.778 221.734 33.8694 220.477 35.8675L222.17 36.9325C223.513 34.7973 224.565 32.5554 225.325 30.2078L223.422 29.5922ZM220.481 35.8613C219.212 37.8458 217.729 39.7864 216.029 41.6825L217.518 43.0175C219.285 41.047 220.835 39.0208 222.166 36.9387L220.481 35.8613ZM216.028 41.6832C214.339 43.5706 212.534 45.4926 210.61 47.449L212.037 48.851C213.98 46.8741 215.807 44.9294 217.519 43.0168L216.028 41.6832ZM210.608 47.4515L196.358 62.0515L197.789 63.4485L212.039 48.8485L210.608 47.4515ZM197.353 63.7102C199.152 63.1869 200.914 62.7791 202.641 62.4859L202.306 60.5141C200.499 60.8209 198.662 61.2465 196.794 61.7898L197.353 63.7102ZM202.656 62.4833C204.405 62.1593 206.027 62 207.523 62V60C205.887 60 204.142 60.1741 202.291 60.5167L202.656 62.4833ZM207.523 62H221.123V60H207.523V62ZM221.123 62C222.597 62 223.641 62.407 224.379 63.1194L225.768 61.6806C224.573 60.5263 222.984 60 221.123 60V62ZM224.392 63.1319C225.127 63.8162 225.523 64.7361 225.523 66H227.523C227.523 64.2639 226.953 62.7838 225.755 61.6681L224.392 63.1319ZM225.523 66V75H227.523V66H225.523ZM226.523 74H175.323V76H226.523V74ZM176.323 75V70H174.323V75H176.323ZM176.323 70C176.323 69.1715 176.495 68.2546 176.863 67.2417L174.984 66.5583C174.552 67.7454 174.323 68.8951 174.323 70H176.323ZM176.863 67.2417C177.199 66.3174 177.796 65.4502 178.692 64.6433L177.354 63.1567C176.251 64.1498 175.448 65.2826 174.984 66.5583L176.863 67.2417ZM178.733 64.6046L199.733 43.4546L198.314 42.0454L177.314 63.1954L178.733 64.6046ZM199.731 43.4571C201.55 41.638 203.14 39.8964 204.498 38.2324L202.949 36.9676C201.641 38.5703 200.097 40.262 198.316 42.0429L199.731 43.4571ZM204.498 38.2324C205.863 36.5606 206.998 34.9113 207.898 33.2841L206.148 32.3159C205.315 33.822 204.251 35.3727 202.949 36.9676L204.498 38.2324ZM207.903 33.2763C208.801 31.6176 209.482 29.9642 209.937 28.3166L208.01 27.7834C207.599 29.2692 206.979 30.7824 206.144 32.3237L207.903 33.2763ZM209.939 28.3114C210.397 26.6208 210.623 24.8492 210.623 23H208.623C208.623 24.6842 208.417 26.2792 208.008 27.7886L209.939 28.3114ZM210.623 23C210.623 19.9497 209.887 17.4554 208.262 15.6757L206.785 17.0243C207.96 18.3113 208.623 20.2503 208.623 23H210.623ZM208.277 15.6926C206.659 13.8373 204.236 13 201.223 13V15C203.878 15 205.655 15.7294 206.77 17.0074L208.277 15.6926ZM201.223 13C199.961 13 198.783 13.1804 197.697 13.5546L198.349 15.4454C199.198 15.1529 200.152 15 201.223 15V13ZM197.697 13.5546C196.642 13.9187 195.683 14.4145 194.829 15.0458L196.018 16.6542C196.697 16.1522 197.472 15.748 198.349 15.4454L197.697 13.5546ZM194.829 15.0458C193.982 15.6716 193.245 16.409 192.619 17.2556L194.228 18.4444C194.735 17.7577 195.331 17.1617 196.018 16.6542L194.829 15.0458ZM192.603 17.2789C192.02 18.1169 191.548 19.0257 191.186 20.0027L193.061 20.6973C193.366 19.8743 193.761 19.1165 194.244 18.4211L192.603 17.2789ZM191.181 20.015C190.682 21.4202 190.082 22.3124 189.449 22.8191L190.698 24.3809C191.731 23.5542 192.499 22.2798 193.066 20.685L191.181 20.015ZM189.433 22.8318C188.867 23.304 188.02 23.6 186.773 23.6V25.6C188.327 25.6 189.68 25.2293 190.714 24.3682L189.433 22.8318ZM186.773 23.6C186.473 23.6 186.134 23.5849 185.756 23.5535L185.59 25.5465C186.013 25.5817 186.407 25.6 186.773 25.6V23.6ZM185.764 23.5541C185.424 23.5232 185.066 23.4766 184.688 23.4136L184.359 25.3864C184.781 25.4567 185.189 25.5101 185.583 25.5459L185.764 23.5541ZM184.698 23.4153L176.498 21.9653L176.149 23.9347L184.349 25.3847L184.698 23.4153ZM177.313 23.0952C177.832 19.5593 178.816 16.5122 180.248 13.9356L178.499 12.9644C176.931 15.7878 175.882 19.074 175.334 22.8048L177.313 23.0952ZM180.243 13.9438C181.719 11.344 183.523 9.19343 185.651 7.47859L184.396 5.9214C182.057 7.80656 180.094 10.156 178.504 12.9562L180.243 13.9438ZM185.645 7.48311C187.808 5.76587 190.276 4.49003 193.06 3.65812L192.487 1.74187C189.471 2.64329 186.772 4.03413 184.402 5.91689L185.645 7.48311ZM193.07 3.65506C195.865 2.78761 198.881 2.35 202.123 2.35V0.349998C198.699 0.349998 195.482 0.812387 192.477 1.74493L193.07 3.65506Z" fill="black"/>
</svg>
