<svg width="229" height="77" viewBox="0 0 229 77" fill="none" xmlns="http://www.w3.org/2000/svg">
<path d="M28.1 1.35C31.7 1.35 34.9333 1.88333 37.8 2.94999C40.7 3.98333 43.1667 5.43333 45.2 7.3C47.2333 9.16666 48.7833 11.4 49.85 14C50.95 16.5667 51.5 19.4 51.5 22.5C51.5 25.1667 51.1167 27.6333 50.35 29.9C49.6167 32.1667 48.6 34.3333 47.3 36.4C46 38.4333 44.4833 40.4167 42.75 42.35C41.05 44.25 39.2333 46.1833 37.3 48.15L23.05 62.75C24.8833 62.2167 26.6833 61.8 28.45 61.5C30.25 61.1667 31.9333 61 33.5 61H47.1C48.7667 61 50.0833 61.4667 51.05 62.4C52.0167 63.3 52.5 64.5 52.5 66V75H1.3V70C1.3 69.0333 1.5 68 1.9 66.9C2.3 65.8 3 64.8 4 63.9L25 42.75C26.8 40.95 28.3667 39.2333 29.7 37.6C31.0333 35.9667 32.1333 34.3667 33 32.8C33.8667 31.2 34.5167 29.6167 34.95 28.05C35.3833 26.45 35.6 24.7667 35.6 23C35.6 20.1 34.9 17.8833 33.5 16.35C32.1333 14.7833 30.0333 14 27.2 14C26.0333 14 24.9667 14.1667 24 14.5C23.0333 14.8333 22.1667 15.2833 21.4 15.85C20.6333 16.4167 19.9667 17.0833 19.4 17.85C18.8667 18.6167 18.4333 19.45 18.1 20.35C17.5667 21.85 16.8833 22.9333 16.05 23.6C15.25 24.2667 14.15 24.6 12.75 24.6C12.4167 24.6 12.05 24.5833 11.65 24.55C11.2833 24.5167 10.9 24.4667 10.5 24.4L2.3 22.95C2.83333 19.3167 3.85 16.15 5.35 13.45C6.88333 10.75 8.76667 8.5 11 6.7C13.2667 4.9 15.85 3.56666 18.75 2.7C21.65 1.8 24.7667 1.35 28.1 1.35ZM112.008 38.55C112.008 44.9167 111.324 50.4333 109.958 55.1C108.591 59.7667 106.691 63.6333 104.258 66.7C101.858 69.7667 98.9911 72.05 95.6578 73.55C92.3578 75.05 88.7745 75.8 84.9078 75.8C81.0411 75.8 77.4578 75.05 74.1578 73.55C70.8911 72.05 68.0578 69.7667 65.6578 66.7C63.2578 63.6333 61.3745 59.7667 60.0078 55.1C58.6745 50.4333 58.0078 44.9167 58.0078 38.55C58.0078 32.1833 58.6745 26.6667 60.0078 22C61.3745 17.3333 63.2578 13.4667 65.6578 10.4C68.0578 7.33333 70.8911 5.06666 74.1578 3.6C77.4578 2.1 81.0411 1.35 84.9078 1.35C88.7745 1.35 92.3578 2.1 95.6578 3.6C98.9911 5.06666 101.858 7.33333 104.258 10.4C106.691 13.4667 108.591 17.3333 109.958 22C111.324 26.6667 112.008 32.1833 112.008 38.55ZM96.0078 38.55C96.0078 33.5167 95.6911 29.4 95.0578 26.2C94.4245 22.9667 93.5745 20.4333 92.5078 18.6C91.4745 16.7667 90.2911 15.5167 88.9578 14.85C87.6245 14.15 86.2745 13.8 84.9078 13.8C83.5411 13.8 82.1911 14.15 80.8578 14.85C79.5578 15.5167 78.3911 16.7667 77.3578 18.6C76.3578 20.4333 75.5411 22.9667 74.9078 26.2C74.3078 29.4 74.0078 33.5167 74.0078 38.55C74.0078 43.6167 74.3078 47.75 74.9078 50.95C75.5411 54.15 76.3578 56.6833 77.3578 58.55C78.3911 60.3833 79.5578 61.65 80.8578 62.35C82.1911 63.0167 83.5411 63.35 84.9078 63.35C86.2745 63.35 87.6245 63.0167 88.9578 62.35C90.2911 61.65 91.4745 60.3833 92.5078 58.55C93.5745 56.6833 94.4245 54.15 95.0578 50.95C95.6911 47.75 96.0078 43.6167 96.0078 38.55ZM144.116 1.35C147.716 1.35 150.949 1.88333 153.816 2.94999C156.716 3.98333 159.182 5.43333 161.216 7.3C163.249 9.16666 164.799 11.4 165.866 14C166.966 16.5667 167.516 19.4 167.516 22.5C167.516 25.1667 167.132 27.6333 166.366 29.9C165.632 32.1667 164.616 34.3333 163.316 36.4C162.016 38.4333 160.499 40.4167 158.766 42.35C157.066 44.25 155.249 46.1833 153.316 48.15L139.066 62.75C140.899 62.2167 142.699 61.8 144.466 61.5C146.266 61.1667 147.949 61 149.516 61H163.116C164.782 61 166.099 61.4667 167.066 62.4C168.032 63.3 168.516 64.5 168.516 66V75H117.316V70C117.316 69.0333 117.516 68 117.916 66.9C118.316 65.8 119.016 64.8 120.016 63.9L141.016 42.75C142.816 40.95 144.382 39.2333 145.716 37.6C147.049 35.9667 148.149 34.3667 149.016 32.8C149.882 31.2 150.532 29.6167 150.966 28.05C151.399 26.45 151.616 24.7667 151.616 23C151.616 20.1 150.916 17.8833 149.516 16.35C148.149 14.7833 146.049 14 143.216 14C142.049 14 140.982 14.1667 140.016 14.5C139.049 14.8333 138.182 15.2833 137.416 15.85C136.649 16.4167 135.982 17.0833 135.416 17.85C134.882 18.6167 134.449 19.45 134.116 20.35C133.582 21.85 132.899 22.9333 132.066 23.6C131.266 24.2667 130.166 24.6 128.766 24.6C128.432 24.6 128.066 24.5833 127.666 24.55C127.299 24.5167 126.916 24.4667 126.516 24.4L118.316 22.95C118.849 19.3167 119.866 16.15 121.366 13.45C122.899 10.75 124.782 8.5 127.016 6.7C129.282 4.9 131.866 3.56666 134.766 2.7C137.666 1.8 140.782 1.35 144.116 1.35ZM203.523 1.35C207.123 1.35 210.323 1.86666 213.123 2.9C215.923 3.9 218.29 5.26666 220.223 7C222.157 8.73333 223.623 10.75 224.623 13.05C225.623 15.3167 226.123 17.7167 226.123 20.25C226.123 22.55 225.89 24.5833 225.423 26.35C224.957 28.0833 224.257 29.6 223.323 30.9C222.423 32.1667 221.29 33.25 219.923 34.15C218.59 35.05 217.057 35.8 215.323 36.4C223.39 39.2 227.423 44.6833 227.423 52.85C227.423 56.7167 226.723 60.0833 225.323 62.95C223.923 65.8167 222.04 68.2 219.673 70.1C217.34 72 214.623 73.4333 211.523 74.4C208.423 75.3333 205.19 75.8 201.823 75.8C198.357 75.8 195.273 75.4333 192.573 74.7C189.873 73.9333 187.473 72.7667 185.373 71.2C183.273 69.6 181.423 67.5667 179.823 65.1C178.257 62.6333 176.89 59.7 175.723 56.3L182.623 53.5C183.223 53.2333 183.807 53.05 184.373 52.95C184.973 52.85 185.557 52.8 186.123 52.8C187.19 52.8 188.14 53.0167 188.973 53.45C189.84 53.85 190.49 54.45 190.923 55.25C192.423 58.0167 194.007 60.0333 195.673 61.3C197.373 62.5333 199.357 63.15 201.623 63.15C203.357 63.15 204.857 62.8667 206.123 62.3C207.423 61.7 208.49 60.95 209.323 60.05C210.19 59.1167 210.84 58.0667 211.273 56.9C211.707 55.7333 211.923 54.55 211.923 53.35C211.923 51.7833 211.807 50.3833 211.573 49.15C211.373 47.8833 210.773 46.8 209.773 45.9C208.773 45 207.257 44.3167 205.223 43.85C203.223 43.35 200.423 43.1 196.823 43.1V32.4C199.857 32.4 202.307 32.1667 204.173 31.7C206.04 31.2333 207.473 30.6 208.473 29.8C209.507 28.9667 210.19 27.9667 210.523 26.8C210.857 25.6333 211.023 24.35 211.023 22.95C211.023 20.0833 210.323 17.8833 208.923 16.35C207.557 14.7833 205.457 14 202.623 14C201.457 14 200.39 14.1667 199.423 14.5C198.457 14.8333 197.59 15.2833 196.823 15.85C196.057 16.4167 195.39 17.0833 194.823 17.85C194.29 18.6167 193.857 19.45 193.523 20.35C192.99 21.85 192.307 22.9333 191.473 23.6C190.673 24.2667 189.573 24.6 188.173 24.6C187.84 24.6 187.473 24.5833 187.073 24.55C186.707 24.5167 186.323 24.4667 185.923 24.4L177.723 22.95C178.257 19.3167 179.273 16.15 180.773 13.45C182.307 10.75 184.19 8.5 186.423 6.7C188.69 4.9 191.273 3.56666 194.173 2.7C197.073 1.8 200.19 1.35 203.523 1.35Z" fill="white" fill-opacity="0.01"/>
<path d="M37.8 2.94999L37.4512 3.88731L37.4644 3.89198L37.8 2.94999ZM45.2 7.3L45.8763 6.56334L45.8763 6.56334L45.2 7.3ZM49.85 14L48.9248 14.3796L48.9278 14.3868L48.9309 14.3939L49.85 14ZM50.35 29.9L49.4026 29.5796L49.3986 29.5922L50.35 29.9ZM47.3 36.4L48.1425 36.9387L48.1465 36.9325L47.3 36.4ZM42.75 42.35L42.0054 41.6825L42.0048 41.6832L42.75 42.35ZM37.3 48.15L36.5869 47.449L36.5844 47.4515L37.3 48.15ZM23.05 62.75L22.3344 62.0515L19.679 64.7721L23.3293 63.7102L23.05 62.75ZM28.45 61.5L28.6174 62.4859L28.6248 62.4846L28.6321 62.4833L28.45 61.5ZM51.05 62.4L50.3554 63.1194L50.3619 63.1257L50.3686 63.1319L51.05 62.4ZM52.5 75V76H53.5V75H52.5ZM1.3 75H0.3V76H1.3V75ZM1.9 66.9L2.83979 67.2417L2.83979 67.2417L1.9 66.9ZM4 63.9L4.66897 64.6433L4.68984 64.6245L4.70962 64.6046L4 63.9ZM25 42.75L24.2929 42.0429L24.2904 42.0454L25 42.75ZM29.7 37.6L28.9253 36.9676L28.9253 36.9676L29.7 37.6ZM33 32.8L33.8751 33.2841L33.8793 33.2763L33 32.8ZM34.95 28.05L35.9138 28.3166L35.9152 28.3114L34.95 28.05ZM33.5 16.35L32.7464 17.0074L32.7539 17.0159L32.7615 17.0243L33.5 16.35ZM24 14.5L24.326 15.4454L24.326 15.4454L24 14.5ZM21.4 15.85L20.8056 15.0458L20.8056 15.0458L21.4 15.85ZM19.4 17.85L18.5958 17.2556L18.5873 17.2672L18.5791 17.2789L19.4 17.85ZM18.1 20.35L17.1622 20.0027L17.1578 20.015L18.1 20.35ZM16.05 23.6L15.4253 22.8191L15.4175 22.8254L15.4098 22.8318L16.05 23.6ZM11.65 24.55L11.5595 25.5459L11.567 25.5465L11.65 24.55ZM10.5 24.4L10.3259 25.3848L10.3356 25.3864L10.5 24.4ZM2.3 22.95L1.3106 22.8048L1.16956 23.7656L2.12587 23.9347L2.3 22.95ZM5.35 13.45L4.4804 12.9561L4.47584 12.9644L5.35 13.45ZM11 6.7L10.3781 5.91687L10.3725 5.9214L11 6.7ZM18.75 2.7L19.0364 3.65818L19.0464 3.65506L18.75 2.7ZM28.1 2.35C31.6016 2.35 34.714 2.8687 37.4513 3.88722L38.1487 2.01277C35.1527 0.897957 31.7984 0.349998 28.1 0.349998V2.35ZM37.4644 3.89198C40.2528 4.88556 42.5998 6.27044 44.5237 8.03665L45.8763 6.56334C43.7335 4.59621 41.1472 3.0811 38.1357 2.00801L37.4644 3.89198ZM44.5237 8.03665C46.4469 9.80216 47.9129 11.9129 48.9248 14.3796L50.7752 13.6204C49.6538 10.8871 48.0198 8.53117 45.8763 6.56334L44.5237 8.03665ZM48.9309 14.3939C49.9719 16.8231 50.5 19.5205 50.5 22.5H52.5C52.5 19.2795 51.9281 16.3103 50.7691 13.6061L48.9309 14.3939ZM50.5 22.5C50.5 25.0701 50.1307 27.4272 49.4027 29.5796L51.2973 30.2204C52.1026 27.8394 52.5 25.2633 52.5 22.5H50.5ZM49.3986 29.5922C48.6914 31.778 47.7105 33.8694 46.4535 35.8675L48.1465 36.9325C49.4895 34.7973 50.5419 32.5554 51.3014 30.2078L49.3986 29.5922ZM46.4575 35.8613C45.1887 37.8458 43.7054 39.7864 42.0054 41.6825L43.4946 43.0175C45.2613 41.047 46.8113 39.0208 48.1425 36.9387L46.4575 35.8613ZM42.0048 41.6832C40.316 43.5706 38.5101 45.4926 36.5869 47.449L38.0131 48.851C39.9566 46.8741 41.784 44.9294 43.4952 43.0168L42.0048 41.6832ZM36.5844 47.4515L22.3344 62.0515L23.7656 63.4485L38.0156 48.8485L36.5844 47.4515ZM23.3293 63.7102C25.1283 63.1869 26.8909 62.7791 28.6174 62.4859L28.2826 60.5141C26.4758 60.8209 24.6384 61.2465 22.7707 61.7898L23.3293 63.7102ZM28.6321 62.4833C30.3818 62.1593 32.0036 62 33.5 62V60C31.8631 60 30.1182 60.1741 28.2679 60.5167L28.6321 62.4833ZM33.5 62H47.1V60H33.5V62ZM47.1 62C48.5731 62 49.6176 62.407 50.3554 63.1194L51.7446 61.6806C50.5491 60.5263 48.9602 60 47.1 60V62ZM50.3686 63.1319C51.1036 63.8162 51.5 64.7361 51.5 66H53.5C53.5 64.2639 52.9298 62.7838 51.7314 61.6681L50.3686 63.1319ZM51.5 66V75H53.5V66H51.5ZM52.5 74H1.3V76H52.5V74ZM2.3 75V70H0.3V75H2.3ZM2.3 70C2.3 69.1715 2.47148 68.2546 2.83979 67.2417L0.960207 66.5583C0.528518 67.7454 0.3 68.8951 0.3 70H2.3ZM2.83979 67.2417C3.17592 66.3174 3.77244 65.4502 4.66897 64.6433L3.33104 63.1567C2.22756 64.1498 1.42408 65.2826 0.960207 66.5583L2.83979 67.2417ZM4.70962 64.6046L25.7096 43.4546L24.2904 42.0454L3.29038 63.1954L4.70962 64.6046ZM25.7071 43.4571C27.5262 41.638 29.1163 39.8964 30.4747 38.2324L28.9253 36.9676C27.6171 38.5703 26.0738 40.262 24.2929 42.0429L25.7071 43.4571ZM30.4747 38.2324C31.8394 36.5606 32.9749 34.9113 33.875 33.2841L32.125 32.3159C31.2918 33.822 30.2273 35.3727 28.9253 36.9676L30.4747 38.2324ZM33.8793 33.2763C34.7778 31.6176 35.4581 29.9642 35.9138 28.3166L33.9862 27.7834C33.5752 29.2692 32.9556 30.7824 32.1207 32.3237L33.8793 33.2763ZM35.9152 28.3114C36.3731 26.6208 36.6 24.8492 36.6 23H34.6C34.6 24.6842 34.3936 26.2792 33.9848 27.7886L35.9152 28.3114ZM36.6 23C36.6 19.9497 35.8634 17.4554 34.2385 15.6757L32.7615 17.0243C33.9366 18.3113 34.6 20.2503 34.6 23H36.6ZM34.2536 15.6926C32.6351 13.8373 30.2124 13 27.2 13V15C29.8543 15 31.6316 15.7294 32.7464 17.0074L34.2536 15.6926ZM27.2 13C25.9378 13 24.7592 13.1804 23.674 13.5546L24.326 15.4454C25.1741 15.1529 26.1289 15 27.2 15V13ZM23.674 13.5546C22.6182 13.9187 21.6598 14.4145 20.8056 15.0458L21.9944 16.6542C22.6736 16.1522 23.4485 15.748 24.326 15.4454L23.674 13.5546ZM20.8056 15.0458C19.959 15.6716 19.2216 16.409 18.5958 17.2556L20.2042 18.4444C20.7117 17.7577 21.3077 17.1617 21.9944 16.6542L20.8056 15.0458ZM18.5791 17.2789C17.9962 18.1169 17.5241 19.0257 17.1623 20.0027L19.0377 20.6973C19.3426 19.8743 19.7371 19.1165 20.2209 18.4211L18.5791 17.2789ZM17.1578 20.015C16.6582 21.4202 16.0587 22.3124 15.4253 22.8191L16.6747 24.3809C17.708 23.5542 18.4752 22.2798 19.0422 20.685L17.1578 20.015ZM15.4098 22.8318C14.8431 23.304 13.9969 23.6 12.75 23.6V25.6C14.3031 25.6 15.6569 25.2293 16.6902 24.3682L15.4098 22.8318ZM12.75 23.6C12.4493 23.6 12.1108 23.5849 11.733 23.5535L11.567 25.5465C11.9892 25.5817 12.384 25.6 12.75 25.6V23.6ZM11.7405 23.5541C11.4009 23.5232 11.0423 23.4766 10.6644 23.4136L10.3356 25.3864C10.7577 25.4567 11.1657 25.5101 11.5595 25.5459L11.7405 23.5541ZM10.6741 23.4153L2.47413 21.9653L2.12587 23.9347L10.3259 25.3847L10.6741 23.4153ZM3.2894 23.0952C3.80843 19.5593 4.79274 16.5122 6.22416 13.9356L4.47584 12.9644C2.90726 15.7878 1.85824 19.074 1.3106 22.8048L3.2894 23.0952ZM6.21956 13.9438C7.69598 11.344 9.49985 9.19343 11.6275 7.47859L10.3725 5.9214C8.03348 7.80656 6.07069 10.156 4.48044 12.9562L6.21956 13.9438ZM11.6219 7.48311C13.7843 5.76587 16.2526 4.49003 19.0363 3.65812L18.4637 1.74187C15.4474 2.64329 12.749 4.03413 10.3781 5.91689L11.6219 7.48311ZM19.0464 3.65506C21.8415 2.78761 24.8574 2.35 28.1 2.35V0.349998C24.6759 0.349998 21.4585 0.812387 18.4536 1.74493L19.0464 3.65506ZM109.958 55.1L108.998 54.8189L108.998 54.8189L109.958 55.1ZM104.258 66.7L103.474 66.0784L103.47 66.0837L104.258 66.7ZM95.6578 73.55L95.2474 72.6381L95.244 72.6396L95.6578 73.55ZM74.1578 73.55L73.7405 74.4588L73.744 74.4604L74.1578 73.55ZM65.6578 66.7L64.8703 67.3163L64.8703 67.3163L65.6578 66.7ZM60.0078 55.1L59.0463 55.3747L59.0481 55.3811L60.0078 55.1ZM60.0078 22L59.0481 21.7189L59.0463 21.7253L60.0078 22ZM65.6578 10.4L64.8703 9.78369L64.8703 9.78369L65.6578 10.4ZM74.1578 3.6L74.5674 4.51227L74.5716 4.51036L74.1578 3.6ZM95.6578 3.6L95.244 4.51043L95.2551 4.51531L95.6578 3.6ZM104.258 10.4L103.47 11.0163L103.474 11.0216L104.258 10.4ZM109.958 22L108.998 22.281L108.998 22.281L109.958 22ZM95.0578 26.2L94.0765 26.3922L94.0768 26.3941L95.0578 26.2ZM92.5078 18.6L91.6366 19.0911L91.6435 19.1029L92.5078 18.6ZM88.9578 14.85L88.493 15.7354L88.5017 15.74L88.5106 15.7444L88.9578 14.85ZM80.8578 14.85L81.3142 15.7399L81.3226 15.7354L80.8578 14.85ZM77.3578 18.6L76.4866 18.1089L76.4799 18.1211L77.3578 18.6ZM74.9078 26.2L73.9264 26.0078L73.9249 26.0157L74.9078 26.2ZM74.9078 50.95L73.9249 51.1343L73.9268 51.1441L74.9078 50.95ZM77.3578 58.55L76.4763 59.0222L76.4814 59.0317L76.4867 59.041L77.3578 58.55ZM80.8578 62.35L80.3837 63.2305L80.3971 63.2377L80.4106 63.2444L80.8578 62.35ZM88.9578 62.35L89.405 63.2444L89.4139 63.24L89.4226 63.2354L88.9578 62.35ZM92.5078 58.55L91.6396 58.0539L91.6367 58.059L92.5078 58.55ZM95.0578 50.95L94.0768 50.7558L94.0768 50.7558L95.0578 50.95ZM111.008 38.55C111.008 44.8491 110.331 50.2667 108.998 54.8189L110.918 55.3811C112.318 50.5999 113.008 44.9842 113.008 38.55H111.008ZM108.998 54.8189C107.659 59.3908 105.811 63.1341 103.474 66.0784L105.041 67.3216C107.572 64.1326 109.523 60.1426 110.918 55.3811L108.998 54.8189ZM103.47 66.0837C101.163 69.0313 98.4233 71.2089 95.2475 72.6381L96.0682 74.4619C99.559 72.8911 102.552 70.502 105.045 67.3163L103.47 66.0837ZM95.244 72.6396C92.0825 74.0767 88.6414 74.8 84.9078 74.8V76.8C88.9075 76.8 92.6331 76.0233 96.0716 74.4604L95.244 72.6396ZM84.9078 74.8C81.1742 74.8 77.7331 74.0767 74.5716 72.6396L73.744 74.4604C77.1825 76.0233 80.9081 76.8 84.9078 76.8V74.8ZM74.5751 72.6412C71.4653 71.2132 68.7554 69.0354 66.4453 66.0837L64.8703 67.3163C67.3602 70.4979 70.317 72.8868 73.7405 74.4588L74.5751 72.6412ZM66.4453 66.0837C64.1402 63.1383 62.3071 59.3931 60.9675 54.8189L59.0481 55.3811C60.4419 60.1402 62.3754 64.1284 64.8703 67.3163L66.4453 66.0837ZM60.9693 54.8253C59.668 50.2708 59.0078 44.8509 59.0078 38.55H57.0078C57.0078 44.9824 57.6809 50.5959 59.0463 55.3747L60.9693 54.8253ZM59.0078 38.55C59.0078 32.2491 59.668 26.8292 60.9693 22.2747L59.0463 21.7253C57.6809 26.5041 57.0078 32.1176 57.0078 38.55H59.0078ZM60.9675 22.281C62.3071 17.7069 64.1402 13.9617 66.4453 11.0163L64.8703 9.78369C62.3754 12.9716 60.4419 16.9598 59.0481 21.7189L60.9675 22.281ZM66.4453 11.0163C68.7542 8.06607 71.4616 5.90672 74.5674 4.51226L73.7482 2.68773C70.3207 4.22661 67.3614 6.60059 64.8703 9.78369L66.4453 11.0163ZM74.5716 4.51036C77.7331 3.07332 81.1742 2.35 84.9078 2.35V0.349998C80.9081 0.349998 77.1825 1.12668 73.744 2.68963L74.5716 4.51036ZM84.9078 2.35C88.6414 2.35 92.0825 3.07332 95.244 4.51036L96.0716 2.68963C92.6331 1.12668 88.9075 0.349998 84.9078 0.349998V2.35ZM95.2551 4.51531C98.4271 5.91098 101.165 8.07025 103.47 11.0163L105.045 9.78369C102.551 6.59641 99.5552 4.22235 96.0606 2.68468L95.2551 4.51531ZM103.474 11.0216C105.811 13.9659 107.659 17.7092 108.998 22.281L110.918 21.7189C109.523 16.9574 107.572 12.9674 105.041 9.77842L103.474 11.0216ZM108.998 22.281C110.331 26.8333 111.008 32.2509 111.008 38.55H113.008C113.008 32.1158 112.318 26.5001 110.918 21.7189L108.998 22.281ZM97.0078 38.55C97.0078 33.4825 96.6896 29.2943 96.0388 26.0058L94.0768 26.3941C94.6927 29.5056 95.0078 33.5508 95.0078 38.55H97.0078ZM96.0392 26.0078C95.3949 22.7187 94.517 20.0647 93.3722 18.0971L91.6435 19.1029C92.632 20.8019 93.454 23.2146 94.0765 26.3922L96.0392 26.0078ZM93.379 18.109C92.2865 16.1707 90.9763 14.7412 89.405 13.9556L88.5106 15.7444C89.606 16.2921 90.6625 17.3626 91.6367 19.091L93.379 18.109ZM89.4226 13.9646C87.9608 13.1971 86.4524 12.8 84.9078 12.8V14.8C86.0965 14.8 87.2881 15.1029 88.493 15.7354L89.4226 13.9646ZM84.9078 12.8C83.3632 12.8 81.8548 13.1971 80.393 13.9646L81.3226 15.7354C82.5275 15.1029 83.7191 14.8 84.9078 14.8V12.8ZM80.4015 13.9602C78.8661 14.7476 77.5759 16.1765 76.4867 18.109L78.229 19.091C79.2064 17.3568 80.2495 16.2858 81.3141 15.7398L80.4015 13.9602ZM76.4799 18.1211C75.4112 20.0805 74.5695 22.725 73.9265 26.0078L75.8892 26.3922C76.5128 23.2083 77.3044 20.7862 78.2357 19.0789L76.4799 18.1211ZM73.9249 26.0157C73.3092 29.2999 73.0078 33.4844 73.0078 38.55H75.0078C75.0078 33.5489 75.3065 29.5001 75.8907 26.3843L73.9249 26.0157ZM73.0078 38.55C73.0078 43.6485 73.3091 47.8498 73.9249 51.1343L75.8907 50.7657C75.3065 47.6502 75.0078 43.5849 75.0078 38.55H73.0078ZM73.9268 51.1441C74.5702 54.3948 75.4115 57.0346 76.4763 59.0222L78.2393 58.0778C77.3041 56.3321 76.5121 53.9052 75.8888 50.7558L73.9268 51.1441ZM76.4867 59.041C77.5753 60.9724 78.8607 62.4104 80.3837 63.2305L81.3319 61.4695C80.255 60.8896 79.207 59.7943 78.229 58.059L76.4867 59.041ZM80.4106 63.2444C81.87 63.9741 83.3722 64.35 84.9078 64.35V62.35C83.7101 62.35 82.5123 62.0592 81.305 61.4556L80.4106 63.2444ZM84.9078 64.35C86.4435 64.35 87.9457 63.9741 89.405 63.2444L88.5106 61.4556C87.3033 62.0592 86.1055 62.35 84.9078 62.35V64.35ZM89.4226 63.2354C90.9818 62.4169 92.2872 60.9781 93.379 59.041L91.6367 58.059C90.6618 59.7886 89.6005 60.8831 88.493 61.4646L89.4226 63.2354ZM93.3761 59.0461C94.5166 57.0503 95.3942 54.4012 96.0388 51.1441L94.0768 50.7558C93.4548 53.8988 92.6324 56.3164 91.6396 58.0539L93.3761 59.0461ZM96.0388 51.1441C96.6897 47.8553 97.0078 43.6503 97.0078 38.55H95.0078C95.0078 43.583 94.6926 47.6447 94.0768 50.7558L96.0388 51.1441ZM153.816 2.94999L153.467 3.88731L153.48 3.89198L153.816 2.94999ZM161.216 7.3L161.892 6.56334L161.892 6.56334L161.216 7.3ZM165.866 14L164.94 14.3796L164.943 14.3868L164.946 14.3939L165.866 14ZM166.366 29.9L165.418 29.5796L165.414 29.5922L166.366 29.9ZM163.316 36.4L164.158 36.9387L164.162 36.9325L163.316 36.4ZM158.766 42.35L158.021 41.6825L158.02 41.6832L158.766 42.35ZM153.316 48.15L152.602 47.449L152.6 47.4515L153.316 48.15ZM139.066 62.75L138.35 62.0515L135.695 64.7721L139.345 63.7102L139.066 62.75ZM144.466 61.5L144.633 62.4859L144.64 62.4846L144.648 62.4833L144.466 61.5ZM167.066 62.4L166.371 63.1194L166.378 63.1257L166.384 63.1319L167.066 62.4ZM168.516 75V76H169.516V75H168.516ZM117.316 75H116.316V76H117.316V75ZM117.916 66.9L118.855 67.2417L118.855 67.2417L117.916 66.9ZM120.016 63.9L120.685 64.6433L120.705 64.6245L120.725 64.6046L120.016 63.9ZM141.016 42.75L140.309 42.0429L140.306 42.0454L141.016 42.75ZM145.716 37.6L144.941 36.9676L144.941 36.9676L145.716 37.6ZM149.016 32.8L149.891 33.2841L149.895 33.2763L149.016 32.8ZM150.966 28.05L151.929 28.3166L151.931 28.3114L150.966 28.05ZM149.516 16.35L148.762 17.0074L148.77 17.0159L148.777 17.0243L149.516 16.35ZM140.016 14.5L140.342 15.4454L140.342 15.4454L140.016 14.5ZM137.416 15.85L136.821 15.0458L136.821 15.0458L137.416 15.85ZM135.416 17.85L134.611 17.2556L134.603 17.2672L134.595 17.2789L135.416 17.85ZM134.116 20.35L133.178 20.0027L133.173 20.015L134.116 20.35ZM132.066 23.6L131.441 22.8191L131.433 22.8254L131.425 22.8318L132.066 23.6ZM127.666 24.55L127.575 25.5459L127.583 25.5465L127.666 24.55ZM126.516 24.4L126.341 25.3848L126.351 25.3864L126.516 24.4ZM118.316 22.95L117.326 22.8048L117.185 23.7656L118.141 23.9347L118.316 22.95ZM121.366 13.45L120.496 12.9561L120.491 12.9644L121.366 13.45ZM127.016 6.7L126.394 5.91687L126.388 5.9214L127.016 6.7ZM134.766 2.7L135.052 3.65818L135.062 3.65506L134.766 2.7ZM144.116 2.35C147.617 2.35 150.73 2.8687 153.467 3.88722L154.164 2.01277C151.168 0.897957 147.814 0.349998 144.116 0.349998V2.35ZM153.48 3.89198C156.268 4.88556 158.615 6.27044 160.539 8.03665L161.892 6.56334C159.749 4.59621 157.163 3.0811 154.151 2.00801L153.48 3.89198ZM160.539 8.03665C162.463 9.80216 163.928 11.9129 164.94 14.3796L166.791 13.6204C165.669 10.8871 164.035 8.53117 161.892 6.56334L160.539 8.03665ZM164.946 14.3939C165.988 16.8231 166.516 19.5205 166.516 22.5H168.516C168.516 19.2795 167.944 16.3103 166.785 13.6061L164.946 14.3939ZM166.516 22.5C166.516 25.0701 166.146 27.4272 165.418 29.5796L167.313 30.2204C168.118 27.8394 168.516 25.2633 168.516 22.5H166.516ZM165.414 29.5922C164.707 31.778 163.726 33.8694 162.469 35.8675L164.162 36.9325C165.505 34.7973 166.558 32.5554 167.317 30.2078L165.414 29.5922ZM162.473 35.8613C161.204 37.8458 159.721 39.7864 158.021 41.6825L159.51 43.0175C161.277 41.047 162.827 39.0208 164.158 36.9387L162.473 35.8613ZM158.02 41.6832C156.332 43.5706 154.526 45.4926 152.603 47.449L154.029 48.851C155.972 46.8741 157.8 44.9294 159.511 43.0168L158.02 41.6832ZM152.6 47.4515L138.35 62.0515L139.781 63.4485L154.031 48.8485L152.6 47.4515ZM139.345 63.7102C141.144 63.1869 142.907 62.7791 144.633 62.4859L144.298 60.5141C142.491 60.8209 140.654 61.2465 138.786 61.7898L139.345 63.7102ZM144.648 62.4833C146.397 62.1593 148.019 62 149.516 62V60C147.879 60 146.134 60.1741 144.284 60.5167L144.648 62.4833ZM149.516 62H163.116V60H149.516V62ZM163.116 62C164.589 62 165.633 62.407 166.371 63.1194L167.76 61.6806C166.565 60.5263 164.976 60 163.116 60V62ZM166.384 63.1319C167.119 63.8162 167.516 64.7361 167.516 66H169.516C169.516 64.2639 168.945 62.7838 167.747 61.6681L166.384 63.1319ZM167.516 66V75H169.516V66H167.516ZM168.516 74H117.316V76H168.516V74ZM118.316 75V70H116.316V75H118.316ZM118.316 70C118.316 69.1715 118.487 68.2546 118.855 67.2417L116.976 66.5583C116.544 67.7454 116.316 68.8951 116.316 70H118.316ZM118.855 67.2417C119.192 66.3174 119.788 65.4502 120.685 64.6433L119.347 63.1567C118.243 64.1498 117.44 65.2826 116.976 66.5583L118.855 67.2417ZM120.725 64.6046L141.725 43.4546L140.306 42.0454L119.306 63.1954L120.725 64.6046ZM141.723 43.4571C143.542 41.638 145.132 39.8964 146.49 38.2324L144.941 36.9676C143.633 38.5703 142.089 40.262 140.309 42.0429L141.723 43.4571ZM146.49 38.2324C147.855 36.5606 148.99 34.9113 149.891 33.2841L148.141 32.3159C147.307 33.822 146.243 35.3727 144.941 36.9676L146.49 38.2324ZM149.895 33.2763C150.793 31.6176 151.474 29.9642 151.929 28.3166L150.002 27.7834C149.591 29.2692 148.971 30.7824 148.136 32.3237L149.895 33.2763ZM151.931 28.3114C152.389 26.6208 152.616 24.8492 152.616 23H150.616C150.616 24.6842 150.409 26.2792 150 27.7886L151.931 28.3114ZM152.616 23C152.616 19.9497 151.879 17.4554 150.254 15.6757L148.777 17.0243C149.952 18.3113 150.616 20.2503 150.616 23H152.616ZM150.269 15.6926C148.651 13.8373 146.228 13 143.216 13V15C145.87 15 147.647 15.7294 148.762 17.0074L150.269 15.6926ZM143.216 13C141.953 13 140.775 13.1804 139.69 13.5546L140.342 15.4454C141.19 15.1529 142.144 15 143.216 15V13ZM139.69 13.5546C138.634 13.9187 137.675 14.4145 136.821 15.0458L138.01 16.6542C138.689 16.1522 139.464 15.748 140.342 15.4454L139.69 13.5546ZM136.821 15.0458C135.975 15.6716 135.237 16.409 134.611 17.2556L136.22 18.4444C136.727 17.7577 137.323 17.1617 138.01 16.6542L136.821 15.0458ZM134.595 17.2789C134.012 18.1169 133.54 19.0257 133.178 20.0027L135.053 20.6973C135.358 19.8743 135.753 19.1165 136.237 18.4211L134.595 17.2789ZM133.173 20.015C132.674 21.4202 132.074 22.3124 131.441 22.8191L132.69 24.3809C133.724 23.5542 134.491 22.2798 135.058 20.685L133.173 20.015ZM131.425 22.8318C130.859 23.304 130.013 23.6 128.766 23.6V25.6C130.319 25.6 131.672 25.2293 132.706 24.3682L131.425 22.8318ZM128.766 23.6C128.465 23.6 128.126 23.5849 127.749 23.5535L127.583 25.5465C128.005 25.5817 128.4 25.6 128.766 25.6V23.6ZM127.756 23.5541C127.417 23.5232 127.058 23.4766 126.68 23.4136L126.351 25.3864C126.773 25.4567 127.181 25.5101 127.575 25.5459L127.756 23.5541ZM126.69 23.4153L118.49 21.9653L118.141 23.9347L126.341 25.3847L126.69 23.4153ZM119.305 23.0952C119.824 19.5593 120.808 16.5122 122.24 13.9356L120.491 12.9644C118.923 15.7878 117.874 19.074 117.326 22.8048L119.305 23.0952ZM122.235 13.9438C123.712 11.344 125.515 9.19343 127.643 7.47859L126.388 5.9214C124.049 7.80656 122.086 10.156 120.496 12.9562L122.235 13.9438ZM127.638 7.48311C129.8 5.76587 132.268 4.49003 135.052 3.65812L134.479 1.74187C131.463 2.64329 128.765 4.03413 126.394 5.91689L127.638 7.48311ZM135.062 3.65506C137.857 2.78761 140.873 2.35 144.116 2.35V0.349998C140.692 0.349998 137.474 0.812387 134.469 1.74493L135.062 3.65506ZM213.123 2.9L212.777 3.8382L212.787 3.84174L213.123 2.9ZM220.223 7L219.556 7.74457L219.556 7.74457L220.223 7ZM224.623 13.05L223.706 13.4487L223.709 13.4536L224.623 13.05ZM225.423 26.35L226.389 26.61L226.39 26.6054L225.423 26.35ZM223.323 30.9L222.511 30.3168L222.508 30.3208L223.323 30.9ZM219.923 34.15L219.373 33.3148L219.364 33.3211L219.923 34.15ZM215.323 36.4L214.996 35.455L212.27 36.3987L214.996 37.3447L215.323 36.4ZM225.323 62.95L226.222 63.3888L226.222 63.3888L225.323 62.95ZM219.673 70.1L219.047 69.3202L219.042 69.3246L219.673 70.1ZM211.523 74.4L211.812 75.3576L211.821 75.3547L211.523 74.4ZM192.573 74.7L192.3 75.662L192.311 75.665L192.573 74.7ZM185.373 71.2L184.767 71.9955L184.775 72.0015L185.373 71.2ZM179.823 65.1L178.979 65.6362L178.984 65.6442L179.823 65.1ZM175.723 56.3L175.347 55.3734L174.47 55.7293L174.778 56.6246L175.723 56.3ZM182.623 53.5L182.999 54.4266L183.015 54.4205L183.03 54.4138L182.623 53.5ZM184.373 52.95L184.209 51.9636L184.2 51.9652L184.373 52.95ZM188.973 53.45L188.512 54.3372L188.533 54.3481L188.554 54.358L188.973 53.45ZM190.923 55.25L190.044 55.7263L190.044 55.7266L190.923 55.25ZM195.673 61.3L195.068 62.0962L195.077 62.1029L195.086 62.1094L195.673 61.3ZM206.123 62.3L206.532 63.2129L206.542 63.208L206.123 62.3ZM209.323 60.05L208.591 59.3695L208.59 59.3706L209.323 60.05ZM211.573 49.15L210.586 49.306L210.588 49.321L210.591 49.3359L211.573 49.15ZM209.773 45.9L210.442 45.1567L210.442 45.1567L209.773 45.9ZM205.223 43.85L204.981 44.8201L204.99 44.8225L205 44.8247L205.223 43.85ZM196.823 43.1H195.823V44.1H196.823V43.1ZM196.823 32.4V31.4H195.823V32.4H196.823ZM204.173 31.7L203.931 30.7299L203.931 30.7299L204.173 31.7ZM208.473 29.8L209.098 30.5809L209.101 30.5784L208.473 29.8ZM208.923 16.35L208.17 17.0074L208.177 17.0159L208.185 17.0243L208.923 16.35ZM196.823 15.85L196.229 15.0458L196.229 15.0458L196.823 15.85ZM194.823 17.85L194.019 17.2556L194.011 17.2672L194.003 17.2789L194.823 17.85ZM193.523 20.35L192.586 20.0027L192.581 20.015L193.523 20.35ZM191.473 23.6L190.849 22.8191L190.841 22.8254L190.833 22.8318L191.473 23.6ZM187.073 24.55L186.983 25.5459L186.99 25.5465L187.073 24.55ZM185.923 24.4L185.749 25.3848L185.759 25.3864L185.923 24.4ZM177.723 22.95L176.734 22.8048L176.593 23.7656L177.549 23.9347L177.723 22.95ZM180.773 13.45L179.904 12.9561L179.899 12.9644L180.773 13.45ZM186.423 6.7L185.802 5.91687L185.796 5.9214L186.423 6.7ZM194.173 2.7L194.46 3.65818L194.47 3.65506L194.173 2.7ZM203.523 2.35C207.029 2.35 210.108 2.85319 212.777 3.83815L213.47 1.96185C210.539 0.880142 207.218 0.349998 203.523 0.349998V2.35ZM212.787 3.84174C215.483 4.80439 217.732 6.10945 219.556 7.74457L220.891 6.25543C218.848 4.42387 216.364 2.9956 213.46 1.95826L212.787 3.84174ZM219.556 7.74457C221.386 9.38538 222.766 11.2853 223.706 13.4487L225.541 12.6513C224.481 10.2147 222.928 8.08128 220.891 6.25543L219.556 7.74457ZM223.709 13.4536C224.651 15.5902 225.123 17.8524 225.123 20.25H227.123C227.123 17.5809 226.596 15.0431 225.538 12.6464L223.709 13.4536ZM225.123 20.25C225.123 22.4849 224.896 24.4295 224.457 26.0946L226.39 26.6054C226.884 24.7372 227.123 22.6151 227.123 20.25H225.123ZM224.458 26.09C224.019 27.7213 223.366 29.1256 222.511 30.3168L224.136 31.4832C225.147 30.0744 225.895 28.4454 226.389 26.61L224.458 26.09ZM222.508 30.3208C221.684 31.4811 220.642 32.4793 219.373 33.3148L220.473 34.9852C221.938 34.0207 223.163 32.8522 224.139 31.4792L222.508 30.3208ZM219.364 33.3211C218.112 34.1663 216.659 34.8796 214.996 35.455L215.651 37.345C217.455 36.7204 219.068 35.9337 220.483 34.9788L219.364 33.3211ZM214.996 37.3447C218.887 38.6953 221.723 40.6636 223.593 43.205C225.46 45.7428 226.423 48.9362 226.423 52.85H228.423C228.423 48.5972 227.371 44.9655 225.204 42.02C223.04 39.0781 219.827 36.9047 215.651 35.4553L214.996 37.3447ZM226.423 52.85C226.423 56.5963 225.745 59.8071 224.425 62.5112L226.222 63.3888C227.701 60.3596 228.423 56.837 228.423 52.85H226.423ZM224.425 62.5112C223.086 65.2524 221.293 67.5171 219.047 69.3202L220.299 70.8798C222.787 68.8829 224.761 66.3809 226.222 63.3888L224.425 62.5112ZM219.042 69.3246C216.815 71.1379 214.214 72.5136 211.226 73.4453L211.821 75.3547C215.033 74.3531 217.865 72.8621 220.305 70.8754L219.042 69.3246ZM211.235 73.4425C208.232 74.3465 205.096 74.8 201.823 74.8V76.8C205.284 76.8 208.615 76.3201 211.812 75.3575L211.235 73.4425ZM201.823 74.8C198.425 74.8 195.433 74.4403 192.836 73.735L192.311 75.665C195.114 76.4263 198.288 76.8 201.823 76.8V74.8ZM192.847 73.738C190.255 73.0022 187.967 71.8873 185.971 70.3985L184.775 72.0015C186.98 73.6461 189.492 74.8644 192.3 75.662L192.847 73.738ZM185.979 70.4046C183.981 68.8818 182.207 66.9369 180.662 64.5558L178.984 65.6442C180.64 68.1965 182.566 70.3182 184.767 71.9954L185.979 70.4046ZM180.668 64.5639C179.151 62.1766 177.816 59.3174 176.669 55.9754L174.778 56.6246C175.964 60.0825 177.362 63.0901 178.979 65.6361L180.668 64.5639ZM176.099 57.2266L182.999 54.4266L182.247 52.5734L175.347 55.3734L176.099 57.2266ZM183.03 54.4138C183.566 54.1756 184.071 54.0188 184.547 53.9348L184.2 51.9652C183.543 52.0812 182.881 52.2911 182.217 52.5862L183.03 54.4138ZM184.538 53.9364C185.087 53.8448 185.616 53.8 186.123 53.8V51.8C185.498 51.8 184.859 51.8552 184.209 51.9636L184.538 53.9364ZM186.123 53.8C187.051 53.8 187.84 53.9875 188.512 54.3372L189.435 52.5628C188.441 52.0458 187.329 51.8 186.123 51.8V53.8ZM188.554 54.358C189.235 54.6723 189.719 55.1258 190.044 55.7263L191.803 54.7737C191.261 53.7742 190.445 53.0277 189.392 52.542L188.554 54.358ZM190.044 55.7266C191.581 58.561 193.246 60.7115 195.068 62.0962L196.279 60.5038C194.767 59.3551 193.266 57.4724 191.803 54.7734L190.044 55.7266ZM195.086 62.1094C196.971 63.4766 199.163 64.15 201.623 64.15V62.15C199.55 62.15 197.776 61.5901 196.261 60.4906L195.086 62.1094ZM201.623 64.15C203.463 64.15 205.109 63.8494 206.532 63.2128L205.715 61.3872C204.605 61.8839 203.25 62.15 201.623 62.15V64.15ZM206.542 63.208C207.942 62.5622 209.121 61.7401 210.057 60.7294L208.59 59.3706C207.859 60.1599 206.905 60.8378 205.704 61.392L206.542 63.208ZM210.056 60.7304C211.01 59.7032 211.731 58.5409 212.211 57.2482L210.336 56.5518C209.949 57.5924 209.37 58.5302 208.591 59.3695L210.056 60.7304ZM212.211 57.2482C212.684 55.9743 212.923 54.6733 212.923 53.35H210.923C210.923 54.4267 210.73 55.4924 210.336 56.5518L212.211 57.2482ZM212.923 53.35C212.923 51.7356 212.803 50.2716 212.556 48.9641L210.591 49.3359C210.81 50.4951 210.923 51.8311 210.923 53.35H212.923ZM212.561 48.994C212.324 47.4891 211.604 46.202 210.442 45.1567L209.104 46.6433C209.943 47.398 210.423 48.2776 210.586 49.306L212.561 48.994ZM210.442 45.1567C209.265 44.0971 207.563 43.361 205.447 42.8753L205 44.8247C206.95 45.2724 208.282 45.9029 209.104 46.6433L210.442 45.1567ZM205.466 42.8799C203.349 42.3506 200.454 42.1 196.823 42.1V44.1C200.393 44.1 203.098 44.3494 204.981 44.8201L205.466 42.8799ZM197.823 43.1V32.4H195.823V43.1H197.823ZM196.823 33.4C199.897 33.4 202.438 33.1646 204.416 32.6701L203.931 30.7299C202.175 31.1687 199.816 31.4 196.823 31.4V33.4ZM204.416 32.6701C206.358 32.1845 207.944 31.5043 209.098 30.5809L207.849 29.0191C207.003 29.6957 205.722 30.2821 203.931 30.7299L204.416 32.6701ZM209.101 30.5784C210.279 29.6284 211.09 28.4584 211.485 27.0747L209.562 26.5253C209.291 27.4749 208.734 28.3049 207.846 29.0216L209.101 30.5784ZM211.485 27.0747C211.847 25.8062 212.023 24.429 212.023 22.95H210.023C210.023 24.271 209.866 25.4604 209.562 26.5253L211.485 27.0747ZM212.023 22.95C212.023 19.9294 211.285 17.4535 209.662 15.6757L208.185 17.0243C209.362 18.3132 210.023 20.2373 210.023 22.95H212.023ZM209.677 15.6926C208.059 13.8373 205.636 13 202.623 13V15C205.278 15 207.055 15.7294 208.17 17.0074L209.677 15.6926ZM202.623 13C201.361 13 200.183 13.1804 199.097 13.5546L199.749 15.4454C200.598 15.1529 201.552 15 202.623 15V13ZM199.097 13.5546C198.042 13.9187 197.083 14.4145 196.229 15.0458L197.418 16.6542C198.097 16.1522 198.872 15.748 199.749 15.4454L199.097 13.5546ZM196.229 15.0458C195.382 15.6716 194.645 16.409 194.019 17.2556L195.628 18.4444C196.135 17.7577 196.731 17.1617 197.418 16.6542L196.229 15.0458ZM194.003 17.2789C193.42 18.1169 192.948 19.0257 192.586 20.0027L194.461 20.6973C194.766 19.8743 195.161 19.1165 195.644 18.4211L194.003 17.2789ZM192.581 20.015C192.082 21.4202 191.482 22.3124 190.849 22.8191L192.098 24.3809C193.131 23.5542 193.899 22.2798 194.466 20.685L192.581 20.015ZM190.833 22.8318C190.267 23.304 189.42 23.6 188.173 23.6V25.6C189.727 25.6 191.08 25.2293 192.114 24.3682L190.833 22.8318ZM188.173 23.6C187.873 23.6 187.534 23.5849 187.156 23.5535L186.99 25.5465C187.413 25.5817 187.807 25.6 188.173 25.6V23.6ZM187.164 23.5541C186.824 23.5232 186.466 23.4766 186.088 23.4136L185.759 25.3864C186.181 25.4567 186.589 25.5101 186.983 25.5459L187.164 23.5541ZM186.098 23.4153L177.898 21.9653L177.549 23.9347L185.749 25.3847L186.098 23.4153ZM178.713 23.0952C179.232 19.5593 180.216 16.5122 181.648 13.9356L179.899 12.9644C178.331 15.7878 177.282 19.074 176.734 22.8048L178.713 23.0952ZM181.643 13.9438C183.119 11.344 184.923 9.19343 187.051 7.47859L185.796 5.9214C183.457 7.80656 181.494 10.156 179.904 12.9562L181.643 13.9438ZM187.045 7.48311C189.208 5.76587 191.676 4.49003 194.46 3.65812L193.887 1.74187C190.871 2.64329 188.172 4.03413 185.802 5.91689L187.045 7.48311ZM194.47 3.65506C197.265 2.78761 200.281 2.35 203.523 2.35V0.349998C200.099 0.349998 196.882 0.812387 193.877 1.74493L194.47 3.65506Z" fill="black"/>
</svg>
