<?xml version="1.0" encoding="UTF-8" standalone="no"?>
<!DOCTYPE svg PUBLIC "-//W3C//DTD SVG 1.1//EN" "http://www.w3.org/Graphics/SVG/1.1/DTD/svg11.dtd">
<svg width="100%" height="100%" viewBox="0 0 200 128" version="1.1" xmlns="http://www.w3.org/2000/svg" xmlns:xlink="http://www.w3.org/1999/xlink" xml:space="preserve" xmlns:serif="http://www.serif.com/" style="fill-rule:evenodd;clip-rule:evenodd;">
    <g transform="matrix(1,0,0,1,-48.028,0)">
        <path d="M148.028,52.161L148.028,12.38L51.972,12.38L51.972,110.38L100.546,110.38" style="fill:none;stroke:black;stroke-width:4px;"/>
    </g>
    <g transform="matrix(1,0,0,1,-48.028,0)">
        <path d="M135.718,83.506L146.863,83.72L121.24,115.619L123.27,99.467L123.552,97.218L110.656,97.218L119.866,66.38L138.186,66.38L133.839,80.934L133.087,83.455L135.717,83.506L135.718,83.506Z" style="fill:none;stroke:black;stroke-width:4px;"/>
    </g>
    <g transform="matrix(1,0,0,1,-48.028,0)">
        <path d="M70.971,28.38L91.971,28.38L91.971,49.38L70.971,49.38L70.971,28.38ZM108.971,28.38L129.971,28.38L129.971,49.38L108.971,49.38L108.971,28.38ZM70.971,64.38L91.971,64.38L91.971,85.38L70.971,85.38L70.971,64.38Z" style="fill:white;stroke:black;stroke-width:4px;"/>
    </g>
</svg>
