<?xml version="1.0" encoding="UTF-8" standalone="no"?>
<!DOCTYPE svg PUBLIC "-//W3C//DTD SVG 1.1//EN" "http://www.w3.org/Graphics/SVG/1.1/DTD/svg11.dtd">
<svg width="100%" height="100%" viewBox="0 0 200 128" version="1.1" xmlns="http://www.w3.org/2000/svg" xmlns:xlink="http://www.w3.org/1999/xlink" xml:space="preserve" xmlns:serif="http://www.serif.com/" style="fill-rule:evenodd;clip-rule:evenodd;">
    <g transform="matrix(1,0,0,1,-13.3813,7.10543e-15)">
        <path d="M124.412,72.815L147.5,48L112.868,13.5L48.603,13.5L16.5,50.5L38.868,72.815L80.652,114.5L92.401,104.549" style="fill:none;stroke:black;stroke-width:4px;"/>
    </g>
    <g transform="matrix(1,0,0,1,-423.881,-93.5)">
        <circle cx="519" cy="182" r="11" style="fill:white;stroke:black;stroke-width:4px;"/>
    </g>
    <g transform="matrix(1,0,0,1,-423.881,-93.5)">
        <circle cx="551" cy="182" r="11" style="fill:white;stroke:black;stroke-width:4px;"/>
    </g>
    <g transform="matrix(1,0,0,1,-423.881,-93.5)">
        <circle cx="583" cy="182" r="11" style="fill:white;stroke:black;stroke-width:4px;"/>
    </g>
    <g transform="matrix(1,0,0,1,-13.3813,7.10543e-15)">
        <path d="M45.878,52.673L45.878,54.5L38.552,54.5L38.552,52.673L41.144,52.673L41.144,45.527C41.144,45.203 41.156,44.878 41.18,44.555L39.47,45.977C39.281,46.131 39.035,46.197 38.795,46.157C38.7,46.136 38.609,46.099 38.525,46.049C38.457,46.004 38.397,45.95 38.345,45.887L37.562,44.834L41.576,41.432L43.619,41.432L43.619,52.673L45.878,52.673ZM50.748,46.121C51.243,46.021 51.746,45.97 52.251,45.968C52.935,45.968 53.538,46.073 54.06,46.283C54.557,46.467 55.008,46.755 55.383,47.129C55.743,47.489 56.013,47.912 56.193,48.398C56.373,48.884 56.463,49.406 56.463,49.964C56.463,50.66 56.34,51.296 56.094,51.872C55.857,52.429 55.508,52.932 55.068,53.348C54.618,53.767 54.089,54.091 53.511,54.302C52.911,54.53 52.254,54.644 51.54,54.644C51.126,54.644 50.73,54.599 50.352,54.509C49.988,54.429 49.632,54.315 49.29,54.167C48.679,53.885 48.117,53.509 47.625,53.051L48.39,52.007C48.53,51.797 48.767,51.671 49.02,51.674C49.189,51.676 49.355,51.726 49.497,51.818L50.028,52.142C50.226,52.256 50.457,52.361 50.721,52.457C50.985,52.553 51.306,52.601 51.684,52.601C52.074,52.601 52.413,52.538 52.701,52.412C52.989,52.28 53.226,52.103 53.412,51.881C53.604,51.653 53.745,51.386 53.835,51.08C53.933,50.756 53.981,50.419 53.979,50.081C53.979,49.403 53.784,48.881 53.394,48.515C53.01,48.143 52.449,47.957 51.711,47.957C51.105,47.957 50.496,48.071 49.884,48.299L48.345,47.867L49.443,41.441L55.995,41.441L55.995,42.485C55.995,42.659 55.968,42.818 55.914,42.962C55.863,43.105 55.776,43.232 55.662,43.331C55.531,43.443 55.377,43.525 55.212,43.574C55.032,43.628 54.81,43.655 54.546,43.655L51.171,43.655L50.748,46.121ZM58.4,56.714C58.342,56.669 58.293,56.615 58.256,56.552C58.23,56.489 58.218,56.422 58.22,56.354C58.22,56.3 58.238,56.24 58.274,56.174C58.316,56.114 58.364,56.057 58.418,56.003L58.661,55.733C58.764,55.622 58.86,55.505 58.949,55.382C59.045,55.256 59.132,55.115 59.21,54.959C59.294,54.803 59.357,54.638 59.399,54.464C59.035,54.457 58.69,54.301 58.445,54.032C58.329,53.903 58.237,53.753 58.175,53.591C58.114,53.411 58.084,53.223 58.085,53.033C58.085,52.853 58.118,52.685 58.184,52.529C58.25,52.373 58.343,52.238 58.463,52.124C58.592,52.008 58.742,51.916 58.904,51.854C59.078,51.788 59.27,51.755 59.48,51.755C59.726,51.755 59.939,51.8 60.119,51.89C60.305,51.974 60.458,52.088 60.578,52.232C60.698,52.376 60.788,52.547 60.848,52.745C60.908,52.937 60.938,53.141 60.938,53.357C60.938,53.651 60.893,53.963 60.803,54.293C60.713,54.617 60.578,54.944 60.398,55.274C60.218,55.604 59.996,55.925 59.732,56.237C59.468,56.561 59.166,56.851 58.832,57.101L58.4,56.714ZM71.672,47.966C71.672,49.106 71.549,50.096 71.303,50.936C71.057,51.776 70.718,52.472 70.286,53.024C69.879,53.55 69.351,53.97 68.747,54.248C68.147,54.515 67.496,54.65 66.839,54.644C66.155,54.644 65.519,54.512 64.931,54.248C64.332,53.969 63.81,53.549 63.41,53.024C62.984,52.472 62.648,51.776 62.402,50.936C62.162,50.096 62.042,49.106 62.042,47.966C62.042,46.826 62.162,45.839 62.402,45.005C62.648,44.165 62.984,43.472 63.41,42.926C63.836,42.374 64.343,41.966 64.931,41.702C65.53,41.43 66.181,41.291 66.839,41.297C67.523,41.297 68.159,41.432 68.747,41.702C69.354,41.976 69.883,42.397 70.286,42.926C70.718,43.472 71.057,44.165 71.303,45.005C71.549,45.839 71.672,46.826 71.672,47.966ZM69.107,47.966C69.107,47.042 69.041,46.28 68.909,45.68C68.783,45.08 68.615,44.606 68.405,44.258C68.195,43.91 67.952,43.667 67.676,43.529C67.418,43.394 67.131,43.323 66.839,43.322C66.551,43.322 66.272,43.391 66.002,43.529C65.738,43.667 65.501,43.91 65.291,44.258C65.087,44.606 64.922,45.08 64.796,45.68C64.67,46.28 64.607,47.042 64.607,47.966C64.607,48.896 64.67,49.661 64.796,50.261C64.922,50.861 65.087,51.335 65.291,51.683C65.501,52.031 65.738,52.274 66.002,52.412C66.272,52.55 66.551,52.619 66.839,52.619C67.127,52.619 67.406,52.55 67.676,52.412C67.952,52.274 68.195,52.031 68.405,51.683C68.615,51.335 68.783,50.861 68.909,50.261C69.041,49.661 69.107,48.896 69.107,47.966ZM82.113,47.966C82.113,49.106 81.99,50.096 81.744,50.936C81.498,51.776 81.159,52.472 80.727,53.024C80.32,53.55 79.792,53.97 79.188,54.248C78.588,54.515 77.937,54.65 77.28,54.644C76.596,54.644 75.96,54.512 75.372,54.248C74.773,53.969 74.251,53.549 73.851,53.024C73.425,52.472 73.089,51.776 72.843,50.936C72.603,50.096 72.483,49.106 72.483,47.966C72.483,46.826 72.603,45.839 72.843,45.005C73.089,44.165 73.425,43.472 73.851,42.926C74.277,42.374 74.784,41.966 75.372,41.702C75.971,41.43 76.622,41.291 77.28,41.297C77.964,41.297 78.6,41.432 79.188,41.702C79.795,41.976 80.324,42.397 80.727,42.926C81.159,43.472 81.498,44.165 81.744,45.005C81.99,45.839 82.113,46.826 82.113,47.966ZM79.548,47.966C79.548,47.042 79.482,46.28 79.35,45.68C79.224,45.08 79.056,44.606 78.846,44.258C78.636,43.91 78.393,43.667 78.117,43.529C77.859,43.394 77.572,43.323 77.28,43.322C76.992,43.322 76.713,43.391 76.443,43.529C76.179,43.667 75.942,43.91 75.732,44.258C75.528,44.606 75.363,45.08 75.237,45.68C75.111,46.28 75.048,47.042 75.048,47.966C75.048,48.896 75.111,49.661 75.237,50.261C75.363,50.861 75.528,51.335 75.732,51.683C75.942,52.031 76.179,52.274 76.443,52.412C76.713,52.55 76.992,52.619 77.28,52.619C77.568,52.619 77.847,52.55 78.117,52.412C78.393,52.274 78.636,52.031 78.846,51.683C79.056,51.335 79.224,50.861 79.35,50.261C79.482,49.661 79.548,48.896 79.548,47.966ZM92.555,47.966C92.555,49.106 92.432,50.096 92.186,50.936C91.94,51.776 91.601,52.472 91.169,53.024C90.762,53.55 90.234,53.97 89.63,54.248C89.03,54.515 88.379,54.65 87.722,54.644C87.038,54.644 86.402,54.512 85.814,54.248C85.215,53.969 84.693,53.549 84.293,53.024C83.867,52.472 83.531,51.776 83.285,50.936C83.045,50.096 82.925,49.106 82.925,47.966C82.925,46.826 83.045,45.839 83.285,45.005C83.531,44.165 83.867,43.472 84.293,42.926C84.719,42.374 85.226,41.966 85.814,41.702C86.413,41.43 87.064,41.291 87.722,41.297C88.406,41.297 89.042,41.432 89.63,41.702C90.237,41.976 90.766,42.397 91.169,42.926C91.601,43.472 91.94,44.165 92.186,45.005C92.432,45.839 92.555,46.826 92.555,47.966ZM89.99,47.966C89.99,47.042 89.924,46.28 89.792,45.68C89.666,45.08 89.498,44.606 89.288,44.258C89.078,43.91 88.835,43.667 88.559,43.529C88.301,43.394 88.014,43.323 87.722,43.322C87.434,43.322 87.155,43.391 86.885,43.529C86.621,43.667 86.384,43.91 86.174,44.258C85.97,44.606 85.805,45.08 85.679,45.68C85.553,46.28 85.49,47.042 85.49,47.966C85.49,48.896 85.553,49.661 85.679,50.261C85.805,50.861 85.97,51.335 86.174,51.683C86.384,52.031 86.621,52.274 86.885,52.412C87.155,52.55 87.434,52.619 87.722,52.619C88.01,52.619 88.289,52.55 88.559,52.412C88.835,52.274 89.078,52.031 89.288,51.683C89.498,51.335 89.666,50.861 89.792,50.261C89.924,49.661 89.99,48.896 89.99,47.966ZM93.978,56.714C93.92,56.669 93.871,56.615 93.834,56.552C93.808,56.489 93.796,56.422 93.798,56.354C93.798,56.3 93.816,56.24 93.852,56.174C93.894,56.114 93.942,56.057 93.996,56.003L94.239,55.733C94.342,55.622 94.438,55.505 94.527,55.382C94.623,55.256 94.71,55.115 94.788,54.959C94.872,54.803 94.935,54.638 94.977,54.464C94.613,54.457 94.268,54.301 94.023,54.032C93.907,53.903 93.815,53.753 93.753,53.591C93.692,53.411 93.662,53.223 93.663,53.033C93.663,52.853 93.696,52.685 93.762,52.529C93.828,52.373 93.921,52.238 94.041,52.124C94.17,52.008 94.32,51.916 94.482,51.854C94.656,51.788 94.848,51.755 95.058,51.755C95.304,51.755 95.517,51.8 95.697,51.89C95.883,51.974 96.036,52.088 96.156,52.232C96.276,52.376 96.366,52.547 96.426,52.745C96.486,52.937 96.516,53.141 96.516,53.357C96.516,53.651 96.471,53.963 96.381,54.293C96.291,54.617 96.156,54.944 95.976,55.274C95.796,55.604 95.574,55.925 95.31,56.237C95.046,56.561 94.744,56.851 94.41,57.101L93.978,56.714ZM107.25,47.966C107.25,49.106 107.127,50.096 106.881,50.936C106.635,51.776 106.296,52.472 105.864,53.024C105.457,53.55 104.929,53.97 104.325,54.248C103.725,54.515 103.074,54.65 102.417,54.644C101.733,54.644 101.097,54.512 100.509,54.248C99.91,53.969 99.388,53.549 98.988,53.024C98.562,52.472 98.226,51.776 97.98,50.936C97.74,50.096 97.62,49.106 97.62,47.966C97.62,46.826 97.74,45.839 97.98,45.005C98.226,44.165 98.562,43.472 98.988,42.926C99.414,42.374 99.921,41.966 100.509,41.702C101.108,41.43 101.759,41.291 102.417,41.297C103.101,41.297 103.737,41.432 104.325,41.702C104.932,41.976 105.461,42.397 105.864,42.926C106.296,43.472 106.635,44.165 106.881,45.005C107.127,45.839 107.25,46.826 107.25,47.966ZM104.685,47.966C104.685,47.042 104.619,46.28 104.487,45.68C104.361,45.08 104.193,44.606 103.983,44.258C103.773,43.91 103.53,43.667 103.254,43.529C102.996,43.394 102.709,43.323 102.417,43.322C102.129,43.322 101.85,43.391 101.58,43.529C101.316,43.667 101.079,43.91 100.869,44.258C100.665,44.606 100.5,45.08 100.374,45.68C100.248,46.28 100.185,47.042 100.185,47.966C100.185,48.896 100.248,49.661 100.374,50.261C100.5,50.861 100.665,51.335 100.869,51.683C101.079,52.031 101.316,52.274 101.58,52.412C101.85,52.55 102.129,52.619 102.417,52.619C102.705,52.619 102.984,52.55 103.254,52.412C103.53,52.274 103.773,52.031 103.983,51.683C104.193,51.335 104.361,50.861 104.487,50.261C104.619,49.661 104.685,48.896 104.685,47.966ZM117.691,47.966C117.691,49.106 117.568,50.096 117.322,50.936C117.076,51.776 116.737,52.472 116.305,53.024C115.898,53.55 115.37,53.97 114.766,54.248C114.166,54.515 113.515,54.65 112.858,54.644C112.174,54.644 111.538,54.512 110.95,54.248C110.351,53.969 109.829,53.549 109.429,53.024C109.003,52.472 108.667,51.776 108.421,50.936C108.181,50.096 108.061,49.106 108.061,47.966C108.061,46.826 108.181,45.839 108.421,45.005C108.667,44.165 109.003,43.472 109.429,42.926C109.855,42.374 110.362,41.966 110.95,41.702C111.549,41.43 112.2,41.291 112.858,41.297C113.542,41.297 114.178,41.432 114.766,41.702C115.373,41.976 115.902,42.397 116.305,42.926C116.737,43.472 117.076,44.165 117.322,45.005C117.568,45.839 117.691,46.826 117.691,47.966ZM115.126,47.966C115.126,47.042 115.06,46.28 114.928,45.68C114.802,45.08 114.634,44.606 114.424,44.258C114.214,43.91 113.971,43.667 113.695,43.529C113.437,43.394 113.15,43.323 112.858,43.322C112.57,43.322 112.291,43.391 112.021,43.529C111.757,43.667 111.52,43.91 111.31,44.258C111.106,44.606 110.941,45.08 110.815,45.68C110.689,46.28 110.626,47.042 110.626,47.966C110.626,48.896 110.689,49.661 110.815,50.261C110.941,50.861 111.106,51.335 111.31,51.683C111.52,52.031 111.757,52.274 112.021,52.412C112.291,52.55 112.57,52.619 112.858,52.619C113.146,52.619 113.425,52.55 113.695,52.412C113.971,52.274 114.214,52.031 114.424,51.683C114.634,51.335 114.802,50.861 114.928,50.261C115.06,49.661 115.126,48.896 115.126,47.966ZM128.133,47.966C128.133,49.106 128.01,50.096 127.764,50.936C127.518,51.776 127.179,52.472 126.747,53.024C126.34,53.55 125.812,53.97 125.208,54.248C124.608,54.515 123.957,54.65 123.3,54.644C122.616,54.644 121.98,54.512 121.392,54.248C120.793,53.969 120.271,53.549 119.871,53.024C119.445,52.472 119.109,51.776 118.863,50.936C118.623,50.096 118.503,49.106 118.503,47.966C118.503,46.826 118.623,45.839 118.863,45.005C119.109,44.165 119.445,43.472 119.871,42.926C120.297,42.374 120.804,41.966 121.392,41.702C121.991,41.43 122.642,41.291 123.3,41.297C123.984,41.297 124.62,41.432 125.208,41.702C125.815,41.976 126.344,42.397 126.747,42.926C127.179,43.472 127.518,44.165 127.764,45.005C128.01,45.839 128.133,46.826 128.133,47.966ZM125.568,47.966C125.568,47.042 125.502,46.28 125.37,45.68C125.244,45.08 125.076,44.606 124.866,44.258C124.656,43.91 124.413,43.667 124.137,43.529C123.879,43.394 123.592,43.323 123.3,43.322C123.012,43.322 122.733,43.391 122.463,43.529C122.199,43.667 121.962,43.91 121.752,44.258C121.548,44.606 121.383,45.08 121.257,45.68C121.131,46.28 121.068,47.042 121.068,47.966C121.068,48.896 121.131,49.661 121.257,50.261C121.383,50.861 121.548,51.335 121.752,51.683C121.962,52.031 122.199,52.274 122.463,52.412C122.733,52.55 123.012,52.619 123.3,52.619C123.588,52.619 123.867,52.55 124.137,52.412C124.413,52.274 124.656,52.031 124.866,51.683C125.076,51.335 125.244,50.861 125.37,50.261C125.502,49.661 125.568,48.896 125.568,47.966Z" style="fill:rgb(7,7,7);fill-rule:nonzero;"/>
    </g>
</svg>
