<?xml version="1.0" encoding="UTF-8" standalone="no"?>
<!DOCTYPE svg PUBLIC "-//W3C//DTD SVG 1.1//EN" "http://www.w3.org/Graphics/SVG/1.1/DTD/svg11.dtd">
<svg width="100%" height="100%" viewBox="0 0 200 128" version="1.1" xmlns="http://www.w3.org/2000/svg" xmlns:xlink="http://www.w3.org/1999/xlink" xml:space="preserve" xmlns:serif="http://www.serif.com/" style="fill-rule:evenodd;clip-rule:evenodd;">
    <g transform="matrix(1,0,0,1,-38.232,0)">
        <path d="M71,53L92,53L92,74L71,74L71,53ZM105,53L126,53L126,74L105,74L105,53Z" style="fill:white;stroke:black;stroke-width:4px;"/>
    </g>
    <g transform="matrix(1,0,0,1,-38.232,0)">
        <path d="M47,15.5L47,15L151,15L151,83" style="fill:none;stroke:black;stroke-width:4px;"/>
    </g>
    <g transform="matrix(1,0,0,1,-38.232,0)">
        <path d="M150.924,83.92L140.076,73.154M150.921,83.883L161.768,73.117M49.076,44.08L59.924,54.846M49.079,44.117L38.232,54.883" style="fill:none;stroke:black;stroke-width:4px;stroke-linecap:square;"/>
    </g>
    <g transform="matrix(1,0,0,1,-38.232,0)">
        <path d="M49,45.983L49,113L153,113L153,112.5" style="fill:none;stroke:black;stroke-width:4px;"/>
    </g>
    <g transform="matrix(1,0,0,1,-38.232,0)">
        <path d="M41,2L104,2L104,29L41,29L41,2ZM96,99L159,99L159,126L96,126L96,99Z" style="fill:white;stroke:black;stroke-width:4px;"/>
    </g>
    <g transform="matrix(1,0,0,1,-38.232,0)">
        <path d="M55.52,14.48L56.11,14.48C56.603,14.48 56.96,14.327 57.18,14.02L60.85,9.11C61.023,8.877 61.213,8.717 61.42,8.63C61.627,8.537 61.88,8.49 62.18,8.49L64.78,8.49L60.16,14.44C59.86,14.827 59.55,15.103 59.23,15.27C59.463,15.363 59.673,15.487 59.86,15.64C60.047,15.787 60.227,15.983 60.4,16.23L65.14,23L62.47,23C62.297,23 62.147,22.987 62.02,22.96C61.909,22.937 61.802,22.9 61.7,22.85C61.611,22.806 61.53,22.749 61.46,22.68C61.39,22.602 61.326,22.519 61.27,22.43L57.54,17.21C57.429,17.043 57.273,16.911 57.09,16.83C56.917,16.75 56.673,16.71 56.36,16.71L55.52,16.71L55.52,23L52.52,23L52.52,8.49L55.52,8.49L55.52,14.48ZM74.286,11.27C74.193,11.423 74.096,11.537 73.996,11.61C73.886,11.682 73.757,11.717 73.626,11.71C73.456,11.703 73.29,11.651 73.146,11.56C72.954,11.438 72.757,11.325 72.556,11.22C72.305,11.089 72.044,10.979 71.776,10.89C71.445,10.777 71.096,10.723 70.746,10.73C70.053,10.73 69.533,10.887 69.186,11.2C68.84,11.507 68.666,11.91 68.666,12.41C68.666,12.73 68.76,12.997 68.946,13.21C69.14,13.417 69.39,13.597 69.696,13.75C70.01,13.903 70.363,14.04 70.756,14.16C71.15,14.28 71.553,14.413 71.966,14.56C72.38,14.7 72.783,14.867 73.176,15.06C73.57,15.253 73.92,15.497 74.226,15.79C74.54,16.083 74.79,16.443 74.976,16.87C75.17,17.29 75.266,17.803 75.266,18.41C75.266,19.07 75.15,19.69 74.916,20.27C74.694,20.837 74.357,21.351 73.926,21.78C73.493,22.207 72.956,22.543 72.316,22.79C71.683,23.037 70.963,23.16 70.156,23.16C69.696,23.16 69.236,23.113 68.776,23.02C68.326,22.928 67.884,22.797 67.456,22.63C67.042,22.466 66.644,22.265 66.266,22.03C65.909,21.81 65.58,21.548 65.286,21.25L66.166,19.83C66.241,19.722 66.34,19.633 66.456,19.57C66.57,19.499 66.702,19.461 66.836,19.46C67.016,19.46 67.206,19.527 67.406,19.66C67.606,19.793 67.836,19.94 68.096,20.1C68.356,20.26 68.656,20.407 68.996,20.54C69.343,20.673 69.756,20.74 70.236,20.74C70.936,20.74 71.476,20.58 71.856,20.26C72.243,19.94 72.436,19.463 72.436,18.83C72.436,18.463 72.34,18.167 72.146,17.94C71.943,17.7 71.69,17.505 71.406,17.37C71.07,17.206 70.718,17.075 70.356,16.98C69.951,16.863 69.547,16.74 69.146,16.61C68.733,16.477 68.328,16.316 67.936,16.13C67.546,15.946 67.191,15.695 66.886,15.39C66.566,15.061 66.311,14.674 66.136,14.25C65.95,13.797 65.856,13.233 65.856,12.56C65.856,11.455 66.312,10.398 67.116,9.64C67.53,9.247 68.036,8.93 68.636,8.69C69.243,8.45 69.936,8.33 70.716,8.33C71.59,8.33 72.396,8.467 73.136,8.74C73.883,9.007 74.513,9.38 75.026,9.86L74.286,11.27ZM93.442,8.49L93.442,23L90.792,23L90.792,14.09C90.792,13.903 90.795,13.703 90.802,13.49C90.815,13.277 90.835,13.06 90.862,12.84L86.712,20.71C86.485,21.143 86.135,21.36 85.662,21.36L85.242,21.36C85.025,21.364 84.81,21.309 84.622,21.2C84.436,21.08 84.287,20.91 84.192,20.71L80.022,12.81C80.042,13.043 80.059,13.27 80.072,13.49C80.085,13.703 80.092,13.903 80.092,14.09L80.092,23L77.442,23L77.442,8.49L79.722,8.49C79.849,8.49 79.962,8.493 80.062,8.5C80.152,8.505 80.24,8.525 80.322,8.56C80.402,8.587 80.472,8.633 80.532,8.7C80.599,8.76 80.662,8.847 80.722,8.96L84.782,16.7C84.909,16.933 85.025,17.173 85.132,17.42C85.245,17.667 85.352,17.92 85.452,18.18C85.552,17.913 85.655,17.653 85.762,17.4C85.875,17.147 85.995,16.903 86.122,16.67L90.152,8.96C90.212,8.847 90.275,8.76 90.342,8.7C90.401,8.639 90.473,8.591 90.552,8.56C90.635,8.526 90.723,8.506 90.812,8.5C90.912,8.493 91.029,8.49 91.162,8.49L93.442,8.49ZM112.42,112.71C113.36,112.71 114.047,112.483 114.48,112.03C114.92,111.577 115.14,110.957 115.14,110.17C115.14,109.81 115.083,109.483 114.97,109.19C114.869,108.899 114.697,108.638 114.47,108.43C114.231,108.205 113.943,108.038 113.63,107.94C113.29,107.827 112.887,107.77 112.42,107.77L110.52,107.77L110.52,112.71L112.42,112.71ZM112.42,105.49C113.413,105.49 114.27,105.607 114.99,105.84C115.717,106.073 116.313,106.4 116.78,106.82C117.247,107.233 117.59,107.727 117.81,108.3C118.037,108.873 118.15,109.497 118.15,110.17C118.15,110.883 118.033,111.537 117.8,112.13C117.572,112.716 117.208,113.24 116.74,113.66C116.267,114.087 115.67,114.42 114.95,114.66C114.23,114.893 113.387,115.01 112.42,115.01L110.52,115.01L110.52,120L107.52,120L107.52,105.49L112.42,105.49ZM132.489,105.49L132.489,120L129.469,120L129.469,113.75L123.079,113.75L123.079,120L120.059,120L120.059,105.49L123.079,105.49L123.079,111.65L129.469,111.65L129.469,105.49L132.489,105.49ZM143.188,114.49L141.618,110.05C141.51,109.78 141.41,109.506 141.318,109.23C141.218,108.917 141.121,108.577 141.028,108.21C140.934,108.583 140.834,108.93 140.728,109.25C140.628,109.563 140.531,109.837 140.438,110.07L138.878,114.49L143.188,114.49ZM148.228,120L145.898,120C145.638,120 145.424,119.94 145.258,119.82C145.099,119.694 144.975,119.528 144.898,119.34L143.918,116.57L138.138,116.57L137.158,119.34C137.091,119.507 136.974,119.66 136.808,119.8C136.628,119.938 136.405,120.008 136.178,120L133.828,120L139.498,105.49L142.568,105.49L148.228,120Z" style="fill:rgb(7,7,7);fill-rule:nonzero;"/>
    </g>
</svg>
