<svg width="130" height="130" viewBox="0 0 130 130" fill="none" xmlns="http://www.w3.org/2000/svg">
<g id="&#231;&#188;&#150;&#231;&#187;&#132;">
<g id="compatible" clip-path="url(#clip0)">
<g id="Icon-compatible">
<path id="&#231;&#159;&#169;&#229;&#189;&#162;" fill-rule="evenodd" clip-rule="evenodd" d="M65 127.693L4.14497 91.3468L65 56L125.855 91.3468L65 127.693Z" fill="#D1FF52" stroke="black" stroke-width="4" stroke-linejoin="round"/>
<path id="ARM" fill-rule="evenodd" clip-rule="evenodd" d="M89.9373 106.783C90.0854 106.704 90.1716 106.604 90.196 106.483C90.2205 106.362 90.2077 106.248 90.1576 106.143L89.251 104.429L92.6296 102.632L94.6818 103.737C94.8319 103.811 94.9875 103.853 95.1489 103.865C95.3102 103.877 95.4669 103.843 95.6189 103.762L96.9808 103.038L85.9227 97.4143L84.1282 98.3684L88.5636 107.514L89.9373 106.783ZM91.0919 101.801L88.5726 103.14L87.1238 100.407C87.0537 100.259 86.9643 100.088 86.8556 99.8952C86.7469 99.702 86.6201 99.4959 86.4753 99.2769C86.7256 99.4344 86.9647 99.5769 87.1925 99.7042C87.4202 99.8315 87.6237 99.94 87.8029 100.03L91.0919 101.801ZM96.5641 98.8755L99.5176 101.689L97.7641 102.622L90.0144 95.2387L92.6798 93.8215C93.2721 93.5065 93.8348 93.2906 94.3678 93.1737C94.9008 93.0567 95.4015 93.0218 95.8697 93.0688C96.338 93.1158 96.7725 93.2375 97.1731 93.4341C97.5738 93.6307 97.9397 93.8867 98.2708 94.2022C98.5272 94.4464 98.7302 94.6992 98.88 94.9605C99.0298 95.2217 99.123 95.4827 99.1598 95.7432C99.1965 96.0038 99.1768 96.2627 99.1007 96.5199C99.0246 96.7771 98.8888 97.0237 98.6933 97.2597C98.8633 97.2539 99.037 97.2633 99.2146 97.2878C99.3921 97.3123 99.575 97.3565 99.7634 97.4202L104.527 99.0257L102.943 99.868C102.647 100.025 102.329 100.041 101.99 99.9147L98.0002 98.5083C97.8414 98.4553 97.7007 98.4297 97.578 98.4315C97.4554 98.4333 97.3162 98.4756 97.1603 98.5585L96.5641 98.8755ZM95.4372 97.8019L92.9857 95.4664L93.8975 94.9816C94.4431 94.6915 94.9508 94.5722 95.4207 94.6236C95.8906 94.675 96.3089 94.8754 96.6756 95.2248C96.8608 95.4012 97.0005 95.5806 97.0949 95.763C97.1892 95.9454 97.2279 96.1269 97.2112 96.3076C97.1944 96.4883 97.1157 96.6649 96.975 96.8375C96.8344 97.0101 96.6218 97.172 96.3373 97.3232L95.4372 97.8019ZM102.147 93.2272L106.906 97.7607L105.357 98.5844L97.6073 91.2014L98.9401 90.4928C99.0141 90.4535 99.0821 90.4199 99.1441 90.3922C99.2061 90.3646 99.2676 90.3464 99.3284 90.3379C99.3892 90.3293 99.4551 90.3313 99.5259 90.3438C99.5968 90.3564 99.68 90.3822 99.7756 90.4212L106.283 93.0976C106.481 93.1769 106.679 93.2623 106.875 93.3536C107.071 93.4449 107.267 93.5412 107.465 93.6424C107.381 93.4756 107.303 93.3107 107.232 93.1476C107.161 92.9845 107.1 92.8239 107.05 92.6658L105.288 87.4904C105.262 87.414 105.252 87.3494 105.257 87.2965C105.262 87.2435 105.279 87.1975 105.308 87.1584C105.337 87.1193 105.378 87.083 105.431 87.0496C105.484 87.0162 105.549 86.9787 105.627 86.9373L106.96 86.2287L114.709 93.6116L113.16 94.4352L108.402 89.9017C108.302 89.8067 108.198 89.7034 108.09 89.5917C107.982 89.4801 107.877 89.3641 107.775 89.2439L109.553 94.5381C109.651 94.829 109.563 95.048 109.286 95.1951L109.04 95.3257C108.904 95.3982 108.754 95.4344 108.59 95.4344C108.426 95.4344 108.256 95.3967 108.08 95.3213L101.423 92.5977C101.559 92.7102 101.689 92.8195 101.812 92.9256C101.936 93.0317 102.048 93.1322 102.147 93.2272Z" fill="black"/>
<path id="&#231;&#159;&#169;&#229;&#189;&#162;_2" fill-rule="evenodd" clip-rule="evenodd" d="M65 110.693L4.14497 74.3468L65 39L125.855 74.3468L65 110.693Z" fill="#A9ADB1" stroke="black" stroke-width="4" stroke-linejoin="round"/>
<path id="SEV" fill-rule="evenodd" clip-rule="evenodd" d="M94.0004 86.578C94.472 86.3273 94.8279 86.0402 95.0683 85.7169C95.3087 85.3935 95.4407 85.055 95.4644 84.7016C95.488 84.3481 95.4131 83.9889 95.2395 83.624C95.0659 83.2591 94.8029 82.9088 94.4504 82.5729C94.1264 82.2643 93.7958 82.0317 93.4586 81.8754C93.1215 81.7191 92.784 81.6144 92.4461 81.5615C92.1082 81.5086 91.7727 81.4941 91.4395 81.518C91.1064 81.5419 90.7807 81.5816 90.4625 81.6371C90.1444 81.6926 89.8383 81.751 89.5443 81.8122C89.2503 81.8734 88.9717 81.9131 88.7087 81.9314C88.4456 81.9498 88.2024 81.935 87.9792 81.8872C87.756 81.8394 87.5589 81.7341 87.388 81.5713C87.1209 81.3169 87.0059 81.057 87.043 80.7915C87.0801 80.526 87.3012 80.2855 87.7065 80.07C87.9364 79.9478 88.1647 79.8674 88.3914 79.8288C88.618 79.7902 88.8296 79.7662 89.0262 79.7568C89.2228 79.7474 89.3984 79.7426 89.5529 79.7423C89.7075 79.7421 89.8276 79.7192 89.9134 79.6736C90.003 79.6259 90.0574 79.5693 90.0765 79.5036C90.0956 79.4379 90.0915 79.3516 90.0641 79.2446L89.7436 78.2972C89.1872 78.2125 88.6196 78.2169 88.0409 78.3106C87.4622 78.4042 86.9176 78.5868 86.4071 78.8582C85.9512 79.1006 85.611 79.3767 85.3865 79.6863C85.1621 79.9959 85.034 80.315 85.0025 80.6436C84.971 80.9722 85.0282 81.2986 85.1741 81.6227C85.32 81.9468 85.5372 82.2462 85.8256 82.521C86.1852 82.8636 86.5416 83.1207 86.8948 83.2923C87.248 83.4639 87.5961 83.5801 87.9391 83.6408C88.2822 83.7015 88.6185 83.7183 88.9481 83.691C89.2777 83.6637 89.5989 83.6198 89.9118 83.5592C90.2246 83.4985 90.5253 83.4351 90.814 83.3688C91.1026 83.3025 91.3775 83.2607 91.6387 83.2435C91.8998 83.2262 92.1465 83.2457 92.3786 83.3019C92.6107 83.3582 92.8247 83.4796 93.0205 83.6662C93.3588 83.9885 93.5013 84.2906 93.4482 84.5725C93.395 84.8545 93.1639 85.1042 92.7547 85.3218C92.4741 85.471 92.1979 85.565 91.926 85.6039C91.6541 85.6427 91.3994 85.6619 91.162 85.6613C90.9246 85.6607 90.7118 85.6575 90.5237 85.6518C90.3355 85.6461 90.1889 85.6713 90.0837 85.7272C90.0057 85.7687 89.9504 85.8258 89.9176 85.8987C89.8849 85.9717 89.8755 86.0467 89.8897 86.1237L90.1337 87.1197C90.4505 87.1786 90.7803 87.2093 91.1231 87.212C91.466 87.2147 91.8056 87.1927 92.1421 87.1459C92.4785 87.0991 92.8052 87.0285 93.1219 86.9341C93.4387 86.8397 93.7316 86.721 94.0004 86.578ZM103.577 81.3591L102.322 80.1634L98.6863 82.0965L96.6514 80.158L99.4805 78.6537L98.2681 77.4987L95.439 79.0029L93.4468 77.1051L97.0826 75.1719L95.8275 73.9762L90.4265 76.848L98.1762 84.2309L103.577 81.3591ZM104.56 69.3329L108.896 78.5308L107.306 79.3762L96.1431 73.8084L97.5577 73.0562C97.7096 72.9754 97.8663 72.941 98.0276 72.953C98.189 72.965 98.3447 73.0077 98.4947 73.0812L104.795 76.359C105.033 76.4812 105.284 76.6182 105.55 76.7702C105.816 76.9222 106.087 77.0862 106.362 77.262C106.196 77.0281 106.044 76.801 105.907 76.5807C105.769 76.3603 105.652 76.1517 105.555 75.955L102.914 70.7316C102.864 70.6261 102.852 70.5121 102.878 70.3898C102.905 70.2674 102.992 70.1668 103.14 70.0881L104.56 69.3329Z" fill="black"/>
<path id="&#231;&#159;&#169;&#229;&#189;&#162;_3" fill-rule="evenodd" clip-rule="evenodd" d="M65 93.6935L4.14497 57.3468L65 22L125.855 57.3468L65 93.6935Z" fill="#D1FF52" stroke="black" stroke-width="4" stroke-linejoin="round"/>
<path id="AMD" fill-rule="evenodd" clip-rule="evenodd" d="M89.9759 70.9383C90.124 70.8596 90.2103 70.7595 90.2347 70.6382C90.2591 70.5168 90.2463 70.4034 90.1963 70.2979L89.2897 68.5839L92.6682 66.7875L94.7205 67.8923C94.8705 67.9658 95.0262 68.0086 95.1876 68.0206C95.3489 68.0326 95.5056 67.9981 95.6575 67.9173L97.0195 67.1932L85.9613 61.5694L84.1669 62.5235L88.6023 71.6687L89.9759 70.9383ZM91.1306 65.956L88.6113 67.2956L87.1625 64.5617C87.0924 64.414 87.003 64.2435 86.8943 64.0503C86.7855 63.857 86.6588 63.6509 86.5139 63.432C86.7643 63.5895 87.0034 63.732 87.2311 63.8593C87.4589 63.9866 87.6623 64.0951 87.8415 64.1848L91.1306 65.956ZM94.5929 61.4195L99.3517 65.9531L97.8027 66.7767L90.053 59.3938L91.3857 58.6852C91.4598 58.6458 91.5278 58.6123 91.5898 58.5846C91.6518 58.5569 91.7133 58.5388 91.7741 58.5302C91.8349 58.5217 91.9008 58.5236 91.9716 58.5362C92.0425 58.5487 92.1257 58.5745 92.2213 58.6135L98.7284 61.2899C98.927 61.3693 99.1244 61.4546 99.3204 61.5459C99.5165 61.6372 99.7131 61.7335 99.9104 61.8347C99.8265 61.668 99.749 61.503 99.678 61.34C99.607 61.1769 99.5462 61.0163 99.4956 60.8582L97.7334 55.6827C97.7079 55.6064 97.6977 55.5418 97.7029 55.4888C97.708 55.4359 97.725 55.3898 97.7538 55.3508C97.7826 55.3117 97.8234 55.2754 97.8764 55.242C97.9293 55.2085 97.9948 55.1711 98.0727 55.1297L99.4054 54.421L107.155 61.8039L105.606 62.6276L100.847 58.094C100.748 57.999 100.644 57.8957 100.536 57.7841C100.428 57.6724 100.323 57.5565 100.221 57.4362L101.998 62.7304C102.097 63.0214 102.008 63.2404 101.732 63.3875L101.486 63.518C101.35 63.5905 101.2 63.6268 101.036 63.6268C100.872 63.6267 100.701 63.589 100.525 63.5136L93.8684 60.79C94.0047 60.9025 94.1346 61.0118 94.2581 61.1179C94.3816 61.224 94.4932 61.3246 94.5929 61.4195ZM112.188 59.128C112.839 58.782 113.335 58.3754 113.676 57.9084C114.018 57.4414 114.208 56.944 114.246 56.4164C114.284 55.8887 114.17 55.343 113.903 54.7793C113.636 54.2156 113.22 53.6641 112.653 53.1248C112.091 52.5888 111.468 52.1507 110.786 51.8104C110.104 51.4701 109.402 51.2373 108.678 51.112C107.955 50.9866 107.23 50.9743 106.504 51.075C105.777 51.1757 105.089 51.399 104.438 51.7451L101.177 53.4793L108.926 60.8622L112.188 59.128ZM104.197 53.7364L109.436 58.7279L110.933 57.9323C111.33 57.7209 111.626 57.475 111.821 57.1946C112.015 56.9142 112.108 56.6082 112.1 56.2768C112.093 55.9454 111.985 55.5943 111.778 55.2234C111.571 54.8526 111.263 54.4721 110.853 54.082C110.447 53.6953 110.024 53.3787 109.583 53.1322C109.142 52.8857 108.7 52.7136 108.258 52.6159C107.815 52.5182 107.376 52.4951 106.942 52.5466C106.507 52.598 106.091 52.7294 105.693 52.9408L104.197 53.7364Z" fill="black"/>
<path id="&#231;&#159;&#169;&#229;&#189;&#162;_4" fill-rule="evenodd" clip-rule="evenodd" d="M65 77.2184L4.14497 40.8717L65 5.525L125.855 40.8717L65 77.2184Z" fill="#A9ADB1" stroke="black" stroke-width="4" stroke-linejoin="round"/>
<path id="SGX" fill-rule="evenodd" clip-rule="evenodd" d="M94.291 52.7435C94.7625 52.4928 95.1185 52.2058 95.3589 51.8824C95.5993 51.559 95.7313 51.2206 95.755 50.8671C95.7786 50.5136 95.7036 50.1544 95.5301 49.7895C95.3565 49.4246 95.0935 49.0743 94.741 48.7385C94.417 48.4298 94.0864 48.1973 93.7492 48.0409C93.4121 47.8846 93.0746 47.78 92.7367 47.727C92.3988 47.6741 92.0633 47.6596 91.7301 47.6835C91.397 47.7074 91.0713 47.7471 90.7531 47.8026C90.435 47.8581 90.1289 47.9165 89.8349 47.9777C89.5409 48.0389 89.2623 48.0786 88.9992 48.097C88.7361 48.1153 88.493 48.1006 88.2698 48.0528C88.0465 48.005 87.8495 47.8997 87.6786 47.7368C87.4115 47.4824 87.2965 47.2225 87.3336 46.957C87.3707 46.6915 87.5918 46.4511 87.9971 46.2356C88.227 46.1133 88.4553 46.0329 88.6819 45.9943C88.9086 45.9557 89.1202 45.9317 89.3168 45.9223C89.5134 45.913 89.689 45.9081 89.8435 45.9079C89.9981 45.9076 90.1182 45.8847 90.2039 45.8391C90.2936 45.7915 90.3479 45.7348 90.3671 45.6691C90.3862 45.6035 90.3821 45.5171 90.3547 45.4101L90.0342 44.4627C89.4778 44.378 88.9102 44.3825 88.3315 44.4761C87.7528 44.5698 87.2082 44.7523 86.6977 45.0237C86.2418 45.2662 85.9016 45.5422 85.6771 45.8518C85.4526 46.1614 85.3246 46.4806 85.2931 46.8092C85.2616 47.1378 85.3188 47.4641 85.4647 47.7882C85.6106 48.1123 85.8278 48.4117 86.1162 48.6865C86.4758 49.0291 86.8322 49.2862 87.1854 49.4578C87.5386 49.6294 87.8867 49.7456 88.2297 49.8063C88.5728 49.8671 88.9091 49.8838 89.2387 49.8565C89.5683 49.8292 89.8895 49.7853 90.2023 49.7247C90.5152 49.6641 90.8159 49.6006 91.1046 49.5343C91.3932 49.4681 91.6681 49.4263 91.9293 49.409C92.1904 49.3917 92.4371 49.4112 92.6692 49.4675C92.9013 49.5237 93.1153 49.6452 93.3111 49.8317C93.6494 50.154 93.7919 50.4561 93.7388 50.738C93.6856 51.02 93.4545 51.2698 93.0453 51.4873C92.7647 51.6365 92.4885 51.7305 92.2166 51.7694C91.9447 51.8083 91.69 51.8274 91.4526 51.8268C91.2151 51.8262 91.0024 51.823 90.8143 51.8174C90.6261 51.8117 90.4795 51.8368 90.3743 51.8927C90.2963 51.9342 90.241 51.9914 90.2082 52.0643C90.1755 52.1372 90.1661 52.2122 90.1802 52.2892L90.4243 53.2853C90.741 53.3441 91.0709 53.3749 91.4137 53.3776C91.7565 53.3803 92.0962 53.3582 92.4327 53.3114C92.7691 53.2647 93.0958 53.1941 93.4125 53.0996C93.7293 53.0052 94.0221 52.8865 94.291 52.7435ZM102.656 48.296C103.201 48.0059 103.652 47.6673 104.007 47.28C104.363 46.8928 104.613 46.4468 104.757 45.9421L101.557 42.8942L98.6465 44.442L99.5385 45.2917C99.6239 45.3731 99.7264 45.423 99.8459 45.4414C99.9654 45.4598 100.082 45.439 100.195 45.3789L101.153 44.8692L102.456 46.1107C102.335 46.3074 102.19 46.4889 102.022 46.6551C101.853 46.8214 101.628 46.9791 101.348 47.1283C100.935 47.3479 100.499 47.4897 100.041 47.5535C99.5829 47.6174 99.1173 47.6034 98.6443 47.5114C98.1712 47.4193 97.7002 47.2483 97.2313 46.9982C96.7623 46.7481 96.3142 46.4195 95.8869 46.0124C95.4916 45.6359 95.1942 45.2629 94.9946 44.8934C94.7949 44.5238 94.6932 44.171 94.6893 43.8347C94.6855 43.4985 94.7811 43.1861 94.976 42.8974C95.1709 42.6088 95.4652 42.3599 95.8588 42.1506C96.0926 42.0263 96.3116 41.9283 96.5157 41.8568C96.7199 41.7852 96.9211 41.7311 97.1194 41.6943C97.3177 41.6576 97.5152 41.6332 97.7119 41.6211C97.9087 41.609 98.1164 41.6029 98.335 41.603C98.565 41.6023 98.7298 41.5569 98.8296 41.4668C98.9294 41.3768 98.9613 41.2568 98.9253 41.1068L98.7181 40.1546C98.3932 40.1053 98.0613 40.0783 97.7223 40.0736C97.3834 40.0688 97.0399 40.0915 96.6919 40.1418C96.3439 40.1921 95.9922 40.2734 95.6366 40.3858C95.281 40.4983 94.9278 40.6477 94.5771 40.8342C93.8991 41.1947 93.3842 41.6138 93.0326 42.0915C92.6809 42.5692 92.4866 43.0768 92.4498 43.6143C92.4129 44.1519 92.5324 44.7068 92.8082 45.2789C93.0839 45.8511 93.512 46.4137 94.0924 46.9666C94.6656 47.5127 95.3035 47.9584 96.006 48.3037C96.7085 48.649 97.4366 48.8829 98.1905 49.0053C98.9444 49.1277 99.7026 49.1328 100.465 49.0206C101.228 48.9084 101.958 48.6669 102.656 48.296ZM107.839 45.2904C107.826 45.3792 107.767 45.4516 107.661 45.5076L106.025 46.3778L104.811 41.1006L98.3802 38.9389L100.134 38.0065C100.251 37.9444 100.351 37.9124 100.434 37.9105C100.517 37.9086 100.612 37.9268 100.719 37.9651L105.282 39.6056C105.259 39.5545 105.237 39.5016 105.216 39.4468C105.195 39.3919 105.176 39.3342 105.161 39.2735L104.352 36.0729C104.327 35.9802 104.327 35.9027 104.349 35.8404C104.372 35.7782 104.424 35.7253 104.506 35.6818L106.184 34.7898L107.18 39.7385L114.003 42.1354L112.25 43.0678C112.133 43.1299 112.012 43.1548 111.886 43.1422C111.761 43.1297 111.641 43.1009 111.527 43.0558L106.839 41.3146C106.859 41.3623 106.879 41.4086 106.899 41.4536C106.919 41.4985 106.933 41.5424 106.941 41.5854L107.833 45.02C107.85 45.1114 107.852 45.2015 107.839 45.2904Z" fill="black"/>
</g>
</g>
</g>
<defs>
<clipPath id="clip0">
<rect width="264" height="311" fill="white" transform="translate(0 -21)"/>
</clipPath>
</defs>
</svg>
