<svg xmlns="http://www.w3.org/2000/svg" width="130" height="130" viewBox="0 0 130 130">
    <g fill="none" fill-rule="evenodd">
        <g>
            <path fill="#FFF" d="M0 0H1440V5735H0z" transform="translate(-100 -2199)"/>
            <g>
                <path fill="#A9ADB1" d="M0 0H1440V815H0z" transform="translate(-100 -2199) translate(0 1794)"/>
                <g stroke-width="4">
                    <g>
                        <g>
                            <path stroke="#000" d="M15 15H111V111H15z" transform="translate(-100 -2199) translate(0 1794) translate(100 384) translate(0 17) translate(7 7)"/>
                            <g stroke="#000">
                                <path fill="#D1FF52" d="M46.4 2H67.4V23H46.4zM46.4 44H67.4V65H46.4z" transform="translate(-100 -2199) translate(0 1794) translate(100 384) translate(0 17) translate(7 7) translate(28.5 29)"/>
                                <path d="M2 2H31.6V65.2H2z" transform="translate(-100 -2199) translate(0 1794) translate(100 384) translate(0 17) translate(7 7) translate(28.5 29)"/>
                            </g>
                            <g stroke="#0A0A0A">
                                <path d="M.5 14.161L.5.098M20.5 14.063L20.5 0M60.5 14.063L60.5 0M40.5 14.063L40.5 0" transform="translate(-100 -2199) translate(0 1794) translate(100 384) translate(0 17) translate(7 7) translate(32)"/>
                            </g>
                            <g stroke="#0A0A0A">
                                <path d="M.5 14.161L.5.098M20.5 14.063L20.5 0M60.5 14.063L60.5 0M40.5 14.063L40.5 0" transform="translate(-100 -2199) translate(0 1794) translate(100 384) translate(0 17) translate(7 7) translate(32 111)"/>
                            </g>
                            <g stroke="#0A0A0A">
                                <path d="M.5 14.161L.5.098M20.5 14.063L20.5 0M60.5 14.063L60.5 0M40.5 14.063L40.5 0" transform="translate(-100 -2199) translate(0 1794) translate(100 384) translate(0 17) translate(7 7) rotate(90 46.75 79.25)"/>
                            </g>
                            <g stroke="#0A0A0A">
                                <path d="M.5 14.161L.5.098M20.5 14.063L20.5 0M60.5 14.063L60.5 0M40.5 14.063L40.5 0" transform="translate(-100 -2199) translate(0 1794) translate(100 384) translate(0 17) translate(7 7) rotate(90 -8.75 23.75)"/>
                            </g>
                        </g>
                    </g>
                </g>
            </g>
        </g>
    </g>
</svg>
