<svg width="130" height="130" viewBox="0 0 130 130" fill="none" xmlns="http://www.w3.org/2000/svg">
<g id="&#231;&#188;&#150;&#231;&#187;&#132;">
<g id="decentralized">
<g id="Icon-decentralized">
<g id="&#231;&#188;&#150;&#231;&#187;&#132; 14">
<rect id="&#231;&#159;&#169;&#229;&#189;&#162;" x="5" y="6" width="21" height="21" stroke="black" stroke-width="4"/>
<rect id="&#231;&#159;&#169;&#229;&#189;&#162;_2" x="36" y="6" width="21" height="21" stroke="black" stroke-width="4"/>
<rect id="&#231;&#159;&#169;&#229;&#189;&#162;_3" x="67" y="6" width="21" height="21" stroke="black" stroke-width="4"/>
<rect id="&#231;&#159;&#169;&#229;&#189;&#162;_4" x="98" y="6" width="21" height="21" stroke="black" stroke-width="4"/>
</g>
<g id="&#231;&#188;&#150;&#231;&#187;&#132; 14_2">
<rect id="&#231;&#159;&#169;&#229;&#189;&#162;_5" x="5" y="37" width="21" height="21" stroke="black" stroke-width="4"/>
<rect id="&#231;&#159;&#169;&#229;&#189;&#162;_6" x="36" y="37" width="21" height="21" stroke="black" stroke-width="4"/>
<rect id="&#231;&#159;&#169;&#229;&#189;&#162;_7" x="67" y="37" width="21" height="21" stroke="black" stroke-width="4"/>
<rect id="&#231;&#159;&#169;&#229;&#189;&#162;_8" x="98" y="37" width="21" height="21" stroke="black" stroke-width="4"/>
</g>
<g id="&#231;&#188;&#150;&#231;&#187;&#132; 14_3">
<rect id="&#231;&#159;&#169;&#229;&#189;&#162;_9" x="5" y="68" width="21" height="21" stroke="black" stroke-width="4"/>
<rect id="&#231;&#159;&#169;&#229;&#189;&#162;_10" x="36" y="68" width="21" height="21" stroke="black" stroke-width="4"/>
<rect id="&#231;&#159;&#169;&#229;&#189;&#162;_11" x="67" y="68" width="21" height="21" stroke="black" stroke-width="4"/>
<rect id="&#231;&#159;&#169;&#229;&#189;&#162;_12" x="98" y="68" width="21" height="21" stroke="black" stroke-width="4"/>
</g>
<g id="&#231;&#188;&#150;&#231;&#187;&#132; 14_4">
<rect id="&#231;&#159;&#169;&#229;&#189;&#162;_13" x="5" y="99" width="21" height="21" stroke="black" stroke-width="4"/>
<rect id="&#231;&#159;&#169;&#229;&#189;&#162;_14" x="36" y="99" width="21" height="21" stroke="black" stroke-width="4"/>
<rect id="&#231;&#159;&#169;&#229;&#189;&#162;_15" x="67" y="99" width="21" height="21" stroke="black" stroke-width="4"/>
<rect id="&#231;&#159;&#169;&#229;&#189;&#162;_16" x="108.5" y="94.6508" width="21" height="21" transform="rotate(45 108.5 94.6508)" fill="#D1FF52" stroke="black" stroke-width="4"/>
</g>
</g>
</g>
</g>
</svg>
