<svg width="229" height="77" viewBox="0 0 229 77" fill="none" xmlns="http://www.w3.org/2000/svg">
<path d="M37.8 2.94999L37.4512 3.88731L37.4644 3.89198L37.8 2.94999ZM45.2 7.3L45.8763 6.56334L45.8763 6.56334L45.2 7.3ZM49.85 14L48.9248 14.3796L48.9278 14.3868L48.9309 14.3939L49.85 14ZM50.35 29.9L49.4026 29.5796L49.3986 29.5922L50.35 29.9ZM47.3 36.4L48.1425 36.9387L48.1465 36.9325L47.3 36.4ZM42.75 42.35L42.0054 41.6825L42.0048 41.6832L42.75 42.35ZM37.3 48.15L36.5869 47.449L36.5844 47.4515L37.3 48.15ZM23.05 62.75L22.3344 62.0515L19.679 64.7721L23.3293 63.7102L23.05 62.75ZM28.45 61.5L28.6174 62.4859L28.6248 62.4846L28.6321 62.4833L28.45 61.5ZM51.05 62.4L50.3554 63.1194L50.3619 63.1257L50.3686 63.1319L51.05 62.4ZM52.5 75V76H53.5V75H52.5ZM1.3 75H0.3V76H1.3V75ZM1.9 66.9L2.83979 67.2417L2.83979 67.2417L1.9 66.9ZM4 63.9L4.66897 64.6433L4.68984 64.6245L4.70962 64.6046L4 63.9ZM25 42.75L24.2929 42.0429L24.2904 42.0454L25 42.75ZM29.7 37.6L28.9253 36.9676L28.9253 36.9676L29.7 37.6ZM33 32.8L33.8751 33.2841L33.8793 33.2763L33 32.8ZM34.95 28.05L35.9138 28.3166L35.9152 28.3114L34.95 28.05ZM33.5 16.35L32.7464 17.0074L32.7539 17.0159L32.7615 17.0243L33.5 16.35ZM24 14.5L24.326 15.4454L24.326 15.4454L24 14.5ZM21.4 15.85L20.8056 15.0458L20.8056 15.0458L21.4 15.85ZM19.4 17.85L18.5958 17.2556L18.5873 17.2672L18.5791 17.2789L19.4 17.85ZM18.1 20.35L17.1622 20.0027L17.1578 20.015L18.1 20.35ZM16.05 23.6L15.4253 22.8191L15.4175 22.8254L15.4098 22.8318L16.05 23.6ZM11.65 24.55L11.5595 25.5459L11.567 25.5465L11.65 24.55ZM10.5 24.4L10.3259 25.3848L10.3356 25.3864L10.5 24.4ZM2.3 22.95L1.3106 22.8048L1.16956 23.7656L2.12587 23.9347L2.3 22.95ZM5.35 13.45L4.4804 12.9561L4.47584 12.9644L5.35 13.45ZM11 6.7L10.3781 5.91687L10.3725 5.9214L11 6.7ZM18.75 2.7L19.0364 3.65818L19.0464 3.65506L18.75 2.7ZM28.1 2.35C31.6016 2.35 34.714 2.8687 37.4513 3.88722L38.1487 2.01277C35.1527 0.897957 31.7984 0.349998 28.1 0.349998V2.35ZM37.4644 3.89198C40.2528 4.88556 42.5998 6.27044 44.5237 8.03665L45.8763 6.56334C43.7335 4.59621 41.1472 3.0811 38.1357 2.00801L37.4644 3.89198ZM44.5237 8.03665C46.4469 9.80216 47.9129 11.9129 48.9248 14.3796L50.7752 13.6204C49.6538 10.8871 48.0198 8.53117 45.8763 6.56334L44.5237 8.03665ZM48.9309 14.3939C49.9719 16.8231 50.5 19.5205 50.5 22.5H52.5C52.5 19.2795 51.9281 16.3103 50.7691 13.6061L48.9309 14.3939ZM50.5 22.5C50.5 25.0701 50.1307 27.4272 49.4027 29.5796L51.2973 30.2204C52.1026 27.8394 52.5 25.2633 52.5 22.5H50.5ZM49.3986 29.5922C48.6914 31.778 47.7105 33.8694 46.4535 35.8675L48.1465 36.9325C49.4895 34.7973 50.5419 32.5554 51.3014 30.2078L49.3986 29.5922ZM46.4575 35.8613C45.1887 37.8458 43.7054 39.7864 42.0054 41.6825L43.4946 43.0175C45.2613 41.047 46.8113 39.0208 48.1425 36.9387L46.4575 35.8613ZM42.0048 41.6832C40.316 43.5706 38.5101 45.4926 36.5869 47.449L38.0131 48.851C39.9566 46.8741 41.784 44.9294 43.4952 43.0168L42.0048 41.6832ZM36.5844 47.4515L22.3344 62.0515L23.7656 63.4485L38.0156 48.8485L36.5844 47.4515ZM23.3293 63.7102C25.1283 63.1869 26.8909 62.7791 28.6174 62.4859L28.2826 60.5141C26.4758 60.8209 24.6384 61.2465 22.7707 61.7898L23.3293 63.7102ZM28.6321 62.4833C30.3818 62.1593 32.0036 62 33.5 62V60C31.8631 60 30.1182 60.1741 28.2679 60.5167L28.6321 62.4833ZM33.5 62H47.1V60H33.5V62ZM47.1 62C48.5731 62 49.6176 62.407 50.3554 63.1194L51.7446 61.6806C50.5491 60.5263 48.9602 60 47.1 60V62ZM50.3686 63.1319C51.1036 63.8162 51.5 64.7361 51.5 66H53.5C53.5 64.2639 52.9298 62.7838 51.7314 61.6681L50.3686 63.1319ZM51.5 66V75H53.5V66H51.5ZM52.5 74H1.3V76H52.5V74ZM2.3 75V70H0.3V75H2.3ZM2.3 70C2.3 69.1715 2.47148 68.2546 2.83979 67.2417L0.960207 66.5583C0.528518 67.7454 0.3 68.8951 0.3 70H2.3ZM2.83979 67.2417C3.17592 66.3174 3.77244 65.4502 4.66897 64.6433L3.33104 63.1567C2.22756 64.1498 1.42408 65.2826 0.960207 66.5583L2.83979 67.2417ZM4.70962 64.6046L25.7096 43.4546L24.2904 42.0454L3.29038 63.1954L4.70962 64.6046ZM25.7071 43.4571C27.5262 41.638 29.1163 39.8964 30.4747 38.2324L28.9253 36.9676C27.6171 38.5703 26.0738 40.262 24.2929 42.0429L25.7071 43.4571ZM30.4747 38.2324C31.8394 36.5606 32.9749 34.9113 33.875 33.2841L32.125 32.3159C31.2918 33.822 30.2273 35.3727 28.9253 36.9676L30.4747 38.2324ZM33.8793 33.2763C34.7778 31.6176 35.4581 29.9642 35.9138 28.3166L33.9862 27.7834C33.5752 29.2692 32.9556 30.7824 32.1207 32.3237L33.8793 33.2763ZM35.9152 28.3114C36.3731 26.6208 36.6 24.8492 36.6 23H34.6C34.6 24.6842 34.3936 26.2792 33.9848 27.7886L35.9152 28.3114ZM36.6 23C36.6 19.9497 35.8634 17.4554 34.2385 15.6757L32.7615 17.0243C33.9366 18.3113 34.6 20.2503 34.6 23H36.6ZM34.2536 15.6926C32.6351 13.8373 30.2124 13 27.2 13V15C29.8543 15 31.6316 15.7294 32.7464 17.0074L34.2536 15.6926ZM27.2 13C25.9378 13 24.7592 13.1804 23.674 13.5546L24.326 15.4454C25.1741 15.1529 26.1289 15 27.2 15V13ZM23.674 13.5546C22.6182 13.9187 21.6598 14.4145 20.8056 15.0458L21.9944 16.6542C22.6736 16.1522 23.4485 15.748 24.326 15.4454L23.674 13.5546ZM20.8056 15.0458C19.959 15.6716 19.2216 16.409 18.5958 17.2556L20.2042 18.4444C20.7117 17.7577 21.3077 17.1617 21.9944 16.6542L20.8056 15.0458ZM18.5791 17.2789C17.9962 18.1169 17.5241 19.0257 17.1623 20.0027L19.0377 20.6973C19.3426 19.8743 19.7371 19.1165 20.2209 18.4211L18.5791 17.2789ZM17.1578 20.015C16.6582 21.4202 16.0587 22.3124 15.4253 22.8191L16.6747 24.3809C17.708 23.5542 18.4752 22.2798 19.0422 20.685L17.1578 20.015ZM15.4098 22.8318C14.8431 23.304 13.9969 23.6 12.75 23.6V25.6C14.3031 25.6 15.6569 25.2293 16.6902 24.3682L15.4098 22.8318ZM12.75 23.6C12.4493 23.6 12.1108 23.5849 11.733 23.5535L11.567 25.5465C11.9892 25.5817 12.384 25.6 12.75 25.6V23.6ZM11.7405 23.5541C11.4009 23.5232 11.0423 23.4766 10.6644 23.4136L10.3356 25.3864C10.7577 25.4567 11.1657 25.5101 11.5595 25.5459L11.7405 23.5541ZM10.6741 23.4153L2.47413 21.9653L2.12587 23.9347L10.3259 25.3847L10.6741 23.4153ZM3.2894 23.0952C3.80843 19.5593 4.79274 16.5122 6.22416 13.9356L4.47584 12.9644C2.90726 15.7878 1.85824 19.074 1.3106 22.8048L3.2894 23.0952ZM6.21956 13.9438C7.69598 11.344 9.49985 9.19343 11.6275 7.47859L10.3725 5.9214C8.03348 7.80656 6.07069 10.156 4.48044 12.9562L6.21956 13.9438ZM11.6219 7.48311C13.7843 5.76587 16.2526 4.49003 19.0363 3.65812L18.4637 1.74187C15.4474 2.64329 12.749 4.03413 10.3781 5.91689L11.6219 7.48311ZM19.0464 3.65506C21.8415 2.78761 24.8574 2.35 28.1 2.35V0.349998C24.6759 0.349998 21.4585 0.812387 18.4536 1.74493L19.0464 3.65506ZM109.958 55.1L108.998 54.8189L108.998 54.8189L109.958 55.1ZM104.258 66.7L103.474 66.0784L103.47 66.0837L104.258 66.7ZM95.6578 73.55L95.2474 72.6381L95.244 72.6396L95.6578 73.55ZM74.1578 73.55L73.7405 74.4588L73.744 74.4604L74.1578 73.55ZM65.6578 66.7L64.8703 67.3163L64.8703 67.3163L65.6578 66.7ZM60.0078 55.1L59.0463 55.3747L59.0481 55.3811L60.0078 55.1ZM60.0078 22L59.0481 21.7189L59.0463 21.7253L60.0078 22ZM65.6578 10.4L64.8703 9.78369L64.8703 9.78369L65.6578 10.4ZM74.1578 3.6L74.5674 4.51227L74.5716 4.51036L74.1578 3.6ZM95.6578 3.6L95.244 4.51043L95.2551 4.51531L95.6578 3.6ZM104.258 10.4L103.47 11.0163L103.474 11.0216L104.258 10.4ZM109.958 22L108.998 22.281L108.998 22.281L109.958 22ZM95.0578 26.2L94.0765 26.3922L94.0768 26.3941L95.0578 26.2ZM92.5078 18.6L91.6366 19.0911L91.6435 19.1029L92.5078 18.6ZM88.9578 14.85L88.493 15.7354L88.5017 15.74L88.5106 15.7444L88.9578 14.85ZM80.8578 14.85L81.3142 15.7399L81.3226 15.7354L80.8578 14.85ZM77.3578 18.6L76.4866 18.1089L76.4799 18.1211L77.3578 18.6ZM74.9078 26.2L73.9264 26.0078L73.9249 26.0157L74.9078 26.2ZM74.9078 50.95L73.9249 51.1343L73.9268 51.1441L74.9078 50.95ZM77.3578 58.55L76.4763 59.0222L76.4814 59.0317L76.4867 59.041L77.3578 58.55ZM80.8578 62.35L80.3837 63.2305L80.3971 63.2377L80.4106 63.2444L80.8578 62.35ZM88.9578 62.35L89.405 63.2444L89.4139 63.24L89.4226 63.2354L88.9578 62.35ZM92.5078 58.55L91.6396 58.0539L91.6367 58.059L92.5078 58.55ZM95.0578 50.95L94.0768 50.7558L94.0768 50.7558L95.0578 50.95ZM111.008 38.55C111.008 44.8491 110.331 50.2667 108.998 54.8189L110.918 55.3811C112.318 50.5999 113.008 44.9842 113.008 38.55H111.008ZM108.998 54.8189C107.659 59.3908 105.811 63.1341 103.474 66.0784L105.041 67.3216C107.572 64.1326 109.523 60.1426 110.918 55.3811L108.998 54.8189ZM103.47 66.0837C101.163 69.0313 98.4233 71.2089 95.2475 72.6381L96.0682 74.4619C99.559 72.8911 102.552 70.502 105.045 67.3163L103.47 66.0837ZM95.244 72.6396C92.0825 74.0767 88.6414 74.8 84.9078 74.8V76.8C88.9075 76.8 92.6331 76.0233 96.0716 74.4604L95.244 72.6396ZM84.9078 74.8C81.1742 74.8 77.7331 74.0767 74.5716 72.6396L73.744 74.4604C77.1825 76.0233 80.9081 76.8 84.9078 76.8V74.8ZM74.5751 72.6412C71.4653 71.2132 68.7554 69.0354 66.4453 66.0837L64.8703 67.3163C67.3602 70.4979 70.317 72.8868 73.7405 74.4588L74.5751 72.6412ZM66.4453 66.0837C64.1402 63.1383 62.3071 59.3931 60.9675 54.8189L59.0481 55.3811C60.4419 60.1402 62.3754 64.1284 64.8703 67.3163L66.4453 66.0837ZM60.9693 54.8253C59.668 50.2708 59.0078 44.8509 59.0078 38.55H57.0078C57.0078 44.9824 57.6809 50.5959 59.0463 55.3747L60.9693 54.8253ZM59.0078 38.55C59.0078 32.2491 59.668 26.8292 60.9693 22.2747L59.0463 21.7253C57.6809 26.5041 57.0078 32.1176 57.0078 38.55H59.0078ZM60.9675 22.281C62.3071 17.7069 64.1402 13.9617 66.4453 11.0163L64.8703 9.78369C62.3754 12.9716 60.4419 16.9598 59.0481 21.7189L60.9675 22.281ZM66.4453 11.0163C68.7542 8.06607 71.4616 5.90672 74.5674 4.51226L73.7482 2.68773C70.3207 4.22661 67.3614 6.60059 64.8703 9.78369L66.4453 11.0163ZM74.5716 4.51036C77.7331 3.07332 81.1742 2.35 84.9078 2.35V0.349998C80.9081 0.349998 77.1825 1.12668 73.744 2.68963L74.5716 4.51036ZM84.9078 2.35C88.6414 2.35 92.0825 3.07332 95.244 4.51036L96.0716 2.68963C92.6331 1.12668 88.9075 0.349998 84.9078 0.349998V2.35ZM95.2551 4.51531C98.4271 5.91098 101.165 8.07025 103.47 11.0163L105.045 9.78369C102.551 6.59641 99.5552 4.22235 96.0606 2.68468L95.2551 4.51531ZM103.474 11.0216C105.811 13.9659 107.659 17.7092 108.998 22.281L110.918 21.7189C109.523 16.9574 107.572 12.9674 105.041 9.77842L103.474 11.0216ZM108.998 22.281C110.331 26.8333 111.008 32.2509 111.008 38.55H113.008C113.008 32.1158 112.318 26.5001 110.918 21.7189L108.998 22.281ZM97.0078 38.55C97.0078 33.4825 96.6896 29.2943 96.0388 26.0058L94.0768 26.3941C94.6927 29.5056 95.0078 33.5508 95.0078 38.55H97.0078ZM96.0392 26.0078C95.3949 22.7187 94.517 20.0647 93.3722 18.0971L91.6435 19.1029C92.632 20.8019 93.454 23.2146 94.0765 26.3922L96.0392 26.0078ZM93.379 18.109C92.2865 16.1707 90.9763 14.7412 89.405 13.9556L88.5106 15.7444C89.606 16.2921 90.6625 17.3626 91.6367 19.091L93.379 18.109ZM89.4226 13.9646C87.9608 13.1971 86.4524 12.8 84.9078 12.8V14.8C86.0965 14.8 87.2881 15.1029 88.493 15.7354L89.4226 13.9646ZM84.9078 12.8C83.3632 12.8 81.8548 13.1971 80.393 13.9646L81.3226 15.7354C82.5275 15.1029 83.7191 14.8 84.9078 14.8V12.8ZM80.4015 13.9602C78.8661 14.7476 77.5759 16.1765 76.4867 18.109L78.229 19.091C79.2064 17.3568 80.2495 16.2858 81.3141 15.7398L80.4015 13.9602ZM76.4799 18.1211C75.4112 20.0805 74.5695 22.725 73.9265 26.0078L75.8892 26.3922C76.5128 23.2083 77.3044 20.7862 78.2357 19.0789L76.4799 18.1211ZM73.9249 26.0157C73.3092 29.2999 73.0078 33.4844 73.0078 38.55H75.0078C75.0078 33.5489 75.3065 29.5001 75.8907 26.3843L73.9249 26.0157ZM73.0078 38.55C73.0078 43.6485 73.3091 47.8498 73.9249 51.1343L75.8907 50.7657C75.3065 47.6502 75.0078 43.5849 75.0078 38.55H73.0078ZM73.9268 51.1441C74.5702 54.3948 75.4115 57.0346 76.4763 59.0222L78.2393 58.0778C77.3041 56.3321 76.5121 53.9052 75.8888 50.7558L73.9268 51.1441ZM76.4867 59.041C77.5753 60.9724 78.8607 62.4104 80.3837 63.2305L81.3319 61.4695C80.255 60.8896 79.207 59.7943 78.229 58.059L76.4867 59.041ZM80.4106 63.2444C81.87 63.9741 83.3722 64.35 84.9078 64.35V62.35C83.7101 62.35 82.5123 62.0592 81.305 61.4556L80.4106 63.2444ZM84.9078 64.35C86.4435 64.35 87.9457 63.9741 89.405 63.2444L88.5106 61.4556C87.3033 62.0592 86.1055 62.35 84.9078 62.35V64.35ZM89.4226 63.2354C90.9818 62.4169 92.2872 60.9781 93.379 59.041L91.6367 58.059C90.6618 59.7886 89.6005 60.8831 88.493 61.4646L89.4226 63.2354ZM93.3761 59.0461C94.5166 57.0503 95.3942 54.4012 96.0388 51.1441L94.0768 50.7558C93.4548 53.8988 92.6324 56.3164 91.6396 58.0539L93.3761 59.0461ZM96.0388 51.1441C96.6897 47.8553 97.0078 43.6503 97.0078 38.55H95.0078C95.0078 43.583 94.6926 47.6447 94.0768 50.7558L96.0388 51.1441ZM126.616 63.8V62.8H125.616V63.8H126.616ZM140.616 63.8V64.8H141.616V63.8H140.616ZM140.766 21.4L141.764 21.4508L141.88 19.1749L140.127 20.6306L140.766 21.4ZM132.516 28.25L133.146 29.0262L133.154 29.0194L132.516 28.25ZM130.916 29.2L131.214 30.1545L131.241 30.1461L131.267 30.1363L130.916 29.2ZM127.016 28.9L126.501 29.7575L126.526 29.7724L126.552 29.7858L127.016 28.9ZM125.516 27.65L124.717 28.252L124.723 28.2597L125.516 27.65ZM120.616 21.15L119.973 20.384L119.246 20.9941L119.817 21.752L120.616 21.15ZM143.316 2.1V1.1H142.952L142.673 1.33399L143.316 2.1ZM156.116 2.1H157.116V1.1H156.116V2.1ZM156.116 63.8H155.116V64.8H156.116V63.8ZM168.116 63.8H169.116V62.8H168.116V63.8ZM168.116 75V76H169.116V75H168.116ZM126.616 75H125.616V76H126.616V75ZM126.616 64.8H140.616V62.8H126.616V64.8ZM141.616 63.8V27.05H139.616V63.8H141.616ZM141.616 27.05C141.616 25.2684 141.665 23.4021 141.764 21.4508L139.767 21.3492C139.666 23.3312 139.616 25.2316 139.616 27.05H141.616ZM140.127 20.6306L131.877 27.4806L133.154 29.0194L141.404 22.1694L140.127 20.6306ZM131.885 27.4739C131.419 27.8527 130.978 28.1085 130.565 28.2637L131.267 30.1363C131.92 29.8915 132.546 29.514 133.146 29.0261L131.885 27.4739ZM130.617 28.2455C130.169 28.3855 129.753 28.45 129.366 28.45V30.45C129.978 30.45 130.595 30.3478 131.214 30.1545L130.617 28.2455ZM129.366 28.45C128.645 28.45 128.023 28.2988 127.48 28.0142L126.552 29.7858C127.408 30.2346 128.353 30.45 129.366 30.45V28.45ZM127.53 28.0425C126.929 27.6819 126.54 27.3419 126.308 27.0403L124.723 28.2597C125.158 28.8247 125.769 29.3181 126.501 29.7575L127.53 28.0425ZM126.314 27.048L121.414 20.548L119.817 21.752L124.717 28.252L126.314 27.048ZM121.258 21.916L143.958 2.866L142.673 1.33399L119.973 20.384L121.258 21.916ZM143.316 3.1H156.116V1.1H143.316V3.1ZM155.116 2.1V63.8H157.116V2.1H155.116ZM156.116 64.8H168.116V62.8H156.116V64.8ZM167.116 63.8V75H169.116V63.8H167.116ZM168.116 74H126.616V76H168.116V74ZM127.616 75V63.8H125.616V75H127.616ZM190.423 74.25L190.731 73.2984L190.731 73.2984L190.423 74.25ZM182.173 69.9L181.531 70.6664L181.537 70.6715L181.543 70.6765L182.173 69.9ZM176.873 63.05L175.966 63.4698L175.97 63.4791L176.873 63.05ZM175.673 48.6L174.707 48.3446L174.703 48.3575L175.673 48.6ZM177.823 43.8L176.997 43.2367L176.994 43.2409L177.823 43.8ZM181.623 39.9L181.037 39.0897L181.029 39.0958L181.623 39.9ZM187.273 37.05L187.603 37.9943L189.973 37.1682L187.684 36.1381L187.273 37.05ZM179.823 30.8L178.966 31.3145L178.971 31.3223L179.823 30.8ZM179.173 13.35L180.073 13.7872L180.075 13.7823L179.173 13.35ZM184.073 7.05L183.43 6.28477L184.073 7.05ZM191.523 2.9L191.853 3.84422L191.859 3.84199L191.523 2.9ZM210.473 2.9L210.134 3.84084L210.147 3.84537L210.473 2.9ZM217.973 7.05L217.33 7.81522L217.33 7.81522L217.973 7.05ZM222.873 13.35L221.972 13.7823L221.974 13.7872L222.873 13.35ZM222.173 30.8L221.321 30.2777L221.321 30.2777L222.173 30.8ZM214.773 37.05L214.36 36.1396L212.102 37.1656L214.44 37.9927L214.773 37.05ZM220.323 39.9L219.729 40.7042L219.737 40.7102L220.323 39.9ZM224.123 43.8L223.288 44.3503L223.296 44.3613L223.303 44.3722L224.123 43.8ZM226.323 48.6L225.357 48.8554L225.358 48.86L226.323 48.6ZM225.123 63.05L224.22 62.6209L224.216 62.6302L225.123 63.05ZM219.823 69.9L220.459 70.6719L220.46 70.671L219.823 69.9ZM211.623 74.25L211.931 75.2016L211.623 74.25ZM205.523 63.3L205.135 62.3784L205.135 62.3784L205.523 63.3ZM208.623 61.15L207.878 60.484L207.876 60.4856L208.623 61.15ZM210.423 57.9L209.47 57.5989L209.467 57.6069L209.465 57.615L210.423 57.9ZM210.523 49.55L209.555 49.7984L209.555 49.7984L210.523 49.55ZM208.873 46.25L208.101 46.8847L208.106 46.8917L208.112 46.8985L208.873 46.25ZM205.773 44.1L205.385 45.0216L205.4 45.0277L205.414 45.0333L205.773 44.1ZM196.223 44.1L196.591 45.0302L196.603 45.0252L196.223 44.1ZM193.173 46.25L193.935 46.8985L193.94 46.8917L193.946 46.8847L193.173 46.25ZM191.523 49.55L192.492 49.7984L192.492 49.7984L191.523 49.55ZM191.573 57.9L190.613 58.1781L190.617 58.1934L190.622 58.2085L191.573 57.9ZM193.373 61.15L192.614 61.8008L192.627 61.8153L192.64 61.8294L193.373 61.15ZM196.473 63.3L196.077 64.2179L196.085 64.2216L196.473 63.3ZM205.273 30.65L205.731 31.539L205.731 31.539L205.273 30.65ZM207.873 28.4L207.046 27.8385L207.046 27.8385L207.873 28.4ZM209.173 25.2L208.192 25.0091L208.192 25.0091L209.173 25.2ZM209.073 18.2L208.111 18.4707L208.111 18.4707L209.073 18.2ZM207.573 15.4L206.793 16.0247L206.806 16.0419L206.821 16.0585L207.573 15.4ZM204.923 13.4L204.499 14.3055L204.51 14.3104L204.923 13.4ZM197.073 13.4L196.649 12.4945L196.649 12.4945L197.073 13.4ZM194.423 15.4L193.658 14.7568L193.655 14.7598L194.423 15.4ZM192.973 18.2L193.936 18.4707L193.936 18.4707L192.973 18.2ZM192.873 25.2L193.855 25.0091L192.873 25.2ZM196.773 30.65L196.315 31.539L196.315 31.539L196.773 30.65ZM201.023 74.8C197.246 74.8 193.818 74.2953 190.731 73.2984L190.116 75.2016C193.429 76.2714 197.068 76.8 201.023 76.8V74.8ZM190.731 73.2984C187.632 72.2979 184.996 70.9026 182.804 69.1235L181.543 70.6765C183.951 72.6307 186.814 74.1354 190.116 75.2016L190.731 73.2984ZM182.816 69.1336C180.659 67.3258 178.982 65.1575 177.777 62.6209L175.97 63.4791C177.299 66.2759 179.154 68.6742 181.531 70.6664L182.816 69.1336ZM177.781 62.6302C176.615 60.1092 176.023 57.288 176.023 54.15H174.023C174.023 57.5453 174.665 60.6575 175.966 63.4698L177.781 62.6302ZM176.023 54.15C176.023 52.257 176.232 50.489 176.644 48.8425L174.703 48.3575C174.248 50.1776 174.023 52.1097 174.023 54.15H176.023ZM176.64 48.8554C177.08 47.1908 177.752 45.6945 178.653 44.3591L176.994 43.2409C175.962 44.7722 175.2 46.4759 174.707 48.3446L176.64 48.8554ZM178.65 44.3633C179.582 42.996 180.768 41.7758 182.218 40.7042L181.029 39.0958C179.412 40.2909 178.065 41.6706 176.997 43.2367L178.65 44.3633ZM182.21 40.7102C183.683 39.6441 185.476 38.7353 187.603 37.9943L186.944 36.1057C184.671 36.898 182.697 37.8892 181.037 39.0898L182.21 40.7102ZM187.684 36.1381C184.502 34.7063 182.188 32.7455 180.676 30.2777L178.971 31.3223C180.726 34.1878 183.378 36.3937 186.863 37.9619L187.684 36.1381ZM180.681 30.2855C179.191 27.8028 178.423 24.7886 178.423 21.2H176.423C176.423 25.0781 177.256 28.4638 178.966 31.3145L180.681 30.2855ZM178.423 21.2C178.423 18.5086 178.976 16.0426 180.073 13.7872L178.274 12.9128C177.037 15.4574 176.423 18.2248 176.423 21.2H178.423ZM180.075 13.7823C181.179 11.4792 182.724 9.49209 184.717 7.81522L183.43 6.28477C181.223 8.14124 179.501 10.3541 178.272 12.9177L180.075 13.7823ZM184.717 7.81522C186.715 6.13473 189.089 4.8084 191.853 3.8442L191.194 1.9558C188.225 2.9916 185.632 4.43193 183.43 6.28477L184.717 7.81522ZM191.859 3.84199C194.64 2.8512 197.691 2.35 201.023 2.35V0.349998C197.489 0.349998 194.207 0.882127 191.188 1.95801L191.859 3.84199ZM201.023 2.35C204.356 2.35 207.389 2.85125 210.134 3.84075L210.813 1.95925C207.824 0.882076 204.558 0.349998 201.023 0.349998V2.35ZM210.147 3.84537C212.945 4.81004 215.334 6.13638 217.33 7.81522L218.617 6.28477C216.413 4.43028 213.802 2.98996 210.799 1.95463L210.147 3.84537ZM217.33 7.81522C219.323 9.49209 220.867 11.4792 221.972 13.7823L223.775 12.9177C222.546 10.3541 220.824 8.14124 218.617 6.28477L217.33 7.81522ZM221.974 13.7872C223.07 16.0426 223.623 18.5086 223.623 21.2H225.623C225.623 18.2248 225.01 15.4574 223.773 12.9128L221.974 13.7872ZM223.623 21.2C223.623 24.785 222.841 27.7963 221.321 30.2777L223.026 31.3223C224.773 28.4703 225.623 25.0817 225.623 21.2H223.623ZM221.321 30.2777C219.807 32.7482 217.508 34.7087 214.36 36.1396L215.187 37.9604C218.639 36.3912 221.273 34.1851 223.026 31.3223L221.321 30.2777ZM214.44 37.9927C216.532 38.7329 218.29 39.6403 219.729 40.7042L220.918 39.0958C219.291 37.893 217.349 36.9004 215.107 36.1073L214.44 37.9927ZM219.737 40.7102C221.216 41.7798 222.395 42.9943 223.288 44.3503L224.958 43.2497C223.919 41.6724 222.564 40.2868 220.91 39.0898L219.737 40.7102ZM223.303 44.3722C224.233 45.705 224.919 47.1969 225.357 48.8554L227.29 48.3446C226.795 46.4698 226.014 44.7617 224.944 43.2278L223.303 44.3722ZM225.358 48.86C225.8 50.5009 226.023 52.2628 226.023 54.15H228.023C228.023 52.1038 227.781 50.1658 227.289 48.34L225.358 48.86ZM226.023 54.15C226.023 57.2842 225.417 60.1021 224.22 62.6209L226.027 63.4791C227.364 60.6646 228.023 57.5491 228.023 54.15H226.023ZM224.216 62.6302C223.046 65.1589 221.373 67.3228 219.187 69.129L220.46 70.671C222.874 68.6772 224.734 66.2744 226.031 63.4698L224.216 62.6302ZM219.188 69.1281C217.031 70.904 214.414 72.2982 211.316 73.2984L211.931 75.2016C215.233 74.1352 218.082 72.6294 220.459 70.6719L219.188 69.1281ZM211.316 73.2984C208.229 74.2953 204.801 74.8 201.023 74.8V76.8C204.979 76.8 208.618 76.2714 211.931 75.2016L211.316 73.2984ZM201.023 65.1C202.857 65.1 204.494 64.8183 205.911 64.2216L205.135 62.3784C204.019 62.8484 202.657 63.1 201.023 63.1V65.1ZM205.911 64.2216C207.296 63.6386 208.459 62.8406 209.371 61.8144L207.876 60.4856C207.188 61.2594 206.284 61.8947 205.135 62.3784L205.911 64.2216ZM209.369 61.816C210.304 60.7697 210.975 59.5553 211.382 58.185L209.465 57.615C209.139 58.7114 208.61 59.6636 207.878 60.484L209.369 61.816ZM211.377 58.2011C211.81 56.8297 212.023 55.3774 212.023 53.85H210.023C210.023 55.1892 209.837 56.437 209.47 57.5989L211.377 58.2011ZM212.023 53.85C212.023 52.2132 211.849 50.695 211.492 49.3016L209.555 49.7984C209.864 51.005 210.023 52.3535 210.023 53.85H212.023ZM211.492 49.3016C211.126 47.8742 210.513 46.6321 209.635 45.6015L208.112 46.8985C208.768 47.6679 209.254 48.6258 209.555 49.7984L211.492 49.3016ZM209.646 45.6153C208.754 44.529 207.569 43.7191 206.132 43.1667L205.414 45.0333C206.578 45.4809 207.46 46.1043 208.101 46.8847L209.646 45.6153ZM206.161 43.1784C204.735 42.5776 203.009 42.3 201.023 42.3V44.3C202.838 44.3 204.279 44.5558 205.385 45.0216L206.161 43.1784ZM201.023 42.3C199.036 42.3 197.299 42.578 195.844 43.1748L196.603 45.0252C197.748 44.5553 199.211 44.3 201.023 44.3V42.3ZM195.856 43.1698C194.452 43.7242 193.288 44.5346 192.401 45.6153L193.946 46.8847C194.592 46.0988 195.462 45.4758 196.591 45.0302L195.856 43.1698ZM192.412 45.6015C191.534 46.6321 190.921 47.8742 190.555 49.3016L192.492 49.7984C192.793 48.6258 193.279 47.6679 193.935 46.8985L192.412 45.6015ZM190.555 49.3016C190.198 50.695 190.023 52.2132 190.023 53.85H192.023C192.023 52.3535 192.183 51.005 192.492 49.7984L190.555 49.3016ZM190.023 53.85C190.023 55.3693 190.218 56.8135 190.613 58.1781L192.534 57.6219C192.196 56.4531 192.023 55.1974 192.023 53.85H190.023ZM190.622 58.2085C191.061 59.5605 191.724 60.7617 192.614 61.8008L194.133 60.4992C193.423 59.6716 192.886 58.7062 192.525 57.5915L190.622 58.2085ZM192.64 61.8294C193.576 62.8408 194.728 63.6346 196.077 64.2179L196.87 62.3821C195.752 61.8987 194.837 61.2592 194.107 60.4706L192.64 61.8294ZM196.085 64.2216C197.505 64.8192 199.16 65.1 201.023 65.1V63.1C199.354 63.1 197.976 62.8475 196.861 62.3784L196.085 64.2216ZM201.023 32.5C202.856 32.5 204.445 32.2019 205.731 31.539L204.815 29.761C203.902 30.2314 202.658 30.5 201.023 30.5V32.5ZM205.731 31.539C206.965 30.9033 207.965 30.0463 208.701 28.9615L207.046 27.8385C206.515 28.6204 205.782 29.2633 204.815 29.761L205.731 31.539ZM208.701 28.9615C209.416 27.9072 209.898 26.7123 210.155 25.3909L208.192 25.0091C207.982 26.0877 207.597 27.0261 207.046 27.8385L208.701 28.9615ZM210.155 25.3909C210.401 24.1258 210.523 22.8284 210.523 21.5H208.523C208.523 22.7049 208.412 23.8742 208.192 25.0091L210.155 25.3909ZM210.523 21.5C210.523 20.2772 210.361 19.086 210.036 17.9293L208.111 18.4707C208.385 19.4473 208.523 20.4561 208.523 21.5H210.523ZM210.036 17.9293C209.698 16.7255 209.128 15.6583 208.326 14.7415L206.821 16.0585C207.419 16.7417 207.849 17.5411 208.111 18.4707L210.036 17.9293ZM208.354 14.7753C207.577 13.8038 206.561 13.046 205.337 12.4896L204.51 14.3104C205.486 14.754 206.236 15.3295 206.793 16.0247L208.354 14.7753ZM205.348 12.4945C204.115 11.9165 202.661 11.65 201.023 11.65V13.65C202.453 13.65 203.599 13.8835 204.499 14.3055L205.348 12.4945ZM201.023 11.65C199.356 11.65 197.885 11.9153 196.649 12.4945L197.498 14.3055C198.395 13.8847 199.557 13.65 201.023 13.65V11.65ZM196.649 12.4945C195.462 13.051 194.459 13.8034 193.658 14.7568L195.189 16.0432C195.788 15.33 196.552 14.749 197.498 14.3055L196.649 12.4945ZM193.655 14.7598C192.893 15.6747 192.346 16.736 192.011 17.9293L193.936 18.4707C194.2 17.5307 194.621 16.7253 195.192 16.0402L193.655 14.7598ZM192.011 17.9293C191.685 19.086 191.523 20.2772 191.523 21.5H193.523C193.523 20.4561 193.661 19.4473 193.936 18.4707L192.011 17.9293ZM191.523 21.5C191.523 22.8284 191.646 24.1258 191.892 25.3909L193.855 25.0091C193.634 23.8742 193.523 22.7049 193.523 21.5H191.523ZM191.892 25.3909C192.149 26.7123 192.631 27.9072 193.346 28.9615L195.001 27.8385C194.45 27.0261 194.065 26.0877 193.855 25.0091L191.892 25.3909ZM193.346 28.9615C194.082 30.0463 195.082 30.9033 196.315 31.539L197.231 29.761C196.265 29.2633 195.531 28.6204 195.001 27.8385L193.346 28.9615ZM196.315 31.539C197.602 32.2019 199.191 32.5 201.023 32.5V30.5C199.389 30.5 198.145 30.2314 197.231 29.761L196.315 31.539Z" fill="black"/>
</svg>
