<svg width="227" height="77" viewBox="0 0 227 77" fill="none" xmlns="http://www.w3.org/2000/svg">
<path d="M46.95 62.35C48.45 62.35 49.6167 62.7667 50.45 63.6C51.3167 64.4333 51.75 65.5333 51.75 66.9V75H1.45V70.5C1.45 69.6333 1.63333 68.7 2 67.7C2.36667 66.6667 2.98333 65.7333 3.85 64.9L25.35 43.35C27.1833 41.5167 28.8 39.7667 30.2 38.1C31.6 36.4 32.7667 34.75 33.7 33.15C34.6333 31.5167 35.3333 29.8667 35.8 28.2C36.2667 26.5333 36.5 24.7833 36.5 22.95C36.5 19.7167 35.6667 17.2667 34 15.6C32.3333 13.9 29.9833 13.05 26.95 13.05C25.6167 13.05 24.3833 13.25 23.25 13.65C22.15 14.0167 21.15 14.5333 20.25 15.2C19.3833 15.8667 18.6333 16.65 18 17.55C17.3667 18.45 16.9 19.4333 16.6 20.5C16 22.1667 15.1833 23.2833 14.15 23.85C13.15 24.3833 11.7167 24.5 9.85 24.2L2.55 22.9C3.08333 19.3667 4.08333 16.2667 5.55 13.6C7.01667 10.9333 8.85 8.71666 11.05 6.95C13.25 5.18333 15.7667 3.86666 18.6 3C21.4333 2.09999 24.4833 1.64999 27.75 1.64999C31.1833 1.64999 34.3 2.16666 37.1 3.19999C39.9333 4.2 42.35 5.61666 44.35 7.45C46.35 9.25 47.9 11.4333 49 14C50.1 16.5667 50.65 19.4 50.65 22.5C50.65 25.1667 50.2667 27.6333 49.5 29.9C48.7333 32.1667 47.6833 34.3333 46.35 36.4C45.05 38.4333 43.5333 40.4167 41.8 42.35C40.0667 44.2833 38.2333 46.2333 36.3 48.2L20.9 63.95C22.6 63.45 24.2833 63.0667 25.95 62.8C27.6167 62.5 29.1833 62.35 30.65 62.35H46.95ZM111.758 38.7C111.758 45.0333 111.074 50.5333 109.708 55.2C108.341 59.8667 106.458 63.7333 104.058 66.8C101.658 69.8333 98.8078 72.1 95.5078 73.6C92.2411 75.0667 88.7078 75.8 84.9078 75.8C81.1078 75.8 77.5745 75.0667 74.3078 73.6C71.0411 72.1 68.2245 69.8333 65.8578 66.8C63.4911 63.7333 61.6245 59.8667 60.2578 55.2C58.9245 50.5333 58.2578 45.0333 58.2578 38.7C58.2578 32.3667 58.9245 26.8833 60.2578 22.25C61.6245 17.5833 63.4911 13.7333 65.8578 10.7C68.2245 7.63333 71.0411 5.36667 74.3078 3.9C77.5745 2.39999 81.1078 1.64999 84.9078 1.64999C88.7078 1.64999 92.2411 2.39999 95.5078 3.9C98.8078 5.36667 101.658 7.63333 104.058 10.7C106.458 13.7333 108.341 17.5833 109.708 22.25C111.074 26.8833 111.758 32.3667 111.758 38.7ZM97.5078 38.7C97.5078 33.5667 97.1411 29.3333 96.4078 26C95.7078 22.6667 94.7745 20.0333 93.6078 18.1C92.4411 16.1667 91.0911 14.8167 89.5578 14.05C88.0578 13.2833 86.5078 12.9 84.9078 12.9C83.3078 12.9 81.7578 13.2833 80.2578 14.05C78.7911 14.8167 77.4745 16.1667 76.3078 18.1C75.1745 20.0333 74.2578 22.6667 73.5578 26C72.8578 29.3333 72.5078 33.5667 72.5078 38.7C72.5078 43.8667 72.8578 48.1167 73.5578 51.45C74.2578 54.7833 75.1745 57.4167 76.3078 59.35C77.4745 61.2833 78.7911 62.6333 80.2578 63.4C81.7578 64.1667 83.3078 64.55 84.9078 64.55C86.5078 64.55 88.0578 64.1667 89.5578 63.4C91.0911 62.6333 92.4411 61.2833 93.6078 59.35C94.7745 57.4167 95.7078 54.7833 96.4078 51.45C97.1411 48.1167 97.5078 43.8667 97.5078 38.7ZM166.116 64.85V75H125.416V64.85H139.816V25.15C139.816 24.2833 139.832 23.4 139.866 22.5C139.899 21.6 139.949 20.6833 140.016 19.75L130.516 27.65C129.849 28.15 129.199 28.4667 128.566 28.6C127.932 28.7333 127.332 28.75 126.766 28.65C126.199 28.5167 125.699 28.3167 125.266 28.05C124.832 27.75 124.499 27.45 124.266 27.15L119.916 21.3L142.216 2.4H153.566V64.85H166.116ZM189.523 24.4C189.523 28.2333 190.457 31.15 192.323 33.15C194.223 35.15 196.99 36.15 200.623 36.15C202.457 36.15 204.09 35.8667 205.523 35.3C206.99 34.7 208.207 33.8833 209.173 32.85C210.14 31.8167 210.873 30.5833 211.373 29.15C211.907 27.7167 212.173 26.15 212.173 24.45C212.173 22.55 211.89 20.8833 211.323 19.45C210.757 17.9833 209.957 16.75 208.923 15.75C207.923 14.75 206.723 14 205.323 13.5C203.923 12.9667 202.373 12.7 200.673 12.7C198.94 12.7 197.39 13 196.023 13.6C194.657 14.1667 193.49 14.9833 192.523 16.05C191.557 17.0833 190.807 18.3167 190.273 19.75C189.773 21.1833 189.523 22.7333 189.523 24.4ZM204.073 47.15C204.573 46.5167 205.057 45.9 205.523 45.3C205.99 44.7 206.457 44.1 206.923 43.5C205.323 44.4333 203.573 45.15 201.673 45.65C199.807 46.1167 197.823 46.35 195.723 46.35C193.29 46.35 190.873 45.9167 188.473 45.05C186.107 44.1833 183.973 42.8833 182.073 41.15C180.173 39.4167 178.64 37.25 177.473 34.65C176.307 32.0167 175.723 28.9333 175.723 25.4C175.723 22.1667 176.323 19.1167 177.523 16.25C178.723 13.35 180.423 10.8333 182.623 8.7C184.823 6.53333 187.457 4.81667 190.523 3.55C193.623 2.28333 197.057 1.64999 200.823 1.64999C204.623 1.64999 208.04 2.24999 211.073 3.44999C214.107 4.61666 216.673 6.26667 218.773 8.4C220.873 10.5333 222.49 13.0833 223.623 16.05C224.757 18.9833 225.323 22.2167 225.323 25.75C225.323 28.05 225.14 30.2333 224.773 32.3C224.407 34.3667 223.873 36.3333 223.173 38.2C222.473 40.0667 221.623 41.8833 220.623 43.65C219.657 45.4167 218.557 47.15 217.323 48.85L201.173 71.9C200.507 72.7667 199.54 73.5 198.273 74.1C197.04 74.7 195.623 75 194.023 75H181.323L204.073 47.15Z" fill="white" fill-opacity="0.01"/>
<path d="M50.45 63.6L49.7429 64.3071L49.7498 64.314L49.7569 64.3208L50.45 63.6ZM51.75 75V76H52.75V75H51.75ZM1.45 75H0.45V76H1.45V75ZM2 67.7L2.93893 68.0443L2.94243 68.0344L2 67.7ZM3.85 64.9L4.54311 65.6208L4.55059 65.6136L4.55793 65.6063L3.85 64.9ZM25.35 43.35L24.6429 42.6429L24.6421 42.6437L25.35 43.35ZM30.2 38.1L30.9657 38.7432L30.9719 38.7357L30.2 38.1ZM33.7 33.15L34.5638 33.6539L34.5682 33.6461L33.7 33.15ZM34 15.6L33.2859 16.3001L33.2929 16.3071L34 15.6ZM23.25 13.65L23.5662 14.5987L23.5745 14.5959L23.5828 14.593L23.25 13.65ZM20.25 15.2L19.6548 14.3964L19.6475 14.4018L19.6403 14.4074L20.25 15.2ZM18 17.55L17.1822 16.9745L17.1822 16.9745L18 17.55ZM16.6 20.5L17.5409 20.8387L17.553 20.8051L17.5627 20.7707L16.6 20.5ZM14.15 23.85L14.6206 24.7324L14.6308 24.7268L14.15 23.85ZM9.85 24.2L9.67468 25.1845L9.68299 25.186L9.69132 25.1873L9.85 24.2ZM2.55 22.9L1.5612 22.7507L1.41584 23.7138L2.37468 23.8845L2.55 22.9ZM5.55 13.6L4.67378 13.1181L5.55 13.6ZM11.05 6.95L10.4239 6.17028L10.4239 6.17028L11.05 6.95ZM18.6 3L18.8925 3.95632L18.9027 3.95307L18.6 3ZM37.1 3.19999L36.7538 4.13815L36.7605 4.14061L36.7672 4.14298L37.1 3.19999ZM44.35 7.45L43.6742 8.18718L43.681 8.19329L44.35 7.45ZM49 14L49.9192 13.6061L49.9191 13.6061L49 14ZM49.5 29.9L48.5527 29.5796L48.5527 29.5796L49.5 29.9ZM46.35 36.4L45.5097 35.8579L45.5075 35.8613L46.35 36.4ZM41.8 42.35L41.0554 41.6825L41.0554 41.6825L41.8 42.35ZM36.3 48.2L35.5869 47.499L35.585 47.5009L36.3 48.2ZM20.9 63.95L20.185 63.2509L17.5062 65.9905L21.1822 64.9094L20.9 63.95ZM25.95 62.8L26.108 63.7874L26.1176 63.7859L26.1272 63.7842L25.95 62.8ZM46.95 63.35C48.2607 63.35 49.1447 63.7089 49.7429 64.3071L51.1571 62.8929C50.0886 61.8244 48.6393 61.35 46.95 61.35V63.35ZM49.7569 64.3208C50.3999 64.9392 50.75 65.7646 50.75 66.9H52.75C52.75 65.302 52.2334 63.9275 51.1431 62.8792L49.7569 64.3208ZM50.75 66.9V75H52.75V66.9H50.75ZM51.75 74H1.45V76H51.75V74ZM2.45 75V70.5H0.45V75H2.45ZM2.45 70.5C2.45 69.7742 2.60371 68.9584 2.93888 68.0443L1.06112 67.3557C0.662962 68.4416 0.45 69.4925 0.45 70.5H2.45ZM2.94243 68.0344C3.25227 67.1612 3.77745 66.357 4.54311 65.6208L3.15689 64.1792C2.18922 65.1096 1.48107 66.1721 1.05757 67.3656L2.94243 68.0344ZM4.55793 65.6063L26.0579 44.0563L24.6421 42.6437L3.14207 64.1937L4.55793 65.6063ZM26.0571 44.0571C27.9072 42.2071 29.544 40.4357 30.9657 38.7432L29.4343 37.4568C28.056 39.0976 26.4595 40.8263 24.6429 42.6429L26.0571 44.0571ZM30.9719 38.7357C32.3999 37.0018 33.5989 35.3079 34.5638 33.6539L32.8362 32.6461C31.9344 34.1921 30.8001 35.7982 29.4281 37.4643L30.9719 38.7357ZM34.5682 33.6461C35.5388 31.9476 36.2723 30.2219 36.763 28.4696L34.837 27.9304C34.3943 29.5114 33.7278 31.0857 32.8318 32.6539L34.5682 33.6461ZM36.763 28.4696C37.2556 26.7101 37.5 24.8691 37.5 22.95H35.5C35.5 24.6976 35.2777 26.3565 34.837 27.9304L36.763 28.4696ZM37.5 22.95C37.5 19.5523 36.6223 16.808 34.7071 14.8929L33.2929 16.3071C34.7111 17.7253 35.5 19.8811 35.5 22.95H37.5ZM34.7141 14.8999C32.8112 12.959 30.1745 12.05 26.95 12.05V14.05C29.7922 14.05 31.8554 14.841 33.2859 16.3001L34.7141 14.8999ZM26.95 12.05C25.5156 12.05 24.1685 12.2654 22.9172 12.707L23.5828 14.593C24.5982 14.2346 25.7177 14.05 26.95 14.05V12.05ZM22.9338 12.7013C21.7373 13.1001 20.6425 13.6648 19.6548 14.3964L20.8452 16.0036C21.6575 15.4019 22.5627 14.9332 23.5662 14.5987L22.9338 12.7013ZM19.6403 14.4074C18.6932 15.1359 17.8732 15.9926 17.1822 16.9745L18.8178 18.1255C19.3935 17.3074 20.0735 16.5974 20.8597 15.9926L19.6403 14.4074ZM17.1822 16.9745C16.4832 17.9678 15.9678 19.0543 15.6373 20.2293L17.5627 20.7707C17.8322 19.8124 18.2501 18.9322 18.8178 18.1255L17.1822 16.9745ZM15.6591 20.1613C15.1014 21.7104 14.4034 22.5706 13.6692 22.9732L14.6308 24.7268C15.9633 23.9961 16.8986 22.6229 17.5409 20.8387L15.6591 20.1613ZM13.6794 22.9676C12.9633 23.3496 11.791 23.4991 10.0087 23.2127L9.69132 25.1873C11.6423 25.5009 13.3367 25.4171 14.6206 24.7324L13.6794 22.9676ZM10.0253 23.2155L2.72532 21.9155L2.37468 23.8845L9.67468 25.1845L10.0253 23.2155ZM3.5388 23.0493C4.05753 19.6127 5.02536 16.6289 6.42622 14.0819L4.67378 13.1181C3.14131 15.9044 2.10914 19.1206 1.5612 22.7507L3.5388 23.0493ZM6.42622 14.0819C7.83482 11.5208 9.58598 9.40817 11.6761 7.72971L10.4239 6.17028C8.11403 8.02515 6.19852 10.3458 4.67378 13.1181L6.42622 14.0819ZM11.6761 7.72971C13.7722 6.04649 16.1744 4.78768 18.8925 3.95626L18.3075 2.04373C15.3589 2.94565 12.7278 4.32018 10.4239 6.17028L11.6761 7.72971ZM18.9027 3.95307C21.629 3.08708 24.576 2.64999 27.75 2.64999V0.649994C24.3907 0.649994 21.2377 1.11291 18.2973 2.04692L18.9027 3.95307ZM27.75 2.64999C31.0827 2.64999 34.0799 3.15137 36.7538 4.13815L37.4462 2.26184C34.5201 1.18195 31.284 0.649994 27.75 0.649994V2.64999ZM36.7672 4.14298C39.4872 5.103 41.7837 6.45414 43.6743 8.18715L45.0257 6.71284C42.9163 4.77919 40.3795 3.297 37.4328 2.257L36.7672 4.14298ZM43.681 8.19329C45.5692 9.89265 47.0357 11.9553 48.0809 14.3939L49.9191 13.6061C48.7643 10.9114 47.1308 8.60735 45.019 6.7067L43.681 8.19329ZM48.0809 14.3939C49.1219 16.8231 49.65 19.5205 49.65 22.5H51.65C51.65 19.2795 51.0781 16.3103 49.9192 13.6061L48.0809 14.3939ZM49.65 22.5C49.65 25.0701 49.2807 27.4272 48.5527 29.5796L50.4473 30.2204C51.2526 27.8394 51.65 25.2633 51.65 22.5H49.65ZM48.5527 29.5796C47.8132 31.7661 46.7996 33.8585 45.5097 35.8579L47.1903 36.9421C48.567 34.8082 49.6535 32.5673 50.4473 30.2204L48.5527 29.5796ZM45.5075 35.8613C44.2387 37.8458 42.7554 39.7864 41.0554 41.6825L42.5446 43.0175C44.3113 41.047 45.8613 39.0208 47.1925 36.9387L45.5075 35.8613ZM41.0554 41.6825C39.3329 43.6037 37.5101 45.5425 35.5869 47.499L37.0131 48.901C38.9565 46.9241 40.8004 44.963 42.5446 43.0175L41.0554 41.6825ZM35.585 47.5009L20.185 63.2509L21.615 64.6491L37.015 48.8991L35.585 47.5009ZM21.1822 64.9094C22.8434 64.4208 24.4853 64.0471 26.108 63.7874L25.792 61.8126C24.0814 62.0863 22.3566 62.4792 20.6178 62.9906L21.1822 64.9094ZM26.1272 63.7842C27.7441 63.4931 29.251 63.35 30.65 63.35V61.35C29.1157 61.35 27.4892 61.5069 25.7728 61.8158L26.1272 63.7842ZM30.65 63.35H46.95V61.35H30.65V63.35ZM109.708 55.2L108.748 54.9189L108.748 54.9189L109.708 55.2ZM104.058 66.8L104.842 67.4205L104.845 67.4163L104.058 66.8ZM95.5078 73.6L95.9174 74.5123L95.9216 74.5104L95.5078 73.6ZM74.3078 73.6L73.8905 74.5088L73.8982 74.5123L74.3078 73.6ZM65.8578 66.8L65.0661 67.411L65.0694 67.4151L65.8578 66.8ZM60.2578 55.2L59.2963 55.4747L59.2981 55.4811L60.2578 55.2ZM60.2578 22.25L59.2981 21.9689L59.2968 21.9734L60.2578 22.25ZM65.8578 10.7L66.6462 11.3151L66.6495 11.311L65.8578 10.7ZM74.3078 3.9L74.7174 4.8123L74.7251 4.80877L74.3078 3.9ZM95.5078 3.9L95.0905 4.80884L95.1017 4.81381L95.5078 3.9ZM104.058 10.7L103.27 11.3163L103.274 11.3205L104.058 10.7ZM109.708 22.25L108.748 22.5311L108.749 22.5329L109.708 22.25ZM96.4078 26L95.4291 26.2055L95.4312 26.2149L96.4078 26ZM93.6078 18.1L92.7516 18.6167L92.7516 18.6167L93.6078 18.1ZM89.5578 14.05L89.1027 14.9405L89.1106 14.9444L89.5578 14.05ZM80.2578 14.05L79.8027 13.1595L79.7946 13.1638L80.2578 14.05ZM76.3078 18.1L75.4516 17.5833L75.4451 17.5943L76.3078 18.1ZM73.5578 26L74.5365 26.2055L74.5365 26.2055L73.5578 26ZM73.5578 51.45L72.5792 51.6555L72.5792 51.6555L73.5578 51.45ZM76.3078 59.35L75.445 59.8558L75.4516 59.8667L76.3078 59.35ZM80.2578 63.4L79.7945 64.2863L79.8027 64.2904L80.2578 63.4ZM89.5578 63.4L89.1106 62.5055L89.1027 62.5096L89.5578 63.4ZM96.4078 51.45L95.4311 51.2351L95.4292 51.2445L96.4078 51.45ZM110.758 38.7C110.758 44.9652 110.081 50.3663 108.748 54.9189L110.668 55.4811C112.068 50.7003 112.758 45.1014 112.758 38.7H110.758ZM108.748 54.9189C107.409 59.4931 105.575 63.2383 103.27 66.1837L104.845 67.4163C107.34 64.2284 109.274 60.2402 110.668 55.4811L108.748 54.9189ZM103.274 66.1795C100.965 69.0967 98.2396 71.2598 95.094 72.6896L95.9216 74.5104C99.376 72.9402 102.35 70.5699 104.842 67.4205L103.274 66.1795ZM95.0982 72.6877C91.9682 74.0931 88.5754 74.8 84.9078 74.8V76.8C88.8402 76.8 92.5141 76.0403 95.9174 74.5123L95.0982 72.6877ZM84.9078 74.8C81.2402 74.8 77.8475 74.0931 74.7174 72.6877L73.8982 74.5123C77.3015 76.0403 80.9754 76.8 84.9078 76.8V74.8ZM74.7251 72.6912C71.614 71.2627 68.9216 69.1011 66.6462 66.1849L65.0694 67.4151C67.5274 70.5655 70.4683 72.9373 73.8905 74.5088L74.7251 72.6912ZM66.6495 66.189C64.3755 63.2425 62.5578 59.4955 61.2175 54.9189L59.2981 55.4811C60.6912 60.2379 62.6068 64.2241 65.0661 67.411L66.6495 66.189ZM61.2193 54.9253C59.9179 50.3703 59.2578 44.967 59.2578 38.7H57.2578C57.2578 45.0997 57.931 50.6963 59.2963 55.4747L61.2193 54.9253ZM59.2578 38.7C59.2578 32.4327 59.918 27.0469 61.2188 22.5265L59.2968 21.9734C57.931 26.7197 57.2578 32.3006 57.2578 38.7H59.2578ZM61.2175 22.531C62.5577 17.9549 64.3747 14.2265 66.6462 11.3151L65.0694 10.0849C62.6075 13.2402 60.6913 17.2118 59.2981 21.9689L61.2175 22.531ZM66.6495 11.311C68.924 8.36372 71.6131 6.20605 74.7174 4.81227L73.8982 2.98773C70.4692 4.52728 67.525 6.90295 65.0661 10.089L66.6495 11.311ZM74.7251 4.80877C77.8534 3.37229 81.2435 2.64999 84.9078 2.64999V0.649994C80.9722 0.649994 77.2955 1.4277 73.8905 2.99123L74.7251 4.80877ZM84.9078 2.64999C88.5722 2.64999 91.9622 3.37229 95.0905 4.80877L95.9251 2.99123C92.5201 1.4277 88.8435 0.649994 84.9078 0.649994V2.64999ZM95.1017 4.81381C98.2406 6.20887 100.963 8.36816 103.27 11.3163L104.845 10.0837C102.353 6.8985 99.3751 4.52446 95.914 2.98619L95.1017 4.81381ZM103.274 11.3205C105.576 14.2307 107.409 17.9572 108.748 22.531L110.668 21.9689C109.274 17.2095 107.339 13.2359 104.842 10.0795L103.274 11.3205ZM108.749 22.5329C110.081 27.051 110.758 32.4345 110.758 38.7H112.758C112.758 32.2988 112.068 26.7157 110.667 21.9671L108.749 22.5329ZM98.5078 38.7C98.5078 33.5267 98.139 29.2148 97.3845 25.7851L95.4312 26.2149C96.1433 29.4519 96.5078 33.6066 96.5078 38.7H98.5078ZM97.3865 25.7945C96.6739 22.4014 95.7102 19.6485 94.464 17.5833L92.7516 18.6167C93.8387 20.4181 94.7417 22.932 95.4292 26.2055L97.3865 25.7945ZM94.464 17.5833C93.2299 15.5382 91.7535 14.0298 90.005 13.1556L89.1106 14.9444C90.4287 15.6035 91.6524 16.7951 92.7516 18.6167L94.464 17.5833ZM90.0129 13.1596C88.3797 12.3248 86.6744 11.9 84.9078 11.9V13.9C86.3412 13.9 87.7359 14.2419 89.1027 14.9404L90.0129 13.1596ZM84.9078 11.9C83.1412 11.9 81.4359 12.3248 79.8027 13.1596L80.7129 14.9404C82.0797 14.2419 83.4744 13.9 84.9078 13.9V11.9ZM79.7946 13.1638C78.1167 14.0408 76.6797 15.5482 75.4516 17.5833L77.164 18.6167C78.2692 16.7851 79.4656 15.5925 80.7211 14.9362L79.7946 13.1638ZM75.4451 17.5943C74.2366 19.6559 73.2911 22.4045 72.5792 25.7945L74.5365 26.2055C75.2246 22.9288 76.1124 20.4108 77.1705 18.6057L75.4451 17.5943ZM72.5792 25.7945C71.8598 29.2202 71.5078 33.5286 71.5078 38.7H73.5078C73.5078 33.6047 73.8559 29.4465 74.5365 26.2055L72.5792 25.7945ZM71.5078 38.7C71.5078 43.9042 71.8597 48.2295 72.5792 51.6555L74.5365 51.2445C73.8559 48.0038 73.5078 43.8291 73.5078 38.7H71.5078ZM72.5792 51.6555C73.2911 55.0455 74.2366 57.7941 75.4451 59.8557L77.1705 58.8443C76.1124 57.0392 75.2246 54.5212 74.5365 51.2445L72.5792 51.6555ZM75.4516 59.8667C76.6797 61.9018 78.1167 63.4092 79.7946 64.2862L80.7211 62.5138C79.4656 61.8575 78.2692 60.6649 77.164 58.8333L75.4516 59.8667ZM79.8027 64.2904C81.4359 65.1252 83.1412 65.55 84.9078 65.55V63.55C83.4744 63.55 82.0797 63.2081 80.7129 62.5096L79.8027 64.2904ZM84.9078 65.55C86.6744 65.55 88.3797 65.1252 90.0129 64.2904L89.1027 62.5096C87.7359 63.2081 86.3412 63.55 84.9078 63.55V65.55ZM90.005 64.2944C91.7535 63.4202 93.2299 61.9118 94.464 59.8667L92.7516 58.8333C91.6524 60.6549 90.4287 61.8465 89.1106 62.5056L90.005 64.2944ZM94.464 59.8667C95.7102 57.8015 96.6739 55.0486 97.3865 51.6555L95.4292 51.2445C94.7417 54.518 93.8387 57.0319 92.7516 58.8333L94.464 59.8667ZM97.3845 51.6649C98.1391 48.2348 98.5078 43.9061 98.5078 38.7H96.5078C96.5078 43.8272 96.1432 47.9985 95.4312 51.2351L97.3845 51.6649ZM166.116 64.85H167.116V63.85H166.116V64.85ZM166.116 75V76H167.116V75H166.116ZM125.416 75H124.416V76H125.416V75ZM125.416 64.85V63.85H124.416V64.85H125.416ZM139.816 64.85V65.85H140.816V64.85H139.816ZM139.866 22.5L138.866 22.463L138.866 22.463L139.866 22.5ZM140.016 19.75L141.013 19.8212L141.18 17.4809L139.376 18.9811L140.016 19.75ZM130.516 27.65L131.116 28.45L131.136 28.4349L131.155 28.4189L130.516 27.65ZM126.766 28.65L126.537 29.6234L126.564 29.6299L126.592 29.6348L126.766 28.65ZM125.266 28.05L124.696 28.8722L124.719 28.8875L124.742 28.9017L125.266 28.05ZM124.266 27.15L123.463 27.7467L123.47 27.7554L123.476 27.7639L124.266 27.15ZM119.916 21.3L119.269 20.5371L118.553 21.1438L119.113 21.8967L119.916 21.3ZM142.216 2.4V1.4H141.849L141.569 1.63713L142.216 2.4ZM153.566 2.4H154.566V1.4H153.566V2.4ZM153.566 64.85H152.566V65.85H153.566V64.85ZM165.116 64.85V75H167.116V64.85H165.116ZM166.116 74H125.416V76H166.116V74ZM126.416 75V64.85H124.416V75H126.416ZM125.416 65.85H139.816V63.85H125.416V65.85ZM140.816 64.85V25.15H138.816V64.85H140.816ZM140.816 25.15C140.816 24.2961 140.832 23.4252 140.865 22.537L138.866 22.463C138.833 23.3748 138.816 24.2705 138.816 25.15H140.816ZM140.865 22.537C140.898 21.6489 140.947 20.7436 141.013 19.8212L139.018 19.6788C138.951 20.623 138.9 21.5511 138.866 22.463L140.865 22.537ZM139.376 18.9811L129.876 26.8811L131.155 28.4189L140.655 20.5189L139.376 18.9811ZM129.916 26.85C129.333 27.2867 128.815 27.5255 128.36 27.6214L128.772 29.5785C129.583 29.4078 130.365 29.0133 131.116 28.45L129.916 26.85ZM128.36 27.6214C127.836 27.7317 127.365 27.7404 126.939 27.6652L126.592 29.6348C127.299 29.7596 128.029 29.7349 128.772 29.5785L128.36 27.6214ZM126.995 27.6766C126.517 27.5643 126.12 27.4014 125.79 27.1983L124.742 28.9017C125.278 29.2319 125.88 29.469 126.537 29.6234L126.995 27.6766ZM125.835 27.2278C125.455 26.965 125.207 26.7316 125.055 26.5361L123.476 27.7639C123.791 28.1684 124.209 28.535 124.696 28.8722L125.835 27.2278ZM125.068 26.5533L120.718 20.7033L119.113 21.8967L123.463 27.7467L125.068 26.5533ZM120.562 22.0629L142.862 3.16287L141.569 1.63713L119.269 20.5371L120.562 22.0629ZM142.216 3.4H153.566V1.4H142.216V3.4ZM152.566 2.4V64.85H154.566V2.4H152.566ZM153.566 65.85H166.116V63.85H153.566V65.85ZM192.323 33.15L191.592 33.8323L191.598 33.8387L192.323 33.15ZM205.523 35.3L205.891 36.23L205.902 36.2255L205.523 35.3ZM209.173 32.85L208.443 32.1668L208.443 32.1668L209.173 32.85ZM211.373 29.15L210.436 28.8013L210.433 28.8109L210.429 28.8206L211.373 29.15ZM211.323 19.45L210.391 19.8104L210.393 19.8177L211.323 19.45ZM208.923 15.75L208.216 16.4571L208.222 16.4629L208.228 16.4686L208.923 15.75ZM205.323 13.5L204.967 14.4345L204.977 14.4382L204.987 14.4417L205.323 13.5ZM196.023 13.6L196.406 14.5237L196.416 14.5198L196.425 14.5156L196.023 13.6ZM192.523 16.05L193.254 16.7332L193.259 16.7274L193.264 16.7215L192.523 16.05ZM190.273 19.75L189.336 19.4013L189.333 19.4109L189.329 19.4206L190.273 19.75ZM204.073 47.15L204.848 47.7826L204.853 47.7762L204.858 47.7696L204.073 47.15ZM206.923 43.5L207.713 44.1139L206.42 42.6362L206.923 43.5ZM201.673 45.65L201.916 46.6202L201.928 46.6171L201.673 45.65ZM188.473 45.05L188.13 45.989L188.134 45.9906L188.473 45.05ZM182.073 41.15L182.747 40.4112L182.747 40.4112L182.073 41.15ZM177.473 34.65L176.559 35.0551L176.561 35.0594L177.473 34.65ZM177.523 16.25L178.446 16.6361L178.447 16.6323L177.523 16.25ZM182.623 8.7L183.32 9.41792L183.325 9.41248L182.623 8.7ZM190.523 3.55L190.145 2.62429L190.142 2.62574L190.523 3.55ZM211.073 3.44999L210.706 4.37992L210.714 4.38334L211.073 3.44999ZM218.773 8.4L219.486 7.69848L219.486 7.69848L218.773 8.4ZM223.623 16.05L222.689 16.4069L222.691 16.4104L223.623 16.05ZM224.773 32.3L225.758 32.4747L225.758 32.4747L224.773 32.3ZM223.173 38.2L222.237 37.8489L222.237 37.8489L223.173 38.2ZM220.623 43.65L219.753 43.1574L219.75 43.1637L219.746 43.17L220.623 43.65ZM217.323 48.85L216.514 48.2628L216.509 48.2694L216.504 48.2762L217.323 48.85ZM201.173 71.9L201.966 72.5097L201.98 72.4921L201.992 72.4738L201.173 71.9ZM198.273 74.1L197.845 73.1962L197.836 73.2008L198.273 74.1ZM181.323 75L180.549 74.3674L179.215 76H181.323V75ZM188.523 24.4C188.523 28.3846 189.494 31.584 191.592 33.8323L193.054 32.4677C191.42 30.716 190.523 28.0821 190.523 24.4H188.523ZM191.598 33.8387C193.742 36.095 196.807 37.15 200.623 37.15V35.15C197.173 35.15 194.705 34.205 193.048 32.4612L191.598 33.8387ZM200.623 37.15C202.559 37.15 204.321 36.8508 205.891 36.23L205.156 34.37C203.859 34.8826 202.354 35.15 200.623 35.15V37.15ZM205.902 36.2255C207.486 35.5776 208.827 34.6836 209.904 33.5332L208.443 32.1668C207.586 33.083 206.494 33.8224 205.145 34.3745L205.902 36.2255ZM209.904 33.5332C210.972 32.3908 211.775 31.0345 212.318 29.4794L210.429 28.8206C209.972 30.1321 209.308 31.2425 208.443 32.1668L209.904 33.5332ZM212.311 29.4987C212.89 27.9421 213.173 26.2558 213.173 24.45H211.173C211.173 26.0442 210.924 27.4913 210.436 28.8013L212.311 29.4987ZM213.173 24.45C213.173 22.4525 212.876 20.6565 212.253 19.0823L210.393 19.8177C210.904 21.1102 211.173 22.6475 211.173 24.45H213.173ZM212.256 19.0896C211.642 17.5005 210.766 16.1413 209.619 15.0314L208.228 16.4686C209.148 17.3587 209.871 18.4661 210.391 19.8104L212.256 19.0896ZM209.631 15.0429C208.52 13.9328 207.192 13.1054 205.66 12.5583L204.987 14.4417C206.255 14.8946 207.326 15.5672 208.216 16.4571L209.631 15.0429ZM205.679 12.5655C204.151 11.9834 202.479 11.7 200.673 11.7V13.7C202.268 13.7 203.695 13.9499 204.967 14.4345L205.679 12.5655ZM200.673 11.7C198.824 11.7 197.134 12.0205 195.621 12.6844L196.425 14.5156C197.647 13.9795 199.056 13.7 200.673 13.7V11.7ZM195.64 12.6763C194.141 13.2979 192.851 14.1992 191.782 15.3785L193.264 16.7215C194.129 15.7674 195.172 15.0354 196.406 14.5237L195.64 12.6763ZM191.793 15.3668C190.729 16.5044 189.912 17.854 189.336 19.4013L191.211 20.0987C191.702 18.7794 192.385 17.6622 193.254 16.7332L191.793 15.3668ZM189.329 19.4206C188.789 20.9697 188.523 22.6321 188.523 24.4H190.523C190.523 22.8345 190.758 21.397 191.218 20.0794L189.329 19.4206ZM204.858 47.7696C205.36 47.1345 205.845 46.516 206.313 45.9139L204.734 44.6861C204.269 45.284 203.787 45.8988 203.289 46.5304L204.858 47.7696ZM206.313 45.9139C206.314 45.9124 206.333 45.8873 206.335 45.8858C206.336 45.8843 206.355 45.8592 206.357 45.8577C206.358 45.8562 206.377 45.8311 206.378 45.8296C206.38 45.8281 206.399 45.8029 206.4 45.8014C206.401 45.7999 206.421 45.7748 206.422 45.7733C206.423 45.7718 206.443 45.7467 206.444 45.7452C206.445 45.7437 206.465 45.7186 206.466 45.7171C206.467 45.7156 206.487 45.6904 206.488 45.6889C206.489 45.6874 206.508 45.6623 206.51 45.6608C206.511 45.6593 206.53 45.6342 206.532 45.6327C206.533 45.6312 206.552 45.6061 206.553 45.6046C206.555 45.6031 206.574 45.5779 206.575 45.5764C206.576 45.5749 206.596 45.5498 206.597 45.5483C206.598 45.5468 206.618 45.5217 206.619 45.5202C206.62 45.5187 206.64 45.4936 206.641 45.4921C206.642 45.4906 206.662 45.4654 206.663 45.4639C206.664 45.4624 206.683 45.4373 206.685 45.4358C206.686 45.4343 206.705 45.4092 206.707 45.4077C206.708 45.4062 206.727 45.3811 206.728 45.3796C206.73 45.3781 206.749 45.3529 206.75 45.3514C206.751 45.3499 206.771 45.3248 206.772 45.3233C206.773 45.3218 206.793 45.2967 206.794 45.2952C206.795 45.2937 206.815 45.2686 206.816 45.2671C206.817 45.2656 206.837 45.2404 206.838 45.2389C206.839 45.2374 206.858 45.2123 206.86 45.2108C206.861 45.2093 206.88 45.1842 206.882 45.1827C206.883 45.1812 206.902 45.1561 206.903 45.1546C206.905 45.1531 206.924 45.1279 206.925 45.1264C206.926 45.1249 206.946 45.0998 206.947 45.0983C206.948 45.0968 206.968 45.0717 206.969 45.0702C206.97 45.0687 206.99 45.0436 206.991 45.0421C206.992 45.0406 207.012 45.0154 207.013 45.0139C207.115 44.8819 207.085 44.9209 207.188 44.7889C207.29 44.6569 207.26 44.6959 207.363 44.5639C207.465 44.4319 207.435 44.4709 207.538 44.3389C207.64 44.2069 207.61 44.2459 207.713 44.1139L206.134 42.8861C206.131 42.8901 206.093 42.9383 206.09 42.9423C206.087 42.9463 206.05 42.9946 206.047 42.9986C206.043 43.0026 206.006 43.0508 206.003 43.0548C206.002 43.0563 205.982 43.0814 205.981 43.0829C205.98 43.0844 205.96 43.1096 205.959 43.1111C205.958 43.1126 205.938 43.1377 205.937 43.1392C205.936 43.1407 205.917 43.1658 205.915 43.1673C205.914 43.1688 205.895 43.1939 205.893 43.1954C205.892 43.1969 205.873 43.2221 205.872 43.2236C205.87 43.2251 205.851 43.2502 205.85 43.2517C205.849 43.2532 205.829 43.2783 205.828 43.2798C205.827 43.2813 205.807 43.3064 205.806 43.3079C205.805 43.3094 205.785 43.3346 205.784 43.3361C205.783 43.3376 205.763 43.3627 205.762 43.3642C205.761 43.3657 205.742 43.3908 205.74 43.3923C205.739 43.3938 205.72 43.4189 205.718 43.4204C205.717 43.4219 205.698 43.4471 205.697 43.4486C205.695 43.4501 205.676 43.4752 205.675 43.4767C205.674 43.4782 205.654 43.5033 205.653 43.5048C205.652 43.5063 205.632 43.5314 205.631 43.5329C205.63 43.5344 205.61 43.5596 205.609 43.5611C205.608 43.5626 205.588 43.5877 205.587 43.5892C205.586 43.5907 205.567 43.6158 205.565 43.6173C205.564 43.6188 205.545 43.6439 205.543 43.6454C205.542 43.6469 205.523 43.6721 205.522 43.6736C205.52 43.6751 205.501 43.7002 205.5 43.7017C205.499 43.7032 205.479 43.7283 205.478 43.7298C205.477 43.7313 205.457 43.7564 205.456 43.7579C205.455 43.7594 205.435 43.7846 205.434 43.7861C205.331 43.9181 205.362 43.8791 205.259 44.0111C205.156 44.1431 205.187 44.1041 205.084 44.2361C204.981 44.3681 205.012 44.3291 204.909 44.4611C204.806 44.5931 204.837 44.5541 204.734 44.6861L206.313 45.9139ZM206.42 42.6362C204.902 43.5213 203.237 44.2045 201.419 44.6829L201.928 46.6171C203.91 46.0955 205.745 45.3453 207.427 44.3638L206.42 42.6362ZM201.431 44.6799C199.65 45.125 197.749 45.35 195.723 45.35V47.35C197.898 47.35 199.963 47.1084 201.916 46.6201L201.431 44.6799ZM195.723 45.35C193.411 45.35 191.11 44.9387 188.813 44.1094L188.134 45.9906C190.637 46.8946 193.169 47.35 195.723 47.35V45.35ZM188.817 44.111C186.575 43.2899 184.553 42.0588 182.747 40.4112L181.399 41.8888C183.393 43.7078 185.638 45.0768 188.13 45.989L188.817 44.111ZM182.747 40.4112C180.959 38.7797 179.502 36.7292 178.386 34.2406L176.561 35.0594C177.778 37.7708 179.388 40.0536 181.399 41.8888L182.747 40.4112ZM178.388 34.2449C177.289 31.7646 176.723 28.8247 176.723 25.4H174.723C174.723 29.042 175.325 32.2687 176.559 35.0551L178.388 34.2449ZM176.723 25.4C176.723 22.2938 177.299 19.3756 178.446 16.6361L176.601 15.8639C175.348 18.8578 174.723 22.0395 174.723 25.4H176.723ZM178.447 16.6323C179.597 13.8555 181.22 11.4538 183.32 9.4179L181.927 7.98209C179.627 10.2129 177.85 12.8445 176.599 15.8676L178.447 16.6323ZM183.325 9.41248C185.426 7.34297 187.949 5.69535 190.905 4.47426L190.142 2.62574C186.965 3.93798 184.22 5.72369 181.922 7.98751L183.325 9.41248ZM190.902 4.4757C193.868 3.26385 197.17 2.64999 200.823 2.64999V0.649994C196.943 0.649994 193.379 1.30281 190.145 2.62429L190.902 4.4757ZM200.823 2.64999C204.518 2.64999 207.807 3.23318 210.706 4.37987L211.441 2.52011C208.273 1.26681 204.729 0.649994 200.823 0.649994V2.64999ZM210.714 4.38334C213.626 5.50327 216.069 7.07825 218.061 9.10152L219.486 7.69848C217.278 5.45508 214.587 3.73006 211.432 2.51665L210.714 4.38334ZM218.061 9.10152C220.058 11.1306 221.602 13.5612 222.689 16.4069L224.558 15.6931C223.378 12.6055 221.689 9.93609 219.486 7.69848L218.061 9.10152ZM222.691 16.4104C223.774 19.2154 224.323 22.3248 224.323 25.75H226.323C226.323 22.1086 225.739 18.7512 224.556 15.6896L222.691 16.4104ZM224.323 25.75C224.323 27.9969 224.144 30.1215 223.789 32.1253L225.758 32.4747C226.136 30.3452 226.323 28.1031 226.323 25.75H224.323ZM223.789 32.1253C223.432 34.135 222.915 36.0423 222.237 37.8489L224.11 38.5511C224.832 36.6243 225.381 34.5984 225.758 32.4747L223.789 32.1253ZM222.237 37.8489C221.556 39.6659 220.728 41.4353 219.753 43.1574L221.494 44.1426C222.519 42.3314 223.391 40.4675 224.11 38.5511L222.237 37.8489ZM219.746 43.17C218.801 44.898 217.724 46.5956 216.514 48.2628L218.133 49.4372C219.39 47.7044 220.513 45.9354 221.501 44.13L219.746 43.17ZM216.504 48.2762L200.354 71.3262L201.992 72.4738L218.142 49.4238L216.504 48.2762ZM200.381 71.2903C199.834 72.0011 199.008 72.6455 197.845 73.1963L198.702 75.0037C200.072 74.3545 201.18 73.5322 201.966 72.5097L200.381 71.2903ZM197.836 73.2008C196.76 73.7243 195.497 74 194.023 74V76C195.75 76 197.32 75.6757 198.711 74.9992L197.836 73.2008ZM194.023 74H181.323V76H194.023V74ZM182.098 75.6326L204.848 47.7826L203.299 46.5174L180.549 74.3674L182.098 75.6326Z" fill="black"/>
</svg>
