<svg width="226" height="77" viewBox="0 0 226 77" fill="none" xmlns="http://www.w3.org/2000/svg">
<path d="M46.95 62.35C48.45 62.35 49.6167 62.7667 50.45 63.6C51.3167 64.4333 51.75 65.5333 51.75 66.9V75H1.45V70.5C1.45 69.6333 1.63333 68.7 2 67.7C2.36667 66.6667 2.98333 65.7333 3.85 64.9L25.35 43.35C27.1833 41.5167 28.8 39.7667 30.2 38.1C31.6 36.4 32.7667 34.75 33.7 33.15C34.6333 31.5167 35.3333 29.8667 35.8 28.2C36.2667 26.5333 36.5 24.7833 36.5 22.95C36.5 19.7167 35.6667 17.2667 34 15.6C32.3333 13.9 29.9833 13.05 26.95 13.05C25.6167 13.05 24.3833 13.25 23.25 13.65C22.15 14.0167 21.15 14.5333 20.25 15.2C19.3833 15.8667 18.6333 16.65 18 17.55C17.3667 18.45 16.9 19.4333 16.6 20.5C16 22.1667 15.1833 23.2833 14.15 23.85C13.15 24.3833 11.7167 24.5 9.85 24.2L2.55 22.9C3.08333 19.3667 4.08333 16.2667 5.55 13.6C7.01667 10.9333 8.85 8.71666 11.05 6.95C13.25 5.18333 15.7667 3.86666 18.6 3C21.4333 2.09999 24.4833 1.64999 27.75 1.64999C31.1833 1.64999 34.3 2.16666 37.1 3.19999C39.9333 4.2 42.35 5.61666 44.35 7.45C46.35 9.25 47.9 11.4333 49 14C50.1 16.5667 50.65 19.4 50.65 22.5C50.65 25.1667 50.2667 27.6333 49.5 29.9C48.7333 32.1667 47.6833 34.3333 46.35 36.4C45.05 38.4333 43.5333 40.4167 41.8 42.35C40.0667 44.2833 38.2333 46.2333 36.3 48.2L20.9 63.95C22.6 63.45 24.2833 63.0667 25.95 62.8C27.6167 62.5 29.1833 62.35 30.65 62.35H46.95ZM111.758 38.7C111.758 45.0333 111.074 50.5333 109.708 55.2C108.341 59.8667 106.458 63.7333 104.058 66.8C101.658 69.8333 98.8078 72.1 95.5078 73.6C92.2411 75.0667 88.7078 75.8 84.9078 75.8C81.1078 75.8 77.5745 75.0667 74.3078 73.6C71.0411 72.1 68.2245 69.8333 65.8578 66.8C63.4911 63.7333 61.6245 59.8667 60.2578 55.2C58.9245 50.5333 58.2578 45.0333 58.2578 38.7C58.2578 32.3667 58.9245 26.8833 60.2578 22.25C61.6245 17.5833 63.4911 13.7333 65.8578 10.7C68.2245 7.63333 71.0411 5.36667 74.3078 3.9C77.5745 2.39999 81.1078 1.64999 84.9078 1.64999C88.7078 1.64999 92.2411 2.39999 95.5078 3.9C98.8078 5.36667 101.658 7.63333 104.058 10.7C106.458 13.7333 108.341 17.5833 109.708 22.25C111.074 26.8833 111.758 32.3667 111.758 38.7ZM97.5078 38.7C97.5078 33.5667 97.1411 29.3333 96.4078 26C95.7078 22.6667 94.7745 20.0333 93.6078 18.1C92.4411 16.1667 91.0911 14.8167 89.5578 14.05C88.0578 13.2833 86.5078 12.9 84.9078 12.9C83.3078 12.9 81.7578 13.2833 80.2578 14.05C78.7911 14.8167 77.4745 16.1667 76.3078 18.1C75.1745 20.0333 74.2578 22.6667 73.5578 26C72.8578 29.3333 72.5078 33.5667 72.5078 38.7C72.5078 43.8667 72.8578 48.1167 73.5578 51.45C74.2578 54.7833 75.1745 57.4167 76.3078 59.35C77.4745 61.2833 78.7911 62.6333 80.2578 63.4C81.7578 64.1667 83.3078 64.55 84.9078 64.55C86.5078 64.55 88.0578 64.1667 89.5578 63.4C91.0911 62.6333 92.4411 61.2833 93.6078 59.35C94.7745 57.4167 95.7078 54.7833 96.4078 51.45C97.1411 48.1167 97.5078 43.8667 97.5078 38.7ZM162.966 62.35C164.466 62.35 165.632 62.7667 166.466 63.6C167.332 64.4333 167.766 65.5333 167.766 66.9V75H117.466V70.5C117.466 69.6333 117.649 68.7 118.016 67.7C118.382 66.6667 118.999 65.7333 119.866 64.9L141.366 43.35C143.199 41.5167 144.816 39.7667 146.216 38.1C147.616 36.4 148.782 34.75 149.716 33.15C150.649 31.5167 151.349 29.8667 151.816 28.2C152.282 26.5333 152.516 24.7833 152.516 22.95C152.516 19.7167 151.682 17.2667 150.016 15.6C148.349 13.9 145.999 13.05 142.966 13.05C141.632 13.05 140.399 13.25 139.266 13.65C138.166 14.0167 137.166 14.5333 136.266 15.2C135.399 15.8667 134.649 16.65 134.016 17.55C133.382 18.45 132.916 19.4333 132.616 20.5C132.016 22.1667 131.199 23.2833 130.166 23.85C129.166 24.3833 127.732 24.5 125.866 24.2L118.566 22.9C119.099 19.3667 120.099 16.2667 121.566 13.6C123.032 10.9333 124.866 8.71666 127.066 6.95C129.266 5.18333 131.782 3.86666 134.616 3C137.449 2.09999 140.499 1.64999 143.766 1.64999C147.199 1.64999 150.316 2.16666 153.116 3.19999C155.949 4.2 158.366 5.61666 160.366 7.45C162.366 9.25 163.916 11.4333 165.016 14C166.116 16.5667 166.666 19.4 166.666 22.5C166.666 25.1667 166.282 27.6333 165.516 29.9C164.749 32.1667 163.699 34.3333 162.366 36.4C161.066 38.4333 159.549 40.4167 157.816 42.35C156.082 44.2833 154.249 46.2333 152.316 48.2L136.916 63.95C138.616 63.45 140.299 63.0667 141.966 62.8C143.632 62.5 145.199 62.35 146.666 62.35H162.966ZM224.123 64.85V75H183.423V64.85H197.823V25.15C197.823 24.2833 197.84 23.4 197.873 22.5C197.907 21.6 197.957 20.6833 198.023 19.75L188.523 27.65C187.857 28.15 187.207 28.4667 186.573 28.6C185.94 28.7333 185.34 28.75 184.773 28.65C184.207 28.5167 183.707 28.3167 183.273 28.05C182.84 27.75 182.507 27.45 182.273 27.15L177.923 21.3L200.223 2.4H211.573V64.85H224.123Z" fill="white" fill-opacity="0.01"/>
<path d="M50.45 63.6L49.7429 64.3071L49.7498 64.314L49.7569 64.3208L50.45 63.6ZM51.75 75V76H52.75V75H51.75ZM1.45 75H0.45V76H1.45V75ZM2 67.7L2.93893 68.0443L2.94243 68.0344L2 67.7ZM3.85 64.9L4.54311 65.6208L4.55059 65.6136L4.55793 65.6063L3.85 64.9ZM25.35 43.35L24.6429 42.6429L24.6421 42.6437L25.35 43.35ZM30.2 38.1L30.9657 38.7432L30.9719 38.7357L30.2 38.1ZM33.7 33.15L34.5638 33.6539L34.5682 33.6461L33.7 33.15ZM34 15.6L33.2859 16.3001L33.2929 16.3071L34 15.6ZM23.25 13.65L23.5662 14.5987L23.5745 14.5959L23.5828 14.593L23.25 13.65ZM20.25 15.2L19.6548 14.3964L19.6475 14.4018L19.6403 14.4074L20.25 15.2ZM18 17.55L17.1822 16.9745L17.1822 16.9745L18 17.55ZM16.6 20.5L17.5409 20.8387L17.553 20.8051L17.5627 20.7707L16.6 20.5ZM14.15 23.85L14.6206 24.7324L14.6308 24.7268L14.15 23.85ZM9.85 24.2L9.67468 25.1845L9.68299 25.186L9.69132 25.1873L9.85 24.2ZM2.55 22.9L1.5612 22.7507L1.41584 23.7138L2.37468 23.8845L2.55 22.9ZM5.55 13.6L4.67378 13.1181L5.55 13.6ZM11.05 6.95L10.4239 6.17028L10.4239 6.17028L11.05 6.95ZM18.6 3L18.8925 3.95632L18.9027 3.95307L18.6 3ZM37.1 3.19999L36.7538 4.13815L36.7605 4.14061L36.7672 4.14298L37.1 3.19999ZM44.35 7.45L43.6742 8.18718L43.681 8.19329L44.35 7.45ZM49 14L49.9192 13.6061L49.9191 13.6061L49 14ZM49.5 29.9L48.5527 29.5796L48.5527 29.5796L49.5 29.9ZM46.35 36.4L45.5097 35.8579L45.5075 35.8613L46.35 36.4ZM41.8 42.35L41.0554 41.6825L41.0554 41.6825L41.8 42.35ZM36.3 48.2L35.5869 47.499L35.585 47.5009L36.3 48.2ZM20.9 63.95L20.185 63.2509L17.5062 65.9905L21.1822 64.9094L20.9 63.95ZM25.95 62.8L26.108 63.7874L26.1176 63.7859L26.1272 63.7842L25.95 62.8ZM46.95 63.35C48.2607 63.35 49.1447 63.7089 49.7429 64.3071L51.1571 62.8929C50.0886 61.8244 48.6393 61.35 46.95 61.35V63.35ZM49.7569 64.3208C50.3999 64.9392 50.75 65.7646 50.75 66.9H52.75C52.75 65.302 52.2334 63.9275 51.1431 62.8792L49.7569 64.3208ZM50.75 66.9V75H52.75V66.9H50.75ZM51.75 74H1.45V76H51.75V74ZM2.45 75V70.5H0.45V75H2.45ZM2.45 70.5C2.45 69.7742 2.60371 68.9584 2.93888 68.0443L1.06112 67.3557C0.662962 68.4416 0.45 69.4925 0.45 70.5H2.45ZM2.94243 68.0344C3.25227 67.1612 3.77745 66.357 4.54311 65.6208L3.15689 64.1792C2.18922 65.1096 1.48107 66.1721 1.05757 67.3656L2.94243 68.0344ZM4.55793 65.6063L26.0579 44.0563L24.6421 42.6437L3.14207 64.1937L4.55793 65.6063ZM26.0571 44.0571C27.9072 42.2071 29.544 40.4357 30.9657 38.7432L29.4343 37.4568C28.056 39.0976 26.4595 40.8263 24.6429 42.6429L26.0571 44.0571ZM30.9719 38.7357C32.3999 37.0018 33.5989 35.3079 34.5638 33.6539L32.8362 32.6461C31.9344 34.1921 30.8001 35.7982 29.4281 37.4643L30.9719 38.7357ZM34.5682 33.6461C35.5388 31.9476 36.2723 30.2219 36.763 28.4696L34.837 27.9304C34.3943 29.5114 33.7278 31.0857 32.8318 32.6539L34.5682 33.6461ZM36.763 28.4696C37.2556 26.7101 37.5 24.8691 37.5 22.95H35.5C35.5 24.6976 35.2777 26.3565 34.837 27.9304L36.763 28.4696ZM37.5 22.95C37.5 19.5523 36.6223 16.808 34.7071 14.8929L33.2929 16.3071C34.7111 17.7253 35.5 19.8811 35.5 22.95H37.5ZM34.7141 14.8999C32.8112 12.959 30.1745 12.05 26.95 12.05V14.05C29.7922 14.05 31.8554 14.841 33.2859 16.3001L34.7141 14.8999ZM26.95 12.05C25.5156 12.05 24.1685 12.2654 22.9172 12.707L23.5828 14.593C24.5982 14.2346 25.7177 14.05 26.95 14.05V12.05ZM22.9338 12.7013C21.7373 13.1001 20.6425 13.6648 19.6548 14.3964L20.8452 16.0036C21.6575 15.4019 22.5627 14.9332 23.5662 14.5987L22.9338 12.7013ZM19.6403 14.4074C18.6932 15.1359 17.8732 15.9926 17.1822 16.9745L18.8178 18.1255C19.3935 17.3074 20.0735 16.5974 20.8597 15.9926L19.6403 14.4074ZM17.1822 16.9745C16.4832 17.9678 15.9678 19.0543 15.6373 20.2293L17.5627 20.7707C17.8322 19.8124 18.2501 18.9322 18.8178 18.1255L17.1822 16.9745ZM15.6591 20.1613C15.1014 21.7104 14.4034 22.5706 13.6692 22.9732L14.6308 24.7268C15.9633 23.9961 16.8986 22.6229 17.5409 20.8387L15.6591 20.1613ZM13.6794 22.9676C12.9633 23.3496 11.791 23.4991 10.0087 23.2127L9.69132 25.1873C11.6423 25.5009 13.3367 25.4171 14.6206 24.7324L13.6794 22.9676ZM10.0253 23.2155L2.72532 21.9155L2.37468 23.8845L9.67468 25.1845L10.0253 23.2155ZM3.5388 23.0493C4.05753 19.6127 5.02536 16.6289 6.42622 14.0819L4.67378 13.1181C3.14131 15.9044 2.10914 19.1206 1.5612 22.7507L3.5388 23.0493ZM6.42622 14.0819C7.83482 11.5208 9.58598 9.40817 11.6761 7.72971L10.4239 6.17028C8.11403 8.02515 6.19852 10.3458 4.67378 13.1181L6.42622 14.0819ZM11.6761 7.72971C13.7722 6.04649 16.1744 4.78768 18.8925 3.95626L18.3075 2.04373C15.3589 2.94565 12.7278 4.32018 10.4239 6.17028L11.6761 7.72971ZM18.9027 3.95307C21.629 3.08708 24.576 2.64999 27.75 2.64999V0.649994C24.3907 0.649994 21.2377 1.11291 18.2973 2.04692L18.9027 3.95307ZM27.75 2.64999C31.0827 2.64999 34.0799 3.15137 36.7538 4.13815L37.4462 2.26184C34.5201 1.18195 31.284 0.649994 27.75 0.649994V2.64999ZM36.7672 4.14298C39.4872 5.103 41.7837 6.45414 43.6743 8.18715L45.0257 6.71284C42.9163 4.77919 40.3795 3.297 37.4328 2.257L36.7672 4.14298ZM43.681 8.19329C45.5692 9.89265 47.0357 11.9553 48.0809 14.3939L49.9191 13.6061C48.7643 10.9114 47.1308 8.60735 45.019 6.7067L43.681 8.19329ZM48.0809 14.3939C49.1219 16.8231 49.65 19.5205 49.65 22.5H51.65C51.65 19.2795 51.0781 16.3103 49.9192 13.6061L48.0809 14.3939ZM49.65 22.5C49.65 25.0701 49.2807 27.4272 48.5527 29.5796L50.4473 30.2204C51.2526 27.8394 51.65 25.2633 51.65 22.5H49.65ZM48.5527 29.5796C47.8132 31.7661 46.7996 33.8585 45.5097 35.8579L47.1903 36.9421C48.567 34.8082 49.6535 32.5673 50.4473 30.2204L48.5527 29.5796ZM45.5075 35.8613C44.2387 37.8458 42.7554 39.7864 41.0554 41.6825L42.5446 43.0175C44.3113 41.047 45.8613 39.0208 47.1925 36.9387L45.5075 35.8613ZM41.0554 41.6825C39.3329 43.6037 37.5101 45.5425 35.5869 47.499L37.0131 48.901C38.9565 46.9241 40.8004 44.963 42.5446 43.0175L41.0554 41.6825ZM35.585 47.5009L20.185 63.2509L21.615 64.6491L37.015 48.8991L35.585 47.5009ZM21.1822 64.9094C22.8434 64.4208 24.4853 64.0471 26.108 63.7874L25.792 61.8126C24.0814 62.0863 22.3566 62.4792 20.6178 62.9906L21.1822 64.9094ZM26.1272 63.7842C27.7441 63.4931 29.251 63.35 30.65 63.35V61.35C29.1157 61.35 27.4892 61.5069 25.7728 61.8158L26.1272 63.7842ZM30.65 63.35H46.95V61.35H30.65V63.35ZM109.708 55.2L108.748 54.9189L108.748 54.9189L109.708 55.2ZM104.058 66.8L104.842 67.4205L104.845 67.4163L104.058 66.8ZM95.5078 73.6L95.9174 74.5123L95.9216 74.5104L95.5078 73.6ZM74.3078 73.6L73.8905 74.5088L73.8982 74.5123L74.3078 73.6ZM65.8578 66.8L65.0661 67.411L65.0694 67.4151L65.8578 66.8ZM60.2578 55.2L59.2963 55.4747L59.2981 55.4811L60.2578 55.2ZM60.2578 22.25L59.2981 21.9689L59.2968 21.9734L60.2578 22.25ZM65.8578 10.7L66.6462 11.3151L66.6495 11.311L65.8578 10.7ZM74.3078 3.9L74.7174 4.8123L74.7251 4.80877L74.3078 3.9ZM95.5078 3.9L95.0905 4.80884L95.1017 4.81381L95.5078 3.9ZM104.058 10.7L103.27 11.3163L103.274 11.3205L104.058 10.7ZM109.708 22.25L108.748 22.5311L108.749 22.5329L109.708 22.25ZM96.4078 26L95.4291 26.2055L95.4312 26.2149L96.4078 26ZM93.6078 18.1L92.7516 18.6167L92.7516 18.6167L93.6078 18.1ZM89.5578 14.05L89.1027 14.9405L89.1106 14.9444L89.5578 14.05ZM80.2578 14.05L79.8027 13.1595L79.7946 13.1638L80.2578 14.05ZM76.3078 18.1L75.4516 17.5833L75.4451 17.5943L76.3078 18.1ZM73.5578 26L74.5365 26.2055L74.5365 26.2055L73.5578 26ZM73.5578 51.45L72.5792 51.6555L72.5792 51.6555L73.5578 51.45ZM76.3078 59.35L75.445 59.8558L75.4516 59.8667L76.3078 59.35ZM80.2578 63.4L79.7945 64.2863L79.8027 64.2904L80.2578 63.4ZM89.5578 63.4L89.1106 62.5055L89.1027 62.5096L89.5578 63.4ZM96.4078 51.45L95.4311 51.2351L95.4292 51.2445L96.4078 51.45ZM110.758 38.7C110.758 44.9652 110.081 50.3663 108.748 54.9189L110.668 55.4811C112.068 50.7003 112.758 45.1014 112.758 38.7H110.758ZM108.748 54.9189C107.409 59.4931 105.575 63.2383 103.27 66.1837L104.845 67.4163C107.34 64.2284 109.274 60.2402 110.668 55.4811L108.748 54.9189ZM103.274 66.1795C100.965 69.0967 98.2396 71.2598 95.094 72.6896L95.9216 74.5104C99.376 72.9402 102.35 70.5699 104.842 67.4205L103.274 66.1795ZM95.0982 72.6877C91.9682 74.0931 88.5754 74.8 84.9078 74.8V76.8C88.8402 76.8 92.5141 76.0403 95.9174 74.5123L95.0982 72.6877ZM84.9078 74.8C81.2402 74.8 77.8475 74.0931 74.7174 72.6877L73.8982 74.5123C77.3015 76.0403 80.9754 76.8 84.9078 76.8V74.8ZM74.7251 72.6912C71.614 71.2627 68.9216 69.1011 66.6462 66.1849L65.0694 67.4151C67.5274 70.5655 70.4683 72.9373 73.8905 74.5088L74.7251 72.6912ZM66.6495 66.189C64.3755 63.2425 62.5578 59.4955 61.2175 54.9189L59.2981 55.4811C60.6912 60.2379 62.6068 64.2241 65.0661 67.411L66.6495 66.189ZM61.2193 54.9253C59.9179 50.3703 59.2578 44.967 59.2578 38.7H57.2578C57.2578 45.0997 57.931 50.6963 59.2963 55.4747L61.2193 54.9253ZM59.2578 38.7C59.2578 32.4327 59.918 27.0469 61.2188 22.5265L59.2968 21.9734C57.931 26.7197 57.2578 32.3006 57.2578 38.7H59.2578ZM61.2175 22.531C62.5577 17.9549 64.3747 14.2265 66.6462 11.3151L65.0694 10.0849C62.6075 13.2402 60.6913 17.2118 59.2981 21.9689L61.2175 22.531ZM66.6495 11.311C68.924 8.36372 71.6131 6.20605 74.7174 4.81227L73.8982 2.98773C70.4692 4.52728 67.525 6.90295 65.0661 10.089L66.6495 11.311ZM74.7251 4.80877C77.8534 3.37229 81.2435 2.64999 84.9078 2.64999V0.649994C80.9722 0.649994 77.2955 1.4277 73.8905 2.99123L74.7251 4.80877ZM84.9078 2.64999C88.5722 2.64999 91.9622 3.37229 95.0905 4.80877L95.9251 2.99123C92.5201 1.4277 88.8435 0.649994 84.9078 0.649994V2.64999ZM95.1017 4.81381C98.2406 6.20887 100.963 8.36816 103.27 11.3163L104.845 10.0837C102.353 6.8985 99.3751 4.52446 95.914 2.98619L95.1017 4.81381ZM103.274 11.3205C105.576 14.2307 107.409 17.9572 108.748 22.531L110.668 21.9689C109.274 17.2095 107.339 13.2359 104.842 10.0795L103.274 11.3205ZM108.749 22.5329C110.081 27.051 110.758 32.4345 110.758 38.7H112.758C112.758 32.2988 112.068 26.7157 110.667 21.9671L108.749 22.5329ZM98.5078 38.7C98.5078 33.5267 98.139 29.2148 97.3845 25.7851L95.4312 26.2149C96.1433 29.4519 96.5078 33.6066 96.5078 38.7H98.5078ZM97.3865 25.7945C96.6739 22.4014 95.7102 19.6485 94.464 17.5833L92.7516 18.6167C93.8387 20.4181 94.7417 22.932 95.4292 26.2055L97.3865 25.7945ZM94.464 17.5833C93.2299 15.5382 91.7535 14.0298 90.005 13.1556L89.1106 14.9444C90.4287 15.6035 91.6524 16.7951 92.7516 18.6167L94.464 17.5833ZM90.0129 13.1596C88.3797 12.3248 86.6744 11.9 84.9078 11.9V13.9C86.3412 13.9 87.7359 14.2419 89.1027 14.9404L90.0129 13.1596ZM84.9078 11.9C83.1412 11.9 81.4359 12.3248 79.8027 13.1596L80.7129 14.9404C82.0797 14.2419 83.4744 13.9 84.9078 13.9V11.9ZM79.7946 13.1638C78.1167 14.0408 76.6797 15.5482 75.4516 17.5833L77.164 18.6167C78.2692 16.7851 79.4656 15.5925 80.7211 14.9362L79.7946 13.1638ZM75.4451 17.5943C74.2366 19.6559 73.2911 22.4045 72.5792 25.7945L74.5365 26.2055C75.2246 22.9288 76.1124 20.4108 77.1705 18.6057L75.4451 17.5943ZM72.5792 25.7945C71.8598 29.2202 71.5078 33.5286 71.5078 38.7H73.5078C73.5078 33.6047 73.8559 29.4465 74.5365 26.2055L72.5792 25.7945ZM71.5078 38.7C71.5078 43.9042 71.8597 48.2295 72.5792 51.6555L74.5365 51.2445C73.8559 48.0038 73.5078 43.8291 73.5078 38.7H71.5078ZM72.5792 51.6555C73.2911 55.0455 74.2366 57.7941 75.4451 59.8557L77.1705 58.8443C76.1124 57.0392 75.2246 54.5212 74.5365 51.2445L72.5792 51.6555ZM75.4516 59.8667C76.6797 61.9018 78.1167 63.4092 79.7946 64.2862L80.7211 62.5138C79.4656 61.8575 78.2692 60.6649 77.164 58.8333L75.4516 59.8667ZM79.8027 64.2904C81.4359 65.1252 83.1412 65.55 84.9078 65.55V63.55C83.4744 63.55 82.0797 63.2081 80.7129 62.5096L79.8027 64.2904ZM84.9078 65.55C86.6744 65.55 88.3797 65.1252 90.0129 64.2904L89.1027 62.5096C87.7359 63.2081 86.3412 63.55 84.9078 63.55V65.55ZM90.005 64.2944C91.7535 63.4202 93.2299 61.9118 94.464 59.8667L92.7516 58.8333C91.6524 60.6549 90.4287 61.8465 89.1106 62.5056L90.005 64.2944ZM94.464 59.8667C95.7102 57.8015 96.6739 55.0486 97.3865 51.6555L95.4292 51.2445C94.7417 54.518 93.8387 57.0319 92.7516 58.8333L94.464 59.8667ZM97.3845 51.6649C98.1391 48.2348 98.5078 43.9061 98.5078 38.7H96.5078C96.5078 43.8272 96.1432 47.9985 95.4312 51.2351L97.3845 51.6649ZM166.466 63.6L165.759 64.3071L165.765 64.314L165.773 64.3208L166.466 63.6ZM167.766 75V76H168.766V75H167.766ZM117.466 75H116.466V76H117.466V75ZM118.016 67.7L118.955 68.0443L118.958 68.0344L118.016 67.7ZM119.866 64.9L120.559 65.6208L120.566 65.6136L120.574 65.6063L119.866 64.9ZM141.366 43.35L140.659 42.6429L140.658 42.6437L141.366 43.35ZM146.216 38.1L146.981 38.7432L146.988 38.7357L146.216 38.1ZM149.716 33.15L150.579 33.6539L150.584 33.6461L149.716 33.15ZM150.016 15.6L149.302 16.3001L149.309 16.3071L150.016 15.6ZM139.266 13.65L139.582 14.5987L139.59 14.5959L139.598 14.593L139.266 13.65ZM136.266 15.2L135.67 14.3964L135.663 14.4018L135.656 14.4074L136.266 15.2ZM134.016 17.55L133.198 16.9745L133.198 16.9745L134.016 17.55ZM132.616 20.5L133.557 20.8387L133.569 20.8051L133.578 20.7707L132.616 20.5ZM130.166 23.85L130.636 24.7324L130.646 24.7268L130.166 23.85ZM125.866 24.2L125.69 25.1845L125.699 25.186L125.707 25.1873L125.866 24.2ZM118.566 22.9L117.577 22.7507L117.431 23.7138L118.39 23.8845L118.566 22.9ZM121.566 13.6L120.689 13.1181L121.566 13.6ZM127.066 6.95L126.439 6.17028L126.439 6.17028L127.066 6.95ZM134.616 3L134.908 3.95632L134.918 3.95307L134.616 3ZM153.116 3.19999L152.769 4.13815L152.776 4.14061L152.783 4.14298L153.116 3.19999ZM160.366 7.45L159.69 8.18718L159.697 8.19329L160.366 7.45ZM165.016 14L165.935 13.6061L165.935 13.6061L165.016 14ZM165.516 29.9L164.568 29.5796L164.568 29.5796L165.516 29.9ZM162.366 36.4L161.525 35.8579L161.523 35.8613L162.366 36.4ZM157.816 42.35L157.071 41.6825L157.071 41.6825L157.816 42.35ZM152.316 48.2L151.602 47.499L151.601 47.5009L152.316 48.2ZM136.916 63.95L136.201 63.2509L133.522 65.9905L137.198 64.9094L136.916 63.95ZM141.966 62.8L142.124 63.7874L142.133 63.7859L142.143 63.7842L141.966 62.8ZM162.966 63.35C164.276 63.35 165.16 63.7089 165.759 64.3071L167.173 62.8929C166.104 61.8244 164.655 61.35 162.966 61.35V63.35ZM165.773 64.3208C166.416 64.9392 166.766 65.7646 166.766 66.9H168.766C168.766 65.302 168.249 63.9275 167.159 62.8792L165.773 64.3208ZM166.766 66.9V75H168.766V66.9H166.766ZM167.766 74H117.466V76H167.766V74ZM118.466 75V70.5H116.466V75H118.466ZM118.466 70.5C118.466 69.7742 118.619 68.9584 118.955 68.0443L117.077 67.3557C116.679 68.4416 116.466 69.4925 116.466 70.5H118.466ZM118.958 68.0344C119.268 67.1612 119.793 66.357 120.559 65.6208L119.173 64.1792C118.205 65.1096 117.497 66.1721 117.073 67.3656L118.958 68.0344ZM120.574 65.6063L142.074 44.0563L140.658 42.6437L119.158 64.1937L120.574 65.6063ZM142.073 44.0571C143.923 42.2071 145.56 40.4357 146.981 38.7432L145.45 37.4568C144.072 39.0976 142.475 40.8263 140.659 42.6429L142.073 44.0571ZM146.988 38.7357C148.415 37.0018 149.615 35.3079 150.579 33.6539L148.852 32.6461C147.95 34.1921 146.816 35.7982 145.444 37.4643L146.988 38.7357ZM150.584 33.6461C151.554 31.9476 152.288 30.2219 152.779 28.4696L150.853 27.9304C150.41 29.5114 149.743 31.0857 148.847 32.6539L150.584 33.6461ZM152.779 28.4696C153.271 26.7101 153.516 24.8691 153.516 22.95H151.516C151.516 24.6976 151.293 26.3565 150.853 27.9304L152.779 28.4696ZM153.516 22.95C153.516 19.5523 152.638 16.808 150.723 14.8929L149.309 16.3071C150.727 17.7253 151.516 19.8811 151.516 22.95H153.516ZM150.73 14.8999C148.827 12.959 146.19 12.05 142.966 12.05V14.05C145.808 14.05 147.871 14.841 149.302 16.3001L150.73 14.8999ZM142.966 12.05C141.531 12.05 140.184 12.2654 138.933 12.707L139.598 14.593C140.614 14.2346 141.733 14.05 142.966 14.05V12.05ZM138.949 12.7013C137.753 13.1001 136.658 13.6648 135.67 14.3964L136.861 16.0036C137.673 15.4019 138.578 14.9332 139.582 14.5987L138.949 12.7013ZM135.656 14.4074C134.709 15.1359 133.889 15.9926 133.198 16.9745L134.833 18.1255C135.409 17.3074 136.089 16.5974 136.875 15.9926L135.656 14.4074ZM133.198 16.9745C132.499 17.9678 131.983 19.0543 131.653 20.2293L133.578 20.7707C133.848 19.8124 134.266 18.9322 134.833 18.1255L133.198 16.9745ZM131.675 20.1613C131.117 21.7104 130.419 22.5706 129.685 22.9732L130.646 24.7268C131.979 23.9961 132.914 22.6229 133.557 20.8387L131.675 20.1613ZM129.695 22.9676C128.979 23.3496 127.807 23.4991 126.024 23.2127L125.707 25.1873C127.658 25.5009 129.352 25.4171 130.636 24.7324L129.695 22.9676ZM126.041 23.2155L118.741 21.9155L118.39 23.8845L125.69 25.1845L126.041 23.2155ZM119.554 23.0493C120.073 19.6127 121.041 16.6289 122.442 14.0819L120.689 13.1181C119.157 15.9044 118.125 19.1206 117.577 22.7507L119.554 23.0493ZM122.442 14.0819C123.85 11.5208 125.602 9.40817 127.692 7.72971L126.439 6.17028C124.13 8.02515 122.214 10.3458 120.689 13.1181L122.442 14.0819ZM127.692 7.72971C129.788 6.04649 132.19 4.78768 134.908 3.95626L134.323 2.04373C131.375 2.94565 128.743 4.32018 126.439 6.17028L127.692 7.72971ZM134.918 3.95307C137.645 3.08708 140.592 2.64999 143.766 2.64999V0.649994C140.406 0.649994 137.253 1.11291 134.313 2.04692L134.918 3.95307ZM143.766 2.64999C147.098 2.64999 150.096 3.15137 152.769 4.13815L153.462 2.26184C150.536 1.18195 147.3 0.649994 143.766 0.649994V2.64999ZM152.783 4.14298C155.503 5.103 157.799 6.45414 159.69 8.18715L161.041 6.71284C158.932 4.77919 156.395 3.297 153.448 2.257L152.783 4.14298ZM159.697 8.19329C161.585 9.89265 163.051 11.9553 164.096 14.3939L165.935 13.6061C164.78 10.9114 163.146 8.60735 161.035 6.7067L159.697 8.19329ZM164.096 14.3939C165.138 16.8231 165.666 19.5205 165.666 22.5H167.666C167.666 19.2795 167.094 16.3103 165.935 13.6061L164.096 14.3939ZM165.666 22.5C165.666 25.0701 165.296 27.4272 164.568 29.5796L166.463 30.2204C167.268 27.8394 167.666 25.2633 167.666 22.5H165.666ZM164.568 29.5796C163.829 31.7661 162.815 33.8585 161.525 35.8579L163.206 36.9421C164.583 34.8082 165.669 32.5673 166.463 30.2204L164.568 29.5796ZM161.523 35.8613C160.254 37.8458 158.771 39.7864 157.071 41.6825L158.56 43.0175C160.327 41.047 161.877 39.0208 163.208 36.9387L161.523 35.8613ZM157.071 41.6825C155.349 43.6037 153.526 45.5425 151.603 47.499L153.029 48.901C154.972 46.9241 156.816 44.963 158.56 43.0175L157.071 41.6825ZM151.601 47.5009L136.201 63.2509L137.631 64.6491L153.031 48.8991L151.601 47.5009ZM137.198 64.9094C138.859 64.4208 140.501 64.0471 142.124 63.7874L141.808 61.8126C140.097 62.0863 138.372 62.4792 136.633 62.9906L137.198 64.9094ZM142.143 63.7842C143.76 63.4931 145.267 63.35 146.666 63.35V61.35C145.131 61.35 143.505 61.5069 141.788 61.8158L142.143 63.7842ZM146.666 63.35H162.966V61.35H146.666V63.35ZM224.123 64.85H225.123V63.85H224.123V64.85ZM224.123 75V76H225.123V75H224.123ZM183.423 75H182.423V76H183.423V75ZM183.423 64.85V63.85H182.423V64.85H183.423ZM197.823 64.85V65.85H198.823V64.85H197.823ZM197.873 22.5L196.874 22.463L196.874 22.463L197.873 22.5ZM198.023 19.75L199.021 19.8212L199.188 17.4809L197.384 18.9811L198.023 19.75ZM188.523 27.65L189.123 28.45L189.144 28.4349L189.163 28.4189L188.523 27.65ZM184.773 28.65L184.544 29.6234L184.572 29.6299L184.6 29.6348L184.773 28.65ZM183.273 28.05L182.704 28.8722L182.726 28.8875L182.749 28.9017L183.273 28.05ZM182.273 27.15L181.471 27.7467L181.477 27.7554L181.484 27.7639L182.273 27.15ZM177.923 21.3L177.277 20.5371L176.561 21.1438L177.121 21.8967L177.923 21.3ZM200.223 2.4V1.4H199.857L199.577 1.63713L200.223 2.4ZM211.573 2.4H212.573V1.4H211.573V2.4ZM211.573 64.85H210.573V65.85H211.573V64.85ZM223.123 64.85V75H225.123V64.85H223.123ZM224.123 74H183.423V76H224.123V74ZM184.423 75V64.85H182.423V75H184.423ZM183.423 65.85H197.823V63.85H183.423V65.85ZM198.823 64.85V25.15H196.823V64.85H198.823ZM198.823 25.15C198.823 24.2961 198.84 23.4252 198.873 22.537L196.874 22.463C196.84 23.3748 196.823 24.2705 196.823 25.15H198.823ZM198.873 22.537C198.906 21.6489 198.955 20.7436 199.021 19.8212L197.026 19.6788C196.959 20.623 196.908 21.5511 196.874 22.463L198.873 22.537ZM197.384 18.9811L187.884 26.8811L189.163 28.4189L198.663 20.5189L197.384 18.9811ZM187.923 26.85C187.341 27.2867 186.823 27.5255 186.367 27.6214L186.779 29.5785C187.59 29.4078 188.372 29.0133 189.123 28.45L187.923 26.85ZM186.367 27.6214C185.844 27.7317 185.373 27.7404 184.947 27.6652L184.6 29.6348C185.307 29.7596 186.037 29.7349 186.779 29.5785L186.367 27.6214ZM185.002 27.6766C184.525 27.5643 184.128 27.4014 183.798 27.1983L182.749 28.9017C183.286 29.2319 183.888 29.469 184.544 29.6234L185.002 27.6766ZM183.843 27.2278C183.463 26.965 183.215 26.7316 183.063 26.5361L181.484 27.7639C181.799 28.1684 182.217 28.535 182.704 28.8722L183.843 27.2278ZM183.076 26.5533L178.726 20.7033L177.121 21.8967L181.471 27.7467L183.076 26.5533ZM178.57 22.0629L200.87 3.16287L199.577 1.63713L177.277 20.5371L178.57 22.0629ZM200.223 3.4H211.573V1.4H200.223V3.4ZM210.573 2.4V64.85H212.573V2.4H210.573ZM211.573 65.85H224.123V63.85H211.573V65.85Z" fill="black"/>
</svg>
