<svg width="233" height="42" viewBox="0 0 233 42" fill="none" xmlns="http://www.w3.org/2000/svg">
<path fill-rule="evenodd" clip-rule="evenodd" d="M219 29.4H224.399V24H219V29.4Z" fill="#191919"/>
<path fill-rule="evenodd" clip-rule="evenodd" d="M219 17.4H224.399V12H219V17.4Z" fill="#191919"/>
<path fill-rule="evenodd" clip-rule="evenodd" d="M219 5.4H224.399V0H219V5.4Z" fill="#191919"/>
<path fill-rule="evenodd" clip-rule="evenodd" d="M207 41.4H212.4V36H207V41.4Z" fill="#191919"/>
<path fill-rule="evenodd" clip-rule="evenodd" d="M207 29.4H212.4V24H207V29.4Z" fill="#191919"/>
<path fill-rule="evenodd" clip-rule="evenodd" d="M207 17.4H212.4V12H207V17.4Z" fill="#191919"/>
<path fill-rule="evenodd" clip-rule="evenodd" d="M195 41.4H200.4V36H195V41.4Z" fill="#191919"/>
<path fill-rule="evenodd" clip-rule="evenodd" d="M195 29.4H200.4V24H195V29.4Z" fill="#191919"/>
<path fill-rule="evenodd" clip-rule="evenodd" d="M195 17.4H200.4V12H195V17.4Z" fill="#191919"/>
<path fill-rule="evenodd" clip-rule="evenodd" d="M195 5.4H200.4V0H195V5.4Z" fill="#191919"/>
<path fill-rule="evenodd" clip-rule="evenodd" d="M183 41.4H188.4V36H183V41.4Z" fill="#191919"/>
<path fill-rule="evenodd" clip-rule="evenodd" d="M183 17.4H188.4V12H183V17.4Z" fill="#191919"/>
<path fill-rule="evenodd" clip-rule="evenodd" d="M183 5.4H188.4V0H183V5.4Z" fill="#191919"/>
<path fill-rule="evenodd" clip-rule="evenodd" d="M171 17.4H176.4V12H171V17.4Z" fill="#191919"/>
<path fill-rule="evenodd" clip-rule="evenodd" d="M171 5.4H176.4V0H171V5.4Z" fill="#191919"/>
<path fill-rule="evenodd" clip-rule="evenodd" d="M159 41.4H164.4V36H159V41.4Z" fill="#191919"/>
<path fill-rule="evenodd" clip-rule="evenodd" d="M159 29.4H164.4V24H159V29.4Z" fill="#191919"/>
<path fill-rule="evenodd" clip-rule="evenodd" d="M147 29.4H152.4V24H147V29.4Z" fill="#191919"/>
<path fill-rule="evenodd" clip-rule="evenodd" d="M147 17.4H152.4V12H147V17.4Z" fill="#191919"/>
<path fill-rule="evenodd" clip-rule="evenodd" d="M147 5.4H152.4V0H147V5.4Z" fill="#191919"/>
<path fill-rule="evenodd" clip-rule="evenodd" d="M135 29.4H140.4V24H135V29.4Z" fill="#191919"/>
<path fill-rule="evenodd" clip-rule="evenodd" d="M135 17.4H140.4V12H135V17.4Z" fill="#191919"/>
<path fill-rule="evenodd" clip-rule="evenodd" d="M135 5.4H140.4V0H135V5.4Z" fill="#191919"/>
<path fill-rule="evenodd" clip-rule="evenodd" d="M123 41.4H128.4V36H123V41.4Z" fill="#191919"/>
<path fill-rule="evenodd" clip-rule="evenodd" d="M123 5.4H128.4V0H123V5.4Z" fill="#191919"/>
<path fill-rule="evenodd" clip-rule="evenodd" d="M111 41.4H116.4V36H111V41.4Z" fill="#191919"/>
<path fill-rule="evenodd" clip-rule="evenodd" d="M111 5.4H116.4V0H111V5.4Z" fill="#191919"/>
<path fill-rule="evenodd" clip-rule="evenodd" d="M99 17.4H104.4V12H99V17.4Z" fill="#191919"/>
<path fill-rule="evenodd" clip-rule="evenodd" d="M99 5.4H104.4V0H99V5.4Z" fill="#191919"/>
<path fill-rule="evenodd" clip-rule="evenodd" d="M87 29.4H92.4V24H87V29.4Z" fill="#191919"/>
<path fill-rule="evenodd" clip-rule="evenodd" d="M87 17.4H92.4V12H87V17.4Z" fill="#191919"/>
<path fill-rule="evenodd" clip-rule="evenodd" d="M75 5.4H80.4V0H75V5.4Z" fill="#191919"/>
<path fill-rule="evenodd" clip-rule="evenodd" d="M63 29.4H68.4V24H63V29.4Z" fill="#191919"/>
<path fill-rule="evenodd" clip-rule="evenodd" d="M63 5.4H68.4V0H63V5.4Z" fill="#191919"/>
<path fill-rule="evenodd" clip-rule="evenodd" d="M51 41.4H56.4V36H51V41.4Z" fill="#191919"/>
<path fill-rule="evenodd" clip-rule="evenodd" d="M51 29.4H56.4V24H51V29.4Z" fill="#191919"/>
<path fill-rule="evenodd" clip-rule="evenodd" d="M51 17.4H56.4V12H51V17.4Z" fill="#191919"/>
<path fill-rule="evenodd" clip-rule="evenodd" d="M51 5.4H56.4V0H51V5.4Z" fill="#191919"/>
<path fill-rule="evenodd" clip-rule="evenodd" d="M39 41.4H44.4V36H39V41.4Z" fill="#191919"/>
<path fill-rule="evenodd" clip-rule="evenodd" d="M39 17.4H44.4V12H39V17.4Z" fill="#191919"/>
<path fill-rule="evenodd" clip-rule="evenodd" d="M27 29.4H32.4V24H27V29.4Z" fill="#191919"/>
<path fill-rule="evenodd" clip-rule="evenodd" d="M0 29.4H21.6V24H0V29.4Z" fill="#191919"/>
<path fill-rule="evenodd" clip-rule="evenodd" d="M10.5 17.4H32.1V12H10.5V17.4Z" fill="#191919"/>
<path fill-rule="evenodd" clip-rule="evenodd" d="M82.5 17.4H129V12H82.5V17.4Z" fill="#191919"/>
<path fill-rule="evenodd" clip-rule="evenodd" d="M27 5.4H32.4V0H27V5.4Z" fill="#191919"/>
</svg>
