<svg width="60" height="51" viewBox="0 0 60 51" fill="none" xmlns="http://www.w3.org/2000/svg">
<g clip-path="url(#clip0)">
<g filter="url(#filter0_d)">
<rect x="-19" y="-38" width="465" height="219" fill="white"/>
<rect x="-18.5" y="-37.5" width="464" height="218" stroke="#ECECEC"/>
</g>
<path fill-rule="evenodd" clip-rule="evenodd" d="M6.375 44.625H10.625C10.625 37.5834 16.3334 31.875 23.375 31.875C30.4166 31.875 36.125 37.5834 36.125 44.625H40.375C40.376 37.9772 36.5025 31.9387 30.4598 29.1677C33.7419 26.2303 34.8713 21.5723 33.2989 17.4578C31.7266 13.3433 27.7786 10.6255 23.3739 10.6255C18.9693 10.6255 15.0213 13.3433 13.449 17.4578C11.8766 21.5723 13.006 26.2303 16.2881 29.1677C10.2462 31.9393 6.37363 37.9777 6.375 44.625ZM28.8917 24.4375C27.7529 26.4099 25.6483 27.625 23.3708 27.625C19.8499 27.625 16.9958 24.7708 16.9958 21.25C16.9958 17.7292 19.8499 14.875 23.3708 14.875C25.6483 14.875 27.7529 16.0901 28.8917 18.0625C30.0304 20.0349 30.0304 22.4651 28.8917 24.4375ZM38.25 23.375C38.25 22.202 39.1808 21.25 40.3814 21.25H50.9936C51.5585 21.2477 52.101 21.4707 52.501 21.8695C52.901 22.2683 53.1256 22.8101 53.125 23.375C53.125 24.548 52.1943 25.5 50.9936 25.5H40.3814C39.8165 25.5023 39.274 25.2793 38.874 24.8805C38.474 24.4817 38.2494 23.9399 38.25 23.375ZM40.375 29.75C39.1935 29.75 38.25 30.702 38.25 31.875C38.25 33.0565 39.202 34 40.375 34H46.75C47.9315 34 48.875 33.048 48.875 31.875C48.875 30.6935 47.923 29.75 46.75 29.75H40.375Z" fill="black"/>
<path fill-rule="evenodd" clip-rule="evenodd" d="M60 0H0V51H60V0ZM56 4H4V47H56V4Z" fill="black"/>
</g>
<defs>
<filter id="filter0_d" x="-24" y="-43" width="475" height="229" filterUnits="userSpaceOnUse" color-interpolation-filters="sRGB">
<feFlood flood-opacity="0" result="BackgroundImageFix"/>
<feColorMatrix in="SourceAlpha" type="matrix" values="0 0 0 0 0 0 0 0 0 0 0 0 0 0 0 0 0 0 127 0"/>
<feOffset/>
<feGaussianBlur stdDeviation="2.5"/>
<feColorMatrix type="matrix" values="0 0 0 0 0 0 0 0 0 0 0 0 0 0 0 0 0 0 0.1 0"/>
<feBlend mode="normal" in2="BackgroundImageFix" result="effect1_dropShadow"/>
<feBlend mode="normal" in="SourceGraphic" in2="effect1_dropShadow" result="shape"/>
</filter>
<clipPath id="clip0">
<rect width="465" height="219" fill="white" transform="translate(-19 -38)"/>
</clipPath>
</defs>
</svg>
