<svg width="60" height="51" viewBox="0 0 60 51" fill="none" xmlns="http://www.w3.org/2000/svg">
<g clip-path="url(#clip0)">
<g filter="url(#filter0_d)">
<rect x="-19" y="-38" width="465" height="219" fill="white"/>
<rect x="-18.5" y="-37.5" width="464" height="218" stroke="#ECECEC"/>
</g>
<path fill-rule="evenodd" clip-rule="evenodd" d="M38.25 14.875C38.25 19.7625 35.7 24.225 31.875 26.9875C40.5875 30.3875 46.75 38.8875 46.5375 48.875V51H42.2875C42.5 50.3625 42.5 49.5125 42.5 48.875C42.5 38.25 34 29.75 23.375 29.75C12.75 29.75 4.25 38.25 4.25 48.875V51H0V48.875C0 38.8875 6.1625 30.3875 14.875 26.9875C11.05 24.4375 8.5 19.975 8.5 14.875C8.5 6.5875 15.0875 0 23.375 0C31.6625 0 38.25 6.5875 38.25 14.875ZM12.75 14.875C12.75 20.825 17.425 25.5 23.375 25.5C29.325 25.5 34 20.825 34 14.875C34 8.925 29.325 4.25 23.375 4.25C17.425 4.25 12.75 8.925 12.75 14.875Z" fill="black"/>
<path d="M47.6 24.8625C49.725 22.95 51 20.1875 51 17C51 11.6875 47.175 7.22499 42.075 6.58749L41.4375 10.8375C44.4125 11.2625 46.75 14.025 46.75 17.2125C46.75 20.825 43.9875 23.5875 40.375 23.5875V27.8375C48.6625 27.8375 55.25 34.425 55.25 42.7125C55.25 43.35 55.25 44.2 55.0375 44.8375H59.2875C59.2875 44.2 59.5 43.35 59.5 42.7125C59.5 34.425 54.6125 27.625 47.6 24.8625Z" fill="black"/>
</g>
<defs>
<filter id="filter0_d" x="-24" y="-43" width="475" height="229" filterUnits="userSpaceOnUse" color-interpolation-filters="sRGB">
<feFlood flood-opacity="0" result="BackgroundImageFix"/>
<feColorMatrix in="SourceAlpha" type="matrix" values="0 0 0 0 0 0 0 0 0 0 0 0 0 0 0 0 0 0 127 0"/>
<feOffset/>
<feGaussianBlur stdDeviation="2.5"/>
<feColorMatrix type="matrix" values="0 0 0 0 0 0 0 0 0 0 0 0 0 0 0 0 0 0 0.1 0"/>
<feBlend mode="normal" in2="BackgroundImageFix" result="effect1_dropShadow"/>
<feBlend mode="normal" in="SourceGraphic" in2="effect1_dropShadow" result="shape"/>
</filter>
<clipPath id="clip0">
<rect width="465" height="219" fill="white" transform="translate(-19 -38)"/>
</clipPath>
</defs>
</svg>
