<svg width="146" height="30" viewBox="0 0 146 30" fill="none" xmlns="http://www.w3.org/2000/svg">
<path fill-rule="evenodd" clip-rule="evenodd" d="M132 29.4H137.399V24H132V29.4Z" fill="#191919"/>
<path fill-rule="evenodd" clip-rule="evenodd" d="M132 17.4H137.399V12H132V17.4Z" fill="#191919"/>
<path fill-rule="evenodd" clip-rule="evenodd" d="M132 5.4H137.399V0H132V5.4Z" fill="#191919"/>
<path fill-rule="evenodd" clip-rule="evenodd" d="M120 17.4H125.4V12H120V17.4Z" fill="#191919"/>
<path fill-rule="evenodd" clip-rule="evenodd" d="M108 29.4H113.4V24H108V29.4Z" fill="#191919"/>
<path fill-rule="evenodd" clip-rule="evenodd" d="M108 17.4H113.4V12H108V17.4Z" fill="#191919"/>
<path fill-rule="evenodd" clip-rule="evenodd" d="M108 5.4H113.4V0H108V5.4Z" fill="#191919"/>
<path fill-rule="evenodd" clip-rule="evenodd" d="M96 17.4H113V12H96V17.4Z" fill="#191919"/>
<path fill-rule="evenodd" clip-rule="evenodd" d="M96 5.4H101.4V0H96V5.4Z" fill="#191919"/>
<path fill-rule="evenodd" clip-rule="evenodd" d="M84 17.4H89.4V12H84V17.4Z" fill="#191919"/>
<path fill-rule="evenodd" clip-rule="evenodd" d="M84 5.4H89.4V0H84V5.4Z" fill="#191919"/>
<path fill-rule="evenodd" clip-rule="evenodd" d="M72 29.4H96V24H72V29.4Z" fill="#191919"/>
<path fill-rule="evenodd" clip-rule="evenodd" d="M60 29.4H65.4V24H60V29.4Z" fill="#191919"/>
<path fill-rule="evenodd" clip-rule="evenodd" d="M60 17.4H65.4V12H60V17.4Z" fill="#191919"/>
<path fill-rule="evenodd" clip-rule="evenodd" d="M60 5.4H65.4V0H60V5.4Z" fill="#191919"/>
<path fill-rule="evenodd" clip-rule="evenodd" d="M36.4 29.4H53.4V24H36.4V29.4Z" fill="#191919"/>
<path fill-rule="evenodd" clip-rule="evenodd" d="M48 17.4H53.4V12H48V17.4Z" fill="#191919"/>
<path fill-rule="evenodd" clip-rule="evenodd" d="M48 5.4H63V0H48V5.4Z" fill="#191919"/>
<path fill-rule="evenodd" clip-rule="evenodd" d="M36 5.4H41.4V0H36V5.4Z" fill="#191919"/>
<path fill-rule="evenodd" clip-rule="evenodd" d="M24 5.4H29.4V0H24V5.4Z" fill="#191919"/>
<path fill-rule="evenodd" clip-rule="evenodd" d="M12 17.4H17.4V12H12V17.4Z" fill="#191919"/>
<path fill-rule="evenodd" clip-rule="evenodd" d="M12 5.4H29V0H12V5.4Z" fill="#191919"/>
<path fill-rule="evenodd" clip-rule="evenodd" d="M0 17.4H5.4V12H0V17.4Z" fill="#191919"/>
<path fill-rule="evenodd" clip-rule="evenodd" d="M12 17.4H42V12H12V17.4Z" fill="#191919"/>
</svg>
