<svg width="206" height="42" viewBox="0 0 206 42" fill="none" xmlns="http://www.w3.org/2000/svg">
<path fill-rule="evenodd" clip-rule="evenodd" d="M192 29.4H197.399V24H192V29.4Z" fill="#191919"/>
<path fill-rule="evenodd" clip-rule="evenodd" d="M192 17.4H197.399V12H192V17.4Z" fill="#191919"/>
<path fill-rule="evenodd" clip-rule="evenodd" d="M192 5.4H197.399V0H192V5.4Z" fill="#191919"/>
<path fill-rule="evenodd" clip-rule="evenodd" d="M180 29.4H185.4V24H180V29.4Z" fill="#191919"/>
<path fill-rule="evenodd" clip-rule="evenodd" d="M180 17.4H185.4V12H180V17.4Z" fill="#191919"/>
<path fill-rule="evenodd" clip-rule="evenodd" d="M168 29.4H173.4V24H168V29.4Z" fill="#191919"/>
<path fill-rule="evenodd" clip-rule="evenodd" d="M168 17.4H173.4V12H168V17.4Z" fill="#191919"/>
<path fill-rule="evenodd" clip-rule="evenodd" d="M168 5.4H173.4V0H168V5.4Z" fill="#191919"/>
<path fill-rule="evenodd" clip-rule="evenodd" d="M144 17.4H149.4V12H144V17.4Z" fill="#191919"/>
<path fill-rule="evenodd" clip-rule="evenodd" d="M144 5.4H149.4V0H144V5.4Z" fill="#191919"/>
<path fill-rule="evenodd" clip-rule="evenodd" d="M132 29.4H161V24H132V29.4Z" fill="#191919"/>
<path fill-rule="evenodd" clip-rule="evenodd" d="M120 29.4H125.4V24H120V29.4Z" fill="#191919"/>
<path fill-rule="evenodd" clip-rule="evenodd" d="M120 17.4H125.4V12H120V17.4Z" fill="#191919"/>
<path fill-rule="evenodd" clip-rule="evenodd" d="M120 5.4H125.4V0H120V5.4Z" fill="#191919"/>
<path fill-rule="evenodd" clip-rule="evenodd" d="M108 29.4H113.4V24H108V29.4Z" fill="#191919"/>
<path fill-rule="evenodd" clip-rule="evenodd" d="M84.3999 17.4H113.4V12H84.3999V17.4Z" fill="#191919"/>
<path fill-rule="evenodd" clip-rule="evenodd" d="M108 5.4H113.4V0H108V5.4Z" fill="#191919"/>
<path fill-rule="evenodd" clip-rule="evenodd" d="M96 41.4H101.4V36H96V41.4Z" fill="#191919"/>
<path fill-rule="evenodd" clip-rule="evenodd" d="M96 5.4H101.4V0H96V5.4Z" fill="#191919"/>
<path fill-rule="evenodd" clip-rule="evenodd" d="M72 17.4H77.4V12H72V17.4Z" fill="#191919"/>
<path fill-rule="evenodd" clip-rule="evenodd" d="M72 5.4H77.4V0H72V5.4Z" fill="#191919"/>
<path fill-rule="evenodd" clip-rule="evenodd" d="M60 29.4H77V24H60V29.4Z" fill="#191919"/>
<path fill-rule="evenodd" clip-rule="evenodd" d="M60 17.4H65.4V12H60V17.4Z" fill="#191919"/>
<path fill-rule="evenodd" clip-rule="evenodd" d="M48 5.4H65V0H48V5.4Z" fill="#191919"/>
<path fill-rule="evenodd" clip-rule="evenodd" d="M36 29.4H41.4V24H36V29.4Z" fill="#191919"/>
<path fill-rule="evenodd" clip-rule="evenodd" d="M36 5.4H41.4V0H36V5.4Z" fill="#191919"/>
<path fill-rule="evenodd" clip-rule="evenodd" d="M24 17.4H53V12H24V17.4Z" fill="#191919"/>
<path fill-rule="evenodd" clip-rule="evenodd" d="M24 5.4H29.4V0H24V5.4Z" fill="#191919"/>
<path fill-rule="evenodd" clip-rule="evenodd" d="M12 17.4H17.4V12H12V17.4Z" fill="#191919"/>
<path fill-rule="evenodd" clip-rule="evenodd" d="M0 29.4H5.4V24H0V29.4Z" fill="#191919"/>
</svg>
