<svg width="114" height="30" viewBox="0 0 114 30" fill="none" xmlns="http://www.w3.org/2000/svg">
<path fill-rule="evenodd" clip-rule="evenodd" d="M108 29.4H113.399V24H108V29.4Z" fill="#191919"/>
<path fill-rule="evenodd" clip-rule="evenodd" d="M108 17.4H113.399V12H108V17.4Z" fill="#191919"/>
<path fill-rule="evenodd" clip-rule="evenodd" d="M108 5.4H113.399V0H108V5.4Z" fill="#191919"/>
<path fill-rule="evenodd" clip-rule="evenodd" d="M96 29.4H101.4V24H96V29.4Z" fill="#191919"/>
<path fill-rule="evenodd" clip-rule="evenodd" d="M85.3999 17.4H101.4V12H85.3999V17.4Z" fill="#191919"/>
<path fill-rule="evenodd" clip-rule="evenodd" d="M84 29.4H89.4V24H84V29.4Z" fill="#191919"/>
<path fill-rule="evenodd" clip-rule="evenodd" d="M84 17.4H89.4V12H84V17.4Z" fill="#191919"/>
<path fill-rule="evenodd" clip-rule="evenodd" d="M84 5.4H89.4V0H84V5.4Z" fill="#191919"/>
<path fill-rule="evenodd" clip-rule="evenodd" d="M72 17.4H77.4V12H72V17.4Z" fill="#191919"/>
<path fill-rule="evenodd" clip-rule="evenodd" d="M72 5.4H77.4V0H72V5.4Z" fill="#191919"/>
<path fill-rule="evenodd" clip-rule="evenodd" d="M60 17.4H65.4V12H60V17.4Z" fill="#191919"/>
<path fill-rule="evenodd" clip-rule="evenodd" d="M60 5.4H77V0H60V5.4Z" fill="#191919"/>
<path fill-rule="evenodd" clip-rule="evenodd" d="M48 29.4H53.4V24H48V29.4Z" fill="#191919"/>
<path fill-rule="evenodd" clip-rule="evenodd" d="M36 5.4H41.4V0H36V5.4Z" fill="#191919"/>
<path fill-rule="evenodd" clip-rule="evenodd" d="M24 17.4H48V12H24V17.4Z" fill="#191919"/>
<path fill-rule="evenodd" clip-rule="evenodd" d="M24 5.4H29.4V0H24V5.4Z" fill="#191919"/>
<path fill-rule="evenodd" clip-rule="evenodd" d="M12 5.4H17.4V0H12V5.4Z" fill="#191919"/>
<path fill-rule="evenodd" clip-rule="evenodd" d="M0 5.4H5.4V0H0V5.4Z" fill="#191919"/>
</svg>
