<svg width="204" height="42" viewBox="0 0 204 42" fill="none" xmlns="http://www.w3.org/2000/svg">
<path fill-rule="evenodd" clip-rule="evenodd" d="M6 29.4H0.6006V24H6V29.4Z" fill="#191919"/>
<path fill-rule="evenodd" clip-rule="evenodd" d="M6 5.4H0.6006V0H6V5.4Z" fill="#191919"/>
<path fill-rule="evenodd" clip-rule="evenodd" d="M18 41.4H12.6V36H18V41.4Z" fill="#191919"/>
<path fill-rule="evenodd" clip-rule="evenodd" d="M18 29.4H12.6V24H18V29.4Z" fill="#191919"/>
<path fill-rule="evenodd" clip-rule="evenodd" d="M29.6001 17.4H12.6001V12H29.6001V17.4Z" fill="#191919"/>
<path fill-rule="evenodd" clip-rule="evenodd" d="M30 29.4H24.6V24H30V29.4Z" fill="#191919"/>
<path fill-rule="evenodd" clip-rule="evenodd" d="M30 17.4H24.6V12H30V17.4Z" fill="#191919"/>
<path fill-rule="evenodd" clip-rule="evenodd" d="M30 5.4H1V0H30V5.4Z" fill="#191919"/>
<path fill-rule="evenodd" clip-rule="evenodd" d="M42 41.4H36.6V36H42V41.4Z" fill="#191919"/>
<path fill-rule="evenodd" clip-rule="evenodd" d="M42 17.4H36.6V12H42V17.4Z" fill="#191919"/>
<path fill-rule="evenodd" clip-rule="evenodd" d="M42 5.4H36.6V0H42V5.4Z" fill="#191919"/>
<path fill-rule="evenodd" clip-rule="evenodd" d="M54 17.4H48.6V12H54V17.4Z" fill="#191919"/>
<path fill-rule="evenodd" clip-rule="evenodd" d="M54 5.4H48.6V0H54V5.4Z" fill="#191919"/>
<path fill-rule="evenodd" clip-rule="evenodd" d="M66 41.4H60.6V36H66V41.4Z" fill="#191919"/>
<path fill-rule="evenodd" clip-rule="evenodd" d="M66 29.4H44.4V24H66V29.4Z" fill="#191919"/>
<path fill-rule="evenodd" clip-rule="evenodd" d="M78 29.4H72.6V24H78V29.4Z" fill="#191919"/>
<path fill-rule="evenodd" clip-rule="evenodd" d="M78 17.4H72.6V12H78V17.4Z" fill="#191919"/>
<path fill-rule="evenodd" clip-rule="evenodd" d="M78 5.4H66V0H78V5.4Z" fill="#191919"/>
<path fill-rule="evenodd" clip-rule="evenodd" d="M90 29.4H84.6V24H90V29.4Z" fill="#191919"/>
<path fill-rule="evenodd" clip-rule="evenodd" d="M90 17.4H84.6V12H90V17.4Z" fill="#191919"/>
<path fill-rule="evenodd" clip-rule="evenodd" d="M90 5.4H84.6V0H90V5.4Z" fill="#191919"/>
<path fill-rule="evenodd" clip-rule="evenodd" d="M102 5.4H96.6V0H102V5.4Z" fill="#191919"/>
<path fill-rule="evenodd" clip-rule="evenodd" d="M114 41.4H108.6V36H114V41.4Z" fill="#191919"/>
<path fill-rule="evenodd" clip-rule="evenodd" d="M114 5.4H108.6V0H114V5.4Z" fill="#191919"/>
<path fill-rule="evenodd" clip-rule="evenodd" d="M126 17.4H120.6V12H126V17.4Z" fill="#191919"/>
<path fill-rule="evenodd" clip-rule="evenodd" d="M126 5.4H120.6V0H126V5.4Z" fill="#191919"/>
<path fill-rule="evenodd" clip-rule="evenodd" d="M138 29.4H132.6V24H138V29.4Z" fill="#191919"/>
<path fill-rule="evenodd" clip-rule="evenodd" d="M138 17.4H132.6V12H138V17.4Z" fill="#191919"/>
<path fill-rule="evenodd" clip-rule="evenodd" d="M150 5.4H144.6V0H150V5.4Z" fill="#191919"/>
<path fill-rule="evenodd" clip-rule="evenodd" d="M162 29.4H156.6V24H162V29.4Z" fill="#191919"/>
<path fill-rule="evenodd" clip-rule="evenodd" d="M162 5.4H121V0H162V5.4Z" fill="#191919"/>
<path fill-rule="evenodd" clip-rule="evenodd" d="M174 41.4H123V36H174V41.4Z" fill="#191919"/>
<path fill-rule="evenodd" clip-rule="evenodd" d="M174 29.4H168.6V24H174V29.4Z" fill="#191919"/>
<path fill-rule="evenodd" clip-rule="evenodd" d="M174 17.4H168.6V12H174V17.4Z" fill="#191919"/>
<path fill-rule="evenodd" clip-rule="evenodd" d="M174 5.4H168.6V0H174V5.4Z" fill="#191919"/>
<path fill-rule="evenodd" clip-rule="evenodd" d="M186 41.4H180.6V36H186V41.4Z" fill="#191919"/>
<path fill-rule="evenodd" clip-rule="evenodd" d="M186 17.4H180.6V12H186V17.4Z" fill="#191919"/>
<path fill-rule="evenodd" clip-rule="evenodd" d="M198 29.4H192.6V24H198V29.4Z" fill="#191919"/>
<path fill-rule="evenodd" clip-rule="evenodd" d="M168.4 29.4H203.4V24H168.4V29.4Z" fill="#191919"/>
<path fill-rule="evenodd" clip-rule="evenodd" d="M142.5 17.4H96V12H142.5V17.4Z" fill="#191919"/>
</svg>
