<svg width="26" height="18" viewBox="0 0 26 18" fill="none" xmlns="http://www.w3.org/2000/svg">
<path d="M14.378 18H0L13.1588 4.51052C13.6532 4.00368 14.3905 3.85303 15.0368 4.12752C15.6832 4.40201 16.1004 5.0429 16.1004 5.75912V16.2343C16.1004 17.2084 15.327 18 14.378 18ZM5.99531 15.4556H13.6171V7.64224L5.99531 15.4556Z" fill="#3BD5EE"/>
<path d="M24.2763 18H6.06873L10.6966 13.2507L12.0254 15.4543H23.5166V3.64877L16.0991 11.2527L16.1003 7.65374L23.0583 0.518338C23.5528 0.0114932 24.29 -0.139156 24.9364 0.135332C25.5827 0.409819 25.9999 1.05072 25.9999 1.76694V16.2343C25.9999 17.2085 25.2266 18 24.2763 18Z" fill="#1C2838"/>
</svg>
