<svg width="295" height="218" viewBox="0 0 295 218" fill="none" xmlns="http://www.w3.org/2000/svg">
<g opacity="0.36">
<path opacity="0.36" d="M7.33008 177.042L42.3337 197.377L77.5595 177.042L42.5558 156.707L7.33008 177.042Z" stroke="#BCF700" stroke-miterlimit="10"/>
</g>
<g opacity="0.36">
<path opacity="0.36" d="M1.22217 177.042L42.3115 200.906L83.6673 177.042L42.578 153.177L1.22217 177.042Z" stroke="#BCF700" stroke-miterlimit="10"/>
</g>
<g opacity="0.36">
<path opacity="0.36" d="M90.3525 174.511L125.356 194.846L160.582 174.511L125.578 154.176L90.3525 174.511Z" stroke="#BCF700" stroke-miterlimit="10"/>
</g>
<g opacity="0.36">
<path opacity="0.36" d="M84.2449 174.511L125.334 198.376L166.69 174.511L125.601 150.646L84.2449 174.511Z" stroke="#BCF700" stroke-miterlimit="10"/>
</g>
<g opacity="0.36">
<path opacity="0.36" d="M217.441 156.596L252.444 176.931L287.692 156.596L252.689 136.261L217.441 156.596Z" stroke="#BCF700" stroke-miterlimit="10"/>
</g>
<g opacity="0.36">
<path opacity="0.36" d="M211.355 156.596L252.444 180.461L293.778 156.596L252.711 132.731L211.355 156.596Z" stroke="#BCF700" stroke-miterlimit="10"/>
</g>
<path d="M174.397 91.6843L203.382 108.534L232.544 91.6843L203.559 74.8571L174.397 91.6843Z" fill="url(#paint0_linear_114_195)"/>
<path d="M174.397 91.6843L174.508 129.468L203.47 146.295L203.382 108.534L174.397 91.6843Z" fill="url(#paint1_linear_114_195)"/>
<path d="M203.382 108.534L203.47 146.295L232.655 129.468L232.544 91.6843L203.382 108.534Z" fill="url(#paint2_linear_114_195)"/>
<path d="M135.24 114.306L164.225 131.133L193.387 114.306L164.402 97.4784L135.24 114.306Z" fill="#545659"/>
<path d="M135.24 114.306L135.351 152.089L164.336 168.917L164.225 131.133L135.24 114.306Z" fill="#323844"/>
<path d="M164.225 131.133L164.336 168.917L193.498 152.089L193.387 114.306L164.225 131.133Z" fill="#1E1F23"/>
<path d="M135.24 70.5059L164.225 87.3332L193.387 70.5059L164.402 53.6786L135.24 70.5059Z" fill="#E6007A"/>
<path d="M135.24 70.5059L135.351 108.29L164.336 125.117L164.225 87.3332L135.24 70.5059Z" fill="#323844"/>
<path d="M164.225 87.3332L164.336 125.117L193.498 108.29L193.387 70.5059L164.225 87.3332Z" fill="#1E1F23"/>
<path d="M135.24 26.6839L164.225 43.5112L193.387 26.6839L164.402 9.85663L135.24 26.6839Z" fill="#545659"/>
<path d="M135.24 26.6839L135.351 64.4676L164.336 81.2949L164.225 43.5112L135.24 26.6839Z" fill="#323844"/>
<path d="M164.225 43.5112L164.336 81.2949L193.498 64.4676L193.387 26.6839L164.225 43.5112Z" fill="#1E1F23"/>
<path d="M59.7244 115.393L59.8354 153.177L88.7978 170.005L88.709 132.243L59.7244 115.393Z" fill="#323844"/>
<path d="M88.709 132.243L88.7978 170.005L117.982 153.177L117.871 115.393L88.709 132.243Z" fill="#1E1F23"/>
<path d="M59.7244 115.393L88.709 132.243L117.871 115.393L88.8867 98.5662L59.7244 115.393Z" fill="#545659"/>
<path d="M15.8589 140.768L15.9699 178.551L44.9546 195.379L44.8435 157.595L15.8589 140.768Z" fill="url(#paint3_linear_114_195)"/>
<path d="M44.8435 157.595L44.9546 195.379L74.1169 178.551L74.0058 140.768L44.8435 157.595Z" fill="url(#paint4_linear_114_195)"/>
<path d="M15.8589 140.768L44.8435 157.595L74.0058 140.768L45.0212 123.918L15.8589 140.768Z" fill="url(#paint5_linear_114_195)"/>
<path d="M59.7244 70.5059L59.8354 108.29L88.7978 125.117L88.709 87.3332L59.7244 70.5059Z" fill="url(#paint6_linear_114_195)"/>
<path d="M88.709 87.3332L88.7978 125.117L117.982 108.29L117.871 70.5059L88.709 87.3332Z" fill="url(#paint7_linear_114_195)"/>
<path d="M59.7244 70.5059L88.709 87.3332L117.871 70.5059L88.8867 53.6786L59.7244 70.5059Z" fill="url(#paint8_linear_114_195)"/>
<path d="M59.7244 65.5332L88.709 82.3827L117.871 65.5332L88.8867 48.7059L59.7244 65.5332Z" stroke="#BCF700" stroke-miterlimit="10"/>
<path d="M59.7244 59.3839L88.709 76.2334L117.871 59.3839L88.8867 42.5566L59.7244 59.3839Z" stroke="#BCF700" stroke-miterlimit="10"/>
<path d="M59.7244 53.2346L88.709 70.0619L117.871 53.2346L88.8867 36.4073L59.7244 53.2346Z" stroke="#BCF700" stroke-miterlimit="10"/>
<path d="M96.3938 136.594L96.4826 174.356L125.467 191.205L125.356 153.421L96.3938 136.594Z" fill="url(#paint9_linear_114_195)"/>
<path d="M125.356 153.421L125.467 191.205L154.63 174.356L154.541 136.594L125.356 153.421Z" fill="url(#paint10_linear_114_195)"/>
<path d="M96.3938 136.594L125.356 153.421L154.541 136.594L125.556 119.745L96.3938 136.594Z" fill="url(#paint11_linear_114_195)"/>
<path d="M96.3938 91.6843L96.4826 129.468L125.467 146.295L125.356 108.534L96.3938 91.6843Z" fill="url(#paint12_linear_114_195)"/>
<path d="M125.356 108.534L125.467 146.295L154.63 129.468L154.541 91.6843L125.356 108.534Z" fill="url(#paint13_linear_114_195)"/>
<path d="M96.3938 91.6843L125.356 108.534L154.541 91.6843L125.556 74.8571L96.3938 91.6843Z" fill="url(#paint14_linear_114_195)"/>
<path d="M110.919 91.6843L125.401 100.098L139.993 91.6843L125.512 83.2707L110.919 91.6843Z" fill="url(#paint15_linear_114_195)"/>
<path d="M30.4067 140.768L44.8879 149.181L59.458 140.768L44.9768 132.354L30.4067 140.768Z" fill="url(#paint16_linear_114_195)"/>
<path d="M223.593 118.501L252.578 135.329L281.74 118.501L252.755 101.652L223.593 118.501Z" fill="#E6007A"/>
<path d="M223.593 118.501L223.704 156.263L252.666 173.112L252.578 135.329L223.593 118.501Z" fill="#545659"/>
<path d="M252.578 135.329L252.666 173.112L281.851 156.263L281.74 118.501L252.578 135.329Z" fill="#323844"/>
<path d="M184.436 141.101L213.421 157.95L242.583 141.123L213.598 124.273L184.436 141.101Z" fill="url(#paint17_linear_114_195)"/>
<path d="M184.436 141.101L184.547 178.884L213.532 195.734L213.421 157.95L184.436 141.101Z" fill="url(#paint18_linear_114_195)"/>
<path d="M213.421 157.95L213.532 195.734L242.694 178.884L242.583 141.123L213.421 157.95Z" fill="url(#paint19_linear_114_195)"/>
<path d="M184.436 96.5016L213.421 113.351L242.583 96.5016L213.598 79.6743L184.436 96.5016Z" fill="url(#paint20_linear_114_195)"/>
<path d="M184.436 96.5016L184.547 134.285L213.532 151.113L213.421 113.351L184.436 96.5016Z" fill="url(#paint21_linear_114_195)"/>
<path d="M213.421 113.351L213.532 151.113L242.694 134.285L242.583 96.5016L213.421 113.351Z" fill="url(#paint22_linear_114_195)"/>
<path d="M184.436 38.8493L213.421 55.6766L242.583 38.8493L213.598 22.022L184.436 38.8493Z" fill="url(#paint23_linear_114_195)"/>
<g opacity="0.21">
<path opacity="0.21" d="M184.436 29.9472L213.421 46.7967L242.583 29.9472L213.598 13.1199L184.436 29.9472Z" fill="url(#paint24_linear_114_195)"/>
</g>
<g opacity="0.21">
<path opacity="0.21" d="M184.436 23.3984L213.421 40.2257L242.583 23.3984L213.598 6.57111L184.436 23.3984Z" fill="url(#paint25_linear_114_195)"/>
</g>
<g opacity="0.21">
<path opacity="0.21" d="M184.436 16.8273L213.421 33.6546L242.583 16.8273L213.598 0L184.436 16.8273Z" fill="url(#paint26_linear_114_195)"/>
</g>
<path d="M184.436 38.8493L184.547 76.633L213.532 93.4603L213.421 55.6766L184.436 38.8493Z" fill="url(#paint27_linear_114_195)"/>
<path d="M213.421 55.6766L213.532 93.4603L242.694 76.633L242.583 38.8493L213.421 55.6766Z" fill="url(#paint28_linear_114_195)"/>
<path d="M145.59 163.389L145.679 201.173L174.664 218L174.552 180.216L145.59 163.389Z" fill="#E6007A"/>
<path d="M174.552 180.216L174.664 218L203.826 201.173L203.737 163.389L174.552 180.216Z" fill="#1E1F23"/>
<path d="M145.59 163.389L174.552 180.216L203.737 163.389L174.752 146.562L145.59 163.389Z" fill="#545659"/>
<path d="M122.602 65.5332H128.31H139.993V91.6843L125.401 100.098L110.919 91.6843V65.5332H122.602Z" fill="url(#paint29_linear_114_195)"/>
<path d="M42.0672 114.617H47.7975H59.458V140.768L44.8879 149.181L30.4067 140.768V114.617H42.0672Z" fill="url(#paint30_linear_114_195)"/>
<defs>
<linearGradient id="paint0_linear_114_195" x1="232.543" y1="91.6909" x2="174.394" y2="91.6909" gradientUnits="userSpaceOnUse">
<stop stop-color="#B4E03A"/>
<stop offset="1" stop-color="#CDFA50"/>
</linearGradient>
<linearGradient id="paint1_linear_114_195" x1="203.481" y1="118.998" x2="174.394" y2="118.998" gradientUnits="userSpaceOnUse">
<stop offset="5.43435e-07" stop-color="#94B51F"/>
<stop offset="1" stop-color="#7A9925"/>
</linearGradient>
<linearGradient id="paint2_linear_114_195" x1="232.65" y1="118.998" x2="203.374" y2="118.998" gradientUnits="userSpaceOnUse">
<stop stop-color="#B4E03A"/>
<stop offset="1" stop-color="#CDFA50"/>
</linearGradient>
<linearGradient id="paint3_linear_114_195" x1="36.8769" y1="155.021" x2="11.1453" y2="206.924" gradientUnits="userSpaceOnUse">
<stop offset="5.43435e-07" stop-color="#94B51F"/>
<stop offset="1" stop-color="#7A9925"/>
</linearGradient>
<linearGradient id="paint4_linear_114_195" x1="74.1152" y1="168.067" x2="44.839" y2="168.067" gradientUnits="userSpaceOnUse">
<stop stop-color="#B4E03A"/>
<stop offset="1" stop-color="#CDFA50"/>
</linearGradient>
<linearGradient id="paint5_linear_114_195" x1="74.008" y1="140.76" x2="15.8596" y2="140.76" gradientUnits="userSpaceOnUse">
<stop offset="5.43435e-07" stop-color="#EFFF68"/>
<stop offset="1" stop-color="#EEFFB0"/>
</linearGradient>
<linearGradient id="paint6_linear_114_195" x1="80.7374" y1="84.7684" x2="55.0058" y2="136.672" gradientUnits="userSpaceOnUse">
<stop offset="5.43435e-07" stop-color="#94B51F"/>
<stop offset="1" stop-color="#7A9925"/>
</linearGradient>
<linearGradient id="paint7_linear_114_195" x1="117.976" y1="97.8144" x2="88.6995" y2="97.8144" gradientUnits="userSpaceOnUse">
<stop stop-color="#B4E03A"/>
<stop offset="1" stop-color="#CDFA50"/>
</linearGradient>
<linearGradient id="paint8_linear_114_195" x1="117.869" y1="70.5075" x2="59.7201" y2="70.5075" gradientUnits="userSpaceOnUse">
<stop offset="5.43435e-07" stop-color="#EFFF68"/>
<stop offset="1" stop-color="#EEFFB0"/>
</linearGradient>
<linearGradient id="paint9_linear_114_195" x1="117.402" y1="150.844" x2="91.6706" y2="202.748" gradientUnits="userSpaceOnUse">
<stop offset="5.43435e-07" stop-color="#94B51F"/>
<stop offset="1" stop-color="#7A9925"/>
</linearGradient>
<linearGradient id="paint10_linear_114_195" x1="154.64" y1="163.89" x2="125.364" y2="163.89" gradientUnits="userSpaceOnUse">
<stop stop-color="#B4E03A"/>
<stop offset="1" stop-color="#CDFA50"/>
</linearGradient>
<linearGradient id="paint11_linear_114_195" x1="154.533" y1="136.583" x2="96.3849" y2="136.583" gradientUnits="userSpaceOnUse">
<stop offset="5.43435e-07" stop-color="#EFFF68"/>
<stop offset="1" stop-color="#EEFFB0"/>
</linearGradient>
<linearGradient id="paint12_linear_114_195" x1="117.402" y1="105.952" x2="91.6706" y2="157.855" gradientUnits="userSpaceOnUse">
<stop offset="5.43435e-07" stop-color="#94B51F"/>
<stop offset="1" stop-color="#7A9925"/>
</linearGradient>
<linearGradient id="paint13_linear_114_195" x1="154.64" y1="118.998" x2="125.364" y2="118.998" gradientUnits="userSpaceOnUse">
<stop stop-color="#B4E03A"/>
<stop offset="1" stop-color="#CDFA50"/>
</linearGradient>
<linearGradient id="paint14_linear_114_195" x1="154.533" y1="91.6909" x2="96.3849" y2="91.6909" gradientUnits="userSpaceOnUse">
<stop offset="5.43435e-07" stop-color="#EFFF68"/>
<stop offset="1" stop-color="#EEFFB0"/>
</linearGradient>
<linearGradient id="paint15_linear_114_195" x1="139.99" y1="91.6909" x2="110.928" y2="91.6909" gradientUnits="userSpaceOnUse">
<stop offset="5.43435e-07" stop-color="#94B51F"/>
<stop offset="1" stop-color="#7A9925"/>
</linearGradient>
<linearGradient id="paint16_linear_114_195" x1="59.4648" y1="140.76" x2="30.4029" y2="140.76" gradientUnits="userSpaceOnUse">
<stop offset="5.43435e-07" stop-color="#94B51F"/>
<stop offset="1" stop-color="#7A9925"/>
</linearGradient>
<linearGradient id="paint17_linear_114_195" x1="242.588" y1="141.112" x2="184.44" y2="141.112" gradientUnits="userSpaceOnUse">
<stop offset="5.43435e-07" stop-color="#EFFF68"/>
<stop offset="1" stop-color="#EEFFB0"/>
</linearGradient>
<linearGradient id="paint18_linear_114_195" x1="213.526" y1="168.419" x2="184.44" y2="168.419" gradientUnits="userSpaceOnUse">
<stop offset="5.43435e-07" stop-color="#94B51F"/>
<stop offset="1" stop-color="#7A9925"/>
</linearGradient>
<linearGradient id="paint19_linear_114_195" x1="242.695" y1="168.419" x2="213.419" y2="168.419" gradientUnits="userSpaceOnUse">
<stop stop-color="#B4E03A"/>
<stop offset="1" stop-color="#CDFA50"/>
</linearGradient>
<linearGradient id="paint20_linear_114_195" x1="242.588" y1="96.5094" x2="184.44" y2="96.5094" gradientUnits="userSpaceOnUse">
<stop offset="5.43435e-07" stop-color="#EFFF68"/>
<stop offset="1" stop-color="#EEFFB0"/>
</linearGradient>
<linearGradient id="paint21_linear_114_195" x1="213.526" y1="123.816" x2="184.44" y2="123.816" gradientUnits="userSpaceOnUse">
<stop offset="5.43435e-07" stop-color="#94B51F"/>
<stop offset="1" stop-color="#7A9925"/>
</linearGradient>
<linearGradient id="paint22_linear_114_195" x1="242.695" y1="123.816" x2="213.419" y2="123.816" gradientUnits="userSpaceOnUse">
<stop stop-color="#B4E03A"/>
<stop offset="1" stop-color="#CDFA50"/>
</linearGradient>
<linearGradient id="paint23_linear_114_195" x1="242.588" y1="38.8537" x2="184.44" y2="38.8537" gradientUnits="userSpaceOnUse">
<stop offset="5.43435e-07" stop-color="#EFFF68"/>
<stop offset="1" stop-color="#EEFFB0"/>
</linearGradient>
<linearGradient id="paint24_linear_114_195" x1="242.588" y1="29.9572" x2="184.44" y2="29.9572" gradientUnits="userSpaceOnUse">
<stop stop-color="#B4E03A"/>
<stop offset="1" stop-color="#CDFA50"/>
</linearGradient>
<linearGradient id="paint25_linear_114_195" x1="242.588" y1="23.395" x2="184.44" y2="23.395" gradientUnits="userSpaceOnUse">
<stop stop-color="#B4E03A"/>
<stop offset="1" stop-color="#CDFA50"/>
</linearGradient>
<linearGradient id="paint26_linear_114_195" x1="242.588" y1="16.8326" x2="184.44" y2="16.8326" gradientUnits="userSpaceOnUse">
<stop stop-color="#B4E03A"/>
<stop offset="1" stop-color="#CDFA50"/>
</linearGradient>
<linearGradient id="paint27_linear_114_195" x1="213.526" y1="66.1606" x2="184.44" y2="66.1606" gradientUnits="userSpaceOnUse">
<stop offset="5.43435e-07" stop-color="#94B51F"/>
<stop offset="1" stop-color="#7A9925"/>
</linearGradient>
<linearGradient id="paint28_linear_114_195" x1="242.695" y1="66.1607" x2="213.419" y2="66.1607" gradientUnits="userSpaceOnUse">
<stop stop-color="#B4E03A"/>
<stop offset="1" stop-color="#CDFA50"/>
</linearGradient>
<linearGradient id="paint29_linear_114_195" x1="125.459" y1="68.4876" x2="125.459" y2="118.761" gradientUnits="userSpaceOnUse">
<stop stop-color="#B3F000" stop-opacity="0"/>
<stop offset="1" stop-color="#B2EF00"/>
</linearGradient>
<linearGradient id="paint30_linear_114_195" x1="44.9338" y1="117.556" x2="44.9338" y2="167.83" gradientUnits="userSpaceOnUse">
<stop stop-color="#B3F000" stop-opacity="0"/>
<stop offset="1" stop-color="#B2EF00"/>
</linearGradient>
</defs>
</svg>
