<svg width="26" height="25" viewBox="0 0 26 25" fill="none" xmlns="http://www.w3.org/2000/svg">
<path d="M21.4932 7.62054L17.2422 10.0743L21.4932 12.5385L25.7372 10.0743L21.4932 7.62054Z" fill="white"/>
<path d="M4.50679 7.62054L0.262817 10.0743L4.50679 12.5385L8.75776 10.0743L4.50679 7.62054Z" fill="white"/>
<path d="M8.75781 19.8787V24.7581L13.0018 22.3009V17.4214L8.75781 19.8787Z" fill="#1792FF"/>
<path d="M8.75781 10.1059V14.9853L4.50684 12.528V7.64862L8.75781 10.1059Z" fill="#A4D8FF"/>
<path d="M8.75781 14.9852V19.8541L4.50684 17.4074V12.5315L8.75781 14.9852Z" fill="#A4D8FF"/>
<path d="M4.50678 12.5315V17.4109L0.262817 14.9572V10.0743L4.50678 12.5315Z" fill="#A4D8FF"/>
<path d="M13.0018 17.4215V22.3009L8.75781 19.8541V14.9747L13.0018 17.4215Z" fill="#A4D8FF"/>
<path d="M17.2422 10.0848V14.9678L13.0018 12.5105V7.6311L17.2422 10.0848Z" fill="#A4D8FF"/>
<path d="M8.75781 5.17382V10.0532L4.50684 7.596V2.72009L8.75781 5.17382Z" fill="#A4D8FF"/>
<path d="M17.2422 19.8577V24.7371L13.0018 22.2904V17.4109L17.2422 19.8577Z" fill="#A4D8FF"/>
<path d="M8.75781 19.8577V24.7371L4.50684 22.2904V17.4109L8.75781 19.8577Z" fill="#A4D8FF"/>
<path d="M17.2422 10.0848V14.9678L21.4932 12.5105V7.6311L17.2422 10.0848Z" fill="#1792FF"/>
<path d="M17.2422 5.17382V10.0532L21.4932 7.596V2.72009L17.2422 5.17382Z" fill="#1792FF"/>
<path d="M8.75781 10.0848V14.9678L13.0018 12.5105V7.6311L8.75781 10.0848Z" fill="#1792FF"/>
<path d="M17.2422 14.9642V19.8436L21.4932 17.3864V12.5105L17.2422 14.9642Z" fill="#1792FF"/>
<path d="M21.4967 12.5315V17.4109L25.7407 14.9537V10.0743L21.4967 12.5315Z" fill="#1792FF"/>
<path d="M13.0018 17.411V22.2904L17.2457 19.8437V14.9642L13.0018 17.411Z" fill="#1792FF"/>
<path d="M17.2422 19.8436V24.723L21.4932 22.2658V17.3899L17.2422 19.8436Z" fill="#1792FF"/>
<path d="M8.75781 5.18439L4.50684 7.64162L8.75781 10.1059L13.0018 7.64162L8.75781 5.18439Z" fill="white"/>
<path d="M13.0018 2.72009L8.75781 5.18434L13.0018 7.64157L17.2457 5.18434L13.0018 2.72009Z" fill="white"/>
<path d="M13.0018 12.5105L8.75781 14.9677L13.0018 17.4215L17.2457 14.9642L13.0018 12.5105Z" fill="white"/>
<path d="M17.2422 0.262878L13.0018 2.72011L17.2457 5.18436L21.4967 2.72011L17.2422 0.262878Z" fill="white"/>
<path d="M8.75781 0.262878L4.50684 2.72011L8.75781 5.18436L13.0018 2.72011L8.75781 0.262878Z" fill="white"/>
<path d="M17.2422 5.15283L13.0018 7.62058L17.2457 10.0778L21.4967 7.62058L17.2422 5.15283Z" fill="white"/>
<path d="M17.2422 25C17.1967 25 17.1511 24.9895 17.1125 24.9649L13.0018 22.5953L8.89096 24.9649C8.81035 25.0105 8.70872 25.0105 8.62812 24.9649L4.37714 22.5182C4.29654 22.4726 4.24397 22.385 4.24397 22.2904V17.5617L0.129667 15.1816C0.0490632 15.136 0 15.0484 0 14.9537V10.0743C0 9.97965 0.0490632 9.89202 0.129667 9.84645L4.24046 7.46633V2.72011C4.24046 2.62547 4.28953 2.53784 4.37363 2.49227L8.62812 0.0350314C8.70872 -0.0105378 8.81035 -0.0105378 8.89096 0.0350314L13.0018 2.41515L17.1125 0.0350314C17.1932 -0.0105378 17.2948 -0.0105378 17.3754 0.0350314L21.6264 2.49227C21.707 2.53784 21.7595 2.62547 21.7595 2.72011V7.46633L25.8703 9.84645C25.9509 9.89202 26 9.97965 26 10.0743V14.9537C26 15.0484 25.9509 15.136 25.8703 15.1816L21.7595 17.5617V22.2904C21.7595 22.385 21.7105 22.4726 21.6264 22.5182L17.3754 24.9649C17.3333 24.9895 17.2878 25 17.2422 25ZM13.0018 22.0275C13.0473 22.0275 13.0929 22.038 13.1314 22.0625L17.2422 24.4321L21.2304 22.1396V17.4109C21.2304 17.3163 21.2794 17.2287 21.36 17.1831L25.4708 14.803V10.225L21.36 7.8449C21.2794 7.79933 21.2304 7.7117 21.2304 7.61706V2.87084L17.2422 0.567841L13.1314 2.94445C13.0508 2.99002 12.9492 2.99002 12.8686 2.94445L8.75778 0.567841L4.76965 2.87084V7.62056C4.76965 7.71521 4.72058 7.80284 4.63998 7.84841L0.525677 10.225V14.803L4.63647 17.1831C4.71708 17.2287 4.76614 17.3163 4.76614 17.4109V22.1396L8.75428 24.4321L12.8651 22.0625C12.9106 22.0415 12.9562 22.0275 13.0018 22.0275Z" fill="#001423"/>
<path d="M4.50331 12.826C4.45775 12.826 4.41219 12.8155 4.37014 12.7909L0.129676 10.3022C0.00351301 10.2285 -0.0385412 10.0673 0.0350537 9.94111C0.108648 9.81492 0.269856 9.77285 0.396019 9.84646L4.63999 12.3317C4.76615 12.4054 4.8082 12.5666 4.73461 12.6928C4.68204 12.7769 4.59443 12.826 4.50331 12.826Z" fill="white"/>
<path d="M8.75777 25C8.61409 25 8.49493 24.8808 8.49493 24.7371V19.8787C8.49493 19.735 8.61409 19.6158 8.75777 19.6158C8.90146 19.6158 9.02061 19.735 9.02061 19.8787V24.7371C9.02061 24.8808 8.90146 25 8.75777 25Z" fill="white"/>
<path d="M9.02061 14.9888H8.49493V19.8787H9.02061V14.9888Z" fill="#001423"/>
<path d="M4.76963 7.62054H4.24396V17.4109H4.76963V7.62054Z" fill="#001423"/>
<path d="M17.505 14.9642H16.9794V19.8542H17.505V14.9642Z" fill="#001423"/>
<path d="M17.2422 25C17.0985 25 16.9794 24.8808 16.9794 24.7371V19.8577C16.9794 19.714 17.0985 19.5948 17.2422 19.5948C17.3859 19.5948 17.505 19.714 17.505 19.8577V24.7371C17.505 24.8808 17.3859 25 17.2422 25Z" fill="white"/>
<path d="M21.4967 12.805C21.4056 12.805 21.318 12.7594 21.2689 12.6753C21.1953 12.5491 21.2374 12.3878 21.3636 12.3142L25.6075 9.82895C25.7337 9.75533 25.8949 9.7974 25.9685 9.92359C26.0421 10.0498 26 10.211 25.8739 10.2846L21.6299 12.7699C21.5843 12.7909 21.5388 12.805 21.4967 12.805Z" fill="white"/>
<path d="M17.2422 5.4683C17.1511 5.4683 17.0635 5.42273 17.0144 5.3386C16.9408 5.21241 16.9829 5.05117 17.109 4.97755L21.36 2.49228C21.4862 2.41866 21.6474 2.46073 21.721 2.58692C21.7946 2.71311 21.7525 2.87436 21.6264 2.94797L17.3754 5.43325C17.3333 5.45778 17.2878 5.4683 17.2422 5.4683Z" fill="white"/>
<path d="M8.75778 5.4683C8.71222 5.4683 8.66667 5.45778 8.62461 5.43325L4.37363 2.94446C4.24747 2.87085 4.20542 2.70961 4.27901 2.58692C4.35261 2.46073 4.51381 2.41866 4.63998 2.49228L8.89095 4.97755C9.01712 5.05117 9.05917 5.21241 8.98558 5.3386C8.93651 5.42273 8.8489 5.4683 8.75778 5.4683Z" fill="white"/>
<path d="M21.7596 7.74323H21.2339V17.5231H21.7596V7.74323Z" fill="#001423"/>
<path d="M4.64669 12.303L4.38422 12.7585L8.62595 15.2036L8.88842 14.748L4.64669 12.303Z" fill="#001423"/>
<path d="M4.63621 17.1817L4.37274 17.6367L12.8667 22.5576L13.1301 22.1027L4.63621 17.1817Z" fill="#001423"/>
<path d="M21.2829 17.1863L12.795 22.1047L13.0586 22.5597L21.5464 17.6412L21.2829 17.1863Z" fill="#001423"/>
<path d="M21.3651 12.3154L17.1111 14.7394L17.3714 15.1962L21.6253 12.7723L21.3651 12.3154Z" fill="#001423"/>
<path d="M17.2617 4.98395L12.8732 7.39734L13.1265 7.8581L17.515 5.44471L17.2617 4.98395Z" fill="#001423"/>
<path d="M13.1321 2.49217L12.8693 2.94751L21.6402 8.01271L21.903 7.55737L13.1321 2.49217Z" fill="#001423"/>
<path d="M17.0389 15.143L12.8686 12.6963C12.788 12.6507 12.7389 12.5631 12.7389 12.4684V7.78179L8.62811 5.40168L8.89095 4.94598L13.1349 7.39971C13.2155 7.44528 13.2646 7.53292 13.2646 7.62756V12.3177L17.3053 14.6873L17.0389 15.143Z" fill="#001423"/>
<path d="M12.8717 2.48048L4.3739 7.38892L4.63679 7.84426L13.1345 2.93582L12.8717 2.48048Z" fill="#001423"/>
<path d="M12.8679 12.2243L8.59521 14.7002L8.85874 15.1552L13.1315 12.6792L12.8679 12.2243Z" fill="#001423"/>
<path d="M13.0018 22.5532C12.8581 22.5532 12.7389 22.4341 12.7389 22.2903V17.5722L8.62812 15.2026C8.54751 15.157 8.49494 15.0694 8.49494 14.9747V10.2565L4.37363 7.84488C4.24747 7.77127 4.20542 7.61002 4.27901 7.48383C4.35261 7.35764 4.51381 7.31558 4.63998 7.38919L8.89095 9.87447C8.97156 9.92003 9.02062 10.0077 9.02062 10.1023V14.8205L13.1314 17.1901C13.212 17.2357 13.2646 17.3233 13.2646 17.4179V22.2868C13.2646 22.4376 13.1454 22.5532 13.0018 22.5532Z" fill="white"/>
<path d="M13.0018 17.6844C12.9106 17.6844 12.823 17.6388 12.774 17.5512C12.7004 17.425 12.7459 17.2637 12.8721 17.1936L16.9829 14.824V10.1059C16.9829 10.0112 17.032 9.92708 17.1126 9.87801L21.3635 7.39273C21.4897 7.31912 21.6509 7.36118 21.7245 7.48737C21.7981 7.61356 21.756 7.77481 21.6299 7.84842L17.5086 10.2601V14.9783C17.5086 15.0729 17.4595 15.1605 17.3754 15.2061L13.1314 17.6528C13.0894 17.6739 13.0438 17.6844 13.0018 17.6844Z" fill="white"/>
<path d="M17.2422 10.3687C17.1967 10.3687 17.1511 10.3582 17.109 10.3337L13.0017 7.94654L8.89095 10.3372C8.76479 10.4108 8.60358 10.3687 8.52999 10.2425C8.45639 10.1163 8.49845 9.95509 8.62461 9.88148L12.8686 7.41724C12.9492 7.36816 13.0508 7.36816 13.1314 7.41724L17.3754 9.88148C17.5015 9.95509 17.5436 10.1163 17.47 10.2425C17.4209 10.3232 17.3333 10.3687 17.2422 10.3687Z" fill="white"/>
</svg>
