<svg width="26" height="26" viewBox="0 0 26 26" fill="none" xmlns="http://www.w3.org/2000/svg">
<path d="M10.1872 12.7949L9.96142 12.5682C9.79103 12.398 9.49807 12.5185 9.49807 12.76V15.9969C9.49807 16.1465 9.62054 16.268 9.7706 16.268H13.0083C13.2495 16.268 13.3715 15.9756 13.1996 15.8051C13.094 15.6995 13.094 15.5281 13.1996 15.422L16.6437 11.9689C16.7493 11.8633 16.7493 11.6919 16.6437 11.5856L16.3299 11.2731C16.1594 11.1028 16.2809 10.8104 16.5217 10.8104H19.7576C19.9072 10.8104 20.0297 10.9319 20.0297 11.0815V14.3186C20.0297 14.5597 19.7358 14.6808 19.5654 14.5103L19.3468 14.2923C19.2397 14.1834 19.0693 14.1834 18.9641 14.2923L13.1582 20.0954C13.0527 20.2006 12.8812 20.2006 12.7743 20.0954L5.67094 12.9922C5.56415 12.8854 5.56415 12.7138 5.67094 12.6077L15.5046 2.77494C15.6098 2.66909 15.6098 2.49639 15.5046 2.39101L13.1923 0.0790387C13.0862 -0.0263462 12.9148 -0.0263462 12.8084 0.0790387L0.0791138 12.8088C-0.0263713 12.9146 -0.0263713 13.0873 0.0791138 13.1927L12.8084 25.9211C12.9139 26.0263 13.0872 26.0263 13.1923 25.9211L25.9211 13.1927C26.0263 13.0869 26.0263 12.9151 25.9211 12.8096L18.4323 5.32127C18.3276 5.21588 18.1553 5.21588 18.0492 5.32127L10.5717 12.795C10.4651 12.9017 10.2933 12.9017 10.1872 12.795L10.1872 12.7949Z" fill="white"/>
</svg>
