<svg width="24" height="24" class="svg-icon brand-color FullScreenLayoutWithIllustration_logo__FzG60" viewBox="0 0 24 20" fill="#5841d8" xmlns="http://www.w3.org/2000/svg"><path fill-rule="evenodd" clip-rule="evenodd" d="M0 12.6199V17.8556C0 18.8198 0.767926 19.6 1.71225 19.6C2.65757 19.6 3.42914 18.8198 3.42914 17.8556V12.6199C3.42914 11.6544 4.19309 10.8728 5.14238 10.8728C6.08836 10.8728 6.85563 11.6544 6.85563 12.6199V17.8556C6.85563 18.8198 7.62355 19.6 8.56887 19.6C9.5175 19.6 10.2851 18.8198 10.2851 17.8556V12.6199C10.2851 11.6544 11.0524 10.8728 11.998 10.8728C12.9476 10.8728 13.7156 11.6544 13.7156 12.6199V17.8556C13.7156 18.8198 14.4832 19.6 15.4275 19.6C16.3728 19.6 17.1407 18.8198 17.1407 17.8556V12.6199C17.1407 11.6544 17.9083 10.8728 18.8576 10.8728C19.8033 10.8728 20.5709 11.6544 20.5709 12.6199V17.8556C20.5709 18.8198 21.3388 19.6 22.2868 19.6C23.2324 19.6 24 18.8198 24 17.8556V12.6199C24 5.87172 18.6262 0.399994 11.998 0.399994C5.37017 0.399994 0 5.87172 0 12.6199Z"></path></svg>