<svg width="184" height="144" viewBox="0 0 184 144" fill="none" xmlns="http://www.w3.org/2000/svg">
<path d="M172.934 75.6616L183.809 72.6749L183.757 100.809L172.882 103.796L172.934 75.6616Z" fill="#96B73B"/>
<path d="M162.35 72.67L173.225 69.6833L183.809 72.6749L172.933 75.6616L162.35 72.67Z" fill="url(#paint0_linear_3_640)"/>
<path d="M172.933 75.6616L172.882 103.796L162.298 100.805L162.35 72.67L172.933 75.6616Z" fill="url(#paint1_linear_3_640)"/>
<path d="M128.393 124.328L139.267 121.341L149.538 124.242L138.663 127.229L128.393 124.328Z" fill="#ACD143"/>
<path d="M98.0831 102.624L108.957 99.6376L149.562 111.113L138.687 114.099L98.0831 102.624Z" fill="url(#paint2_linear_3_640)"/>
<path d="M138.687 114.099L138.663 127.229L138.642 139.113L149.515 136.126L149.538 124.242L149.562 111.113L138.687 114.099Z" fill="url(#paint3_linear_3_640)"/>
<path d="M98.083 102.624L98.0573 115.875L128.393 124.328V124.448L128.371 136.21L138.642 139.113L138.663 127.229L138.687 114.099L98.083 102.624Z" fill="url(#paint4_linear_3_640)"/>
<path d="M0.0244141 102.841L10.8996 99.8541L20.6921 102.621L9.81692 105.608L0.0244141 102.841Z" fill="url(#paint5_linear_3_640)"/>
<path d="M20.3873 95.1882L20.3632 108.588L20.339 121.986L31.2126 118.999L31.2383 105.601L31.2625 92.2015L20.3873 95.1882Z" fill="url(#paint6_linear_3_640)"/>
<path d="M9.84106 92.208L20.7163 89.2213L31.2628 92.2016L20.3876 95.1883L9.84106 92.208Z" fill="url(#paint7_linear_3_640)"/>
<path d="M20.3875 95.1882L20.3633 108.588L20.3391 121.986L9.79263 119.006L0.00012207 116.239L0.0242892 102.841L9.8168 105.608L9.84096 92.208L20.3875 95.1882Z" fill="url(#paint8_linear_3_640)"/>
<path d="M162.04 92.4036L172.916 89.4169L172.888 103.816L162.013 106.802L162.04 92.4036Z" fill="#1E1F23"/>
<path d="M151.457 89.412L162.332 86.4254L172.915 89.4169L162.04 92.4036L151.457 89.412Z" fill="#545659"/>
<path d="M162.04 92.4037L162.013 106.802L151.429 103.811L151.457 89.4121L162.04 92.4037Z" fill="#323844"/>
<path d="M127.813 130.198L138.687 127.211L138.666 139.095L127.791 142.082L127.813 130.198Z" fill="#1E1F23"/>
<path d="M112.464 125.862L123.339 122.875L138.687 127.211L127.813 130.198L112.464 125.862Z" fill="#9FA5A4"/>
<path d="M127.813 130.198L127.791 142.082L112.443 137.744L112.464 125.862L127.813 130.198Z" fill="#E6007A"/>
<path d="M33.5103 68.3661L44.3855 65.3794L44.363 77.2632L33.4894 80.2499L33.5103 68.3661Z" fill="url(#paint9_linear_3_640)"/>
<path d="M18.1625 64.0283L29.0377 61.0416L44.3854 65.3794L33.5102 68.3661L18.1625 64.0283Z" fill="#ACD143"/>
<path d="M33.51 68.3661L33.4891 80.2499L18.1398 75.9137L18.1623 64.0283L33.51 68.3661Z" fill="url(#paint10_linear_3_640)"/>
<path d="M33.5101 56.4743L44.3853 53.4876L44.3627 65.3714L33.4875 68.3581L33.5101 56.4743Z" fill="#1E1F23"/>
<path d="M18.1625 52.1365L29.0377 49.1498L44.3854 53.4876L33.5102 56.4743L18.1625 52.1365Z" fill="#FF5FBB"/>
<path d="M33.51 56.4743L33.4875 68.3581L18.1398 64.0203L18.1623 52.1365L33.51 56.4743Z" fill="#323844"/>
<path d="M72.369 77.4329L72.3497 87.3385L72.311 107.142L86.9048 103.133L86.9434 83.3303L86.9611 73.4247L72.369 77.4329Z" fill="url(#paint11_linear_3_640)"/>
<path d="M57.8915 73.3407L72.4836 69.3325L86.9613 73.4247L72.3692 77.4329L57.8915 73.3407Z" fill="url(#paint12_linear_3_640)"/>
<path d="M72.3692 77.4329L72.3498 87.3385L72.3112 107.142L57.8351 103.051L57.8721 83.2463L57.8818 78.2927L57.8915 73.3408L72.3692 77.4329Z" fill="url(#paint13_linear_3_640)"/>
<path d="M72.461 27.9082L72.424 47.7161L72.4127 54.0419L72.4062 57.6217L86.9983 53.6136L87.0048 50.0338L87.0177 43.7096L87.0531 23.9001L72.461 27.9082Z" fill="url(#paint14_linear_3_640)"/>
<path d="M72.4061 57.6217L86.9982 53.6136L130.425 65.8853L115.831 69.8934L72.4061 57.6217Z" fill="url(#paint15_linear_3_640)"/>
<path d="M115.831 69.8934L130.425 65.8853L130.388 85.6932L115.794 89.7013L115.831 69.8934Z" fill="url(#paint16_linear_3_640)"/>
<path d="M115.831 69.8934L115.794 89.7013L72.3693 77.4297L72.4063 57.6218L115.831 69.8934Z" fill="url(#paint17_linear_3_640)"/>
<path d="M115.923 20.372L130.515 16.3638L130.48 36.1718L115.886 40.1799L115.923 20.372Z" fill="url(#paint18_linear_3_640)"/>
<path d="M115.923 20.372L115.886 40.1799L72.4608 27.9082L72.4238 47.7161L72.4125 54.0419L72.4061 57.6217L57.9268 53.5328L57.9348 49.9513L57.9461 43.6256L58.0186 4.00812L70.4147 7.512L72.4979 8.10029L115.923 20.372Z" fill="url(#paint19_linear_3_640)"/>
<path d="M87.0902 4.09217L85.0086 3.50389L72.6125 0L58.0188 4.00813L70.4149 7.51202L72.4981 8.1003L115.923 20.372L130.515 16.3638L87.0902 4.09217Z" fill="url(#paint20_linear_3_640)"/>
<path d="M130.362 44.272L144.956 40.2639L144.9 69.9758L130.307 73.984L130.362 44.272Z" fill="url(#paint21_linear_3_640)"/>
<path d="M115.886 40.1815L130.48 36.1733L144.956 40.2639L130.362 44.272L115.886 40.1815Z" fill="url(#paint22_linear_3_640)"/>
<path d="M130.362 44.2721L130.307 73.984L115.831 69.8934L115.886 40.1815L130.362 44.2721Z" fill="url(#paint23_linear_3_640)"/>
<path d="M53.1337 128.011L38.9219 124.108L38.9509 139.64L53.1627 143.543L53.1337 128.011Z" fill="#E6007A"/>
<path d="M73.1908 122.343L58.9806 118.44L38.9219 124.108L53.1337 128.011L73.1908 122.343Z" fill="#545659"/>
<path d="M53.1338 128.011L53.1628 143.543L73.2199 137.875L73.1909 122.343L53.1338 128.011Z" fill="#1E1F23"/>
<defs>
<linearGradient id="paint0_linear_3_640" x1="162.35" y1="72.6726" x2="183.809" y2="72.6726" gradientUnits="userSpaceOnUse">
<stop offset="5.43435e-07" stop-color="#EFFF68"/>
<stop offset="1" stop-color="#EEFFB0"/>
</linearGradient>
<linearGradient id="paint1_linear_3_640" x1="163.093" y1="101.62" x2="172.128" y2="75.0448" gradientUnits="userSpaceOnUse">
<stop stop-color="#B4E03A"/>
<stop offset="1" stop-color="#CDFA50"/>
</linearGradient>
<linearGradient id="paint2_linear_3_640" x1="98.0825" y1="106.868" x2="149.562" y2="106.868" gradientUnits="userSpaceOnUse">
<stop offset="5.43435e-07" stop-color="#EFFF68"/>
<stop offset="1" stop-color="#EEFFB0"/>
</linearGradient>
<linearGradient id="paint3_linear_3_640" x1="150.44" y1="113.127" x2="133.944" y2="144.127" gradientUnits="userSpaceOnUse">
<stop offset="5.43435e-07" stop-color="#94B51F"/>
<stop offset="1" stop-color="#7A9925"/>
</linearGradient>
<linearGradient id="paint4_linear_3_640" x1="96.0482" y1="134.13" x2="134.488" y2="111.426" gradientUnits="userSpaceOnUse">
<stop stop-color="#B4E03A"/>
<stop offset="1" stop-color="#CDFA50"/>
</linearGradient>
<linearGradient id="paint5_linear_3_640" x1="0.0250585" y1="102.73" x2="20.6919" y2="102.73" gradientUnits="userSpaceOnUse">
<stop offset="5.43435e-07" stop-color="#EFFF68"/>
<stop offset="1" stop-color="#EEFFB0"/>
</linearGradient>
<linearGradient id="paint6_linear_3_640" x1="20.3383" y1="107.094" x2="31.2627" y2="107.094" gradientUnits="userSpaceOnUse">
<stop offset="5.43435e-07" stop-color="#94B51F"/>
<stop offset="1" stop-color="#7A9925"/>
</linearGradient>
<linearGradient id="paint7_linear_3_640" x1="9.84181" y1="92.2051" x2="31.263" y2="92.2051" gradientUnits="userSpaceOnUse">
<stop offset="5.43435e-07" stop-color="#EFFF68"/>
<stop offset="1" stop-color="#EEFFB0"/>
</linearGradient>
<linearGradient id="paint8_linear_3_640" x1="0.00012207" y1="107.097" x2="20.3881" y2="107.097" gradientUnits="userSpaceOnUse">
<stop stop-color="#B4E03A"/>
<stop offset="1" stop-color="#CDFA50"/>
</linearGradient>
<linearGradient id="paint9_linear_3_640" x1="33.4888" y1="72.8147" x2="44.3857" y2="72.8147" gradientUnits="userSpaceOnUse">
<stop offset="5.43435e-07" stop-color="#94B51F"/>
<stop offset="1" stop-color="#7A9925"/>
</linearGradient>
<linearGradient id="paint10_linear_3_640" x1="18.1405" y1="72.1394" x2="33.5106" y2="72.1394" gradientUnits="userSpaceOnUse">
<stop stop-color="#B4E03A"/>
<stop offset="1" stop-color="#CDFA50"/>
</linearGradient>
<linearGradient id="paint11_linear_3_640" x1="87.3362" y1="74.2366" x2="71.9117" y2="106.182" gradientUnits="userSpaceOnUse">
<stop offset="5.43435e-07" stop-color="#94B51F"/>
<stop offset="1" stop-color="#7A9925"/>
</linearGradient>
<linearGradient id="paint12_linear_3_640" x1="57.8909" y1="73.3826" x2="86.962" y2="73.3826" gradientUnits="userSpaceOnUse">
<stop offset="5.43435e-07" stop-color="#EFFF68"/>
<stop offset="1" stop-color="#EEFFB0"/>
</linearGradient>
<linearGradient id="paint13_linear_3_640" x1="57.4164" y1="101.953" x2="114.018" y2="16.2277" gradientUnits="userSpaceOnUse">
<stop stop-color="#B4E03A"/>
<stop offset="1" stop-color="#CDFA50"/>
</linearGradient>
<linearGradient id="paint14_linear_3_640" x1="85.8488" y1="23.1829" x2="74.1416" y2="56.6035" gradientUnits="userSpaceOnUse">
<stop offset="5.43435e-07" stop-color="#94B51F"/>
<stop offset="1" stop-color="#7A9925"/>
</linearGradient>
<linearGradient id="paint15_linear_3_640" x1="72.4055" y1="61.753" x2="130.424" y2="61.753" gradientUnits="userSpaceOnUse">
<stop offset="5.43435e-07" stop-color="#EFFF68"/>
<stop offset="1" stop-color="#EEFFB0"/>
</linearGradient>
<linearGradient id="paint16_linear_3_640" x1="130.562" y1="66.1327" x2="116.078" y2="88.6526" gradientUnits="userSpaceOnUse">
<stop offset="5.43435e-07" stop-color="#94B51F"/>
<stop offset="1" stop-color="#7A9925"/>
</linearGradient>
<linearGradient id="paint17_linear_3_640" x1="70.0589" y1="110.301" x2="126.661" y2="24.5751" gradientUnits="userSpaceOnUse">
<stop stop-color="#B4E03A"/>
<stop offset="1" stop-color="#CDFA50"/>
</linearGradient>
<linearGradient id="paint18_linear_3_640" x1="131.632" y1="16.1591" x2="115.955" y2="38.5414" gradientUnits="userSpaceOnUse">
<stop offset="5.43435e-07" stop-color="#94B51F"/>
<stop offset="1" stop-color="#7A9925"/>
</linearGradient>
<linearGradient id="paint19_linear_3_640" x1="41.4639" y1="91.4203" x2="98.0658" y2="5.69478" gradientUnits="userSpaceOnUse">
<stop stop-color="#B4E03A"/>
<stop offset="1" stop-color="#CDFA50"/>
</linearGradient>
<linearGradient id="paint20_linear_3_640" x1="58.0193" y1="10.1862" x2="130.516" y2="10.1862" gradientUnits="userSpaceOnUse">
<stop offset="5.43435e-07" stop-color="#EFFF68"/>
<stop offset="1" stop-color="#EEFFB0"/>
</linearGradient>
<linearGradient id="paint21_linear_3_640" x1="144.493" y1="41.5087" x2="130.13" y2="73.99" gradientUnits="userSpaceOnUse">
<stop offset="5.43435e-07" stop-color="#94B51F"/>
<stop offset="1" stop-color="#7A9925"/>
</linearGradient>
<linearGradient id="paint22_linear_3_640" x1="115.886" y1="40.2232" x2="144.955" y2="40.2232" gradientUnits="userSpaceOnUse">
<stop offset="5.43435e-07" stop-color="#EFFF68"/>
<stop offset="1" stop-color="#EEFFB0"/>
</linearGradient>
<linearGradient id="paint23_linear_3_640" x1="82.7004" y1="118.648" x2="139.302" y2="32.922" gradientUnits="userSpaceOnUse">
<stop stop-color="#B4E03A"/>
<stop offset="1" stop-color="#CDFA50"/>
</linearGradient>
</defs>
</svg>
