<?xml version="1.0" encoding="utf-8"?>
<!-- Generator: Adobe Illustrator 25.0.1, SVG Export Plug-In . SVG Version: 6.00 Build 0)  -->
<svg version="1.1" id="图层_1" xmlns="http://www.w3.org/2000/svg" xmlns:xlink="http://www.w3.org/1999/xlink" x="0px" y="0px"
	 viewBox="0 0 33.4 21" style="enable-background:new 0 0 33.4 21;" xml:space="preserve">
<style type="text/css">
	.st0{fill:#00B897;}
	.st1{fill:#76FCB2;}
	.st2{fill:url(#SVGID_1_);}
</style>
<path class="st0" d="M33.2,15.2L25.4,1.8c-1.4-2.4-4.9-2.4-6.3,0l-7.9,13.4c-1.4,2.4,0.3,5.4,3.2,5.4h15.7
	C32.9,20.6,34.6,17.6,33.2,15.2z"/>
<path class="st1" d="M22.7,15.5l-0.4-0.8c-0.4-0.7-1.3-2.3-1.3-2.3L14.7,1.8c-1.4-2.4-4.9-2.4-6.3,0L0.5,15.2
	c-1.4,2.4,0.3,5.4,3.2,5.4h15.6h6.5h4.3C26.2,20.6,24.5,18.6,22.7,15.5z"/>
<linearGradient id="SVGID_1_" gradientUnits="userSpaceOnUse" x1="9.0463" y1="11.2311" x2="27.153" y2="4.5401" gradientTransform="matrix(1 0 0 -1 0 22)">
	<stop  offset="0" style="stop-color:#53E57A;stop-opacity:0"/>
	<stop  offset="1" style="stop-color:#00A977"/>
</linearGradient>
<path class="st2" d="M22.7,15.5l-0.4-0.8c-0.4-0.7-1.3-2.3-1.3-2.3l-4.1-6.9l-5.7,9.7c-1.4,2.4,0.3,5.4,3.2,5.4h4.9h6.5h4.3
	C26.2,20.6,24.5,18.6,22.7,15.5z"/>
</svg>
