<svg width="26" height="21" viewBox="0 0 26 21" fill="none" xmlns="http://www.w3.org/2000/svg">
<path fill-rule="evenodd" clip-rule="evenodd" d="M6.2756 9.86414L0.894113 12.238C-0.302512 12.7663 -0.299188 14.4326 0.900761 14.9544L14.17 20.7424C14.9644 21.088 15.8719 21.0848 16.6596 20.7326L25.1091 16.9663C26.2958 16.438 26.2958 14.7815 25.1058 14.2565L19.7908 11.9022L16.6596 13.2978C15.8685 13.65 14.9611 13.6533 14.17 13.3076L6.2756 9.86414Z" fill="url(#paint0_linear_3_730)"/>
<path d="M9.49972 0.26079C10.2941 -0.0881227 11.2016 -0.0881227 11.9927 0.264051L25.1057 6.07166C26.2957 6.59666 26.2957 8.25318 25.109 8.78144L16.6628 12.5477C15.8717 12.8999 14.9643 12.9032 14.1732 12.5575L0.900639 6.76949C-0.29931 6.24775 -0.302634 4.58144 0.893991 4.05318L9.49972 0.26079Z" fill="url(#paint1_linear_3_730)"/>
<defs>
<linearGradient id="paint0_linear_3_730" x1="25.9977" y1="15.4331" x2="-3.27734e-05" y2="15.4331" gradientUnits="userSpaceOnUse">
<stop stop-color="#EF18AC"/>
<stop offset="1" stop-color="#FAD972"/>
</linearGradient>
<linearGradient id="paint1_linear_3_730" x1="25.9989" y1="6.40818" x2="0.00122739" y2="6.40818" gradientUnits="userSpaceOnUse">
<stop stop-color="#5314F1"/>
<stop offset="1" stop-color="#04E2FF"/>
</linearGradient>
</defs>
</svg>
