<svg width="25" height="25" viewBox="0 0 25 25" fill="none" xmlns="http://www.w3.org/2000/svg">
<path d="M12.5016 25.0032C19.406 25.0032 25.0032 19.406 25.0032 12.5016C25.0032 5.59716 19.406 0 12.5016 0C5.59716 0 0 5.59716 0 12.5016C0 19.406 5.59716 25.0032 12.5016 25.0032Z" fill="#FF8C00"/>
<path d="M12.5015 3.51935C8.78718 3.51935 5.75049 6.53687 5.75049 10.2704C5.75049 11.0216 5.87515 11.7536 6.1085 12.4664C6.26833 12.9491 6.80534 13.2176 7.304 13.0546C7.78667 12.8947 8.05518 12.3577 7.89216 11.8591C7.69717 11.3061 7.60767 10.7147 7.62365 10.1266C7.69397 7.6077 9.73016 5.53635 12.249 5.41169C15.0524 5.26785 17.373 7.50222 17.373 10.2704C17.373 12.8596 15.3369 14.9853 12.7828 15.1291C12.7828 15.1291 11.8367 15.1835 11.3732 15.2538C11.1398 15.2889 10.964 15.3241 10.8362 15.3433C10.7818 15.3625 10.7275 15.3081 10.7467 15.2538L10.9065 14.4674L11.7823 10.4302C11.891 9.93157 11.5682 9.42972 11.0695 9.32423C10.5708 9.21555 10.069 9.5384 9.9635 10.0371C9.9635 10.0371 7.857 19.86 7.83782 19.9655C7.72914 20.4641 8.05198 20.966 8.55064 21.0715C9.0493 21.1801 9.55115 20.8573 9.65664 20.3586C9.67582 20.2499 9.96031 18.949 9.96031 18.949C10.1745 17.9485 10.996 17.2164 11.9613 17.0918C12.1755 17.0566 13.0162 17.0023 13.0162 17.0023C16.4972 16.7338 19.2494 13.8249 19.2494 10.2704C19.2494 6.53687 16.2159 3.51935 12.5015 3.51935ZM12.981 19.0544C12.3737 18.9298 11.7663 19.3038 11.6417 19.9303C11.517 20.5376 11.891 21.145 12.5175 21.2696C13.1249 21.3943 13.7322 21.0203 13.8569 20.3938C13.9815 19.7673 13.6075 19.1791 12.981 19.0544Z" fill="white"/>
</svg>
