<svg width="42" height="225" viewBox="0 0 42 225" fill="none" xmlns="http://www.w3.org/2000/svg">
<path fill-rule="evenodd" clip-rule="evenodd" d="M29.4 6V0.6006H24V6H29.4Z" fill="#191919"/>
<path fill-rule="evenodd" clip-rule="evenodd" d="M17.4 6V0.6006H12V6H17.4Z" fill="#191919"/>
<path fill-rule="evenodd" clip-rule="evenodd" d="M5.4 6V0.6006H0L0 6H5.4Z" fill="#191919"/>
<path fill-rule="evenodd" clip-rule="evenodd" d="M41.4 18V12.6H36V18H41.4Z" fill="#191919"/>
<path fill-rule="evenodd" clip-rule="evenodd" d="M29.4 18V12.6H24V18H29.4Z" fill="#191919"/>
<path fill-rule="evenodd" clip-rule="evenodd" d="M17.4 18V12.6H12V18H17.4Z" fill="#191919"/>
<path fill-rule="evenodd" clip-rule="evenodd" d="M41.4 30V24.6H36V30H41.4Z" fill="#191919"/>
<path fill-rule="evenodd" clip-rule="evenodd" d="M29.4 30V24.6H24V30H29.4Z" fill="#191919"/>
<path fill-rule="evenodd" clip-rule="evenodd" d="M17.4 30V24.6H12V30H17.4Z" fill="#191919"/>
<path fill-rule="evenodd" clip-rule="evenodd" d="M5.4 30V24.6H0L0 30H5.4Z" fill="#191919"/>
<path fill-rule="evenodd" clip-rule="evenodd" d="M41.4 42V36.6H36V42H41.4Z" fill="#191919"/>
<path fill-rule="evenodd" clip-rule="evenodd" d="M17.4 42V36.6H12V42H17.4Z" fill="#191919"/>
<path fill-rule="evenodd" clip-rule="evenodd" d="M5.4 42V36.6H0L0 42H5.4Z" fill="#191919"/>
<path fill-rule="evenodd" clip-rule="evenodd" d="M17.4 54V48.6H12V54H17.4Z" fill="#191919"/>
<path fill-rule="evenodd" clip-rule="evenodd" d="M5.4 54V48.6H0L0 54H5.4Z" fill="#191919"/>
<path fill-rule="evenodd" clip-rule="evenodd" d="M41.4 66V60.6H36V66H41.4Z" fill="#191919"/>
<path fill-rule="evenodd" clip-rule="evenodd" d="M29.4 66V60.6H24V66H29.4Z" fill="#191919"/>
<path fill-rule="evenodd" clip-rule="evenodd" d="M29.4 78V72.6H24V78H29.4Z" fill="#191919"/>
<path fill-rule="evenodd" clip-rule="evenodd" d="M17.4 78V72.6H12V78H17.4Z" fill="#191919"/>
<path fill-rule="evenodd" clip-rule="evenodd" d="M5.4 78V72.6H0L0 78H5.4Z" fill="#191919"/>
<path fill-rule="evenodd" clip-rule="evenodd" d="M29.4 90V84.6H24V90H29.4Z" fill="#191919"/>
<path fill-rule="evenodd" clip-rule="evenodd" d="M17.4 90V84.6H12V90H17.4Z" fill="#191919"/>
<path fill-rule="evenodd" clip-rule="evenodd" d="M5.4 90V84.6H0L0 90H5.4Z" fill="#191919"/>
<path fill-rule="evenodd" clip-rule="evenodd" d="M41.4 102V96.6H36V102H41.4Z" fill="#191919"/>
<path fill-rule="evenodd" clip-rule="evenodd" d="M5.4 102V96.6H0L0 102H5.4Z" fill="#191919"/>
<path fill-rule="evenodd" clip-rule="evenodd" d="M41.4 114V108.6H36V114H41.4Z" fill="#191919"/>
<path fill-rule="evenodd" clip-rule="evenodd" d="M5.4 114V108.6H0L0 114H5.4Z" fill="#191919"/>
<path fill-rule="evenodd" clip-rule="evenodd" d="M17.4 126V120.6H12V126H17.4Z" fill="#191919"/>
<path fill-rule="evenodd" clip-rule="evenodd" d="M5.4 126V120.6H0L0 126H5.4Z" fill="#191919"/>
<path fill-rule="evenodd" clip-rule="evenodd" d="M29.4 138V132.6H24V138H29.4Z" fill="#191919"/>
<path fill-rule="evenodd" clip-rule="evenodd" d="M17.4 138V132.6H12V138H17.4Z" fill="#191919"/>
<path fill-rule="evenodd" clip-rule="evenodd" d="M5.4 150V144.6H0L0 150H5.4Z" fill="#191919"/>
<path fill-rule="evenodd" clip-rule="evenodd" d="M29.4 162V156.6H24V162H29.4Z" fill="#191919"/>
<path fill-rule="evenodd" clip-rule="evenodd" d="M5.4 162V156.6H0L0 162H5.4Z" fill="#191919"/>
<path fill-rule="evenodd" clip-rule="evenodd" d="M41.4 174V168.6H36V174H41.4Z" fill="#191919"/>
<path fill-rule="evenodd" clip-rule="evenodd" d="M29.4 174V168.6H24V174H29.4Z" fill="#191919"/>
<path fill-rule="evenodd" clip-rule="evenodd" d="M17.4 174V168.6H12V174H17.4Z" fill="#191919"/>
<path fill-rule="evenodd" clip-rule="evenodd" d="M5.4 174V168.6H0L0 174H5.4Z" fill="#191919"/>
<path fill-rule="evenodd" clip-rule="evenodd" d="M41.4 186V180.6H36V186H41.4Z" fill="#191919"/>
<path fill-rule="evenodd" clip-rule="evenodd" d="M17.4 186V180.6H12V186H17.4Z" fill="#191919"/>
<path fill-rule="evenodd" clip-rule="evenodd" d="M29.4 198V192.6H24V198H29.4Z" fill="#191919"/>
<path fill-rule="evenodd" clip-rule="evenodd" d="M29.4 225V203.4H24V225H29.4Z" fill="#191919"/>
<path fill-rule="evenodd" clip-rule="evenodd" d="M17.4 214.5V192.9H12L12 214.5H17.4Z" fill="#191919"/>
<path fill-rule="evenodd" clip-rule="evenodd" d="M17.4 142.5L17.4 96H12L12 142.5H17.4Z" fill="#191919"/>
<path fill-rule="evenodd" clip-rule="evenodd" d="M34.8 90V72H24V90H34.8Z" fill="#191919"/>
<path fill-rule="evenodd" clip-rule="evenodd" d="M5.4 198V192.6H0L0 198H5.4Z" fill="#191919"/>
</svg>
