<svg width="198" height="30" viewBox="0 0 198 30" fill="none" xmlns="http://www.w3.org/2000/svg">
<path fill-rule="evenodd" clip-rule="evenodd" d="M6 29.4H0.6006V24H6V29.4Z" fill="#191919"/>
<path fill-rule="evenodd" clip-rule="evenodd" d="M6 5.4H0.6006V0H6V5.4Z" fill="#191919"/>
<path fill-rule="evenodd" clip-rule="evenodd" d="M18 17.4H12.6V12H18V17.4Z" fill="#191919"/>
<path fill-rule="evenodd" clip-rule="evenodd" d="M30 29.4H24.6V24H30V29.4Z" fill="#191919"/>
<path fill-rule="evenodd" clip-rule="evenodd" d="M30 17.4H24.6V12H30V17.4Z" fill="#191919"/>
<path fill-rule="evenodd" clip-rule="evenodd" d="M30 5.4H24.6V0H30V5.4Z" fill="#191919"/>
<path fill-rule="evenodd" clip-rule="evenodd" d="M42 17.4H36.6V12H42V17.4Z" fill="#191919"/>
<path fill-rule="evenodd" clip-rule="evenodd" d="M54 17.4H48.6V12H54V17.4Z" fill="#191919"/>
<path fill-rule="evenodd" clip-rule="evenodd" d="M54 5.4H48.6V0H54V5.4Z" fill="#191919"/>
<path fill-rule="evenodd" clip-rule="evenodd" d="M66 29.4H37V24H66V29.4Z" fill="#191919"/>
<path fill-rule="evenodd" clip-rule="evenodd" d="M78 29.4H72.6V24H78V29.4Z" fill="#191919"/>
<path fill-rule="evenodd" clip-rule="evenodd" d="M78 17.4H72.6V12H78V17.4Z" fill="#191919"/>
<path fill-rule="evenodd" clip-rule="evenodd" d="M78 5.4H72.6V0H78V5.4Z" fill="#191919"/>
<path fill-rule="evenodd" clip-rule="evenodd" d="M90 29.4H84.6V24H90V29.4Z" fill="#191919"/>
<path fill-rule="evenodd" clip-rule="evenodd" d="M113.6 17.4H84.6001V12H113.6V17.4Z" fill="#191919"/>
<path fill-rule="evenodd" clip-rule="evenodd" d="M90 5.4H84.6V0H90V5.4Z" fill="#191919"/>
<path fill-rule="evenodd" clip-rule="evenodd" d="M102 5.4H96.6V0H102V5.4Z" fill="#191919"/>
<path fill-rule="evenodd" clip-rule="evenodd" d="M126 17.4H120.6V12H126V17.4Z" fill="#191919"/>
<path fill-rule="evenodd" clip-rule="evenodd" d="M138 29.4H121V24H138V29.4Z" fill="#191919"/>
<path fill-rule="evenodd" clip-rule="evenodd" d="M138 17.4H132.6V12H138V17.4Z" fill="#191919"/>
<path fill-rule="evenodd" clip-rule="evenodd" d="M150 5.4H133V0H150V5.4Z" fill="#191919"/>
<path fill-rule="evenodd" clip-rule="evenodd" d="M162 29.4H156.6V24H162V29.4Z" fill="#191919"/>
<path fill-rule="evenodd" clip-rule="evenodd" d="M162 5.4H156.6V0H162V5.4Z" fill="#191919"/>
<path fill-rule="evenodd" clip-rule="evenodd" d="M174 29.4H168.6V24H174V29.4Z" fill="#191919"/>
<path fill-rule="evenodd" clip-rule="evenodd" d="M174 17.4H145V12H174V17.4Z" fill="#191919"/>
<path fill-rule="evenodd" clip-rule="evenodd" d="M186 17.4H180.6V12H186V17.4Z" fill="#191919"/>
<path fill-rule="evenodd" clip-rule="evenodd" d="M198 29.4H192.6V24H198V29.4Z" fill="#191919"/>
</svg>
