<svg xmlns="http://www.w3.org/2000/svg" width="130" height="130" viewBox="0 0 130 130">
    <g fill="none" fill-rule="evenodd">
        <g>
            <path fill="#FFF" d="M0 0H1440V5735H0z" transform="translate(-1076 -2199)"/>
            <g>
                <path fill="#A9ADB1" d="M0 0H1440V815H0z" transform="translate(-1076 -2199) translate(0 1794)"/>
                <g stroke="#000" stroke-width="4">
                    <g>
                        <g>
                            <g>
                                <path d="M2 2H23V23H2zM33 2H54V23H33zM64 2H85V23H64zM95 2H116V23H95z" transform="translate(-1076 -2199) translate(0 1794) translate(100 384) translate(976 17) translate(8 8)"/>
                            </g>
                            <g>
                                <path d="M2 2H23V23H2zM33 2H54V23H33zM64 2H85V23H64zM95 2H116V23H95z" transform="translate(-1076 -2199) translate(0 1794) translate(100 384) translate(976 17) translate(8 8) translate(0 31)"/>
                            </g>
                            <g>
                                <path d="M2 2H23V23H2zM33 2H54V23H33zM64 2H85V23H64zM95 2H116V23H95z" transform="translate(-1076 -2199) translate(0 1794) translate(100 384) translate(976 17) translate(8 8) translate(0 62)"/>
                            </g>
                            <g>
                                <path d="M2 8H23V29H2zM33 8H54V29H33zM64 8H85V29H64z" transform="translate(-1076 -2199) translate(0 1794) translate(100 384) translate(976 17) translate(8 8) translate(0 87)"/>
                                <path fill="#D1FF52" d="M95 8H116V29H95z" transform="translate(-1076 -2199) translate(0 1794) translate(100 384) translate(976 17) translate(8 8) translate(0 87) rotate(45 105.5 18.5)"/>
                            </g>
                        </g>
                    </g>
                </g>
            </g>
        </g>
    </g>
</svg>
