<svg xmlns="http://www.w3.org/2000/svg" width="130" height="130" viewBox="0 0 130 130">
    <g fill="none" fill-rule="evenodd">
        <g>
            <path fill="#FFF" d="M0 0H1440V5735H0z" transform="translate(-752 -2199)"/>
            <g>
                <path fill="#A9ADB1" d="M0 0H1440V815H0z" transform="translate(-752 -2199) translate(0 1794)"/>
                <g>
                    <g>
                        <g>
                            <path fill="#D1FF52" stroke="#000" stroke-linejoin="round" stroke-width="4" d="M35.299 86.274L104.031 68.944 85.994 136.969 17.969 155.006z" transform="translate(-752 -2199) translate(0 1794) translate(100 384) translate(652) translate(9) rotate(-135 61 111.975)"/>
                            <path fill="#000" fill-rule="nonzero" d="M82.002 121.785c.168 0 .29-.048.37-.143.078-.096.12-.202.125-.319l.004-1.939h3.827l1.293 1.94c.098.135.216.245.352.332.137.086.292.13.464.13h1.542l-7.123-10.158h-2.033l-.377 10.157h1.556zm3.359-3.857h-2.854l.005-3.094c.007-.163.008-.356.003-.577-.005-.222-.02-.463-.046-.725.147.257.292.495.433.714.141.22.27.411.386.574l2.073 3.108zm7.492 3.857l-1.287-3.87h.675c.176 0 .32.027.428.083.11.056.222.145.337.266l2.863 3.115c.24.271.528.406.863.406h1.794l-3.452-3.654c-.137-.144-.277-.27-.423-.374-.145-.105-.294-.195-.447-.27.284-.116.52-.27.707-.462.188-.191.327-.41.417-.658.09-.247.13-.521.12-.822-.01-.301-.07-.62-.181-.956-.145-.434-.348-.832-.609-1.193-.261-.362-.588-.673-.98-.935-.39-.261-.85-.465-1.375-.612-.525-.147-1.123-.22-1.794-.22H87.49l3.376 10.156h1.987zm-1.778-5.348l-1.068-3.213h1.032c.618 0 1.123.133 1.513.4.391.265.666.639.826 1.12.08.242.12.466.118.671-.003.206-.054.384-.153.536-.1.151-.253.27-.458.357-.205.086-.469.13-.79.13h-1.02zm10.145 5.348l-2.073-6.237c-.043-.13-.095-.272-.154-.423-.06-.152-.123-.31-.19-.473l4.599 5.53c.12.15.253.263.397.34.145.077.295.115.45.115h.277c.314 0 .495-.151.544-.455l.916-5.509c.034.154.072.306.115.455.043.15.086.29.13.42l2.073 6.237h1.754l-3.376-10.157h-1.51c-.088 0-.163.003-.226.007-.062.005-.115.018-.159.039-.044.02-.08.053-.11.098-.03.044-.05.106-.064.185l-.874 5.397c-.03.164-.05.334-.065.511-.014.178-.023.36-.027.546-.127-.182-.255-.359-.385-.532-.13-.172-.265-.34-.403-.504l-4.489-5.418c-.066-.079-.127-.14-.184-.185-.056-.045-.114-.077-.171-.098-.058-.021-.12-.034-.189-.039-.067-.004-.143-.007-.227-.007h-1.51l3.377 10.157h1.754z" transform="translate(-752 -2199) translate(0 1794) translate(100 384) translate(652) translate(9) rotate(-28 95.252 116.707)"/>
                            <path fill="#A9ADB1" stroke="#000" stroke-linejoin="round" stroke-width="4" d="M35.299 69.274L104.031 51.944 85.994 119.969 17.969 138.006z" transform="translate(-752 -2199) translate(0 1794) translate(100 384) translate(652) translate(9) rotate(-135 61 94.975)"/>
                            <path fill="#000" fill-rule="nonzero" d="M86.864 105.01c.534 0 .983-.087 1.348-.26.364-.172.64-.41.826-.71.187-.301.29-.654.307-1.057.018-.404-.05-.837-.203-1.299-.141-.424-.324-.785-.548-1.081-.225-.297-.473-.547-.747-.753-.273-.205-.563-.375-.868-.51-.306-.136-.612-.254-.919-.354-.307-.1-.604-.193-.893-.277-.288-.084-.553-.18-.794-.287-.24-.107-.448-.234-.623-.381s-.3-.333-.374-.557c-.116-.35-.095-.633.062-.85.157-.217.465-.326.924-.326.26 0 .5.036.718.109.219.072.417.15.595.234.178.084.335.162.472.235.136.072.253.108.35.108.102 0 .176-.024.224-.073.048-.05.085-.127.11-.235l.162-.987c-.451-.336-.954-.598-1.51-.787-.554-.19-1.12-.284-1.699-.284-.516 0-.946.084-1.29.252-.343.168-.606.39-.788.665-.182.276-.285.59-.308.945-.024.355.027.721.153 1.1.157.47.35.865.582 1.182.231.318.484.584.758.798.275.215.564.388.868.518.304.131.608.243.913.336.304.094.6.179.886.256.286.077.548.169.787.276.238.108.447.24.625.4.179.158.31.366.396.622.148.444.132.777-.048 1.001-.179.224-.5.336-.964.336-.318 0-.606-.046-.864-.14-.258-.093-.492-.196-.701-.308-.21-.112-.396-.214-.56-.308-.163-.093-.304-.14-.423-.14-.089 0-.164.025-.228.074-.063.049-.106.11-.13.185l-.252.994c.252.201.529.383.83.546.302.164.612.304.93.42.32.117.642.208.966.273.324.066.638.098.942.098zm10.906-.113l-.547-1.645h-4.117l-.887-2.667h3.204l-.528-1.589h-3.204l-.868-2.61h4.118l-.547-1.646h-6.117l3.376 10.157h6.117zm6.025 0l.49-10.157h-1.61c-.167 0-.291.048-.372.144-.08.095-.124.202-.13.318l-.12 5.852c-.006.22 0 .459.017.718.018.259.046.53.083.815-.161-.284-.323-.556-.486-.815-.164-.26-.322-.498-.474-.718l-4.024-5.852c-.098-.135-.215-.246-.352-.332-.137-.087-.292-.13-.464-.13h-1.602l7.243 10.157h1.8z" transform="translate(-752 -2199) translate(0 1794) translate(100 384) translate(652) translate(9) rotate(-28 92.838 99.819)"/>
                            <path fill="#D1FF52" stroke="#000" stroke-linejoin="round" stroke-width="4" d="M35.299 52.274L104.031 34.944 85.994 102.969 17.969 121.006z" transform="translate(-752 -2199) translate(0 1794) translate(100 384) translate(652) translate(9) rotate(-135 61 77.975)"/>
                            <path fill="#000" fill-rule="nonzero" d="M82.002 85.785c.168 0 .29-.048.37-.143.078-.096.12-.202.125-.319l.004-1.939h3.827l1.293 1.94c.098.135.216.245.352.332.137.086.292.13.464.13h1.542l-7.123-10.158h-2.033l-.377 10.157h1.556zm3.359-3.857h-2.854l.005-3.094c.007-.163.008-.356.003-.577-.005-.222-.02-.463-.046-.725.147.257.292.495.433.714.141.22.27.411.386.574l2.073 3.108zm7.26 3.857l-2.074-6.237c-.043-.13-.094-.272-.154-.423-.059-.152-.122-.31-.19-.473l4.6 5.53c.12.15.252.263.397.34.144.077.294.115.449.115h.278c.313 0 .494-.151.543-.455l.916-5.509c.034.154.072.306.115.455.043.15.087.29.13.42l2.073 6.237h1.755l-3.377-10.157h-1.51c-.087 0-.163.003-.225.007-.063.005-.116.018-.16.039-.043.02-.08.053-.11.098-.029.044-.05.106-.063.185l-.874 5.397c-.03.164-.052.334-.065.511-.014.178-.023.36-.027.546-.127-.182-.256-.359-.386-.532-.13-.172-.264-.34-.402-.504l-4.49-5.418c-.065-.079-.127-.14-.183-.185-.057-.045-.114-.077-.172-.098-.058-.021-.12-.034-.188-.039-.068-.004-.144-.007-.228-.007H87.49l3.376 10.157h1.755zm14.538 0c.737 0 1.366-.126 1.887-.378.52-.252.922-.602 1.203-1.05.281-.448.437-.983.466-1.606.029-.623-.08-1.306-.327-2.048-.245-.737-.589-1.416-1.031-2.037-.443-.62-.954-1.156-1.534-1.606-.58-.45-1.214-.802-1.903-1.054-.688-.252-1.4-.378-2.138-.378h-3.694l3.377 10.157h3.694zm-2.242-1.645l-2.283-6.867h1.695c.45 0 .88.08 1.287.238.408.159.785.385 1.13.68.345.293.654.653.927 1.077.274.425.5.903.676 1.435.178.537.272 1.018.28 1.442.01.425-.06.785-.209 1.082-.149.296-.375.522-.678.679-.303.156-.68.234-1.13.234h-1.695z" transform="translate(-752 -2199) translate(0 1794) translate(100 384) translate(652) translate(9) rotate(-28 95.583 80.707)"/>
                            <path fill="#A9ADB1" stroke="#000" stroke-linejoin="round" stroke-width="4" d="M35.299 35.799L104.031 18.469 85.994 86.494 17.969 104.531z" transform="translate(-752 -2199) translate(0 1794) translate(100 384) translate(652) translate(9) rotate(-135 61 61.5)"/>
                            <path fill="#000" fill-rule="nonzero" d="M86.864 70.01c.534 0 .983-.087 1.348-.26.364-.172.64-.41.826-.71.187-.301.29-.654.307-1.057.018-.404-.05-.837-.203-1.299-.141-.424-.324-.785-.548-1.081-.225-.297-.473-.547-.747-.753-.273-.205-.563-.375-.868-.51-.306-.136-.612-.254-.919-.354-.307-.1-.604-.193-.893-.277-.288-.084-.553-.18-.794-.287-.24-.107-.448-.234-.623-.381s-.3-.333-.374-.557c-.116-.35-.095-.633.062-.85.157-.217.465-.326.924-.326.26 0 .5.036.718.109.219.072.417.15.595.234.178.084.335.162.472.235.136.072.253.108.35.108.102 0 .176-.024.224-.073.048-.05.085-.127.11-.235l.162-.987c-.451-.336-.954-.598-1.51-.787-.554-.19-1.12-.284-1.699-.284-.516 0-.946.084-1.29.252-.343.168-.606.39-.788.665-.182.276-.285.59-.308.945-.024.355.027.721.153 1.1.157.47.35.865.582 1.182.231.318.484.584.758.798.275.215.564.388.868.518.304.131.608.243.913.336.304.094.6.179.886.256.286.077.548.169.787.276.238.108.447.24.625.4.179.158.31.366.396.622.148.444.132.777-.048 1.001-.179.224-.5.336-.964.336-.318 0-.606-.046-.864-.14-.258-.093-.492-.196-.701-.308-.21-.112-.396-.214-.56-.308-.163-.093-.304-.14-.423-.14-.089 0-.164.025-.228.074-.063.049-.106.11-.13.185l-.252.994c.252.201.529.383.83.546.302.164.612.304.93.42.32.117.642.208.966.273.324.066.638.098.942.098zm9.474 0c.618 0 1.175-.088 1.67-.263.496-.175.926-.452 1.29-.83l-1.394-4.193h-3.297l.389 1.17c.037.111.104.203.201.276.097.072.21.108.337.108h1.086l.568 1.708c-.2.117-.413.21-.64.277-.227.067-.499.101-.817.101-.467 0-.919-.079-1.353-.238-.435-.158-.84-.39-1.214-.693-.374-.303-.71-.675-1.006-1.116-.297-.441-.538-.942-.724-1.502-.173-.518-.26-.987-.263-1.407-.003-.42.073-.779.228-1.078.154-.298.385-.53.693-.693.307-.163.684-.245 1.13-.245.264 0 .504.017.718.05.214.032.417.079.609.14.192.06.378.131.558.213.179.081.365.174.558.276.204.108.37.145.5.112.131-.032.216-.123.254-.273l.264-.938c-.263-.196-.544-.375-.84-.539-.298-.163-.612-.304-.943-.423-.33-.12-.68-.213-1.046-.28-.367-.068-.749-.102-1.146-.102-.768 0-1.42.129-1.954.385-.535.257-.945.614-1.23 1.071-.284.458-.44 1.004-.464 1.638-.026.635.088 1.333.341 2.093.25.752.604 1.445 1.062 2.08.458.634.991 1.182 1.6 1.644.608.462 1.275.823 2 1.082.727.259 1.485.388 2.275.388zm5.729-.113c.119 0 .205-.036.258-.108.053-.073.094-.153.122-.242l.825-3.45c.013-.043.021-.088.025-.137l.012-.15 3.322 3.737c.08.094.172.175.277.245.105.07.223.105.356.105h1.986l-4.9-5.32 1.444-4.837h-1.9c-.093 0-.164.022-.213.067-.05.044-.085.113-.107.206l-.788 3.206c-.015.061-.026.12-.033.179-.007.058-.013.115-.016.171l-3.26-3.59c-.076-.085-.151-.145-.225-.183-.074-.037-.178-.056-.31-.056h-1.986l4.663 4.928-1.406 5.23h1.854z" transform="translate(-752 -2199) translate(0 1794) translate(100 384) translate(652) translate(9) rotate(-28 95.32 64.819)"/>
                        </g>
                    </g>
                </g>
            </g>
        </g>
    </g>
</svg>
