<svg width="89" height="345" viewBox="0 0 89 345" fill="none" xmlns="http://www.w3.org/2000/svg">
<path fill-rule="evenodd" clip-rule="evenodd" d="M76.9 5.5V0.1006H71.5V5.5H76.9Z" fill="#191919"/>
<path fill-rule="evenodd" clip-rule="evenodd" d="M64.9 5.5V0.1006H59.5V5.5H64.9Z" fill="#191919"/>
<path fill-rule="evenodd" clip-rule="evenodd" d="M52.9 5.5V0.1006H47.5V5.5H52.9Z" fill="#191919"/>
<path fill-rule="evenodd" clip-rule="evenodd" d="M88.9 17.5V12.1H83.5V17.5H88.9Z" fill="#191919"/>
<path fill-rule="evenodd" clip-rule="evenodd" d="M76.9 17.5V12.1H71.5V17.5H76.9Z" fill="#191919"/>
<path fill-rule="evenodd" clip-rule="evenodd" d="M64.9 17.5V12.1H59.5V17.5H64.9Z" fill="#191919"/>
<path fill-rule="evenodd" clip-rule="evenodd" d="M88.9 29.5V24.1H83.5V29.5H88.9Z" fill="#191919"/>
<path fill-rule="evenodd" clip-rule="evenodd" d="M76.9 29.5V24.1H71.5V29.5H76.9Z" fill="#191919"/>
<path fill-rule="evenodd" clip-rule="evenodd" d="M64.9 29.5V24.1H59.5V29.5H64.9Z" fill="#191919"/>
<path fill-rule="evenodd" clip-rule="evenodd" d="M52.9 29.5V24.1H47.5V29.5H52.9Z" fill="#191919"/>
<path fill-rule="evenodd" clip-rule="evenodd" d="M88.9 41.5V36.1H83.5V41.5H88.9Z" fill="#191919"/>
<path fill-rule="evenodd" clip-rule="evenodd" d="M64.9 41.5V36.1H59.5V41.5H64.9Z" fill="#191919"/>
<path fill-rule="evenodd" clip-rule="evenodd" d="M52.9 41.5V36.1H47.5V41.5H52.9Z" fill="#191919"/>
<path fill-rule="evenodd" clip-rule="evenodd" d="M64.9 53.5V48.1H59.5V53.5H64.9Z" fill="#191919"/>
<path fill-rule="evenodd" clip-rule="evenodd" d="M52.9 53.5V48.1H47.5V53.5H52.9Z" fill="#191919"/>
<path fill-rule="evenodd" clip-rule="evenodd" d="M88.9 65.5V60.1H83.5V65.5H88.9Z" fill="#191919"/>
<path fill-rule="evenodd" clip-rule="evenodd" d="M76.9 65.5V60.1H71.5V65.5H76.9Z" fill="#191919"/>
<path fill-rule="evenodd" clip-rule="evenodd" d="M76.9 77.5V72.1H71.5V77.5H76.9Z" fill="#191919"/>
<path fill-rule="evenodd" clip-rule="evenodd" d="M64.9 77.5V72.1H59.5V77.5H64.9Z" fill="#191919"/>
<path fill-rule="evenodd" clip-rule="evenodd" d="M52.9 77.5V72.1H47.5V77.5H52.9Z" fill="#191919"/>
<path fill-rule="evenodd" clip-rule="evenodd" d="M76.9 89.5V84.1H71.5V89.5H76.9Z" fill="#191919"/>
<path fill-rule="evenodd" clip-rule="evenodd" d="M64.9 89.5V84.1H59.5V89.5H64.9Z" fill="#191919"/>
<path fill-rule="evenodd" clip-rule="evenodd" d="M52.9 89.5V84.1H47.5V89.5H52.9Z" fill="#191919"/>
<path fill-rule="evenodd" clip-rule="evenodd" d="M88.9 101.5V96.1H83.5V101.5H88.9Z" fill="#191919"/>
<path fill-rule="evenodd" clip-rule="evenodd" d="M52.9 101.5V96.1H47.5V101.5H52.9Z" fill="#191919"/>
<path fill-rule="evenodd" clip-rule="evenodd" d="M88.9 113.5V108.1H83.5V113.5H88.9Z" fill="#191919"/>
<path fill-rule="evenodd" clip-rule="evenodd" d="M52.9 113.5V108.1H47.5V113.5H52.9Z" fill="#191919"/>
<path fill-rule="evenodd" clip-rule="evenodd" d="M64.9 125.5V120.1H59.5V125.5H64.9Z" fill="#191919"/>
<path fill-rule="evenodd" clip-rule="evenodd" d="M52.9 125.5V120.1H47.5V125.5H52.9Z" fill="#191919"/>
<path fill-rule="evenodd" clip-rule="evenodd" d="M76.9 137.5V132.1H71.5V137.5H76.9Z" fill="#191919"/>
<path fill-rule="evenodd" clip-rule="evenodd" d="M64.9 137.5V132.1H59.5V137.5H64.9Z" fill="#191919"/>
<path fill-rule="evenodd" clip-rule="evenodd" d="M52.9 149.5V144.1H47.5V149.5H52.9Z" fill="#191919"/>
<path fill-rule="evenodd" clip-rule="evenodd" d="M76.9 161.5V156.1H71.5V161.5H76.9Z" fill="#191919"/>
<path fill-rule="evenodd" clip-rule="evenodd" d="M52.9 161.5V156.1H47.5V161.5H52.9Z" fill="#191919"/>
<path fill-rule="evenodd" clip-rule="evenodd" d="M88.9 173.5V168.1H83.5V173.5H88.9Z" fill="#191919"/>
<path fill-rule="evenodd" clip-rule="evenodd" d="M76.9 173.5V168.1H71.5V173.5H76.9Z" fill="#191919"/>
<path fill-rule="evenodd" clip-rule="evenodd" d="M64.9 173.5V168.1H59.5V173.5H64.9Z" fill="#191919"/>
<path fill-rule="evenodd" clip-rule="evenodd" d="M52.9 173.5V168.1H47.5V173.5H52.9Z" fill="#191919"/>
<path fill-rule="evenodd" clip-rule="evenodd" d="M88.9 185.5V180.1H83.5V185.5H88.9Z" fill="#191919"/>
<path fill-rule="evenodd" clip-rule="evenodd" d="M64.9 185.5V180.1H59.5V185.5H64.9Z" fill="#191919"/>
<path fill-rule="evenodd" clip-rule="evenodd" d="M76.9 197.5V192.1H71.5V197.5H76.9Z" fill="#191919"/>
<path fill-rule="evenodd" clip-rule="evenodd" d="M76.9 224.5V202.9H71.5V224.5H76.9Z" fill="#191919"/>
<path fill-rule="evenodd" clip-rule="evenodd" d="M64.9 214V192.4H59.5V214H64.9Z" fill="#191919"/>
<path fill-rule="evenodd" clip-rule="evenodd" d="M64.9 142V95.5H59.5V142H64.9Z" fill="#191919"/>
<path fill-rule="evenodd" clip-rule="evenodd" d="M82.3 89.5V71.5H71.5V89.5H82.3Z" fill="#191919"/>
<path fill-rule="evenodd" clip-rule="evenodd" d="M52.9 197.5V192.1H47.5V197.5H52.9Z" fill="#191919"/>
<path fill-rule="evenodd" clip-rule="evenodd" d="M29.9 125.5V120.101H24.5V125.5H29.9Z" fill="#191919"/>
<path fill-rule="evenodd" clip-rule="evenodd" d="M17.9 125.5V120.101H12.5V125.5H17.9Z" fill="#191919"/>
<path fill-rule="evenodd" clip-rule="evenodd" d="M5.9 125.5V120.101H0.5L0.5 125.5H5.9Z" fill="#191919"/>
<path fill-rule="evenodd" clip-rule="evenodd" d="M41.9 137.5V132.1H36.5V137.5H41.9Z" fill="#191919"/>
<path fill-rule="evenodd" clip-rule="evenodd" d="M29.9 137.5V132.1H24.5V137.5H29.9Z" fill="#191919"/>
<path fill-rule="evenodd" clip-rule="evenodd" d="M17.9 137.5V132.1H12.5V137.5H17.9Z" fill="#191919"/>
<path fill-rule="evenodd" clip-rule="evenodd" d="M41.9 149.5V144.1H36.5V149.5H41.9Z" fill="#191919"/>
<path fill-rule="evenodd" clip-rule="evenodd" d="M29.9 149.5V144.1H24.5V149.5H29.9Z" fill="#191919"/>
<path fill-rule="evenodd" clip-rule="evenodd" d="M17.9 149.5V144.1H12.5V149.5H17.9Z" fill="#191919"/>
<path fill-rule="evenodd" clip-rule="evenodd" d="M5.9 149.5V144.1H0.5L0.5 149.5H5.9Z" fill="#191919"/>
<path fill-rule="evenodd" clip-rule="evenodd" d="M41.9 161.5V156.1H36.5V161.5H41.9Z" fill="#191919"/>
<path fill-rule="evenodd" clip-rule="evenodd" d="M17.9 161.5V156.1H12.5V161.5H17.9Z" fill="#191919"/>
<path fill-rule="evenodd" clip-rule="evenodd" d="M5.9 161.5V156.1H0.5L0.5 161.5H5.9Z" fill="#191919"/>
<path fill-rule="evenodd" clip-rule="evenodd" d="M17.9 173.5V168.1H12.5V173.5H17.9Z" fill="#191919"/>
<path fill-rule="evenodd" clip-rule="evenodd" d="M5.9 173.5V168.1H0.5L0.5 173.5H5.9Z" fill="#191919"/>
<path fill-rule="evenodd" clip-rule="evenodd" d="M41.9 185.5V180.1H36.5V185.5H41.9Z" fill="#191919"/>
<path fill-rule="evenodd" clip-rule="evenodd" d="M29.9 185.5V180.1H24.5V185.5H29.9Z" fill="#191919"/>
<path fill-rule="evenodd" clip-rule="evenodd" d="M29.9 197.5V192.1H24.5V197.5H29.9Z" fill="#191919"/>
<path fill-rule="evenodd" clip-rule="evenodd" d="M17.9 197.5V192.1H12.5V197.5H17.9Z" fill="#191919"/>
<path fill-rule="evenodd" clip-rule="evenodd" d="M5.9 197.5V192.1H0.5L0.5 197.5H5.9Z" fill="#191919"/>
<path fill-rule="evenodd" clip-rule="evenodd" d="M29.9 209.5V204.1H24.5V209.5H29.9Z" fill="#191919"/>
<path fill-rule="evenodd" clip-rule="evenodd" d="M17.9 209.5V204.1H12.5V209.5H17.9Z" fill="#191919"/>
<path fill-rule="evenodd" clip-rule="evenodd" d="M5.9 209.5V204.1H0.5L0.5 209.5H5.9Z" fill="#191919"/>
<path fill-rule="evenodd" clip-rule="evenodd" d="M41.9 221.5V216.1H36.5V221.5H41.9Z" fill="#191919"/>
<path fill-rule="evenodd" clip-rule="evenodd" d="M5.9 221.5V216.1H0.5L0.5 221.5H5.9Z" fill="#191919"/>
<path fill-rule="evenodd" clip-rule="evenodd" d="M41.9 233.5V228.1H36.5V233.5H41.9Z" fill="#191919"/>
<path fill-rule="evenodd" clip-rule="evenodd" d="M5.9 233.5V228.1H0.5L0.5 233.5H5.9Z" fill="#191919"/>
<path fill-rule="evenodd" clip-rule="evenodd" d="M17.9 245.5V240.1H12.5V245.5H17.9Z" fill="#191919"/>
<path fill-rule="evenodd" clip-rule="evenodd" d="M5.9 245.5V240.1H0.5L0.5 245.5H5.9Z" fill="#191919"/>
<path fill-rule="evenodd" clip-rule="evenodd" d="M29.9 257.5V252.1H24.5V257.5H29.9Z" fill="#191919"/>
<path fill-rule="evenodd" clip-rule="evenodd" d="M17.9 257.5V252.1H12.5V257.5H17.9Z" fill="#191919"/>
<path fill-rule="evenodd" clip-rule="evenodd" d="M5.9 269.5V264.1H0.5L0.5 269.5H5.9Z" fill="#191919"/>
<path fill-rule="evenodd" clip-rule="evenodd" d="M29.9 281.5V276.1H24.5V281.5H29.9Z" fill="#191919"/>
<path fill-rule="evenodd" clip-rule="evenodd" d="M5.9 281.5V276.1H0.5L0.5 281.5H5.9Z" fill="#191919"/>
<path fill-rule="evenodd" clip-rule="evenodd" d="M41.9 293.5V288.1H36.5V293.5H41.9Z" fill="#191919"/>
<path fill-rule="evenodd" clip-rule="evenodd" d="M29.9 293.5V288.1H24.5V293.5H29.9Z" fill="#191919"/>
<path fill-rule="evenodd" clip-rule="evenodd" d="M17.9 293.5V288.1H12.5V293.5H17.9Z" fill="#191919"/>
<path fill-rule="evenodd" clip-rule="evenodd" d="M5.9 293.5V288.1H0.5L0.5 293.5H5.9Z" fill="#191919"/>
<path fill-rule="evenodd" clip-rule="evenodd" d="M41.9 305.5V300.1H36.5V305.5H41.9Z" fill="#191919"/>
<path fill-rule="evenodd" clip-rule="evenodd" d="M17.9 305.5V300.1H12.5V305.5H17.9Z" fill="#191919"/>
<path fill-rule="evenodd" clip-rule="evenodd" d="M29.9 317.5V312.1H24.5V317.5H29.9Z" fill="#191919"/>
<path fill-rule="evenodd" clip-rule="evenodd" d="M29.9 344.5V322.9H24.5V344.5H29.9Z" fill="#191919"/>
<path fill-rule="evenodd" clip-rule="evenodd" d="M17.9 334V312.4H12.5L12.5 334H17.9Z" fill="#191919"/>
<path fill-rule="evenodd" clip-rule="evenodd" d="M17.9 262L17.9 215.5H12.5L12.5 262H17.9Z" fill="#191919"/>
<path fill-rule="evenodd" clip-rule="evenodd" d="M35.3 209.5V191.5H24.5V209.5H35.3Z" fill="#191919"/>
<path fill-rule="evenodd" clip-rule="evenodd" d="M5.9 317.5V312.1H0.5L0.5 317.5H5.9Z" fill="#191919"/>
</svg>
