<svg xmlns="http://www.w3.org/2000/svg" viewBox="0 0 21.95 21.98"><defs><style>.cls-1{fill:#d1ff52;fill-rule:evenodd;}</style></defs><g id="图层_2" data-name="图层 2"><g id="图层_1-2" data-name="图层 1"><path class="cls-1" d="M9.32,8.53H11V6.88H9.32Z"/><path class="cls-1" d="M7.68,10.17H9.32V8.53H7.68Z"/><path class="cls-1" d="M7.68,11.82H9.32V10.17H7.68Z"/><path class="cls-1" d="M7.68,13.46H9.32V11.81H7.68Z"/><path class="cls-1" d="M9.32,15.1H11V13.46H9.32Z"/><path class="cls-1" d="M12.62,11.82h1.65V10.17H12.62Z"/><path class="cls-1" d="M11,10.17h1.65V8.53H11Z"/><path class="cls-1" d="M11,13.47h1.65V11.82H11Z"/><path class="cls-1" d="M7.87,1.57H9.44V0H7.87Z"/><path class="cls-1" d="M6.3,3.14H7.87V1.57H6.3Z"/><path class="cls-1" d="M4.71,3.14H6.28V1.57H4.71Z"/><path class="cls-1" d="M3.14,4.71H4.71V3.14H3.14Z"/><path class="cls-1" d="M1.57,6.28H3.14V4.71H1.57Z"/><path class="cls-1" d="M1.57,7.85H3.14V6.28H1.57Z"/><path class="cls-1" d="M0,9.42H1.57V7.85H0Z"/><path class="cls-1" d="M0,11H1.57V9.42H0Z"/><path class="cls-1" d="M0,12.56H1.57V11H0Z"/><path class="cls-1" d="M0,14.13H1.57V12.56H0Z"/><path class="cls-1" d="M1.57,15.7H3.14V14.13H1.57Z"/><path class="cls-1" d="M1.57,17.27H3.14V15.7H1.57Z"/><path class="cls-1" d="M3.14,18.84H4.71V17.27H3.14Z"/><path class="cls-1" d="M4.71,20.41H6.28V18.84H4.71Z"/><path class="cls-1" d="M6.28,20.41H7.85V18.84H6.28Z"/><path class="cls-1" d="M7.85,22H9.42V20.41H7.85Z"/><path class="cls-1" d="M9.38,22H11V20.41H9.38Z"/><path class="cls-1" d="M11,22h1.57V20.41H11Z"/><path class="cls-1" d="M12.52,22H14.1V20.41H12.52Z"/><path class="cls-1" d="M14.1,20.41h1.57V18.84H14.1Z"/><path class="cls-1" d="M15.67,20.41h1.57V18.84H15.67Z"/><path class="cls-1" d="M17.24,18.84h1.57V17.27H17.24Z"/><path class="cls-1" d="M18.81,17.27h1.57V15.7H18.81Z"/><path class="cls-1" d="M18.81,15.7h1.57V14.13H18.81Z"/><path class="cls-1" d="M20.38,14.13H22V12.56H20.38Z"/><path class="cls-1" d="M20.38,12.56H22V11H20.38Z"/><path class="cls-1" d="M20.38,11H22V9.42H20.38Z"/><path class="cls-1" d="M20.38,9.42H22V7.85H20.38Z"/><path class="cls-1" d="M18.81,7.85h1.57V6.28H18.81Z"/><path class="cls-1" d="M18.81,6.28h1.57V4.71H18.81Z"/><path class="cls-1" d="M17.18,4.71h1.57V3.14H17.18Z"/><path class="cls-1" d="M9.44,1.57H11V0H9.44Z"/><path class="cls-1" d="M11,1.57h1.57V0H11Z"/><path class="cls-1" d="M12.58,1.57h1.57V0H12.58Z"/><path class="cls-1" d="M14,3.14h1.57V1.57H14Z"/><path class="cls-1" d="M15.61,3.14h1.57V1.57H15.61Z"/></g></g></svg>