<svg xmlns="http://www.w3.org/2000/svg" viewBox="0 0 141.14 70.13"><defs><style>.cls-1{fill:#8b8b8b;fill-rule:evenodd;}</style></defs><g id="图层_2" data-name="图层 2"><g id="图层_1-2" data-name="图层 1"><path class="cls-1" d="M140.25.44h0Z"/><path class="cls-1" d="M138.47.44h0Z"/><path class="cls-1" d="M136.7.44h0Z"/><path class="cls-1" d="M134,.44h0Z"/><path class="cls-1" d="M130.49.44h0Z"/><path class="cls-1" d="M125.16.44h0Z"/><path class="cls-1" d="M132.26,1.33h0Z"/><path class="cls-1" d="M128.71,1.33h0Z"/><path class="cls-1" d="M126.94,1.33h0Z"/><path class="cls-1" d="M123.39,1.33h0Z"/><path class="cls-1" d="M120.72,1.33h0Z"/><path class="cls-1" d="M137.59,2.22h0Z"/><path class="cls-1" d="M134.92,2.22h0Z"/><path class="cls-1" d="M118.06,2.22h0Z"/><path class="cls-1" d="M139.36,3.11h0Z"/><path class="cls-1" d="M133.15,3.11h0Z"/><path class="cls-1" d="M130.49,3.11h0Z"/><path class="cls-1" d="M126.05,3.11h0Z"/><path class="cls-1" d="M115.4,3.11h0Z"/><path class="cls-1" d="M112.73,3.11h0Z"/><path class="cls-1" d="M136.7,4h0Z"/><path class="cls-1" d="M134.92,4h0Z"/><path class="cls-1" d="M129.6,4h0Z"/><path class="cls-1" d="M127.82,4h0Z"/><path class="cls-1" d="M125.16,4h0Z"/><path class="cls-1" d="M122.5,4h0Z"/><path class="cls-1" d="M120.72,4h0Z"/><path class="cls-1" d="M109.18,4h0Z"/><path class="cls-1" d="M104.75,4h0Z"/><path class="cls-1" d="M101.19,4h0Z"/><path class="cls-1" d="M98.53,4h0Z"/><path class="cls-1" d="M138.47,4.88h0Z"/><path class="cls-1" d="M131.37,4.88h0Z"/><path class="cls-1" d="M117.17,4.88h0Z"/><path class="cls-1" d="M107.41,4.88h0Z"/><path class="cls-1" d="M139.36,5.77h0Z"/><path class="cls-1" d="M135.81,5.77h0Z"/><path class="cls-1" d="M133.15,5.77h0Z"/><path class="cls-1" d="M126.94,5.77h0Z"/><path class="cls-1" d="M124.27,5.77h0Z"/><path class="cls-1" d="M119,5.77h0Z"/><path class="cls-1" d="M111.85,5.77h0Z"/><path class="cls-1" d="M102.08,5.77h0Z"/><path class="cls-1" d="M95.87,5.77h0Z"/><path class="cls-1" d="M91.43,5.77h0Z"/><path class="cls-1" d="M137.59,6.66h0Z"/><path class="cls-1" d="M130.49,6.66h0Z"/><path class="cls-1" d="M128.71,6.66h0Z"/><path class="cls-1" d="M122.5,6.66h0Z"/><path class="cls-1" d="M120.72,6.66h0Z"/><path class="cls-1" d="M115.4,6.66h0Z"/><path class="cls-1" d="M104.75,6.66h0Z"/><path class="cls-1" d="M93.2,6.66h0Z"/><path class="cls-1" d="M88.77,6.66h0Z"/><path class="cls-1" d="M86.1,6.66h0Z"/><path class="cls-1" d="M139.36,7.55h0Z"/><path class="cls-1" d="M134.92,7.55h0Z"/><path class="cls-1" d="M132.26,7.55h0Z"/><path class="cls-1" d="M126.05,7.55h0Z"/><path class="cls-1" d="M124.27,7.55h0Z"/><path class="cls-1" d="M117.17,7.55h0Z"/><path class="cls-1" d="M110.07,7.55h0Z"/><path class="cls-1" d="M107.41,7.55h0Z"/><path class="cls-1" d="M98.53,7.55h0Z"/><path class="cls-1" d="M90.54,7.55h0Z"/><path class="cls-1" d="M85.21,7.55h0Z"/><path class="cls-1" d="M83.44,7.55h0Z"/><path class="cls-1" d="M81.67,7.55h0Z"/><path class="cls-1" d="M79.89,7.55h0Z"/><path class="cls-1" d="M136.7,8.43h0Z"/><path class="cls-1" d="M133.15,8.43h0Z"/><path class="cls-1" d="M128.71,8.43h0Z"/><path class="cls-1" d="M126.94,8.43h0Z"/><path class="cls-1" d="M122.5,8.43h0Z"/><path class="cls-1" d="M119,8.43h0Z"/><path class="cls-1" d="M112.73,8.43h0Z"/><path class="cls-1" d="M101.19,8.43h0Z"/><path class="cls-1" d="M95,8.43h0Z"/><path class="cls-1" d="M91.43,8.43h0Z"/><path class="cls-1" d="M87.88,8.43h0Z"/><path class="cls-1" d="M77.23,8.43h0Z"/><path class="cls-1" d="M139.36,9.32h0Z"/><path class="cls-1" d="M134.92,9.32h0Z"/><path class="cls-1" d="M131.37,9.32h0Z"/><path class="cls-1" d="M129.6,9.32h0Z"/><path class="cls-1" d="M125.16,9.32h0Z"/><path class="cls-1" d="M123.39,9.32h0Z"/><path class="cls-1" d="M120.72,9.32h0Z"/><path class="cls-1" d="M117.17,9.32h0Z"/><path class="cls-1" d="M115.4,9.32h0Z"/><path class="cls-1" d="M108.3,9.32h0Z"/><path class="cls-1" d="M105.63,9.32h0Z"/><path class="cls-1" d="M103.86,9.32h0Z"/><path class="cls-1" d="M93.2,9.32h0Z"/><path class="cls-1" d="M86.1,9.32h0Z"/><path class="cls-1" d="M83.44,9.32h0Z"/><path class="cls-1" d="M67.46,9.32h0Z"/><path class="cls-1" d="M65.69,9.32h0Z"/><path class="cls-1" d="M138.47,10.21h0Z"/><path class="cls-1" d="M136.7,10.21h0Z"/><path class="cls-1" d="M133.15,10.21h0Z"/><path class="cls-1" d="M128.71,10.21h0Z"/><path class="cls-1" d="M126.94,10.21h0Z"/><path class="cls-1" d="M122.5,10.21h0Z"/><path class="cls-1" d="M119.83,10.21h0Z"/><path class="cls-1" d="M113.62,10.21h0Z"/><path class="cls-1" d="M111,10.21h0Z"/><path class="cls-1" d="M107.41,10.21h0Z"/><path class="cls-1" d="M103,10.21h0Z"/><path class="cls-1" d="M101.19,10.21h0Z"/><path class="cls-1" d="M98.53,10.21h0Z"/><path class="cls-1" d="M96.76,10.21h0Z"/><path class="cls-1" d="M90.54,10.21h0Z"/><path class="cls-1" d="M88.77,10.21h0Z"/><path class="cls-1" d="M81.67,10.21h0Z"/><path class="cls-1" d="M79,10.21h0Z"/><path class="cls-1" d="M74.56,10.21h0Z"/><path class="cls-1" d="M63,10.21h0Z"/><path class="cls-1" d="M134.92,11.1h0Z"/><path class="cls-1" d="M130.49,11.1h0Z"/><path class="cls-1" d="M126.05,11.1h0Z"/><path class="cls-1" d="M124.27,11.1h0Z"/><path class="cls-1" d="M121.61,11.1h0Z"/><path class="cls-1" d="M119,11.1h0Z"/><path class="cls-1" d="M117.17,11.1h0Z"/><path class="cls-1" d="M115.4,11.1h0Z"/><path class="cls-1" d="M112.73,11.1h0Z"/><path class="cls-1" d="M109.18,11.1h0Z"/><path class="cls-1" d="M106.52,11.1h0Z"/><path class="cls-1" d="M104.75,11.1h0Z"/><path class="cls-1" d="M100.31,11.1h0Z"/><path class="cls-1" d="M92.32,11.1h0Z"/><path class="cls-1" d="M85.21,11.1h0Z"/><path class="cls-1" d="M83.44,11.1h0Z"/><path class="cls-1" d="M64.8,11.1h0Z"/><path class="cls-1" d="M139.36,12h0Z"/><path class="cls-1" d="M136.7,12h0Z"/><path class="cls-1" d="M133.15,12h0Z"/><path class="cls-1" d="M131.37,12h0Z"/><path class="cls-1" d="M128.71,12h0Z"/><path class="cls-1" d="M126.94,12h0Z"/><path class="cls-1" d="M122.5,12h0Z"/><path class="cls-1" d="M119.83,12h0Z"/><path class="cls-1" d="M118.06,12h0Z"/><path class="cls-1" d="M116.28,12h0Z"/><path class="cls-1" d="M113.62,12h0Z"/><path class="cls-1" d="M110.07,12h0Z"/><path class="cls-1" d="M105.63,12h0Z"/><path class="cls-1" d="M103,12h0Z"/><path class="cls-1" d="M101.19,12h0Z"/><path class="cls-1" d="M98.53,12h0Z"/><path class="cls-1" d="M94.09,12h0Z"/><path class="cls-1" d="M87,12h0Z"/><path class="cls-1" d="M79.89,12h0Z"/><path class="cls-1" d="M76.34,12h0Z"/><path class="cls-1" d="M71,12h0Z"/><path class="cls-1" d="M61.25,12h0Z"/><path class="cls-1" d="M137.59,12.87h0Z"/><path class="cls-1" d="M134,12.87h0Z"/><path class="cls-1" d="M129.6,12.87h0Z"/><path class="cls-1" d="M125.16,12.87h0Z"/><path class="cls-1" d="M123.39,12.87h0Z"/><path class="cls-1" d="M120.72,12.87h0Z"/><path class="cls-1" d="M117.17,12.87h0Z"/><path class="cls-1" d="M115.4,12.87h0Z"/><path class="cls-1" d="M112.73,12.87h0Z"/><path class="cls-1" d="M111,12.87h0Z"/><path class="cls-1" d="M107.41,12.87h0Z"/><path class="cls-1" d="M105.63,12.87h0Z"/><path class="cls-1" d="M103.86,12.87h0Z"/><path class="cls-1" d="M102.08,12.87h0Z"/><path class="cls-1" d="M100.31,12.87h0Z"/><path class="cls-1" d="M96.76,12.87h0Z"/><path class="cls-1" d="M90.54,12.87h0Z"/><path class="cls-1" d="M87.88,12.87h0Z"/><path class="cls-1" d="M85.21,12.87h0Z"/><path class="cls-1" d="M82.55,12.87h0Z"/><path class="cls-1" d="M68.35,12.87h0Z"/><path class="cls-1" d="M65.69,12.87h0Z"/><path class="cls-1" d="M135.81,13.76h0Z"/><path class="cls-1" d="M132.26,13.76h0Z"/><path class="cls-1" d="M127.82,13.76h0Z"/><path class="cls-1" d="M122.5,13.76h0Z"/><path class="cls-1" d="M119,13.76h0Z"/><path class="cls-1" d="M116.28,13.76h0Z"/><path class="cls-1" d="M114.51,13.76h0Z"/><path class="cls-1" d="M112.73,13.76h0Z"/><path class="cls-1" d="M111,13.76h0Z"/><path class="cls-1" d="M109.18,13.76h0Z"/><path class="cls-1" d="M107.41,13.76h0Z"/><path class="cls-1" d="M105.63,13.76h0Z"/><path class="cls-1" d="M103.86,13.76h0Z"/><path class="cls-1" d="M102.08,13.76h0Z"/><path class="cls-1" d="M100.31,13.76h0Z"/><path class="cls-1" d="M98.53,13.76h0Z"/><path class="cls-1" d="M95.87,13.76h0Z"/><path class="cls-1" d="M94.09,13.76h0Z"/><path class="cls-1" d="M92.32,13.76h0Z"/><path class="cls-1" d="M84.33,13.76h0Z"/><path class="cls-1" d="M80.78,13.76h0Z"/><path class="cls-1" d="M78.11,13.76h0Z"/><path class="cls-1" d="M74.56,13.76h0Z"/><path class="cls-1" d="M63.91,13.76h0Z"/><path class="cls-1" d="M59.47,13.76h0Z"/><path class="cls-1" d="M53.26,13.76h0Z"/><path class="cls-1" d="M140.25,14.65h0Z"/><path class="cls-1" d="M138.47,14.65h0Z"/><path class="cls-1" d="M131.37,14.65h0Z"/><path class="cls-1" d="M129.6,14.65h0Z"/><path class="cls-1" d="M126.05,14.65h0Z"/><path class="cls-1" d="M124.27,14.65h0Z"/><path class="cls-1" d="M120.72,14.65h0Z"/><path class="cls-1" d="M118.06,14.65h0Z"/><path class="cls-1" d="M116.28,14.65h0Z"/><path class="cls-1" d="M114.51,14.65h0Z"/><path class="cls-1" d="M112.73,14.65h0Z"/><path class="cls-1" d="M111,14.65h0Z"/><path class="cls-1" d="M109.18,14.65h0Z"/><path class="cls-1" d="M107.41,14.65h0Z"/><path class="cls-1" d="M105.63,14.65h0Z"/><path class="cls-1" d="M103.86,14.65h0Z"/><path class="cls-1" d="M102.08,14.65h0Z"/><path class="cls-1" d="M100.31,14.65h0Z"/><path class="cls-1" d="M98.53,14.65h0Z"/><path class="cls-1" d="M96.76,14.65h0Z"/><path class="cls-1" d="M90.54,14.65h0Z"/><path class="cls-1" d="M86.1,14.65h0Z"/><path class="cls-1" d="M82.55,14.65h0Z"/><path class="cls-1" d="M76.34,14.65h0Z"/><path class="cls-1" d="M71.9,14.65h0Z"/><path class="cls-1" d="M62.14,14.65h0Z"/><path class="cls-1" d="M56.81,14.65h0Z"/><path class="cls-1" d="M28.41,14.65h0Z"/><path class="cls-1" d="M26.63,14.65h0Z"/><path class="cls-1" d="M24.85,14.65h0Z"/><path class="cls-1" d="M135.81,15.53h0Z"/><path class="cls-1" d="M133.15,15.53h0Z"/><path class="cls-1" d="M126.94,15.53h0Z"/><path class="cls-1" d="M121.61,15.53h0Z"/><path class="cls-1" d="M119.83,15.53h0Z"/><path class="cls-1" d="M118.06,15.53h0Z"/><path class="cls-1" d="M116.28,15.53h0Z"/><path class="cls-1" d="M114.51,15.53h0Z"/><path class="cls-1" d="M112.73,15.53h0Z"/><path class="cls-1" d="M111,15.53h0Z"/><path class="cls-1" d="M108.3,15.53h0Z"/><path class="cls-1" d="M106.52,15.53h0Z"/><path class="cls-1" d="M104.75,15.53h0Z"/><path class="cls-1" d="M103,15.53h0Z"/><path class="cls-1" d="M101.19,15.53h0Z"/><path class="cls-1" d="M99.42,15.53h0Z"/><path class="cls-1" d="M97.64,15.53h0Z"/><path class="cls-1" d="M95.87,15.53h0Z"/><path class="cls-1" d="M94.09,15.53h0Z"/><path class="cls-1" d="M92.32,15.53h0Z"/><path class="cls-1" d="M87,15.53h0Z"/><path class="cls-1" d="M83.44,15.53h0Z"/><path class="cls-1" d="M79,15.53h0Z"/><path class="cls-1" d="M73.68,15.53h0Z"/><path class="cls-1" d="M70.13,15.53h0Z"/><path class="cls-1" d="M67.46,15.53h0Z"/><path class="cls-1" d="M64.8,15.53h0Z"/><path class="cls-1" d="M55,15.53h0Z"/><path class="cls-1" d="M49.71,15.53h0Z"/><path class="cls-1" d="M47.05,15.53h0Z"/><path class="cls-1" d="M44.38,15.53h0Z"/><path class="cls-1" d="M41.72,15.53h0Z"/><path class="cls-1" d="M39.06,15.53h0Z"/><path class="cls-1" d="M37.28,15.53h0Z"/><path class="cls-1" d="M34.62,15.53h0Z"/><path class="cls-1" d="M32.84,15.53h0Z"/><path class="cls-1" d="M31.07,15.53h0Z"/><path class="cls-1" d="M29.29,15.53h0Z"/><path class="cls-1" d="M22.19,15.53h0Z"/><path class="cls-1" d="M20.42,15.53h0Z"/><path class="cls-1" d="M17.75,15.53h0Z"/><path class="cls-1" d="M138.47,16.42h0Z"/><path class="cls-1" d="M134,16.42h0Z"/><path class="cls-1" d="M129.6,16.42h0Z"/><path class="cls-1" d="M125.16,16.42h0Z"/><path class="cls-1" d="M123.39,16.42h0Z"/><path class="cls-1" d="M119,16.42h0Z"/><path class="cls-1" d="M117.17,16.42h0Z"/><path class="cls-1" d="M115.4,16.42h0Z"/><path class="cls-1" d="M113.62,16.42h0Z"/><path class="cls-1" d="M111.85,16.42h0Z"/><path class="cls-1" d="M110.07,16.42h0Z"/><path class="cls-1" d="M108.3,16.42h0Z"/><path class="cls-1" d="M106.52,16.42h0Z"/><path class="cls-1" d="M104.75,16.42h0Z"/><path class="cls-1" d="M103,16.42h0Z"/><path class="cls-1" d="M101.19,16.42h0Z"/><path class="cls-1" d="M98.53,16.42h0Z"/><path class="cls-1" d="M96.76,16.42h0Z"/><path class="cls-1" d="M95,16.42h0Z"/><path class="cls-1" d="M93.2,16.42h0Z"/><path class="cls-1" d="M90.54,16.42h0Z"/><path class="cls-1" d="M88.77,16.42h0Z"/><path class="cls-1" d="M85.21,16.42h0Z"/><path class="cls-1" d="M81.67,16.42h0Z"/><path class="cls-1" d="M63,16.42h0Z"/><path class="cls-1" d="M60.36,16.42h0Z"/><path class="cls-1" d="M57.7,16.42h0Z"/><path class="cls-1" d="M52.37,16.42h0Z"/><path class="cls-1" d="M36.39,16.42h0Z"/><path class="cls-1" d="M26.63,16.42h0Z"/><path class="cls-1" d="M24,16.42h0Z"/><path class="cls-1" d="M16,16.42h0Z"/><path class="cls-1" d="M136.7,17.31h0Z"/><path class="cls-1" d="M131.37,17.31h0Z"/><path class="cls-1" d="M127.82,17.31h0Z"/><path class="cls-1" d="M122.5,17.31h0Z"/><path class="cls-1" d="M120.72,17.31h0Z"/><path class="cls-1" d="M118.06,17.31h0Z"/><path class="cls-1" d="M116.28,17.31h0Z"/><path class="cls-1" d="M114.51,17.31h0Z"/><path class="cls-1" d="M112.73,17.31h0Z"/><path class="cls-1" d="M111,17.31h0Z"/><path class="cls-1" d="M109.18,17.31h0Z"/><path class="cls-1" d="M107.41,17.31h0Z"/><path class="cls-1" d="M105.63,17.31h0Z"/><path class="cls-1" d="M103.86,17.31h0Z"/><path class="cls-1" d="M102.08,17.31h0Z"/><path class="cls-1" d="M100.31,17.31h0Z"/><path class="cls-1" d="M97.64,17.31h0Z"/><path class="cls-1" d="M95.87,17.31h0Z"/><path class="cls-1" d="M94.09,17.31h0Z"/><path class="cls-1" d="M92.32,17.31h0Z"/><path class="cls-1" d="M87,17.31h0Z"/><path class="cls-1" d="M84.33,17.31h0Z"/><path class="cls-1" d="M80.78,17.31h0Z"/><path class="cls-1" d="M78.11,17.31h0Z"/><path class="cls-1" d="M76.34,17.31h0Z"/><path class="cls-1" d="M72.79,17.31h0Z"/><path class="cls-1" d="M62.14,17.31h0Z"/><path class="cls-1" d="M48.82,17.31h0Z"/><path class="cls-1" d="M46.16,17.31h0Z"/><path class="cls-1" d="M35.51,17.31h0Z"/><path class="cls-1" d="M32.84,17.31h0Z"/><path class="cls-1" d="M30.18,17.31h0Z"/><path class="cls-1" d="M23.08,17.31h0Z"/><path class="cls-1" d="M21.3,17.31h0Z"/><path class="cls-1" d="M14.2,17.31h0Z"/><path class="cls-1" d="M138.47,18.2h0Z"/><path class="cls-1" d="M133.15,18.2h0Z"/><path class="cls-1" d="M129.6,18.2h0Z"/><path class="cls-1" d="M126.05,18.2h0Z"/><path class="cls-1" d="M124.27,18.2h0Z"/><path class="cls-1" d="M119,18.2h0Z"/><path class="cls-1" d="M117.17,18.2h0Z"/><path class="cls-1" d="M114.51,18.2h0Z"/><path class="cls-1" d="M112.73,18.2h0Z"/><path class="cls-1" d="M111,18.2h0Z"/><path class="cls-1" d="M109.18,18.2h0Z"/><path class="cls-1" d="M107.41,18.2h0Z"/><path class="cls-1" d="M105.63,18.2h0Z"/><path class="cls-1" d="M103.86,18.2h0Z"/><path class="cls-1" d="M102.08,18.2h0Z"/><path class="cls-1" d="M100.31,18.2h0Z"/><path class="cls-1" d="M98.53,18.2h0Z"/><path class="cls-1" d="M96.76,18.2h0Z"/><path class="cls-1" d="M95,18.2h0Z"/><path class="cls-1" d="M89.65,18.2h0Z"/><path class="cls-1" d="M87.88,18.2h0Z"/><path class="cls-1" d="M86.1,18.2h0Z"/><path class="cls-1" d="M84.33,18.2h0Z"/><path class="cls-1" d="M82.55,18.2h0Z"/><path class="cls-1" d="M74.56,18.2h0Z"/><path class="cls-1" d="M70.13,18.2h0Z"/><path class="cls-1" d="M67.46,18.2h0Z"/><path class="cls-1" d="M64.8,18.2h0Z"/><path class="cls-1" d="M61.25,18.2h0Z"/><path class="cls-1" d="M59.47,18.2h0Z"/><path class="cls-1" d="M57.7,18.2h0Z"/><path class="cls-1" d="M55,18.2h0Z"/><path class="cls-1" d="M53.26,18.2h0Z"/><path class="cls-1" d="M50.6,18.2h0Z"/><path class="cls-1" d="M47.93,18.2h0Z"/><path class="cls-1" d="M44.38,18.2h0Z"/><path class="cls-1" d="M41.72,18.2h0Z"/><path class="cls-1" d="M37.28,18.2h0Z"/><path class="cls-1" d="M34.62,18.2h0Z"/><path class="cls-1" d="M28.41,18.2h0Z"/><path class="cls-1" d="M24,18.2h0Z"/><path class="cls-1" d="M18.64,18.2h0Z"/><path class="cls-1" d="M10.65,18.2h0Z"/><path class="cls-1" d="M7.1,18.2h0Z"/><path class="cls-1" d="M134.92,19.08h0Z"/><path class="cls-1" d="M131.37,19.08h0Z"/><path class="cls-1" d="M126.94,19.08h0Z"/><path class="cls-1" d="M121.61,19.08h0Z"/><path class="cls-1" d="M119.83,19.08h0Z"/><path class="cls-1" d="M118.06,19.08h0Z"/><path class="cls-1" d="M115.4,19.08h0Z"/><path class="cls-1" d="M113.62,19.08h0Z"/><path class="cls-1" d="M111.85,19.08h0Z"/><path class="cls-1" d="M110.07,19.08h0Z"/><path class="cls-1" d="M108.3,19.08h0Z"/><path class="cls-1" d="M106.52,19.08h0Z"/><path class="cls-1" d="M104.75,19.08h0Z"/><path class="cls-1" d="M103,19.08h0Z"/><path class="cls-1" d="M101.19,19.08h0Z"/><path class="cls-1" d="M99.42,19.08h0Z"/><path class="cls-1" d="M97.64,19.08h0Z"/><path class="cls-1" d="M95,19.08h0Z"/><path class="cls-1" d="M93.2,19.08h0Z"/><path class="cls-1" d="M91.43,19.08h0Z"/><path class="cls-1" d="M89.65,19.08h0Z"/><path class="cls-1" d="M87.88,19.08h0Z"/><path class="cls-1" d="M85.21,19.08h0Z"/><path class="cls-1" d="M83.44,19.08h0Z"/><path class="cls-1" d="M79.89,19.08h0Z"/><path class="cls-1" d="M77.23,19.08h0Z"/><path class="cls-1" d="M71.9,19.08h0Z"/><path class="cls-1" d="M63,19.08h0Z"/><path class="cls-1" d="M51.48,19.08h0Z"/><path class="cls-1" d="M32,19.08h0Z"/><path class="cls-1" d="M26.63,19.08h0Z"/><path class="cls-1" d="M24,19.08h0Z"/><path class="cls-1" d="M22.19,19.08h0Z"/><path class="cls-1" d="M20.42,19.08h0Z"/><path class="cls-1" d="M16.87,19.08h0Z"/><path class="cls-1" d="M4.44,19.08h0Z"/><path class="cls-1" d="M139.36,20h0Z"/><path class="cls-1" d="M136.7,20h0Z"/><path class="cls-1" d="M133.15,20h0Z"/><path class="cls-1" d="M129.6,20h0Z"/><path class="cls-1" d="M127.82,20h0Z"/><path class="cls-1" d="M125.16,20h0Z"/><path class="cls-1" d="M123.39,20h0Z"/><path class="cls-1" d="M120.72,20h0Z"/><path class="cls-1" d="M116.28,20h0Z"/><path class="cls-1" d="M114.51,20h0Z"/><path class="cls-1" d="M112.73,20h0Z"/><path class="cls-1" d="M111,20h0Z"/><path class="cls-1" d="M109.18,20h0Z"/><path class="cls-1" d="M107.41,20h0Z"/><path class="cls-1" d="M105.63,20h0Z"/><path class="cls-1" d="M103.86,20h0Z"/><path class="cls-1" d="M102.08,20h0Z"/><path class="cls-1" d="M100.31,20h0Z"/><path class="cls-1" d="M96.76,20h0Z"/><path class="cls-1" d="M94.09,20h0Z"/><path class="cls-1" d="M87,20h0Z"/><path class="cls-1" d="M84.33,20h0Z"/><path class="cls-1" d="M81.67,20h0Z"/><path class="cls-1" d="M75.45,20h0Z"/><path class="cls-1" d="M70.13,20h0Z"/><path class="cls-1" d="M61.25,20h0Z"/><path class="cls-1" d="M59.47,20h0Z"/><path class="cls-1" d="M57.7,20h0Z"/><path class="cls-1" d="M55.92,20h0Z"/><path class="cls-1" d="M54.15,20h0Z"/><path class="cls-1" d="M52.37,20h0Z"/><path class="cls-1" d="M49.71,20h0Z"/><path class="cls-1" d="M47.93,20h0Z"/><path class="cls-1" d="M36.39,20h0Z"/><path class="cls-1" d="M34.62,20h0Z"/><path class="cls-1" d="M30.18,20h0Z"/><path class="cls-1" d="M23.08,20h0Z"/><path class="cls-1" d="M21.3,20h0Z"/><path class="cls-1" d="M18.64,20h0Z"/><path class="cls-1" d="M15.09,20h0Z"/><path class="cls-1" d="M13.31,20h0Z"/><path class="cls-1" d="M11.54,20h0Z"/><path class="cls-1" d="M2.66,20h0Z"/><path class="cls-1" d="M134.92,20.86h0Z"/><path class="cls-1" d="M131.37,20.86h0Z"/><path class="cls-1" d="M126.94,20.86h0Z"/><path class="cls-1" d="M122.5,20.86h0Z"/><path class="cls-1" d="M119.83,20.86h0Z"/><path class="cls-1" d="M118.06,20.86h0Z"/><path class="cls-1" d="M115.4,20.86h0Z"/><path class="cls-1" d="M113.62,20.86h0Z"/><path class="cls-1" d="M111.85,20.86h0Z"/><path class="cls-1" d="M110.07,20.86h0Z"/><path class="cls-1" d="M108.3,20.86h0Z"/><path class="cls-1" d="M106.52,20.86h0Z"/><path class="cls-1" d="M104.75,20.86h0Z"/><path class="cls-1" d="M103,20.86h0Z"/><path class="cls-1" d="M101.19,20.86h0Z"/><path class="cls-1" d="M98.53,20.86h0Z"/><path class="cls-1" d="M95.87,20.86h0Z"/><path class="cls-1" d="M93.2,20.86h0Z"/><path class="cls-1" d="M90.54,20.86h0Z"/><path class="cls-1" d="M88.77,20.86h0Z"/><path class="cls-1" d="M85.21,20.86h0Z"/><path class="cls-1" d="M83.44,20.86h0Z"/><path class="cls-1" d="M79.89,20.86h0Z"/><path class="cls-1" d="M73.68,20.86h0Z"/><path class="cls-1" d="M68.35,20.86h0Z"/><path class="cls-1" d="M65.69,20.86h0Z"/><path class="cls-1" d="M59.47,20.86h0Z"/><path class="cls-1" d="M57.7,20.86h0Z"/><path class="cls-1" d="M53.26,20.86h0Z"/><path class="cls-1" d="M51.48,20.86h0Z"/><path class="cls-1" d="M49.71,20.86h0Z"/><path class="cls-1" d="M46.16,20.86h0Z"/><path class="cls-1" d="M33.73,20.86h0Z"/><path class="cls-1" d="M32,20.86h0Z"/><path class="cls-1" d="M29.29,20.86h0Z"/><path class="cls-1" d="M27.52,20.86h0Z"/><path class="cls-1" d="M25.74,20.86h0Z"/><path class="cls-1" d="M22.19,20.86h0Z"/><path class="cls-1" d="M20.42,20.86h0Z"/><path class="cls-1" d="M18.64,20.86h0Z"/><path class="cls-1" d="M16.87,20.86h0Z"/><path class="cls-1" d="M12.43,20.86h0Z"/><path class="cls-1" d="M9.76,20.86h0Z"/><path class="cls-1" d="M.89,20.86h0Z"/><path class="cls-1" d="M137.59,21.75h0Z"/><path class="cls-1" d="M128.71,21.75h0Z"/><path class="cls-1" d="M126.05,21.75h0Z"/><path class="cls-1" d="M124.27,21.75h0Z"/><path class="cls-1" d="M121.61,21.75h0Z"/><path class="cls-1" d="M119,21.75h0Z"/><path class="cls-1" d="M116.28,21.75h0Z"/><path class="cls-1" d="M114.51,21.75h0Z"/><path class="cls-1" d="M112.73,21.75h0Z"/><path class="cls-1" d="M111,21.75h0Z"/><path class="cls-1" d="M109.18,21.75h0Z"/><path class="cls-1" d="M107.41,21.75h0Z"/><path class="cls-1" d="M105.63,21.75h0Z"/><path class="cls-1" d="M103.86,21.75h0Z"/><path class="cls-1" d="M101.19,21.75h0Z"/><path class="cls-1" d="M99.42,21.75h0Z"/><path class="cls-1" d="M97.64,21.75h0Z"/><path class="cls-1" d="M95,21.75h0Z"/><path class="cls-1" d="M92.32,21.75h0Z"/><path class="cls-1" d="M86.1,21.75h0Z"/><path class="cls-1" d="M83.44,21.75h0Z"/><path class="cls-1" d="M81.67,21.75h0Z"/><path class="cls-1" d="M77.23,21.75h0Z"/><path class="cls-1" d="M72.79,21.75h0Z"/><path class="cls-1" d="M70.13,21.75h0Z"/><path class="cls-1" d="M63.91,21.75h0Z"/><path class="cls-1" d="M61.25,21.75h0Z"/><path class="cls-1" d="M54.15,21.75h0Z"/><path class="cls-1" d="M52.37,21.75h0Z"/><path class="cls-1" d="M50.6,21.75h0Z"/><path class="cls-1" d="M47.93,21.75h0Z"/><path class="cls-1" d="M41.72,21.75h0Z"/><path class="cls-1" d="M34.62,21.75h0Z"/><path class="cls-1" d="M32.84,21.75h0Z"/><path class="cls-1" d="M30.18,21.75h0Z"/><path class="cls-1" d="M28.41,21.75h0Z"/><path class="cls-1" d="M26.63,21.75h0Z"/><path class="cls-1" d="M24.85,21.75h0Z"/><path class="cls-1" d="M23.08,21.75h0Z"/><path class="cls-1" d="M19.53,21.75h0Z"/><path class="cls-1" d="M17.75,21.75h0Z"/><path class="cls-1" d="M13.31,21.75h0Z"/><path class="cls-1" d="M11.54,21.75h0Z"/><path class="cls-1" d="M7.1,21.75h0Z"/><path class="cls-1" d="M0,21.75H0Z"/><path class="cls-1" d="M138.47,22.64h0Z"/><path class="cls-1" d="M135.81,22.64h0Z"/><path class="cls-1" d="M133.15,22.64h0Z"/><path class="cls-1" d="M130.49,22.64h0Z"/><path class="cls-1" d="M126.94,22.64h0Z"/><path class="cls-1" d="M122.5,22.64h0Z"/><path class="cls-1" d="M119.83,22.64h0Z"/><path class="cls-1" d="M117.17,22.64h0Z"/><path class="cls-1" d="M115.4,22.64h0Z"/><path class="cls-1" d="M113.62,22.64h0Z"/><path class="cls-1" d="M111.85,22.64h0Z"/><path class="cls-1" d="M110.07,22.64h0Z"/><path class="cls-1" d="M108.3,22.64h0Z"/><path class="cls-1" d="M105.63,22.64h0Z"/><path class="cls-1" d="M103.86,22.64h0Z"/><path class="cls-1" d="M102.08,22.64h0Z"/><path class="cls-1" d="M100.31,22.64h0Z"/><path class="cls-1" d="M98.53,22.64h0Z"/><path class="cls-1" d="M95.87,22.64h0Z"/><path class="cls-1" d="M87,22.64h0Z"/><path class="cls-1" d="M84.33,22.64h0Z"/><path class="cls-1" d="M82.55,22.64h0Z"/><path class="cls-1" d="M79,22.64h0Z"/><path class="cls-1" d="M75.45,22.64h0Z"/><path class="cls-1" d="M66.57,22.64h0Z"/><path class="cls-1" d="M56.81,22.64h0Z"/><path class="cls-1" d="M55,22.64h0Z"/><path class="cls-1" d="M50.6,22.64h0Z"/><path class="cls-1" d="M48.82,22.64h0Z"/><path class="cls-1" d="M42.61,22.64h0Z"/><path class="cls-1" d="M35.51,22.64h0Z"/><path class="cls-1" d="M33.73,22.64h0Z"/><path class="cls-1" d="M31.07,22.64h0Z"/><path class="cls-1" d="M27.52,22.64h0Z"/><path class="cls-1" d="M21.3,22.64h0Z"/><path class="cls-1" d="M18.64,22.64h0Z"/><path class="cls-1" d="M16,22.64h0Z"/><path class="cls-1" d="M14.2,22.64h0Z"/><path class="cls-1" d="M9.76,22.64h0Z"/><path class="cls-1" d="M8,22.64H8Z"/><path class="cls-1" d="M4.44,22.64h0Z"/><path class="cls-1" d="M1.78,22.64h0Z"/><path class="cls-1" d="M139.36,23.52h0Z"/><path class="cls-1" d="M134,23.52h0Z"/><path class="cls-1" d="M131.37,23.52h0Z"/><path class="cls-1" d="M128.71,23.52h0Z"/><path class="cls-1" d="M125.16,23.52h0Z"/><path class="cls-1" d="M123.39,23.52h0Z"/><path class="cls-1" d="M120.72,23.52h0Z"/><path class="cls-1" d="M118.06,23.52h0Z"/><path class="cls-1" d="M114.51,23.52h0Z"/><path class="cls-1" d="M112.73,23.52h0Z"/><path class="cls-1" d="M109.18,23.52h0Z"/><path class="cls-1" d="M107.41,23.52h0Z"/><path class="cls-1" d="M104.75,23.52h0Z"/><path class="cls-1" d="M103,23.52h0Z"/><path class="cls-1" d="M101.19,23.52h0Z"/><path class="cls-1" d="M96.76,23.52h0Z"/><path class="cls-1" d="M94.09,23.52h0Z"/><path class="cls-1" d="M90.54,23.52h0Z"/><path class="cls-1" d="M88.77,23.52h0Z"/><path class="cls-1" d="M85.21,23.52h0Z"/><path class="cls-1" d="M83.44,23.52h0Z"/><path class="cls-1" d="M81.67,23.52h0Z"/><path class="cls-1" d="M77.23,23.52h0Z"/><path class="cls-1" d="M71.9,23.52h0Z"/><path class="cls-1" d="M69.24,23.52h0Z"/><path class="cls-1" d="M67.46,23.52h0Z"/><path class="cls-1" d="M53.26,23.52h0Z"/><path class="cls-1" d="M51.48,23.52h0Z"/><path class="cls-1" d="M49.71,23.52h0Z"/><path class="cls-1" d="M43.5,23.52h0Z"/><path class="cls-1" d="M37.28,23.52h0Z"/><path class="cls-1" d="M32,23.52h0Z"/><path class="cls-1" d="M29.29,23.52h0Z"/><path class="cls-1" d="M24.85,23.52h0Z"/><path class="cls-1" d="M16.87,23.52h0Z"/><path class="cls-1" d="M12.43,23.52h0Z"/><path class="cls-1" d="M10.65,23.52h0Z"/><path class="cls-1" d="M8.88,23.52h0Z"/><path class="cls-1" d="M5.33,23.52h0Z"/><path class="cls-1" d="M2.66,23.52h0Z"/><path class="cls-1" d="M.89,23.52h0Z"/><path class="cls-1" d="M137.59,24.41h0Z"/><path class="cls-1" d="M135.81,24.41h0Z"/><path class="cls-1" d="M130.49,24.41h0Z"/><path class="cls-1" d="M127.82,24.41h0Z"/><path class="cls-1" d="M122.5,24.41h0Z"/><path class="cls-1" d="M119.83,24.41h0Z"/><path class="cls-1" d="M116.28,24.41h0Z"/><path class="cls-1" d="M113.62,24.41h0Z"/><path class="cls-1" d="M111,24.41h0Z"/><path class="cls-1" d="M108.3,24.41h0Z"/><path class="cls-1" d="M106.52,24.41h0Z"/><path class="cls-1" d="M104.75,24.41h0Z"/><path class="cls-1" d="M102.08,24.41h0Z"/><path class="cls-1" d="M100.31,24.41h0Z"/><path class="cls-1" d="M95.87,24.41h0Z"/><path class="cls-1" d="M92.32,24.41h0Z"/><path class="cls-1" d="M87,24.41h0Z"/><path class="cls-1" d="M84.33,24.41h0Z"/><path class="cls-1" d="M82.55,24.41h0Z"/><path class="cls-1" d="M80.78,24.41h0Z"/><path class="cls-1" d="M75.45,24.41h0Z"/><path class="cls-1" d="M73.68,24.41h0Z"/><path class="cls-1" d="M65.69,24.41h0Z"/><path class="cls-1" d="M62.14,24.41h0Z"/><path class="cls-1" d="M55.92,24.41h0Z"/><path class="cls-1" d="M50.6,24.41h0Z"/><path class="cls-1" d="M43.5,24.41h0Z"/><path class="cls-1" d="M39.94,24.41h0Z"/><path class="cls-1" d="M35.51,24.41h0Z"/><path class="cls-1" d="M33.73,24.41h0Z"/><path class="cls-1" d="M27.52,24.41h0Z"/><path class="cls-1" d="M24,24.41h0Z"/><path class="cls-1" d="M22.19,24.41h0Z"/><path class="cls-1" d="M20.42,24.41h0Z"/><path class="cls-1" d="M16,24.41h0Z"/><path class="cls-1" d="M8,24.41H8Z"/><path class="cls-1" d="M6.21,24.41h0Z"/><path class="cls-1" d="M4.44,24.41h0Z"/><path class="cls-1" d="M2.66,24.41h0Z"/><path class="cls-1" d="M140.25,25.3h0Z"/><path class="cls-1" d="M138.47,25.3h0Z"/><path class="cls-1" d="M134,25.3h0Z"/><path class="cls-1" d="M132.26,25.3h0Z"/><path class="cls-1" d="M129.6,25.3h0Z"/><path class="cls-1" d="M126.94,25.3h0Z"/><path class="cls-1" d="M125.16,25.3h0Z"/><path class="cls-1" d="M123.39,25.3h0Z"/><path class="cls-1" d="M120.72,25.3h0Z"/><path class="cls-1" d="M118.06,25.3h0Z"/><path class="cls-1" d="M115.4,25.3h0Z"/><path class="cls-1" d="M113.62,25.3h0Z"/><path class="cls-1" d="M111.85,25.3h0Z"/><path class="cls-1" d="M109.18,25.3h0Z"/><path class="cls-1" d="M107.41,25.3h0Z"/><path class="cls-1" d="M105.63,25.3h0Z"/><path class="cls-1" d="M103,25.3h0Z"/><path class="cls-1" d="M101.19,25.3h0Z"/><path class="cls-1" d="M98.53,25.3h0Z"/><path class="cls-1" d="M89.65,25.3h0Z"/><path class="cls-1" d="M85.21,25.3h0Z"/><path class="cls-1" d="M83.44,25.3h0Z"/><path class="cls-1" d="M81.67,25.3h0Z"/><path class="cls-1" d="M79,25.3h0Z"/><path class="cls-1" d="M77.23,25.3h0Z"/><path class="cls-1" d="M72.79,25.3h0Z"/><path class="cls-1" d="M70.13,25.3h0Z"/><path class="cls-1" d="M67.46,25.3h0Z"/><path class="cls-1" d="M64.8,25.3h0Z"/><path class="cls-1" d="M59.47,25.3h0Z"/><path class="cls-1" d="M54.15,25.3h0Z"/><path class="cls-1" d="M52.37,25.3h0Z"/><path class="cls-1" d="M49.71,25.3h0Z"/><path class="cls-1" d="M47.93,25.3h0Z"/><path class="cls-1" d="M44.38,25.3h0Z"/><path class="cls-1" d="M41.72,25.3h0Z"/><path class="cls-1" d="M30.18,25.3h0Z"/><path class="cls-1" d="M13.31,25.3h0Z"/><path class="cls-1" d="M3.55,25.3h0Z"/><path class="cls-1" d="M139.36,26.19h0Z"/><path class="cls-1" d="M136.7,26.19h0Z"/><path class="cls-1" d="M134.92,26.19h0Z"/><path class="cls-1" d="M133.15,26.19h0Z"/><path class="cls-1" d="M130.49,26.19h0Z"/><path class="cls-1" d="M127.82,26.19h0Z"/><path class="cls-1" d="M126.05,26.19h0Z"/><path class="cls-1" d="M124.27,26.19h0Z"/><path class="cls-1" d="M121.61,26.19h0Z"/><path class="cls-1" d="M119,26.19h0Z"/><path class="cls-1" d="M110.07,26.19h0Z"/><path class="cls-1" d="M106.52,26.19h0Z"/><path class="cls-1" d="M103.86,26.19h0Z"/><path class="cls-1" d="M101.19,26.19h0Z"/><path class="cls-1" d="M99.42,26.19h0Z"/><path class="cls-1" d="M95.87,26.19h0Z"/><path class="cls-1" d="M94.09,26.19h0Z"/><path class="cls-1" d="M87.88,26.19h0Z"/><path class="cls-1" d="M86.1,26.19h0Z"/><path class="cls-1" d="M83.44,26.19h0Z"/><path class="cls-1" d="M81.67,26.19h0Z"/><path class="cls-1" d="M79.89,26.19h0Z"/><path class="cls-1" d="M74.56,26.19h0Z"/><path class="cls-1" d="M71,26.19h0Z"/><path class="cls-1" d="M68.35,26.19h0Z"/><path class="cls-1" d="M65.69,26.19h0Z"/><path class="cls-1" d="M50.6,26.19h0Z"/><path class="cls-1" d="M46.16,26.19h0Z"/><path class="cls-1" d="M44.38,26.19h0Z"/><path class="cls-1" d="M42.61,26.19h0Z"/><path class="cls-1" d="M35.51,26.19h0Z"/><path class="cls-1" d="M33.73,26.19h0Z"/><path class="cls-1" d="M137.59,27.07h0Z"/><path class="cls-1" d="M135.81,27.07h0Z"/><path class="cls-1" d="M134,27.07h0Z"/><path class="cls-1" d="M132.26,27.07h0Z"/><path class="cls-1" d="M130.49,27.07h0Z"/><path class="cls-1" d="M128.71,27.07h0Z"/><path class="cls-1" d="M126.94,27.07h0Z"/><path class="cls-1" d="M125.16,27.07h0Z"/><path class="cls-1" d="M123.39,27.07h0Z"/><path class="cls-1" d="M119.83,27.07h0Z"/><path class="cls-1" d="M118.06,27.07h0Z"/><path class="cls-1" d="M116.28,27.07h0Z"/><path class="cls-1" d="M112.73,27.07h0Z"/><path class="cls-1" d="M109.18,27.07h0Z"/><path class="cls-1" d="M107.41,27.07h0Z"/><path class="cls-1" d="M104.75,27.07h0Z"/><path class="cls-1" d="M102.08,27.07h0Z"/><path class="cls-1" d="M96.76,27.07h0Z"/><path class="cls-1" d="M92.32,27.07h0Z"/><path class="cls-1" d="M90.54,27.07h0Z"/><path class="cls-1" d="M84.33,27.07h0Z"/><path class="cls-1" d="M82.55,27.07h0Z"/><path class="cls-1" d="M80.78,27.07h0Z"/><path class="cls-1" d="M78.11,27.07h0Z"/><path class="cls-1" d="M76.34,27.07h0Z"/><path class="cls-1" d="M72.79,27.07h0Z"/><path class="cls-1" d="M69.24,27.07h0Z"/><path class="cls-1" d="M67.46,27.07h0Z"/><path class="cls-1" d="M63.91,27.07h0Z"/><path class="cls-1" d="M53.26,27.07h0Z"/><path class="cls-1" d="M45.27,27.07h0Z"/><path class="cls-1" d="M43.5,27.07h0Z"/><path class="cls-1" d="M40.83,27.07h0Z"/><path class="cls-1" d="M38.17,27.07h0Z"/><path class="cls-1" d="M140.25,28h0Z"/><path class="cls-1" d="M137.59,28h0Z"/><path class="cls-1" d="M135.81,28h0Z"/><path class="cls-1" d="M134,28h0Z"/><path class="cls-1" d="M132.26,28h0Z"/><path class="cls-1" d="M130.49,28h0Z"/><path class="cls-1" d="M128.71,28h0Z"/><path class="cls-1" d="M126.94,28h0Z"/><path class="cls-1" d="M124.27,28h0Z"/><path class="cls-1" d="M122.5,28h0Z"/><path class="cls-1" d="M119,28h0Z"/><path class="cls-1" d="M117.17,28h0Z"/><path class="cls-1" d="M114.51,28h0Z"/><path class="cls-1" d="M111,28h0Z"/><path class="cls-1" d="M108.3,28h0Z"/><path class="cls-1" d="M106.52,28h0Z"/><path class="cls-1" d="M103.86,28h0Z"/><path class="cls-1" d="M101.19,28h0Z"/><path class="cls-1" d="M99.42,28h0Z"/><path class="cls-1" d="M95,28h0Z"/><path class="cls-1" d="M88.77,28h0Z"/><path class="cls-1" d="M86.1,28h0Z"/><path class="cls-1" d="M81.67,28h0Z"/><path class="cls-1" d="M79.89,28h0Z"/><path class="cls-1" d="M75.45,28h0Z"/><path class="cls-1" d="M71,28h0Z"/><path class="cls-1" d="M68.35,28h0Z"/><path class="cls-1" d="M65.69,28h0Z"/><path class="cls-1" d="M62.14,28h0Z"/><path class="cls-1" d="M57.7,28h0Z"/><path class="cls-1" d="M51.48,28h0Z"/><path class="cls-1" d="M49.71,28h0Z"/><path class="cls-1" d="M47.05,28h0Z"/><path class="cls-1" d="M44.38,28h0Z"/><path class="cls-1" d="M41.72,28h0Z"/><path class="cls-1" d="M39.06,28h0Z"/><path class="cls-1" d="M138.47,28.85h0Z"/><path class="cls-1" d="M136.7,28.85h0Z"/><path class="cls-1" d="M134.92,28.85h0Z"/><path class="cls-1" d="M133.15,28.85h0Z"/><path class="cls-1" d="M131.37,28.85h0Z"/><path class="cls-1" d="M129.6,28.85h0Z"/><path class="cls-1" d="M127.82,28.85h0Z"/><path class="cls-1" d="M126.05,28.85h0Z"/><path class="cls-1" d="M123.39,28.85h0Z"/><path class="cls-1" d="M120.72,28.85h0Z"/><path class="cls-1" d="M118.06,28.85h0Z"/><path class="cls-1" d="M116.28,28.85h0Z"/><path class="cls-1" d="M112.73,28.85h0Z"/><path class="cls-1" d="M111,28.85h0Z"/><path class="cls-1" d="M109.18,28.85h0Z"/><path class="cls-1" d="M104.75,28.85h0Z"/><path class="cls-1" d="M102.08,28.85h0Z"/><path class="cls-1" d="M98.53,28.85h0Z"/><path class="cls-1" d="M96.76,28.85h0Z"/><path class="cls-1" d="M94.09,28.85h0Z"/><path class="cls-1" d="M91.43,28.85h0Z"/><path class="cls-1" d="M87.88,28.85h0Z"/><path class="cls-1" d="M84.33,28.85h0Z"/><path class="cls-1" d="M82.55,28.85h0Z"/><path class="cls-1" d="M80.78,28.85h0Z"/><path class="cls-1" d="M79,28.85h0Z"/><path class="cls-1" d="M77.23,28.85h0Z"/><path class="cls-1" d="M74.56,28.85h0Z"/><path class="cls-1" d="M72.79,28.85h0Z"/><path class="cls-1" d="M69.24,28.85h0Z"/><path class="cls-1" d="M67.46,28.85h0Z"/><path class="cls-1" d="M65.69,28.85h0Z"/><path class="cls-1" d="M63.91,28.85h0Z"/><path class="cls-1" d="M60.36,28.85h0Z"/><path class="cls-1" d="M51.48,28.85h0Z"/><path class="cls-1" d="M47.93,28.85h0Z"/><path class="cls-1" d="M46.16,28.85h0Z"/><path class="cls-1" d="M43.5,28.85h0Z"/><path class="cls-1" d="M39.94,28.85h0Z"/><path class="cls-1" d="M139.36,29.74h0Z"/><path class="cls-1" d="M136.7,29.74h0Z"/><path class="cls-1" d="M134.92,29.74h0Z"/><path class="cls-1" d="M133.15,29.74h0Z"/><path class="cls-1" d="M131.37,29.74h0Z"/><path class="cls-1" d="M129.6,29.74h0Z"/><path class="cls-1" d="M127.82,29.74h0Z"/><path class="cls-1" d="M126.05,29.74h0Z"/><path class="cls-1" d="M123.39,29.74h0Z"/><path class="cls-1" d="M121.61,29.74h0Z"/><path class="cls-1" d="M119,29.74h0Z"/><path class="cls-1" d="M117.17,29.74h0Z"/><path class="cls-1" d="M113.62,29.74h0Z"/><path class="cls-1" d="M107.41,29.74h0Z"/><path class="cls-1" d="M105.63,29.74h0Z"/><path class="cls-1" d="M103,29.74h0Z"/><path class="cls-1" d="M101.19,29.74h0Z"/><path class="cls-1" d="M99.42,29.74h0Z"/><path class="cls-1" d="M89.65,29.74h0Z"/><path class="cls-1" d="M86.1,29.74h0Z"/><path class="cls-1" d="M79.89,29.74h0Z"/><path class="cls-1" d="M78.11,29.74h0Z"/><path class="cls-1" d="M75.45,29.74h0Z"/><path class="cls-1" d="M70.13,29.74h0Z"/><path class="cls-1" d="M68.35,29.74h0Z"/><path class="cls-1" d="M66.57,29.74h0Z"/><path class="cls-1" d="M64.8,29.74h0Z"/><path class="cls-1" d="M62.14,29.74h0Z"/><path class="cls-1" d="M52.37,29.74h0Z"/><path class="cls-1" d="M48.82,29.74h0Z"/><path class="cls-1" d="M41.72,29.74h0Z"/><path class="cls-1" d="M140.25,30.62h0Z"/><path class="cls-1" d="M137.59,30.62h0Z"/><path class="cls-1" d="M135.81,30.62h0Z"/><path class="cls-1" d="M134,30.62h0Z"/><path class="cls-1" d="M132.26,30.62h0Z"/><path class="cls-1" d="M130.49,30.62h0Z"/><path class="cls-1" d="M128.71,30.62h0Z"/><path class="cls-1" d="M126.94,30.62h0Z"/><path class="cls-1" d="M125.16,30.62h0Z"/><path class="cls-1" d="M122.5,30.62h0Z"/><path class="cls-1" d="M115.4,30.62h0Z"/><path class="cls-1" d="M111.85,30.62h0Z"/><path class="cls-1" d="M110.07,30.62h0Z"/><path class="cls-1" d="M108.3,30.62h0Z"/><path class="cls-1" d="M103.86,30.62h0Z"/><path class="cls-1" d="M97.64,30.62h0Z"/><path class="cls-1" d="M95,30.62h0Z"/><path class="cls-1" d="M93.2,30.62h0Z"/><path class="cls-1" d="M87.88,30.62h0Z"/><path class="cls-1" d="M84.33,30.62h0Z"/><path class="cls-1" d="M82.55,30.62h0Z"/><path class="cls-1" d="M80.78,30.62h0Z"/><path class="cls-1" d="M79,30.62h0Z"/><path class="cls-1" d="M77.23,30.62h0Z"/><path class="cls-1" d="M75.45,30.62h0Z"/><path class="cls-1" d="M73.68,30.62h0Z"/><path class="cls-1" d="M71.9,30.62h0Z"/><path class="cls-1" d="M65.69,30.62h0Z"/><path class="cls-1" d="M63,30.62h0Z"/><path class="cls-1" d="M60.36,30.62h0Z"/><path class="cls-1" d="M57.7,30.62h0Z"/><path class="cls-1" d="M55,30.62h0Z"/><path class="cls-1" d="M49.71,30.62h0Z"/><path class="cls-1" d="M47.93,30.62h0Z"/><path class="cls-1" d="M46.16,30.62h0Z"/><path class="cls-1" d="M44.38,30.62h0Z"/><path class="cls-1" d="M42.61,30.62h0Z"/><path class="cls-1" d="M139.36,31.51h0Z"/><path class="cls-1" d="M136.7,31.51h0Z"/><path class="cls-1" d="M134.92,31.51h0Z"/><path class="cls-1" d="M133.15,31.51h0Z"/><path class="cls-1" d="M131.37,31.51h0Z"/><path class="cls-1" d="M129.6,31.51h0Z"/><path class="cls-1" d="M127.82,31.51h0Z"/><path class="cls-1" d="M126.05,31.51h0Z"/><path class="cls-1" d="M124.27,31.51h0Z"/><path class="cls-1" d="M121.61,31.51h0Z"/><path class="cls-1" d="M119.83,31.51h0Z"/><path class="cls-1" d="M118.06,31.51h0Z"/><path class="cls-1" d="M114.51,31.51h0Z"/><path class="cls-1" d="M106.52,31.51h0Z"/><path class="cls-1" d="M101.19,31.51h0Z"/><path class="cls-1" d="M99.42,31.51h0Z"/><path class="cls-1" d="M91.43,31.51h0Z"/><path class="cls-1" d="M89.65,31.51h0Z"/><path class="cls-1" d="M87,31.51h0Z"/><path class="cls-1" d="M78.11,31.51h0Z"/><path class="cls-1" d="M76.34,31.51h0Z"/><path class="cls-1" d="M74.56,31.51h0Z"/><path class="cls-1" d="M72.79,31.51h0Z"/><path class="cls-1" d="M71,31.51h0Z"/><path class="cls-1" d="M69.24,31.51h0Z"/><path class="cls-1" d="M66.57,31.51h0Z"/><path class="cls-1" d="M64.8,31.51h0Z"/><path class="cls-1" d="M62.14,31.51h0Z"/><path class="cls-1" d="M45.27,31.51h0Z"/><path class="cls-1" d="M43.5,31.51h0Z"/><path class="cls-1" d="M41.72,31.51h0Z"/><path class="cls-1" d="M140.25,32.4h0Z"/><path class="cls-1" d="M137.59,32.4h0Z"/><path class="cls-1" d="M135.81,32.4h0Z"/><path class="cls-1" d="M134,32.4h0Z"/><path class="cls-1" d="M132.26,32.4h0Z"/><path class="cls-1" d="M130.49,32.4h0Z"/><path class="cls-1" d="M128.71,32.4h0Z"/><path class="cls-1" d="M126.94,32.4h0Z"/><path class="cls-1" d="M125.16,32.4h0Z"/><path class="cls-1" d="M123.39,32.4h0Z"/><path class="cls-1" d="M121.61,32.4h0Z"/><path class="cls-1" d="M119,32.4h0Z"/><path class="cls-1" d="M116.28,32.4h0Z"/><path class="cls-1" d="M113.62,32.4h0Z"/><path class="cls-1" d="M111,32.4h0Z"/><path class="cls-1" d="M109.18,32.4h0Z"/><path class="cls-1" d="M103,32.4h0Z"/><path class="cls-1" d="M96.76,32.4h0Z"/><path class="cls-1" d="M93.2,32.4h0Z"/><path class="cls-1" d="M85.21,32.4h0Z"/><path class="cls-1" d="M83.44,32.4h0Z"/><path class="cls-1" d="M81.67,32.4h0Z"/><path class="cls-1" d="M79.89,32.4h0Z"/><path class="cls-1" d="M77.23,32.4h0Z"/><path class="cls-1" d="M75.45,32.4h0Z"/><path class="cls-1" d="M72.79,32.4h0Z"/><path class="cls-1" d="M71,32.4h0Z"/><path class="cls-1" d="M68.35,32.4h0Z"/><path class="cls-1" d="M62.14,32.4h0Z"/><path class="cls-1" d="M60.36,32.4h0Z"/><path class="cls-1" d="M58.59,32.4h0Z"/><path class="cls-1" d="M56.81,32.4h0Z"/><path class="cls-1" d="M54.15,32.4h0Z"/><path class="cls-1" d="M47.05,32.4h0Z"/><path class="cls-1" d="M44.38,32.4h0Z"/><path class="cls-1" d="M41.72,32.4h0Z"/><path class="cls-1" d="M140.25,33.29h0Z"/><path class="cls-1" d="M138.47,33.29h0Z"/><path class="cls-1" d="M136.7,33.29h0Z"/><path class="cls-1" d="M134.92,33.29h0Z"/><path class="cls-1" d="M133.15,33.29h0Z"/><path class="cls-1" d="M131.37,33.29h0Z"/><path class="cls-1" d="M129.6,33.29h0Z"/><path class="cls-1" d="M126.05,33.29h0Z"/><path class="cls-1" d="M122.5,33.29h0Z"/><path class="cls-1" d="M119.83,33.29h0Z"/><path class="cls-1" d="M117.17,33.29h0Z"/><path class="cls-1" d="M111.85,33.29h0Z"/><path class="cls-1" d="M107.41,33.29h0Z"/><path class="cls-1" d="M104.75,33.29h0Z"/><path class="cls-1" d="M98.53,33.29h0Z"/><path class="cls-1" d="M95,33.29h0Z"/><path class="cls-1" d="M91.43,33.29h0Z"/><path class="cls-1" d="M88.77,33.29h0Z"/><path class="cls-1" d="M87,33.29h0Z"/><path class="cls-1" d="M78.11,33.29h0Z"/><path class="cls-1" d="M73.68,33.29h0Z"/><path class="cls-1" d="M71.9,33.29h0Z"/><path class="cls-1" d="M64.8,33.29h0Z"/><path class="cls-1" d="M63,33.29h0Z"/><path class="cls-1" d="M61.25,33.29h0Z"/><path class="cls-1" d="M59.47,33.29h0Z"/><path class="cls-1" d="M57.7,33.29h0Z"/><path class="cls-1" d="M51.48,33.29h0Z"/><path class="cls-1" d="M45.27,33.29h0Z"/><path class="cls-1" d="M42.61,33.29h0Z"/><path class="cls-1" d="M40.83,33.29h0Z"/><path class="cls-1" d="M138.47,34.18h0Z"/><path class="cls-1" d="M135.81,34.18h0Z"/><path class="cls-1" d="M132.26,34.18h0Z"/><path class="cls-1" d="M130.49,34.18h0Z"/><path class="cls-1" d="M128.71,34.18h0Z"/><path class="cls-1" d="M126.94,34.18h0Z"/><path class="cls-1" d="M125.16,34.18h0Z"/><path class="cls-1" d="M123.39,34.18h0Z"/><path class="cls-1" d="M121.61,34.18h0Z"/><path class="cls-1" d="M119.83,34.18h0Z"/><path class="cls-1" d="M118.06,34.18h0Z"/><path class="cls-1" d="M115.4,34.18h0Z"/><path class="cls-1" d="M113.62,34.18h0Z"/><path class="cls-1" d="M105.63,34.18h0Z"/><path class="cls-1" d="M101.19,34.18h0Z"/><path class="cls-1" d="M93.2,34.18h0Z"/><path class="cls-1" d="M85.21,34.18h0Z"/><path class="cls-1" d="M83.44,34.18h0Z"/><path class="cls-1" d="M80.78,34.18h0Z"/><path class="cls-1" d="M76.34,34.18h0Z"/><path class="cls-1" d="M70.13,34.18h0Z"/><path class="cls-1" d="M68.35,34.18h0Z"/><path class="cls-1" d="M66.57,34.18h0Z"/><path class="cls-1" d="M60.36,34.18h0Z"/><path class="cls-1" d="M58.59,34.18h0Z"/><path class="cls-1" d="M56.81,34.18h0Z"/><path class="cls-1" d="M55,34.18h0Z"/><path class="cls-1" d="M53.26,34.18h0Z"/><path class="cls-1" d="M43.5,34.18h0Z"/><path class="cls-1" d="M39.94,34.18h0Z"/><path class="cls-1" d="M140.25,35.06h0Z"/><path class="cls-1" d="M137.59,35.06h0Z"/><path class="cls-1" d="M134.92,35.06h0Z"/><path class="cls-1" d="M131.37,35.06h0Z"/><path class="cls-1" d="M129.6,35.06h0Z"/><path class="cls-1" d="M127.82,35.06h0Z"/><path class="cls-1" d="M125.16,35.06h0Z"/><path class="cls-1" d="M122.5,35.06h0Z"/><path class="cls-1" d="M120.72,35.06h0Z"/><path class="cls-1" d="M119,35.06h0Z"/><path class="cls-1" d="M117.17,35.06h0Z"/><path class="cls-1" d="M111,35.06h0Z"/><path class="cls-1" d="M109.18,35.06h0Z"/><path class="cls-1" d="M99.42,35.06h0Z"/><path class="cls-1" d="M97.64,35.06h0Z"/><path class="cls-1" d="M90.54,35.06h0Z"/><path class="cls-1" d="M87.88,35.06h0Z"/><path class="cls-1" d="M82.55,35.06h0Z"/><path class="cls-1" d="M79.89,35.06h0Z"/><path class="cls-1" d="M78.11,35.06h0Z"/><path class="cls-1" d="M74.56,35.06h0Z"/><path class="cls-1" d="M71.9,35.06h0Z"/><path class="cls-1" d="M65.69,35.06h0Z"/><path class="cls-1" d="M63.91,35.06h0Z"/><path class="cls-1" d="M62.14,35.06h0Z"/><path class="cls-1" d="M57.7,35.06h0Z"/><path class="cls-1" d="M55.92,35.06h0Z"/><path class="cls-1" d="M52.37,35.06h0Z"/><path class="cls-1" d="M48.82,35.06h0Z"/><path class="cls-1" d="M39.94,35.06h0Z"/><path class="cls-1" d="M139.36,36h0Z"/><path class="cls-1" d="M136.7,36h0Z"/><path class="cls-1" d="M132.26,36h0Z"/><path class="cls-1" d="M128.71,36h0Z"/><path class="cls-1" d="M126.05,36h0Z"/><path class="cls-1" d="M123.39,36h0Z"/><path class="cls-1" d="M121.61,36h0Z"/><path class="cls-1" d="M116.28,36h0Z"/><path class="cls-1" d="M114.51,36h0Z"/><path class="cls-1" d="M112.73,36h0Z"/><path class="cls-1" d="M105.63,36h0Z"/><path class="cls-1" d="M103.86,36h0Z"/><path class="cls-1" d="M102.08,36h0Z"/><path class="cls-1" d="M100.31,36h0Z"/><path class="cls-1" d="M95,36h0Z"/><path class="cls-1" d="M92.32,36h0Z"/><path class="cls-1" d="M89.65,36h0Z"/><path class="cls-1" d="M86.1,36h0Z"/><path class="cls-1" d="M84.33,36h0Z"/><path class="cls-1" d="M77.23,36h0Z"/><path class="cls-1" d="M67.46,36h0Z"/><path class="cls-1" d="M61.25,36h0Z"/><path class="cls-1" d="M59.47,36h0Z"/><path class="cls-1" d="M54.15,36h0Z"/><path class="cls-1" d="M51.48,36h0Z"/><path class="cls-1" d="M45.27,36h0Z"/><path class="cls-1" d="M43.5,36h0Z"/><path class="cls-1" d="M38.17,36h0Z"/><path class="cls-1" d="M140.25,36.84h0Z"/><path class="cls-1" d="M137.59,36.84h0Z"/><path class="cls-1" d="M134.92,36.84h0Z"/><path class="cls-1" d="M133.15,36.84h0Z"/><path class="cls-1" d="M131.37,36.84h0Z"/><path class="cls-1" d="M129.6,36.84h0Z"/><path class="cls-1" d="M126.94,36.84h0Z"/><path class="cls-1" d="M124.27,36.84h0Z"/><path class="cls-1" d="M119.83,36.84h0Z"/><path class="cls-1" d="M117.17,36.84h0Z"/><path class="cls-1" d="M110.07,36.84h0Z"/><path class="cls-1" d="M108.3,36.84h0Z"/><path class="cls-1" d="M96.76,36.84h0Z"/><path class="cls-1" d="M82.55,36.84h0Z"/><path class="cls-1" d="M80.78,36.84h0Z"/><path class="cls-1" d="M79,36.84h0Z"/><path class="cls-1" d="M75.45,36.84h0Z"/><path class="cls-1" d="M69.24,36.84h0Z"/><path class="cls-1" d="M63,36.84h0Z"/><path class="cls-1" d="M57.7,36.84h0Z"/><path class="cls-1" d="M55.92,36.84h0Z"/><path class="cls-1" d="M52.37,36.84h0Z"/><path class="cls-1" d="M49.71,36.84h0Z"/><path class="cls-1" d="M46.16,36.84h0Z"/><path class="cls-1" d="M41.72,36.84h0Z"/><path class="cls-1" d="M36.39,36.84h0Z"/><path class="cls-1" d="M139.36,37.73h0Z"/><path class="cls-1" d="M135.81,37.73h0Z"/><path class="cls-1" d="M132.26,37.73h0Z"/><path class="cls-1" d="M130.49,37.73h0Z"/><path class="cls-1" d="M128.71,37.73h0Z"/><path class="cls-1" d="M126.05,37.73h0Z"/><path class="cls-1" d="M124.27,37.73h0Z"/><path class="cls-1" d="M122.5,37.73h0Z"/><path class="cls-1" d="M120.72,37.73h0Z"/><path class="cls-1" d="M118.06,37.73h0Z"/><path class="cls-1" d="M114.51,37.73h0Z"/><path class="cls-1" d="M111.85,37.73h0Z"/><path class="cls-1" d="M95,37.73h0Z"/><path class="cls-1" d="M93.2,37.73h0Z"/><path class="cls-1" d="M90.54,37.73h0Z"/><path class="cls-1" d="M88.77,37.73h0Z"/><path class="cls-1" d="M87,37.73h0Z"/><path class="cls-1" d="M84.33,37.73h0Z"/><path class="cls-1" d="M77.23,37.73h0Z"/><path class="cls-1" d="M72.79,37.73h0Z"/><path class="cls-1" d="M70.13,37.73h0Z"/><path class="cls-1" d="M67.46,37.73h0Z"/><path class="cls-1" d="M64.8,37.73h0Z"/><path class="cls-1" d="M60.36,37.73h0Z"/><path class="cls-1" d="M54.15,37.73h0Z"/><path class="cls-1" d="M50.6,37.73h0Z"/><path class="cls-1" d="M47.93,37.73h0Z"/><path class="cls-1" d="M44.38,37.73h0Z"/><path class="cls-1" d="M39.94,37.73h0Z"/><path class="cls-1" d="M38.17,37.73h0Z"/><path class="cls-1" d="M138.47,38.61h0Z"/><path class="cls-1" d="M136.7,38.61h0Z"/><path class="cls-1" d="M134.92,38.61h0Z"/><path class="cls-1" d="M133.15,38.61h0Z"/><path class="cls-1" d="M127.82,38.61h0Z"/><path class="cls-1" d="M125.16,38.61h0Z"/><path class="cls-1" d="M122.5,38.61h0Z"/><path class="cls-1" d="M119.83,38.61h0Z"/><path class="cls-1" d="M116.28,38.61h0Z"/><path class="cls-1" d="M114.51,38.61h0Z"/><path class="cls-1" d="M92.32,38.61h0Z"/><path class="cls-1" d="M81.67,38.61h0Z"/><path class="cls-1" d="M79.89,38.61h0Z"/><path class="cls-1" d="M76.34,38.61h0Z"/><path class="cls-1" d="M74.56,38.61h0Z"/><path class="cls-1" d="M63,38.61h0Z"/><path class="cls-1" d="M58.59,38.61h0Z"/><path class="cls-1" d="M55.92,38.61h0Z"/><path class="cls-1" d="M53.26,38.61h0Z"/><path class="cls-1" d="M49.71,38.61h0Z"/><path class="cls-1" d="M46.16,38.61h0Z"/><path class="cls-1" d="M43.5,38.61h0Z"/><path class="cls-1" d="M37.28,38.61h0Z"/><path class="cls-1" d="M34.62,38.61h0Z"/><path class="cls-1" d="M140.25,39.5h0Z"/><path class="cls-1" d="M132.26,39.5h0Z"/><path class="cls-1" d="M130.49,39.5h0Z"/><path class="cls-1" d="M128.71,39.5h0Z"/><path class="cls-1" d="M126.94,39.5h0Z"/><path class="cls-1" d="M124.27,39.5h0Z"/><path class="cls-1" d="M121.61,39.5h0Z"/><path class="cls-1" d="M118.06,39.5h0Z"/><path class="cls-1" d="M91.43,39.5h0Z"/><path class="cls-1" d="M86.1,39.5h0Z"/><path class="cls-1" d="M84.33,39.5h0Z"/><path class="cls-1" d="M78.11,39.5h0Z"/><path class="cls-1" d="M71.9,39.5h0Z"/><path class="cls-1" d="M68.35,39.5h0Z"/><path class="cls-1" d="M65.69,39.5h0Z"/><path class="cls-1" d="M62.14,39.5h0Z"/><path class="cls-1" d="M57.7,39.5h0Z"/><path class="cls-1" d="M51.48,39.5h0Z"/><path class="cls-1" d="M47.93,39.5h0Z"/><path class="cls-1" d="M45.27,39.5h0Z"/><path class="cls-1" d="M42.61,39.5h0Z"/><path class="cls-1" d="M39.06,39.5h0Z"/><path class="cls-1" d="M32,39.5h0Z"/><path class="cls-1" d="M137.59,40.39h0Z"/><path class="cls-1" d="M135.81,40.39h0Z"/><path class="cls-1" d="M134,40.39h0Z"/><path class="cls-1" d="M125.16,40.39h0Z"/><path class="cls-1" d="M122.5,40.39h0Z"/><path class="cls-1" d="M93.2,40.39h0Z"/><path class="cls-1" d="M89.65,40.39h0Z"/><path class="cls-1" d="M87.88,40.39h0Z"/><path class="cls-1" d="M82.55,40.39h0Z"/><path class="cls-1" d="M72.79,40.39h0Z"/><path class="cls-1" d="M63,40.39h0Z"/><path class="cls-1" d="M60.36,40.39h0Z"/><path class="cls-1" d="M55.92,40.39h0Z"/><path class="cls-1" d="M53.26,40.39h0Z"/><path class="cls-1" d="M48.82,40.39h0Z"/><path class="cls-1" d="M45.27,40.39h0Z"/><path class="cls-1" d="M43.5,40.39h0Z"/><path class="cls-1" d="M40.83,40.39h0Z"/><path class="cls-1" d="M36.39,40.39h0Z"/><path class="cls-1" d="M30.18,40.39h0Z"/><path class="cls-1" d="M139.36,41.28h0Z"/><path class="cls-1" d="M132.26,41.28h0Z"/><path class="cls-1" d="M130.49,41.28h0Z"/><path class="cls-1" d="M128.71,41.28h0Z"/><path class="cls-1" d="M80.78,41.28h0Z"/><path class="cls-1" d="M78.11,41.28h0Z"/><path class="cls-1" d="M75.45,41.28h0Z"/><path class="cls-1" d="M70.13,41.28h0Z"/><path class="cls-1" d="M68.35,41.28h0Z"/><path class="cls-1" d="M65.69,41.28h0Z"/><path class="cls-1" d="M63.91,41.28h0Z"/><path class="cls-1" d="M61.25,41.28h0Z"/><path class="cls-1" d="M58.59,41.28h0Z"/><path class="cls-1" d="M54.15,41.28h0Z"/><path class="cls-1" d="M50.6,41.28h0Z"/><path class="cls-1" d="M47.05,41.28h0Z"/><path class="cls-1" d="M44.38,41.28h0Z"/><path class="cls-1" d="M41.72,41.28h0Z"/><path class="cls-1" d="M39.06,41.28h0Z"/><path class="cls-1" d="M34.62,41.28h0Z"/><path class="cls-1" d="M29.29,41.28h0Z"/><path class="cls-1" d="M138.47,42.16h0Z"/><path class="cls-1" d="M136.7,42.16h0Z"/><path class="cls-1" d="M134.92,42.16h0Z"/><path class="cls-1" d="M133.15,42.16h0Z"/><path class="cls-1" d="M131.37,42.16h0Z"/><path class="cls-1" d="M89.65,42.16h0Z"/><path class="cls-1" d="M87,42.16h0Z"/><path class="cls-1" d="M85.21,42.16h0Z"/><path class="cls-1" d="M83.44,42.16h0Z"/><path class="cls-1" d="M73.68,42.16h0Z"/><path class="cls-1" d="M71,42.16h0Z"/><path class="cls-1" d="M69.24,42.16h0Z"/><path class="cls-1" d="M64.8,42.16h0Z"/><path class="cls-1" d="M63,42.16h0Z"/><path class="cls-1" d="M48.82,42.16h0Z"/><path class="cls-1" d="M45.27,42.16h0Z"/><path class="cls-1" d="M43.5,42.16h0Z"/><path class="cls-1" d="M38.17,42.16h0Z"/><path class="cls-1" d="M31.07,42.16h0Z"/><path class="cls-1" d="M29.29,42.16h0Z"/><path class="cls-1" d="M88.77,43.05h0Z"/><path class="cls-1" d="M79.89,43.05h0Z"/><path class="cls-1" d="M77.23,43.05h0Z"/><path class="cls-1" d="M71.9,43.05h0Z"/><path class="cls-1" d="M70.13,43.05h0Z"/><path class="cls-1" d="M68.35,43.05h0Z"/><path class="cls-1" d="M66.57,43.05h0Z"/><path class="cls-1" d="M64.8,43.05h0Z"/><path class="cls-1" d="M62.14,43.05h0Z"/><path class="cls-1" d="M59.47,43.05h0Z"/><path class="cls-1" d="M53.26,43.05h0Z"/><path class="cls-1" d="M47.93,43.05h0Z"/><path class="cls-1" d="M46.16,43.05h0Z"/><path class="cls-1" d="M44.38,43.05h0Z"/><path class="cls-1" d="M42.61,43.05h0Z"/><path class="cls-1" d="M40.83,43.05h0Z"/><path class="cls-1" d="M37.28,43.05h0Z"/><path class="cls-1" d="M35.51,43.05h0Z"/><path class="cls-1" d="M33.73,43.05h0Z"/><path class="cls-1" d="M31.07,43.05h0Z"/><path class="cls-1" d="M28.41,43.05h0Z"/><path class="cls-1" d="M87,43.94h0Z"/><path class="cls-1" d="M84.33,43.94h0Z"/><path class="cls-1" d="M81.67,43.94h0Z"/><path class="cls-1" d="M74.56,43.94h0Z"/><path class="cls-1" d="M72.79,43.94h0Z"/><path class="cls-1" d="M71,43.94h0Z"/><path class="cls-1" d="M65.69,43.94h0Z"/><path class="cls-1" d="M63,43.94h0Z"/><path class="cls-1" d="M55,43.94h0Z"/><path class="cls-1" d="M52.37,43.94h0Z"/><path class="cls-1" d="M50.6,43.94h0Z"/><path class="cls-1" d="M45.27,43.94h0Z"/><path class="cls-1" d="M43.5,43.94h0Z"/><path class="cls-1" d="M36.39,43.94h0Z"/><path class="cls-1" d="M32,43.94h0Z"/><path class="cls-1" d="M29.29,43.94h0Z"/><path class="cls-1" d="M85.21,44.83h0Z"/><path class="cls-1" d="M82.55,44.83h0Z"/><path class="cls-1" d="M79.89,44.83h0Z"/><path class="cls-1" d="M78.11,44.83h0Z"/><path class="cls-1" d="M67.46,44.83h0Z"/><path class="cls-1" d="M64.8,44.83h0Z"/><path class="cls-1" d="M60.36,44.83h0Z"/><path class="cls-1" d="M56.81,44.83h0Z"/><path class="cls-1" d="M53.26,44.83h0Z"/><path class="cls-1" d="M48.82,44.83h0Z"/><path class="cls-1" d="M46.16,44.83h0Z"/><path class="cls-1" d="M44.38,44.83h0Z"/><path class="cls-1" d="M41.72,44.83h0Z"/><path class="cls-1" d="M39.94,44.83h0Z"/><path class="cls-1" d="M35.51,44.83h0Z"/><path class="cls-1" d="M33.73,44.83h0Z"/><path class="cls-1" d="M30.18,44.83h0Z"/><path class="cls-1" d="M79,45.71h0Z"/><path class="cls-1" d="M76.34,45.71h0Z"/><path class="cls-1" d="M74.56,45.71h0Z"/><path class="cls-1" d="M72.79,45.71h0Z"/><path class="cls-1" d="M71,45.71h0Z"/><path class="cls-1" d="M69.24,45.71h0Z"/><path class="cls-1" d="M66.57,45.71h0Z"/><path class="cls-1" d="M63.91,45.71h0Z"/><path class="cls-1" d="M62.14,45.71h0Z"/><path class="cls-1" d="M58.59,45.71h0Z"/><path class="cls-1" d="M54.15,45.71h0Z"/><path class="cls-1" d="M52.37,45.71h0Z"/><path class="cls-1" d="M50.6,45.71h0Z"/><path class="cls-1" d="M43.5,45.71h0Z"/><path class="cls-1" d="M41.72,45.71h0Z"/><path class="cls-1" d="M39.06,45.71h0Z"/><path class="cls-1" d="M32.84,45.71h0Z"/><path class="cls-1" d="M30.18,45.71h0Z"/><path class="cls-1" d="M83.44,46.6h0Z"/><path class="cls-1" d="M81.67,46.6h0Z"/><path class="cls-1" d="M79.89,46.6h0Z"/><path class="cls-1" d="M78.11,46.6h0Z"/><path class="cls-1" d="M75.45,46.6h0Z"/><path class="cls-1" d="M68.35,46.6h0Z"/><path class="cls-1" d="M64.8,46.6h0Z"/><path class="cls-1" d="M60.36,46.6h0Z"/><path class="cls-1" d="M53.26,46.6h0Z"/><path class="cls-1" d="M51.48,46.6h0Z"/><path class="cls-1" d="M48.82,46.6h0Z"/><path class="cls-1" d="M39.94,46.6h0Z"/><path class="cls-1" d="M38.17,46.6h0Z"/><path class="cls-1" d="M36.39,46.6h0Z"/><path class="cls-1" d="M34.62,46.6h0Z"/><path class="cls-1" d="M32,46.6h0Z"/><path class="cls-1" d="M84.33,47.49h0Z"/><path class="cls-1" d="M79,47.49h0Z"/><path class="cls-1" d="M75.45,47.49h0Z"/><path class="cls-1" d="M73.68,47.49h0Z"/><path class="cls-1" d="M69.24,47.49h0Z"/><path class="cls-1" d="M65.69,47.49h0Z"/><path class="cls-1" d="M63.91,47.49h0Z"/><path class="cls-1" d="M58.59,47.49h0Z"/><path class="cls-1" d="M55,47.49h0Z"/><path class="cls-1" d="M51.48,47.49h0Z"/><path class="cls-1" d="M49.71,47.49h0Z"/><path class="cls-1" d="M46.16,47.49h0Z"/><path class="cls-1" d="M35.51,47.49h0Z"/><path class="cls-1" d="M32.84,47.49h0Z"/><path class="cls-1" d="M79.89,48.38h0Z"/><path class="cls-1" d="M78.11,48.38h0Z"/><path class="cls-1" d="M71,48.38h0Z"/><path class="cls-1" d="M67.46,48.38h0Z"/><path class="cls-1" d="M65.69,48.38h0Z"/><path class="cls-1" d="M61.25,48.38h0Z"/><path class="cls-1" d="M58.59,48.38h0Z"/><path class="cls-1" d="M52.37,48.38h0Z"/><path class="cls-1" d="M50.6,48.38h0Z"/><path class="cls-1" d="M47.93,48.38h0Z"/><path class="cls-1" d="M42.61,48.38h0Z"/><path class="cls-1" d="M38.17,48.38h0Z"/><path class="cls-1" d="M36.39,48.38h0Z"/><path class="cls-1" d="M34.62,48.38h0Z"/><path class="cls-1" d="M69.24,49.27h0Z"/><path class="cls-1" d="M67.46,49.27h0Z"/><path class="cls-1" d="M62.14,49.27h0Z"/><path class="cls-1" d="M58.59,49.27h0Z"/><path class="cls-1" d="M54.15,49.27h0Z"/><path class="cls-1" d="M49.71,49.27h0Z"/><path class="cls-1" d="M47.05,49.27h0Z"/><path class="cls-1" d="M45.27,49.27h0Z"/><path class="cls-1" d="M41.72,49.27h0Z"/><path class="cls-1" d="M39.94,49.27h0Z"/><path class="cls-1" d="M37.28,49.27h0Z"/><path class="cls-1" d="M35.51,49.27h0Z"/><path class="cls-1" d="M76.34,50.15h0Z"/><path class="cls-1" d="M71.9,50.15h0Z"/><path class="cls-1" d="M63,50.15h0Z"/><path class="cls-1" d="M61.25,50.15h0Z"/><path class="cls-1" d="M52.37,50.15h0Z"/><path class="cls-1" d="M50.6,50.15h0Z"/><path class="cls-1" d="M47.93,50.15h0Z"/><path class="cls-1" d="M46.16,50.15h0Z"/><path class="cls-1" d="M44.38,50.15h0Z"/><path class="cls-1" d="M39.06,50.15h0Z"/><path class="cls-1" d="M37.28,50.15h0Z"/><path class="cls-1" d="M33.73,50.15h0Z"/><path class="cls-1" d="M75.45,51h0Z"/><path class="cls-1" d="M73.68,51h0Z"/><path class="cls-1" d="M63.91,51h0Z"/><path class="cls-1" d="M62.14,51h0Z"/><path class="cls-1" d="M60.36,51h0Z"/><path class="cls-1" d="M57.7,51h0Z"/><path class="cls-1" d="M48.82,51h0Z"/><path class="cls-1" d="M47.05,51h0Z"/><path class="cls-1" d="M44.38,51h0Z"/><path class="cls-1" d="M41.72,51h0Z"/><path class="cls-1" d="M39.94,51h0Z"/><path class="cls-1" d="M37.28,51h0Z"/><path class="cls-1" d="M35.51,51h0Z"/><path class="cls-1" d="M64.8,51.93h0Z"/><path class="cls-1" d="M62.14,51.93h0Z"/><path class="cls-1" d="M51.48,51.93h0Z"/><path class="cls-1" d="M46.16,51.93h0Z"/><path class="cls-1" d="M39.06,51.93h0Z"/><path class="cls-1" d="M33.73,51.93h0Z"/><path class="cls-1" d="M63.91,52.82h0Z"/><path class="cls-1" d="M62.14,52.82h0Z"/><path class="cls-1" d="M60.36,52.82h0Z"/><path class="cls-1" d="M58.59,52.82h0Z"/><path class="cls-1" d="M56.81,52.82h0Z"/><path class="cls-1" d="M49.71,52.82h0Z"/><path class="cls-1" d="M47.93,52.82h0Z"/><path class="cls-1" d="M45.27,52.82h0Z"/><path class="cls-1" d="M43.5,52.82h0Z"/><path class="cls-1" d="M40.83,52.82h0Z"/><path class="cls-1" d="M36.39,52.82h0Z"/><path class="cls-1" d="M62.14,53.7h0Z"/><path class="cls-1" d="M60.36,53.7h0Z"/><path class="cls-1" d="M46.16,53.7h0Z"/><path class="cls-1" d="M39.94,53.7h0Z"/><path class="cls-1" d="M38.17,53.7h0Z"/><path class="cls-1" d="M35.51,53.7h0Z"/><path class="cls-1" d="M32.84,53.7h0Z"/><path class="cls-1" d="M63,54.59h0Z"/><path class="cls-1" d="M60.36,54.59h0Z"/><path class="cls-1" d="M58.59,54.59h0Z"/><path class="cls-1" d="M55.92,54.59h0Z"/><path class="cls-1" d="M49.71,54.59h0Z"/><path class="cls-1" d="M47.93,54.59h0Z"/><path class="cls-1" d="M45.27,54.59h0Z"/><path class="cls-1" d="M43.5,54.59h0Z"/><path class="cls-1" d="M41.72,54.59h0Z"/><path class="cls-1" d="M39.06,54.59h0Z"/><path class="cls-1" d="M35.51,54.59h0Z"/><path class="cls-1" d="M33.73,54.59h0Z"/><path class="cls-1" d="M57.7,55.48h0Z"/><path class="cls-1" d="M47.93,55.48h0Z"/><path class="cls-1" d="M46.16,55.48h0Z"/><path class="cls-1" d="M39.94,55.48h0Z"/><path class="cls-1" d="M37.28,55.48h0Z"/><path class="cls-1" d="M62.14,56.37h0Z"/><path class="cls-1" d="M59.47,56.37h0Z"/><path class="cls-1" d="M55.92,56.37h0Z"/><path class="cls-1" d="M47.05,56.37h0Z"/><path class="cls-1" d="M45.27,56.37h0Z"/><path class="cls-1" d="M43.5,56.37h0Z"/><path class="cls-1" d="M38.17,56.37h0Z"/><path class="cls-1" d="M34.62,56.37h0Z"/><path class="cls-1" d="M32.84,56.37h0Z"/><path class="cls-1" d="M61.25,57.25h0Z"/><path class="cls-1" d="M58.59,57.25h0Z"/><path class="cls-1" d="M56.81,57.25h0Z"/><path class="cls-1" d="M55,57.25h0Z"/><path class="cls-1" d="M48.82,57.25h0Z"/><path class="cls-1" d="M46.16,57.25h0Z"/><path class="cls-1" d="M39.94,57.25h0Z"/><path class="cls-1" d="M33.73,57.25h0Z"/><path class="cls-1" d="M63,58.14h0Z"/><path class="cls-1" d="M57.7,58.14h0Z"/><path class="cls-1" d="M55.92,58.14h0Z"/><path class="cls-1" d="M47.93,58.14h0Z"/><path class="cls-1" d="M46.16,58.14h0Z"/><path class="cls-1" d="M44.38,58.14h0Z"/><path class="cls-1" d="M42.61,58.14h0Z"/><path class="cls-1" d="M37.28,58.14h0Z"/><path class="cls-1" d="M35.51,58.14h0Z"/><path class="cls-1" d="M59.47,59h0Z"/><path class="cls-1" d="M56.81,59h0Z"/><path class="cls-1" d="M55,59h0Z"/><path class="cls-1" d="M45.27,59h0Z"/><path class="cls-1" d="M43.5,59h0Z"/><path class="cls-1" d="M39.94,59h0Z"/><path class="cls-1" d="M38.17,59h0Z"/><path class="cls-1" d="M36.39,59h0Z"/><path class="cls-1" d="M33.73,59h0Z"/><path class="cls-1" d="M32,59h0Z"/><path class="cls-1" d="M61.25,59.92h0Z"/><path class="cls-1" d="M58.59,59.92h0Z"/><path class="cls-1" d="M55.92,59.92h0Z"/><path class="cls-1" d="M47.05,59.92h0Z"/><path class="cls-1" d="M44.38,59.92h0Z"/><path class="cls-1" d="M42.61,59.92h0Z"/><path class="cls-1" d="M37.28,59.92h0Z"/><path class="cls-1" d="M35.51,59.92h0Z"/><path class="cls-1" d="M60.36,60.81h0Z"/><path class="cls-1" d="M56.81,60.81h0Z"/><path class="cls-1" d="M55,60.81h0Z"/><path class="cls-1" d="M46.16,60.81h0Z"/><path class="cls-1" d="M41.72,60.81h0Z"/><path class="cls-1" d="M39.06,60.81h0Z"/><path class="cls-1" d="M36.39,60.81h0Z"/><path class="cls-1" d="M33.73,60.81h0Z"/><path class="cls-1" d="M61.25,61.69h0Z"/><path class="cls-1" d="M57.7,61.69h0Z"/><path class="cls-1" d="M55.92,61.69h0Z"/><path class="cls-1" d="M44.38,61.69h0Z"/><path class="cls-1" d="M37.28,61.69h0Z"/><path class="cls-1" d="M62.14,62.58h0Z"/><path class="cls-1" d="M59.47,62.58h0Z"/><path class="cls-1" d="M46.16,62.58h0Z"/><path class="cls-1" d="M44.38,62.58h0Z"/><path class="cls-1" d="M42.61,62.58h0Z"/><path class="cls-1" d="M39.94,62.58h0Z"/><path class="cls-1" d="M38.17,62.58h0Z"/><path class="cls-1" d="M35.51,62.58h0Z"/><path class="cls-1" d="M33.73,62.58h0Z"/><path class="cls-1" d="M61.25,63.47h0Z"/><path class="cls-1" d="M57.7,63.47h0Z"/><path class="cls-1" d="M55.92,63.47h0Z"/><path class="cls-1" d="M45.27,63.47h0Z"/><path class="cls-1" d="M37.28,63.47h0Z"/><path class="cls-1" d="M62.14,64.36h0Z"/><path class="cls-1" d="M59.47,64.36h0Z"/><path class="cls-1" d="M44.38,64.36h0Z"/><path class="cls-1" d="M42.61,64.36h0Z"/><path class="cls-1" d="M39.06,64.36h0Z"/><path class="cls-1" d="M37.28,64.36h0Z"/><path class="cls-1" d="M35.51,64.36h0Z"/><path class="cls-1" d="M32.84,64.36h0Z"/><path class="cls-1" d="M62.14,65.24h0Z"/><path class="cls-1" d="M56.81,65.24h0Z"/><path class="cls-1" d="M55,65.24h0Z"/><path class="cls-1" d="M46.16,65.24h0Z"/><path class="cls-1" d="M44.38,65.24h0Z"/><path class="cls-1" d="M37.28,65.24h0Z"/><path class="cls-1" d="M33.73,65.24h0Z"/><path class="cls-1" d="M61.25,66.13h0Z"/><path class="cls-1" d="M59.47,66.13h0Z"/><path class="cls-1" d="M57.7,66.13h0Z"/><path class="cls-1" d="M55.92,66.13h0Z"/><path class="cls-1" d="M45.27,66.13h0Z"/><path class="cls-1" d="M43.5,66.13h0Z"/><path class="cls-1" d="M40.83,66.13h0Z"/><path class="cls-1" d="M39.06,66.13h0Z"/><path class="cls-1" d="M37.28,66.13h0Z"/><path class="cls-1" d="M35.51,66.13h0Z"/><path class="cls-1" d="M61.25,67h0Z"/><path class="cls-1" d="M44.38,67h0Z"/><path class="cls-1" d="M42.61,67h0Z"/><path class="cls-1" d="M38.17,67h0Z"/><path class="cls-1" d="M33.73,67h0Z"/><path class="cls-1" d="M60.36,67.91h0Z"/><path class="cls-1" d="M58.59,67.91h0Z"/><path class="cls-1" d="M56.81,67.91h0Z"/><path class="cls-1" d="M45.27,67.91h0Z"/><path class="cls-1" d="M43.5,67.91h0Z"/><path class="cls-1" d="M35.51,67.91h0Z"/><path class="cls-1" d="M42.61,68.79h0Z"/><path class="cls-1" d="M39.06,68.79h0Z"/><path class="cls-1" d="M37.28,68.79h0Z"/><path class="cls-1" d="M33.73,68.79h0Z"/><path class="cls-1" d="M44.38,69.68h0Z"/><path class="cls-1" d="M42.61,69.68h0Z"/><path class="cls-1" d="M34.62,69.68h0Z"/><path class="cls-1" d="M140.25.89h.89V0h-.89Zm-1.78,0h.89V0h-.89Zm-1.77,0h.89V0h-.89ZM134,.89h.88V0H134Zm-3.55,0h.88V0h-.88Zm-5.33,0h.89V0h-.89Zm7.1.89h.89V.89h-.89Zm-3.55,0h.89V.89h-.89Zm-1.77,0h.88V.89h-.88Zm-3.55,0h.88V.89h-.88Zm-2.67,0h.89V.89h-.89Zm16.87.88h.88V1.78h-.88Zm-2.67,0h.89V1.78h-.89Zm-16.86,0H119V1.78h-.89Zm21.3.89h.89V2.66h-.89Zm-6.21,0H134V2.66h-.89Zm-2.66-.89v.89h-.89v.89h.89V3.55h.88V2.66Zm-4.44,0v.89h-.89v.89h.89V3.55h.89V2.66Zm-10.65.89h.88V2.66h-.88Zm-2.67,0h.89V2.66h-.89Zm24,.89h.89V3.55h-.89Zm-1.78,0h.89V3.55h-.89Zm-7.1,0h.89V3.55h-.89Zm-5.32,0h.88V3.55h-.88Zm-1.78,0h.89V3.55h-.89Zm-11.54,0h.89V3.55h-.89Zm-4.43,0h.88V3.55h-.88Zm-3.56,0h.89V3.55h-.89Zm-2.66,0h.89V3.55h-.89Zm39.94,0v.89h.89v.88h.89V5.33h-.89V4.44Zm-7.1.89h.89V4.44h-.89Zm-14.2,0h.89V4.44h-.89Zm-9.76,0h.89V4.44h-.89Zm28.4.88h.89V5.33h-.89Zm-2.66,0H134V5.33h-.89Zm-6.21,0h.88V5.33h-.88Zm-2.67,0h.89V5.33h-.89Zm-5.32,0h.88V5.33H119Zm-7.1,0h.88V5.33h-.88Zm-9.77,0H103V5.33h-.89Zm-6.21,0h.89V5.33h-.89Zm-4.44,0h.89V5.33h-.89Zm46.16.89h.88V6.21h-.88Zm-7.1,0h.88V6.21h-.88Zm-1.78,0h.89V6.21h-.89Zm-6.21,0h.88V6.21h-.88Zm-1.78,0h.89V6.21h-.89Zm-5.32,0h.88V6.21h-.88Zm-10.65,0h.88V6.21h-.88ZM93.2,7.1h.89V6.21H93.2Zm-4.43,0h.88V6.21h-.88ZM86.1,6.21V7.1h-.89V8h.89V7.1H87V6.21ZM139.36,8h.89V7.1h-.89Zm-4.44,0h.89V7.1h-.89Zm-2.66-.89V8h.89v.89H134V8h-.89V7.1Zm-6.21,0V8h.89v.89h.88V8h-.88V7.1ZM124.27,8h.89V7.1h-.89Zm-7.1,0h.89V7.1h-.89Zm-7.1,0H111V7.1h-.89Zm-2.66,0h.89V7.1h-.89ZM98.53,8h.89V7.1h-.89Zm-8-.89V8h.89v.89h.89V8h-.89V7.1ZM83.44,8h.89V7.1h-.89ZM81.67,8h.88V7.1h-.88ZM79.89,8h.89V7.1h-.89Zm56.81.89h.89V8h-.89Zm-8-.89v.89h.89v.88h-.89v.89h.89V9.76h.89V8.88h-.89V8ZM122.5,8v.89h.89v.88h-.89v.89h-.89v.89h.89v.89h.89v.88h-.89v.89h.89v-.89h.88v-.88h-.88v-.89h-.89v-.89h.89V9.76h.88V8.88h-.88V8ZM119,8.88h.88V8H119Zm-6.22,0h.89V8h-.89Zm-11.54,0h.89V8h-.89ZM95,8.88h.89V8H95Zm-7.1,0h.89V8h-.89Zm-10.65,0h.88V8h-.88Zm62.13,0v.88h-.89v.89h.89V9.76h.89V8.88Zm-4.44.88h.89V8.88h-.89Zm-3.55,0h.89V8.88h-.89Zm-6.21,0h.89V8.88h-.89Zm-4.44-.88v.88h-.89v.89H119v.89h.88v.89h.89v.88H119v.89h-.89V16h-.89V13.31h.89v-.88H119v-.89h-.89v-.89h-.89v.89h-.89v-.89h-.88v.89h.88v.89h-.88v.88h.88V16h.89v.89h.89v.88H119v.89h.88v.89h.89v.89h-.89v.88H119v-.88h-.89v-.89H119v-.89h-.89v-.89h-.89v-.88h-.89V16h-.88V13.31h-.89V16h-.89V12.43h.89v-.89h-.89v-.89h.89V9.76h-.89v.89h-.89v.89h.89v.89h-.89V16h.89v.89h.89v1.77h.89v.89h.88v.89h1.78v.88H119v.89h.88v.89h.89V24h-.89v.88h.89v.89h.89v.89h-.89v-.89h-.89v-.89h-1.77V24H119v-.89h-.89v-.89h-.89V21.3h-.89v-.88h-.88v-.89h-.89v-.89h-.89V16.87h-.89V16h-.88V12.43H111v-.89h-.89v-.89h-.89v.89h.89v.89H111V16h.89v.89h.88v1.77h.89v.89h.89v.89h.89v.88h.88v.89h.89v.89h.89V24h-1.78v.88h1.78v.89H119v.89h.88v.89H119v-.89h-.89v-.89h-1.78v-.89h-.88v.89h-.89V24h.89v-.89h.88v-.89h-.88v.89h-.89v-.89h.89V21.3h-.89v.89h-.89V21.3h.89v-.88h-.89v.88h-.89v-.88h.89v-.89h-.89v.89h-.88v-.89h.88v-.89h-.88v.89H111v-.89h.89V16.87H111v1.77h-.89V16.87H111V16h-.89v.89h-.89V16h.89V13.31h-.89v-.88h-1.77v2.66h-.89V11.54h.89v-.89h.89V9.76h.88V8.88h-.88v.88h-.89v.89h-.89v.89h-.89v-.89h-.88v.89h.88v3.55h.89v1.78h.89v1.77h.89v.89h.88v.89h.89v.88H111v.89h.89v.89h.88V24h.89v1.77h-.89V24H111v.88h.89v.89H111v-.89h-1.78V24h.89v-.89H111v-.89h-.89V21.3h-.89v-.88h-.88v-.89h-.89v-.89h-.89V16.87h-.89V15.09h-.88V12.43h-.89v-.89H103v.89h-.89v-.89h-.89v-.89h.89V9.76h-.89v.89h-.88v.89h.88v.89h.89v2.66H103v1.78h.89v1.77h.89v.89h.88v.89h.89v.88h.89v.89h.89v.89h-.89V24h.89v.88h.88v.89h.89v.89h-.89v-.89h-.88v-.89h-.89V24h-.89v.88h.89v.89h-.89v-.89h-.89V23.08h.89V21.3h-.89v-.88h-.88v-.89h-.89v-.89H103V16.87h-.89V15.09h-.89V12.43h-.88v2.66h.88v1.78h-.88v1.77h.88v.89h.89v.89H103v.88h.89v1.78h.89v1.77h.88v.89h.89v.89h.89v.89h.89v-.89h.88v.89h-.88v.89h.88v.88h-.88v-.88h-.89v-.89h-.89v-.89h-.89v-.89h-.88v-.89H103V24h.89v-.89H103V21.3h-.89v-.88h-.89v-.89h-.88v-.89h-.89v-.89h-.89v-.88h.89V16h.89v-.89h-.89V13.31h-.89v1.78h-.89V14.2h-.88v-.89h.88v-.88h-.88v.88h-.89v.89h.89v.89h-.89V16h.89v.89h.88v.88h.89v.89h.89v.89h.89v.89H98.53v.88h.89v.89h.89v.89h.88V24h.89v.88H103v.89h.89v.89h.89v.89h-.89v-.89H103v-.89h-.89v-.89h-.89V24h-.88v-.89h-.89v-.89h-.89V21.3h-.89V19.53h.89v-.89h-.89v-.89h-.88v-.88h-.89V16H95v-.89h-.89V16H95v.89h.89v.88h.89v.89h.88v.89h-.88v.89h-.89v.88h1.77v.89h.89v.89h-.89v-.89H95.87V21.3H95V19.53h.89V17.75H95v-.88h-.89V16H93.2v-.89h-.88V16h.88v.89h-.88v.88H89.65v1.78h-.88V17.75h-.89v-.88H87v.88h.89v1.78H87V17.75H86.1v.89h-.89V16.87h.89V16h-.89v.89h-.88v1.77h.88v.89H87v.89H85.21v-.89h-.88v-.89h-.89v-.89h-.89v.89h.89v.89h.89v.89h.88v.88h.89v.89H87v.89H86.1v-.89h-.89V21.3h-.88v-.88h-.89v1.77h.89v.89h.88V24h-.88v-.89h-.89v-.89h-.89V21.3h-.88v.89h.88v.89h.89V24h.89v.88h.88v.89h.89v.89h-.89v-.89h-.88v-.89h-.89V24h-.89v-.89h-.88V24h.88v.88h.89v1.78h.89v.89h-.89v-.89h-.89V24.85h-.88V24h-.89v.88h.89v1.78h.88v.89h-.88v-.89h-.89v-.89h-.89v-.89H79v.89h.89v.89h.89v.89h.89v.89h.88v.88h-.88v-.88h-.89v-.89h-.89v.89h.89v.88h-.89v-.88H79v.88h.89v.89h.89v.89h-.89v-.89H79v-.89h-.89v-.88h-.88v.88h.88v.89H79v.89h-.89v-.89h-.88v.89h.88V32h-.88v-.89h-.89V29.29h-.89v-.88h.89v-.89h.89v-.89h-.89v.89h-.89v.89h-.89v.88h.89v1.78h.89V32h.89v.88h.88v.89h-.88v-.89h-.89V32h-.89v-.89h-.89v-.89h-.88v.89h.88V32h.89v.88h-.89V32h-.88v-.89h-.89v-.89H71.9v.89h.89v1.77h.89v.89h-.89v-.89H71.9V31.07H71v1.77h.89v.89H71v-.89h-.88V30.18H71v-.89h-.88v-.88h-.89v-.89h.89v-.89h-.89v-.89h-.89v-.89h-.89v.89h.89v.89h-.89v.89H65.69v1.77h.88v-.88h.89v.88h-.89v.89h-.88v-.89H64.8v-.88h-.89v.88h.89v.89h.89v.89h.88V32h-.88v-.89H64.8V32H63v-.89h.89v-.89H63v-.89h-.88v.89H63v.89h-.88v1.77H63v.89h-.88v-.89h-.89V32h-.89v.88h.89v.89h-.89v-.89h-.89V32h-.88v.88h.88v.89h.89v.89h-.89v-.89h-.88v-.89H57.7V32h-.89v.88h.89v.89h.89v.89H57.7v-.89h-.89v.89h.89v.89h-.89v-.89h-.89v-.89H55v.89h.88v.89H54.15v.88H52.37v-.88h.89v-.89h.89v-.89h-.89v.89h-.89v.89h-.89v.88h.89v.89H50.6v-.89h-.89v.89h.89v.89h-.89v.89H47.93v-.89h.89v-.89h-.89v.89H46.16v.89h1.77v.88h.89v.89h-.89v-.89H46.16v-.88h-.89v1.77h1.78v.89H45.27v-.89h-.89v-.89H43.5v-.88h.88v-.89h.89v-.89h-.89v.89H43.5v.89h-.89v.88h.89v.89h.88v.89h.89v.89h.89v.89h-.89v-.89h-.89v-.89H43.5v.89h.88v.89h.89v.88h.89v.89h-.89v-.89h-.89V43.5H43.5v-.89h-.89v.89h.89v.88h.88v.89H43.5v-.89H41.72v1.78H39.94v-.89h.89v-.89h-.89v.89h-.88v.89h.88v.89h-.88v-.89h-.89v.89h-.89v-.89h-.89v.89h-.88v-.89h-.89v.89h.89v.88h.88v.89h.89v-.89h.89v.89h-.89v2.66h1.78V50.6h.88v.88h-.88v.89H36.39v.89h1.78v.89h.89v-.89h.88v-.89h.89v.89h-.89v.89h-.88V55h.88v.88h-.88V55h-.89v-.89H36.39v-.89h-.88V55h1.77v.88h.89v.89h-.89v-.89H34.62v.89h-.89v-.89h-.89v.89h.89v.89h1.78v.89h.88V57.7h.89v.89h-.89v.88h.89v-.88h.89v.88h-.89v.89h-.89v-.89h-.88v.89h.88v.89h.89v.89h.89V63h-.89v3.56h.89v-.89h.89v.89h-.89v.88H35.51v.89h1.77v.89H34.62v-.89h-.89v.89h.89v.89h4.44v-.89h2.66v-.89H39.94v-.89h.89v-.88h.89v-.89h-.89v.89h-.89v-.89h.89V64.8h-.89v-.89h.89V63h.89v-.88h-.89v-.89h-.89v-.89h.89V58.59h.89V57.7h-.89v-.89h.89v-.89h.89V53.26h-.89v-.89H43.5v-.89h-.89V49.71h.89v-.89h.88v-.89h.89V46.16h2.66V44.38h.89V43.5H50.6v-.89h2.66v.89h-.89v.88h.89v.89h.89v.89h-.89v-.89h-.89v.89h.89v.89h-.89v-.89h-.89v-.89H50.6v.89h.88v1.77h.89v.89h-.89v-.89H50.6v-.88h-.89v-.89h-.89v.89h.89v.88h.89v.89h-.89v.89h.89v.89h-.89v-.89H47.93v-.89h.89v-.89h-.89v.89h-.88v.89h.88v.89h.89v.88h-.89V50.6h-.88v-.89h-.89v-.89h-.89v.89h.89v.89h.89v.88h-.89V50.6h-.89v-.89h-.89v1.77h1.78v.89h1.77v.89H46.16v-.89h-.89v.89h.89v.89h1.77v1.77h-.88V55h-.89v-.89h-.89V55h.89v.88h.89v.89h-.89v-.89h-.89v.89h.89v1.78h-.89V57.7h-.89v.89h.89v.88h-.89v-.88H43.5V57.7h-.89v.89h.89v.88h.88v.89H43.5v-.89h-.89v.89h-.89v.89h2.66V63h.89v-.88h.89V63h-.89v.89h-.89v1.78h.89V64.8h.89v.89h-.89v.89h-.89v-.89H43.5v.89h-.89v.88h.89v.89h-.89v1.78h.89v-.89h.88v.89h.89V68.35h.89v-.89h.89V63h.88v-.88h-.88v-.89h.88V59.47h.89v-.88h.89V56.81h.89V53.26h1.77v-.89h.89v-.89h.89V50.6H55v-.89h.88v-.89h.89V47.05h1.78v-.89h.88v-.89h-.88v.89H57.7v-.89h.89v-.89H57.7V43.5h-.89v-.89H55V39.94h.88v.89h.89V39.06h.89v-.89h.89v.89H57.7v.88h.89v-.88h3.55v-.89H63v.89h-.88v.88H63v.89h.89v.89h.89v-.89h.89v.89H64.8V43.5h.89v-.89h.88v.89h-.88v.88h1.77v.89h-.89v.89h1.78v-.89h.89v.89h-.89v.89h.89v.88H71v.89H69.24v.89h-.89V47.93h-.89v1.78H65.69v-.89h.88V47.05h-.88v-.89H64.8v-.89h.89v-.89H64.8v.89h-.89v.89h.89v.89h-.89v.88H63v-.88H61.25v-.89h-.89v.89H58.59v2.66h.88v-.89h.89v-.89h.89v.89h.89v.89H63v.89h.89v.88h.89v.89h-.89v-.89H63V50.6h-.88v-.89h-.89v.89h.89v3.55H63V55h-.88v-.89h-.89V52.37h-.89V55h-.89v-.89h-.88V55H57.7v-.89H55.92V55H57.7v.88H55.92v.89h.89v.89h.89v-.89h.89v-.89h.88v.89h-.88v.89H57.7v.89h-.89V57.7h-.89v-.89H55v.89h.88v.89h.89v.88h-.89v-.88H55v.88h.88v.89h.89v.89h.89V59.47h.89v-.88h.88v.88h-.88v.89h1.77v-.89h.89v.89h-.89v.89h.89v.89h.89V63h-.89v.89h.89v1.78h-.89v1.77h.89v-.88H63V64.8h.89v-.89H63V63h.89v-.88H63V59.47h.89V55.92h.89V55h.89V53.26h.88V51.48h6.22V50.6h.89v.88h.88V50.6h.89v-.89h.89v.89h-.89v.88h.89V50.6h.89v-.89h2.66v-.89h1.78v-.89h1.77v-.88h.89v-.89H87v-.89h.89v-.89h.89V43.5h.88v-.89h1.78v-.89H93.2v-.89h.89v-.89H95v-.88h1.78v-.89h1.77V36.39h.89v-.88h.89v.88h.88v-.88h.89v.88H103v-.88h.89v.88h.89v-.88h.88v.88h2.67v.89h.88v-.89h.89v.89h1.78v.89h1.77v-.89h.89v1.78h.89v-.89h.88v.89h1.78v.88h2.66v-.88h.89V37.28h.89v1.78h-.89v.88h.89v.89h1.77v-.89h.89v.89h3.55v.89h.89v-.89h.89v.89h.88v-.89h.89v.89h-.89v.89h.89v-.89h.89v.89H134v-.89h.88v.89h.89v-.89h.89v.89h.89v-.89h.88v-.89h.89v.89h-.89v.89h2.67V40.83h-.89v-.89h.89v-.88h-.89v.88h-.89v-.88h.89v-.89h.89V34.62h-.89v-.89h.89V32h-.89v-.89h.89v-.89h-.89V28.41h.89v-.89h-.89v.89h-1.78v-.89h.89v-.89h.89v-.89h.89v-.89h-.89v.89h-.89v-.89h-.89V24h-.88v.88h.88v.89h.89v.89h-1.77v-.89h-.89v.89h-.89v-.89h-.89v-.89H134v.89h-.89v-.89h-.89v.89h.89v.89H134v1.78h.88v1.77h.89v.89h.89V32h.89v.88h.88v1.78h-.88V32.84h-.89V32h-.89v-.89h-.89v-.89H134V28.41h-.89V26.63h-.89v1.78h.89v1.77H134v.89h.88V32h.89v.88h.89v.89h-.89v-.89h-.89V32H134v-.89h-.89v-.89h-.89V28.41h-.89V25.74h-.88v-.89h.88V24h.89v-.89h-.89v-.89h-.88v.89h.88V24h-.88v.88h-.89v.89h.89v2.67h.88v1.77h.89v.89h.89V32H134v.88h.88v.89h.89v.89h-.89v-.89H134v-.89h-.89V32h-.89v-.89h-.89v-.89h-.88V28.41h-.89V26.63h-.89v-.89h-.89v-.89h.89V24h.89v-.89h-.89V24h-.89v.88h-.88v.89h.88v.89h.89v1.78h.89v1.77h.89v.89h.88V32h.89v.88h.89v.89h-.89v-.89h-.89V32h-.88v-.89h-.89v-.89h-.89V28.41h-.89V26.63h-.88v-.89h-.89v-.89h-.89v.89h.89v.89h.89v1.78h.88v1.77h.89v.89h.89V32h.89v.88h.88v.89h.89v.89h-.89v-.89h-.88v-.89h-.89V32h-.89v-.89h-.89v-.89h-.88V28.41h-.89V26.63h-.89v-.89h-.89v-.89h-.88V24h.88v-.89h-.88v-.89h-.89V21.3h.89v-.88h.88v-.89h-.88v.89h-.89v.88h-.89v.89h.89v.89h.89V24h-.89v.88h.89v.89h.88v.89h.89v.89h-.89v-.89h-.88v-.89h-1.78v-.89h-.89V24h.89v-.89h-.89v-.89h-.89V21.3h.89v-.88h.89v-.89h.89v-.89h-.89v.89h-.89v-.89h-.89v-.89H119v-.88h.88V16h.89v-.89h-.89V16H119V14.2h1.77v.89h.89V16h.89v-.89h-.89V14.2h-.89v-.89h.89v-.88h-.89v-.89h-.89v-.89h.89V9.76h.89V8.88Zm-3.55,3.55h.89v-.89h-.89Zm-.89.88h.89v-.88h-.89ZM103,15.09h.89V12.43H103Zm5.33-1.78h.88v1.78h-.88v1.78h-.89V15.09h.89Zm-4.44,3.56h.89V15.09h-.89ZM98.53,16h.89v-.89h-.89Zm-1.77,0h.88v-.89h-.88Zm21.3.89H119V16h-.89Zm-3.55,0h.89V16h-.89Zm-16.87,0h.89V16h-.89Zm18.64,0v.88h.89v.89h.89v.89h-1.78v-.89h-.88V16.87Zm-8,1.77h.88V16.87h-.88Zm-3.55,0h.88V16.87h-.88Zm-3.55,0h.88V16.87h-.88Zm-8-.89h.89v-.88H93.2Zm.89,1.78H95V17.75h-.89Zm15.09,0h.89v-.89h-.89Zm-3.55,0h.89v-.89h-.89Zm-3.55,0H103v-.89h-.89Zm-9.76,0h.88v-.89h-.88Zm-1.78,0h.89v-.89h-.89Zm19.53.89H111v-.89h-.89Zm-3.55,0h.89v-.89h-.89Zm-3.55,0h.89v-.89H103Zm-8.88-.89v.89H93.2v.88h-.88v.89h-.89V21.3h.89v-.88h.88v-.89ZM111,21.3h.89v-.88H111Zm-3.55,0h.89v-.88h-.89Zm-3.55,0h.89v-.88h-.89Zm-3.55.89h.88V20.42h-.88ZM89.65,21.3h.89v-.88h-.89Zm-1.77,0h.89v-.88h-.89Zm24,.89h.88V21.3h-.88Zm-3.55,0h.88V21.3h-.88Zm-3.55.89h.88V21.3h-.88Zm-10.66-.89H95V21.3h-.89Zm18.64.89h.89v-.89h-.89Zm-3.55,0h.89v-.89h-.89Zm-8,0h.88v-.89h-.88Zm-6.22,0h.89v-.89H95Zm18.64.89h.89v-.89h-.89Zm-5.32,0h.88v-.89h-.88Zm-6.22,0H103v-.89h-.89Zm-5.32-.89V24h-.89v.88H95V24h.89v-.89ZM93.2,24h.89v-.89H93.2Zm-3.55,0h.89v-.89h-.89Zm-1.77,0h.89v-.89h-.89Zm10.65.88h1.78V24H98.53Zm-7.1,0h.89V24h-.89Zm-5.33,0H87V24H86.1Zm14.21,1.78h.88V24.85h-.88Zm-3.55-1.78h1.77v.89h.89v.89H97.64v-.89h-.88Zm-8,.89h.88v-.89h-.88Zm45.27.89h.88v-.89H134ZM95,26.63h.89v-.89H95Zm-1.78,0h.89v-.89H93.2Zm-6.21,0h.89v-.89H87Zm49.71,1.78h.89V26.63h-.89Zm-1.78,0h.89V26.63h-.89ZM122.5,26.63h.89v.89h-.89v.89h-1.78v-.89h1.78Zm-5.33.89h.89v-.89h-.89Zm-3.55,0v-.89h2.66v.89h-1.77v.89h1.77v.88h.89v.89h-.89v-.89h-1.77v-.88h-1.78v-.89Zm-2.66,0h1.77v-.89H111Zm-8.88-.89v.89h-.89v.89h-.88v-.89h.88v-.89Zm-6.21.89h.89v-.89h-.89Zm-4.44,0h.89v-.89h-.89Zm-1.78,0h.89v-.89h-.89Zm-21.3,0h.89v-.89h-.89Zm55.92,0v.89h-.88v1.77h-.89V28.41h.89v-.89Zm-6.21.89H119v-.89h-.89Zm-1.78,0h.89v-.89h-.89Zm-6.21.88H111V27.52h-.89Zm-4.44-.88h.89v-.89h-.89Zm-2.66,0h.89v-.89H103Zm-4.44-.89h.89v.89h-.89v.88h-.89v-.88h.89Zm-4.44,0H95v.89h-.89v.88H93.2v-.88h.89Zm-6.21,0h.89v.89h-.89v.88H87v-.88h.89Zm-2.67.89h.89v-.89h-.89Zm-17.75,0h.89v-.89h-.89Zm71,0v.88h.89v.89h-1.77V28.41Zm-2.66,1.77h.89V28.41h-.89Zm-9.76-1.77v1.77h-.89v.89h.89v-.89h.89v.89h-.89V32h.89v-.89h.88V32h-.88v.88h-.89V32h-.89v-.89h-.89V32h-.88V30.18h1.77v-.89h-.89v-.88Zm-5.33,0v.88h.89v.89h-1.78v-.89H119v-.88Zm-3.55.88h.89v-.88h-.89Zm-5.32,0h.88v-.88h-.88Zm-8,0h.89v-.88h-.89Zm-2.66,0h.88v-.88h-.88Zm-5.33,0h.89v-.88h-.89Zm-5.33,0h.89v-.88h-.89Zm-7.1,0h.89v-.88h-.89Zm-15.09,0h.89v-.88h-.89Zm49.71.89H119v-.89h-.89Zm-5.33,0h.89v-.89h-.89Zm-6.21,0h.89v-.89h-.89Zm-1.77,0h.88v-.89h-.88Zm-2.67,0H103v-.89h-.89Zm-1.77,0h.88v-.89h-.88Zm-1.78,0h.89v-.89h-.89Zm-9.76,0h.88v-.89h-.88Zm-3.56,0h.89v-.89h-.89Zm-16,0h.89v-.89h-.89Zm-1.78,0h.89v-.89h-.89Zm71.9.89h.89v-.89h-.89Zm-2.66,0h.89v-.89h-.89Zm-14.2-.89v.89h-.89v1.77h-.89V31.07h.89v-.89Zm-8,0h.89v.89h-.89V32h-.89v.88h-.89V32h.89v-.89h.89Zm-3.55.89h.89v-.89H111Zm-1.78,0h.89v-.89h-.89Zm-1.77,0h.89v-.89h-.89Zm-4.44,0h.89v-.89H103Zm-6.21,0h.88v-.89h-.88Zm-2.67,0H95v-.89h-.89Zm-1.77,0h.88v-.89h-.88ZM87,30.18h.89v.89H87V32H86.1v-.89H87Zm-3.55.89h.89v-.89h-.89Zm-1.77,0h.88v-.89h-.88Zm55.92.89h1.77v-.89h-1.77ZM119,31.07h.88V32H119v.88h-.89V32H119Zm-1.78.89h.89v-.89h-.89Zm-11.54,0h.89v-.89h-.89Zm-5.32,0h.88v-.89h-.88Zm-1.78,0h.89v-.89h-.89Zm-8,0h.89v-.89h-.89Zm-1.77,0h.88v-.89h-.88Zm-20.42-.89h.89V32h-.89v.88h-.89V32h.89Zm71,2.66h.89V32h-.89Zm-11.54-.89h.89V32h-.89Zm-3.55,0h.89V32h-.89ZM122.5,32h.89v.88h-.89v.89h-.89v.89h-.89v-.89h.89v-.89h.89Zm-7.1.88h.88V32h-.88Zm-5.33,0H111V32h-.89Zm-1.77,0h.88V32h-.88Zm-6.22,0H103V32h-.89Zm-6.21,0h.89V32h-.89Zm-3.55,0h.88V32h-.88Zm-8,0h.88V32h-.88Zm-1.78,0h.89V32h-.89Zm-1.77,0h.89V32h-.89Zm-1.78,0h.89V32H79Zm49.71.89h.89v-.89h-.89Zm-3.55,0h.89v-.89h-.89Zm-6.21.89h.88V32.84H119Zm-2.67-.89h.89v-.89h-.89Zm-5.32,0h.89v-.89H111Zm-4.44,0h.89v-.89h-.89Zm-2.66,0h.89v-.89h-.89Zm-6.22,0h.89v-.89h-.89Zm-3.55,0H95v-.89h-.89Zm-3.55,0h.89v-.89h-.89Zm-2.66,0h.89v-.89h-.89Zm-1.78,0H87v-.89H86.1Zm-22.19,0h.89v-.89h-.89Zm65.69.89h.89v-.89h-.89Zm-1.78-.89h.89v.89h-.89v.89h-.88v-.89h.88Zm-1.77.89h.89v-.89h-.89Zm-1.78.89h.89V33.73h-.89Zm-.88-1.78v.89h-.89v.89h-.89v-.89h.89v-.89Zm-6.22.89h.89v-.89h-.89Zm-2.66,0h.89v-.89h-.89Zm-1.78,0h.89v-.89h-.89Zm-8,0h.88v-.89h-.88Zm-4.44,0h.88v-.89h-.88Zm-8,0h.88v-.89h-.88Zm-8,0h.88v-.89h-.88Zm-1.78-.89h.89v.89h-.89v.89h-.88v-.89h.88Zm-2.66,0h.89v.89h-.89v.89H79v-.89h.89Zm-4.44.89h.89v-.89h-.89Zm-6.21,0h.89v-.89h-.89Zm-1.78,0h.89v-.89h-.89Zm-1.77-.89h.88v.89h-.88v.89H64.8v-.89h.89Zm73.67.89h.89v.89h-.89v.88h-.89v-.88h.89Zm-2.66,0h.89v.89h-.89v.88h-.89v-.88h.89Zm-3.55.89h1.77v-.89h-1.77Zm-2.66,0h.88v-.89h-.88Zm-.89-.89v.89h-.89v.88h-.89v-.88h.89v-.89Zm-9.77.89h.89v-.89h-.89Zm-1.77,0H119v-.89h-.89Zm-1.78-.89h.89v.89h-.89v.88h-.88v-.88h.88Zm-6.21.89H111v-.89h-.89Zm-1.77,0h.88v-.89h-.88Zm-9.77,0h.89v-.89h-.89Zm-1.77,0h.88v-.89h-.88Zm-7.11-.89h.89v.89h-.89v.88h-.88v-.88h.88ZM87,35.51h.89v-.89H87Zm-9.76-.89h.88v.89h-.88v.88h-.89v-.88h.89Zm-3.55.89h.88v-.89h-.88Zm-2.67,0h.89v-.89H71Zm-8,0h.89v-.89H63Zm-1.77-.89h.89v.89h-.89v.88h-.89v-.88h.89Zm71,.89v.88h-.89v.89h-.88v-.89h.88v-.88Zm-7.1.88h.89v-.88h-.89Zm-2.66,0h.89v-.88h-.89Zm-1.78,0h.89v-.88h-.89Zm-7.1,0h.89v-.88h-.89Zm-1.77,0h.88v-.88h-.88Zm-17.76,0H95v-.88h-.89Zm-2.66,0h.89v-.88h-.89Zm-6.22,0h.89v-.88h-.89Zm-1.77,0h.89v-.88h-.89Zm-16.87,0h.89v-.88h-.89Zm-8,0h.88v-.88h-.88Zm81.66,0v.89h-.89v.89h-.89v.89h-.88v-.89h.88v-.89h.89v-.89Zm-3.55.89h.89v-.89h-.89Zm-2.66,0h.88v-.89H134Zm-.89-.89v.89h-.89v.89h-.89v-.89h.89v-.89Zm-4.44.89h.89v-.89h-.89Zm-1.77-.89v.89h-.89v.89h-.89v.89h-.89v.88h-.88v-.88h.88v-.89h.89v-.89h.89v-.89Zm-3.55,1.78h.88V36.39h-.88Zm-5.33-.89h1.77v-.89h-1.77Zm-1.78,0h.89v-.89h-.89Zm-20.41,0h.89v-.89h-.89Zm-14.2,0h.88v-.89h-.88Zm-1.78,0h.89v-.89h-.89Zm-1.78,0H79v-.89h-.89Zm-3.55,0h.89v-.89h-.89Zm-6.21,0h.89v-.89h-.89Zm-6.21,0H63v-.89h-.88Zm-5.33,0h.89v-.89h-.89Zm-1.77,0h.88v-.89H55Zm79.88.89h.89v-.89h-.89Zm-5.32,0h.89v-.89h-.89Zm-1.78-.89h.89v.89h-.89v.89h-.88v-.89h.88Zm-7.1,0v.89h-.89v.89H119v-.89h.88v-.89Zm-3.55.89h.89v-.89h-.89Zm-23.08,0H95v-.89h-.89Zm-1.77-.89h.88v.89h-.88v.89h-.89v.88h-.89v-.88h.89v-.89h.89Zm-2.67.89h.89v-.89h-.89Zm-1.77,0h.89v-.89h-.89Zm-1.78,0H87v-.89H86.1Zm-2.66,0h.89v-.89h-.89Zm-7.1-.89h.89v.89h-.89v.89h-.89v-.89h.89Zm-4.44.89h.89v-.89H71.9Zm-2.66,0h.89v-.89h-.89Zm-2.67,0h.89v-.89h-.89Zm-2.66,0h.89v-.89h-.89Zm-4.44,0h.89v-.89h-.89Zm-6.21-.89h.89v.89h-.89v.89h-.89v-.89h.89Zm82.55,1.78h.89v-.89h-.89Zm-1.77,0h.88v-.89H134Zm-.89-.89v.89h-.89v.88h-.89v-.88h.89v-.89Zm-52.37.89h.89v-.89h-.89Zm-1.78,0h.89v-.89H79Zm-5.32,0h.88v-.89h-.88ZM55,39.06h.88v-.89H55ZM129.6,40h.89v-.89h-.89Zm-1.78,0h.89v-.88h-.89Zm-1.77,0h.89v-.89h-.89ZM85.21,40h.89v-.89h-.89Zm-1.77,0h.89v-.89h-.89Zm-6.21,0h.88v-.89h-.88ZM71,40h.89v-.89H71Zm-3.55,0h.89v-.89h-.89ZM64.8,40h.89v-.89H64.8ZM50.6,40h.88v-.89H50.6Zm86.1.88h.89v-.89h-.89Zm-1.78,0h.89v-.89h-.89Zm-1.77,0H134v-.89h-.89Zm-40.83,0h.88v-.89h-.88Zm-3.55,0h.88v-.89h-.88Zm-1.78,0h.89v-.89H87Zm-5.32,0h.88v-.89h-.88Zm-9.77,0h.89V40H71.9Zm-19.53,0h.89v-.89h-.89Zm27.52.89h.89v-.89h-.89Zm-2.66,0h.88v-.89h-.88Zm-2.67,0h.89v-.89h-.89Zm-5.32-.89h.89v.89h-.89v.89h.89v-.89H71v.89h-.88v.89H71v-.89h.89v.89H71v.88h.89V43.5h.89v.88h.89V43.5h.88v.88h3.55v.89H79v-.89h.89v.89H79v.89h.89v.89H79v-.89h-.89v-.89H76.34v.89h-.89v-.89h-.89v.89h.89v1.77h2.66v.89H73.68v-.89h.88v-.88h-.88v.88h-.89v-.88H71v-.89h.89v-.89H71v.89h-.88V44.38H68.35V43.5h.89v-.89h-.89v.89h-.89V40.83h.89v.89h.89Zm-16,.89h.89v-.89h-.89Zm-3.55,0h.89v-.89h-.89Zm39.06,0h.88v.89h-.88v.89h-.89v-.89h.89Zm-2.67.89H87v-.89H86.1Zm-1.77,0h.88v-.89h-.88Zm-1.78,0h.89v-.89h-.89Zm-9.76,0h.89v-.89h-.89Zm-24.86-.89h.89v.89h-.89v.89h-.88v-.89h.88ZM79,43.5h.89v-.89H79Zm-2.66,0h.89v-.89h-.89Zm9.76.88H87V43.5H86.1Zm-2.66,0h.89V43.5h-.89Zm-2.66,0h.89V43.5h-.89Zm-26.63,0H55V43.5h-.89Zm30.18.89h.88v-.89h-.88Zm-2.66,0h.88v-.89h-.88Zm-25.75,0h.89v-.89h-.89Zm-13.31.89h.89v-.89h-.89Zm39.94.89h.89v-.89h-.89Zm-1.77,0h.89v-.89h-.89Zm-4.44,0h1.77v-.89H76.34Zm1.77.88H79v-.88h-.89Zm-13.31.89h.89V47.05H64.8Zm-10.65-.89H55v-.88h-.89ZM79,48.82h.89v-.89H79Zm-37.28-.89h.89v.89h-.89v.89h-.89v-.89h.89Zm11.54,1.78h.89v-.89h-.89Zm-14.2-.89h.88v.89h-.88v.89h-.89v-.89h.89ZM71,50.6h.89v-.89H71Zm-19.53,0h.89v-.89h-.89Zm-10.65.88h.89V50.6h-.89Zm9.77.89h.88v-.89H50.6ZM63,53.26h.89v-.89H63Zm-14.2,0h.89v-.89h-.89Zm0,1.78h.89v-.89h-.89Zm-8,0h.89v-.89h-.89Zm20.42.88h.89v.89h-.89v.89h-.89v-.89h.89Zm-13.32.89h.89v.89h-.89v.89h-.88V57.7h.88Zm-8.87.89h.88v-.89h-.88Zm23.08.89H63V57.7h-.88Zm-23.08.88h.88v-.88h-.88Zm7.1,0h.89v.89h-.89v.89h-.89v-.89h.89Zm-8,1.78h.89v-.89h-.89ZM39.06,63h.88v-.88h-.88Zm-.89,1.78h.89v-.89h-.89Zm5.33,2.66h.88v-.88H43.5Zm.88.89h.89v-.89h-.89Zm-6.21.89h.89v-.89h-.89Zm79-59.48h.89V8.88h-.89Zm-1.77,0h.88V8.88h-.88Zm-9.77,0h.89V8.88h-.89Zm-1.77-.88v.88H103v.89h.89V9.76h.89V8.88ZM93.2,9.76h.89V8.88H93.2Zm-7.1,0H87V8.88H86.1Zm-2.66,0h.89V8.88h-.89Zm-16,0h.89V8.88h-.89Zm-1.77,0h.88V8.88h-.88Zm71,.89h.89V9.76h-.89Zm-3.55,0H134V9.76h-.89Zm-6.21-.89v.89h-.89v.89h.89v.89h.88v-.89h-.88v-.89h.88V9.76Zm-16,.89h.89V9.76H111Zm-12.43,0h.89V9.76h-.89Zm-1.77,0h.88V9.76h-.88Zm-6.22,0h.89V9.76h-.89Zm-1.77,0h.88V9.76h-.88Zm-7.1,0h.88V9.76h-.88Zm-2.67,0h.89V9.76H79Zm-4.44,0h.89V9.76h-.89ZM63,10.65h.89V9.76H63Zm71.9.89h.89v-.89h-.89Zm-4.43-.89v.89h.88v.89h.89v-.89h-.89v-.89Zm-6.22.89h.89v-.89h-.89Zm-31.95,0h.88v-.89h-.88Zm-7.11,0h.89v-.89h-.89Zm-1.77,0h.89v-.89h-.89Zm-18.64,0h.89v-.89H64.8Zm74.56.89h.89v-.89h-.89Zm-2.66-.89v.89h.89v.88h.88v-.88h-.88v-.89Zm-3.55,0v.89H134v.88h.88v-.88H134v-.89Zm-4.44,0v.89h.89v.88h.89v-.88h-.89v-.89Zm-30.18.89h.89v-.89h-.89Zm-4.44,0H95v-.89h-.89ZM87,11.54v.89h.89v.88h.89v-.88h-.89v-.89Zm-7.1.89h.89v-.89h-.89Zm-3.55,0h.89v-.89h-.89Zm-5.33,0h.89v-.89H71Zm-9.76,0h.89v-.89h-.89Zm63.91.88h.89v-.88h-.89Zm-34.62,0h.89v-.88h-.89Zm-5.33-.88v.88h-.88v.89h.88v-.89h.89v-.88Zm-2.66.88h.89v-.88h-.89Zm-14.2,0h.89v-.88h-.89Zm-2.66,0h.88v-.88h-.88Zm70.12.89h.89v-.88h-.89Zm-3.55-.89v.89h-.89v.89h.89V14.2h.89v-.89Zm-4.44.89h.89v-.88h-.89Zm-33.73,0H95v-.88h-.89Zm-1.77,0h.88v-.88h-.88Zm-11.54,0h.89v-.88h-.89Zm-2.67,0H79v-.88h-.89Zm-3.55,0h.89v-.88h-.89Zm-10.65,0h.89v-.88h-.89Zm-4.44,0h.89v-.88h-.89Zm-6.21,0h.89v-.88h-.89Zm87,.89h.89V14.2h-.89Zm-1.78,0h.89V14.2h-.89Zm-8.87,0h.89V14.2h-.89Zm-3.55-.89v.89h.89V16h.88v-.89h-.88V14.2Zm-1.78.89h.89V14.2h-.89Zm-33.73,0h.89V14.2h-.89ZM86.1,14.2v.89H87V16h.89v-.89H87V14.2Zm-3.55,0v.89h.89V16h.89v-.89h-.89V14.2Zm-6.21.89h.89V14.2h-.89Zm-4.44,0h.89V14.2H71.9Zm-9.76,0H63V14.2h-.88Zm-5.33,0h.89V14.2h-.89Zm-28.4-.89v.89h.88V16h.89v-.89h-.89V14.2Zm-1.78.89h.89V14.2h-.89Zm-1.78,0h.89V14.2h-.89Zm111,.89h.89v-.89h-.89Zm-2.66-.89V16H134v.89h.88V16H134v-.89ZM79,16h.89v-.89H79Zm-5.32,0h.88v-.89h-.88Zm-3.55,0H71v-.89h-.88Zm-2.67,0h.89v-.89h-.89ZM64.8,16h.89v-.89H64.8ZM55,16h.88v-.89H55Zm-5.33,0h.89v-.89h-.89Zm-2.66,0h.88v-.89h-.88Zm-2.67,0h.89v-.89h-.89Zm-2.66,0h.89v-.89h-.89Zm-2.66,0h.88v-.89h-.88Zm-1.78-.89V16h-.89v.89h-.88v.88h-.89v.89h.89v-.89h.88v-.88h.89V16h.89v-.89ZM34.62,16h.89v-.89h-.89Zm-1.78,0h.89v-.89h-.89Zm-1.77,0H32v-.89h-.89Zm-8.88,0h.89v-.89h-.89Zm-1.77,0h.88v-.89h-.88Zm-2.67,0h.89v-.89h-.89Zm120.72.89h.89V16h-.89Zm-8.87,0h.89V16h-.89Zm-4.44,0h.89V16h-.89ZM123.39,16v.89h-.89v.88h.89v-.88h.88V16Zm-32.85.89h.89V16h-.89Zm-1.77,0h.88V16h-.88ZM81.67,16v.89h-.89v.88h.89v-.88h.88V16ZM63,16v.89h-.88v.88h-.89v.89h.89v-.89H63v-.88h.89V16Zm-2.66.89h.89V16h-.89Zm-2.66,0h.89V16H57.7Zm-5.33,0h.89V16h-.89Zm-25.74,0h.89V16h-.89ZM24,16v.89h-.89v.88H24v1.78h-.89v-.89h-.89v.89h.89v.89h-.89v-.89H21.3v-.89h-.88v.89h.88v.89h.89v.88h.89v.89h-.89V21.3H21.3v-.88h-.88v.88h-.89V19.53h-.89V21.3h.89v.89h-.89V21.3h-.89v-.88h-.88v.88h.88v.89h.89v.89h-.89v-.89h-.88V21.3H13.31v-.88h.89v-.89h-.89v.89h-.88v-.89h-.89v.89h.89v.88h.88v.89h.89v.89h-.89v-.89h-.88V21.3h-.89v.89H9.76v.89h.89V24H9.76v-.89H8.88v-.89H8V21.3H7.1v.89H8v.89h.89V24H8v-.89H5.33v-.89H4.44v.89h.89V24h.88v.88H5.33V24H4.44v-.89H2.66v-.89H1.78v.89h.88v1.77h.89V24h.89v.88H3.55v.89h8.88v-.89h.88v.89h.89v-.89h.89V24H16v-.89h.89V24H16v.88h3.55V24h.89v.88h.88V24h.89v.88h.89V24H24v-.89h.88V24H24v.88h.88V24h2.67v.88h2.66v.89h3.55v.89h.89v-.89h.89v.89h2.66v.89h.89v.89h.88v.88h1.78v.89h.89v.89h-.89v1.77h-.89v.89h-.89v1.78H38.17v.88h1.77v-.88h.89v-.89h1.78v-.89h.89v.89h.88V32.84h.89v.89h.89V32h.89v.88h.88V32h1.78v-.89h1.77V29.29h.89v.89h.89v-.89h-.89v-.88h.89v-.89H55v-.89h-.89v-.89h1.77v-.89h.89V24h.89v-.89h.89v-.89h.88V21.3h.89V19.53h-.89V21.3h-.88V19.53H57.7V21.3H54.15v-.88H55v-.89h-.89v.89h-.89v-.89h-.89v-.89h-.89v-.89H50.6v.89h.88v.89h.89v.89h.89v.88h.89v.89H55v.89h-.89v-.89h-.89V21.3h-.89v-.88h-.89v.88h.89v.89h-.89V21.3H50.6V19.53h-.89V21.3h.89v1.78h.88V24H50.6v-.89h-.89v-.89h-.89V21.3h-.89v.89h.89v.89h.89V24h.89v.88h-.89v.89h.89v.89h2.66v.89H51.48v1.77H50.6V27.52h-.89v.89h-.89v-.89h-.89v-.89h-.88v-.89h-.89v-.89H44.38V24h.89v-.89H43.5v-.89h-.89V21.3h-.89v.89h.89v.89h.89v1.77h.88v1.78h.89v-.89h.89v.89h-.89v.89h-.89v-.89H43.5v-.89h-.89v-.89h-.89v.89h.89v.89h.89v.89h.88v.89H43.5v-.89H41.72v-.89h-.89v.89h.89v.89h-.89v-.89h-.89v-.89H38.17V24.85h-.89V24h.89v-.89h-.89V24h-.89v-.89h.89v-.89h-.89V21.3H34.62v-.88h.89v-.89h-.89v.89h-.89v.88h.89v.89h.89v.89h-.89v-.89h-.89V21.3h-.89v-.88H32v.88h.88v.89h.89v.89h-.89v-.89H32V21.3H30.18v-.88h.89v-.89h-.89v.89h-.89v.88h.89v.89h.89v.89H32V24h-.89v-.89h-.89v-.89h-.89V21.3h-.88v-.88h-.89v.88h.89v.89h-.89V21.3h-.89v-.88h-.89v-.89h-.89V17.75H24v-.88h.88V16Zm.88,5.32h.89v-.88h-.89Zm.89.89h.89V21.3h-.89Zm-1.77,0h.88V21.3H24Zm32,.89h.89v-.89h-.89Zm-29.29,0h.89v-.89h-.89Zm-6.21,0h.88v-.89h-.88Zm-5.33,0H16v-.89h-.89ZM52.37,24h.89v-.89h-.89Zm-24,0h.88v-.89h-.88ZM11.54,24h.89v-.89h-.89Zm43.5.88h.88V24H55Zm-20.42,0h.89V24h-.89Zm-1.78,0h.89V24h-.89Zm-25.74,0H8V24H7.1Zm46.16.89h.89v-.89h-.89Zm-1.78,0h.89v-.89h-.89Zm-5.32,2.67h.89v-.89h-.89Zm.89.88h.88v-.88h-.88Zm-1.78,0h.89v-.88h-.89Zm-2.66,0h.89v-.88h-.89Zm5.32.89h.89v-.89h-.89Zm.89.89h.89v-.89h-.89Zm-1.77,0h.88v-.89h-.88Zm-1.78-.89h.89v.89h-.89V32h-.89v.88H43.5V32h.88v-.89h.89Zm-1.77,0h.88v.89H43.5V32h-.89v-.89h.89Zm-1.78,3.55h.89v-.89h-.89ZM16,16.87h.89V16H16Zm120.72.88h.89v-.88h-.89Zm-5.33,0h.89v-.88h-.89Zm-3.55,0h.89v-.88h-.89Zm-7.1,0h.89v-.88h-.89Zm-42.61,0H79v-.88h-.89Zm-1.77,0h.89v-.88h-.89Zm-3.55,0h.89v-.88h-.89Zm-24-.88v.88h-.89v.89h.89v-.89h.89v-.88Zm-2.66.88h.89v-.88h-.89Zm-13.32,0h.89v-.88h-.89Zm-2.66,0h.89v-.88h-.89Zm-8.88,0h.89v-.88H21.3Zm-7.1,0h.89v-.88H14.2Zm124.27.89h.89v-.89h-.89Zm-5.32,0H134v-.89h-.89Zm-3.55,0h.89v-.89h-.89Zm-3.55-.89v.89h.89v.89h.88v.89h-.88v.88h-.89v.89h.89v.89h.88v-.89h-.88V21.3h.88v-.88h.89v-.89h-.89v-.89h-.88v-.89Zm-1.78.89h.89v-.89h-.89Zm-49.71,0h.89v-.89h-.89Zm-4.43,0H71v-.89h-.88Zm-2.67,0h.89v-.89h-.89Zm-2.66,0h.89v-.89H64.8Zm-5.33,0h.89v-.89h-.89Zm-1.77,0h.89v-.89H57.7Zm-2.66,0h.88v-.89H55Zm-1.78,0h.89v-.89h-.89Zm-8.88,0h.89v-.89h-.89Zm-2.66,0h.89v-.89h-.89Zm-4.44,0h.89v-.89h-.89Zm-8.87,0h.88v-.89h-.88Zm-9.77,0h.89v-.89h-.89Zm-8,0h.89v-.89h-.89Zm-3.55,0H8v-.89H7.1Zm127.82.89h.89v-.89h-.89Zm-3.55,0h.89v-.89h-.89Zm-51.48,0h.89v-.89h-.89Zm-2.66,0h.88v-.89h-.88Zm-5.33,0h.89v-.89H71.9Zm-8.88,0h.89v-.89H63ZM32,19.53h.88v-.89H32Zm-5.33,0h.89v-.89h-.89Zm-9.76,0h.88v-.89h-.88Zm-12.43,0h.89v-.89H4.44Zm134.92.89h.89v-.89h-.89Zm-2.66,0h.89v-.89h-.89Zm-3.55,0H134v-.89h-.89Zm-3.55,0h.89v-.89h-.89Zm-4.44,0h.89v-.89h-.89Zm-43.49,0h.88v-.89h-.88Zm-6.22,0h.89v-.89h-.89Zm-5.32,0H71v-.89h-.88Zm-8.88,0h.89v-.89h-.89Zm-5.33,0h.89v-.89h-.89Zm-8,0h.89v-.89h-.89Zm-11.54,0h.89v-.89h-.89Zm-21.3,0H16v-.89h-.89Zm-12.43,0h.89v-.89H2.66Zm132.26.88h.89v-.88h-.89Zm-3.55,0h.89v-.88h-.89Zm-51.48,0h.89v-.88h-.89Zm-6.21-.88v.88h-.89v.89h.89V21.3h.88v-.88Zm-5.33.88h.89v-.88h-.89Zm-2.66,0h.88v-.88h-.88Zm-19.53,0h.89v-.88h-.89Zm-36.4,0h.89v-.88H9.76ZM.89,20.42v.88H0v.89H.89V21.3h.89v-.88Zm136.7.88v.89h.88v.89h.89V24h.89v-.89h-.89v-.89h-.89V21.3Zm-8.88.89h.89V21.3h-.89Zm-4.44,0h.89V21.3h-.89Zm-47,0h.88V21.3h-.88Zm-7.1,0H71V21.3h-.88Zm-6.22,0h.89V21.3h-.89Zm-2.66,0h.89V21.3h-.89Zm74.56.89h.89v-.89h-.89Zm-2.66-.89v.89H134V24h.88v-.89H134v-.89ZM79,23.08h.89v-.89H79Zm-3.55,0h.89v-.89h-.89Zm-8.88-.89v.89h.89V24h.89v-.89h-.89v-.89ZM125.16,24h.89v-.89h-.89ZM77.23,24h.88v-.89h-.88ZM71.9,24h.89v-.89H71.9Zm-2.66,0h.89v-.89h-.89ZM.89,24h.88v-.89H.89Zm134.92.88h.89V24h-.89Zm-60.36,0h.89V24h-.89ZM73.68,24v.88h-.89v.89h.89v-.89h.88V24Zm-8,0v.88H64.8v.89h.89v.89h.88v-.89h-.88v-.89h.88V24Zm-3.55.88H63V24h-.88Zm-22.2,0h.89V24h-.89Zm37.29.89h.88v-.89h-.88Zm-7.1-.89v.89H71v.89h.89v-.89H71v-.89Zm-10.66.89h.89v-.89h-.89Zm-11.54,0h.89v-.89h-.89Zm26.63.89h.89v-.89h-.89Zm3.55.89H79v-.89h-.89Zm-5.32,0h.89v-.89h-.89Zm-8.88,0h.89v-.89h-.89Zm7.1.89h.89v-.89H71Zm-8.87,0H63v-.89h-.88Zm-4.44,0h.89v-.89H57.7Zm15.09.88h.89v-.88h-.89Zm-12.43,0h.89v-.88h-.89Zm0,1.78h.89v-.89h-.89Zm-2.66,0h.89v-.89H57.7Zm-2.66,0h.88v-.89H55Zm-.89,1.77H55V32h-.89Zm-2.67.89h.89v-.89h-.89Zm-2.66,1.78h.89v-.89h-.89Zm-3.55,0v.88h.89v.89h.89v-.89h-.89v-.88Zm-1.77.88h.88v-.88H43.5Zm-1.78.89h.89v-.89h-.89Zm-5.33,0h.89v-.89h-.89Zm3.55.89h.89v-.89h-.89Zm-1.77-.89v.89h-.89v.89h.89v-.89h.89v-.89Zm-3.55.89v.89H32v.88h2.66v-.88h1.77v-.89Zm4.44.89v.88h1.77v.89h.89v.89h.89v-.89h-.89v-.89h-.89v-.88Zm21.3.88v.89h.89v.89h.89v-.89h-.89v-.89Zm-24,.89h.89V40h-.89Zm-6.21-.89v.89h-.89v1.78h-.88v.89h.88v.88h.89v1.78H32v.89h.88v.88h1.78v.89h.89v.89h.88v-.89h-.88v-.89h-.89v-.88H32.84v-.89h.89v-.89h.89v-.89h-.89v.89h-.89v.89H32v-.89h-.89v-.89h-.89V43.5h-.89v-.89h.89V40.83h.89v-.89Zm28.41,1.78h.88v-.89h-.88Zm-19.53-.89v.89h-.89v.89h-.89v.89h-.89v-.89h-.88v.89h.88v.88h-.88v.89h.88v-.89h.89V43.5h.89v-.89h.89v-.89h.88v-.89Zm-4.44.89h.89v-.89h-.89Zm28.4,0v.89h-.88v.89H63v.88h.89V43.5H63v-.89h.89v-.89Zm-31.95,0V43.5H32v.88h.88V43.5H32V41.72Zm28.4,1.78h.89v-.89h-.89Zm-18.64,0h.89v-.89h-.89Zm-7.1,0h.89v-.89h-.89Zm16.87.88h.88V43.5H50.6Zm9.76.89h.89v-.89h-.89Zm-11.54,0h.89v-.89h-.89Zm24,.89h.89v-.89h-.89Zm-10.65,0H63v-.89h-.88Zm22.19,1.77h.88v-.88h-.88Zm-38.17,0h.89v-.88h-.89ZM33.73,50.6h.89v-.89h-.89Zm26.63.88h.89V50.6h-.89Zm-2.66,0h.89V50.6H57.7Zm-22.19,0h.88V50.6h-.88Zm-1.78.89h.89v-.89h-.89Zm24.86.89h.88v-.89h-.88Zm-1.78,0h.89v-.89h-.89Zm-13.31,0h.88v-.89H43.5Zm-10.66,0v.89h.89V55h.89v-.89h-.89v-.89ZM43.5,55h.88v-.89H43.5Zm0,1.77h.88v-.89H43.5Zm-9.77,2.66h.89v-.88h-.89Zm-1.77,0h.88v-.88H32ZM55,60.36v.89h.88v.89h.89v-.89h-.89v-.89Zm-21.31.89h.89v-.89h-.89Zm24,.89h.89v-.89H57.7Zm1.77.88h.89v-.88h-.89ZM42.61,63h.89v-.88h-.89Zm-7.1,0h.88v-.88h-.88Zm-1.78,0h.89v-.88h-.89Zm24,.89h.89V63H57.7Zm-1.78,0h.89V63h-.89Zm3.55.89h.89v-.89h-.89Zm-16.86,0h.89v-.89h-.89Zm-7.1,0h.88v-.89h-.88Zm-2.67-.89v.89h.89v.89h.89V64.8h-.89v-.89Zm24,.89v.89h.89v.89h.89v-.89H57.7V64.8ZM55,64.8v.89h.88v.89h.89v-.89h-.89V64.8Zm4.43,1.78h.89v-.89h-.89Zm-24,0h.88v-.89h-.88Zm-1.78.88h.89v-.88h-.89Zm26.63.89h.89v-.89h-.89Zm-1.77,0h.88v-.89h-.88Zm-1.78,0h.89v-.89h-.89Z"/></g></g></svg>