<svg width="211" height="42" viewBox="0 0 211 42" fill="none" xmlns="http://www.w3.org/2000/svg">
<path fill-rule="evenodd" clip-rule="evenodd" d="M198 29.4H203.399V24H198V29.4Z" fill="#191919"/>
<path fill-rule="evenodd" clip-rule="evenodd" d="M198 5.4H203.399V0H198V5.4Z" fill="#191919"/>
<path fill-rule="evenodd" clip-rule="evenodd" d="M186 41.4H191.4V36H186V41.4Z" fill="#191919"/>
<path fill-rule="evenodd" clip-rule="evenodd" d="M186 29.4H191.4V24H186V29.4Z" fill="#191919"/>
<path fill-rule="evenodd" clip-rule="evenodd" d="M174.4 17.4H191.4V12H174.4V17.4Z" fill="#191919"/>
<path fill-rule="evenodd" clip-rule="evenodd" d="M174 29.4H179.4V24H174V29.4Z" fill="#191919"/>
<path fill-rule="evenodd" clip-rule="evenodd" d="M174 17.4H179.4V12H174V17.4Z" fill="#191919"/>
<path fill-rule="evenodd" clip-rule="evenodd" d="M174 5.4H203V0H174V5.4Z" fill="#191919"/>
<path fill-rule="evenodd" clip-rule="evenodd" d="M162 41.4H167.4V36H162V41.4Z" fill="#191919"/>
<path fill-rule="evenodd" clip-rule="evenodd" d="M162 17.4H167.4V12H162V17.4Z" fill="#191919"/>
<path fill-rule="evenodd" clip-rule="evenodd" d="M162 5.4H167.4V0H162V5.4Z" fill="#191919"/>
<path fill-rule="evenodd" clip-rule="evenodd" d="M150 17.4H155.4V12H150V17.4Z" fill="#191919"/>
<path fill-rule="evenodd" clip-rule="evenodd" d="M150 5.4H155.4V0H150V5.4Z" fill="#191919"/>
<path fill-rule="evenodd" clip-rule="evenodd" d="M138 41.4H143.4V36H138V41.4Z" fill="#191919"/>
<path fill-rule="evenodd" clip-rule="evenodd" d="M138 29.4H159.6V24H138V29.4Z" fill="#191919"/>
<path fill-rule="evenodd" clip-rule="evenodd" d="M126 29.4H131.4V24H126V29.4Z" fill="#191919"/>
<path fill-rule="evenodd" clip-rule="evenodd" d="M126 17.4H131.4V12H126V17.4Z" fill="#191919"/>
<path fill-rule="evenodd" clip-rule="evenodd" d="M126 5.4H138V0H126V5.4Z" fill="#191919"/>
<path fill-rule="evenodd" clip-rule="evenodd" d="M114 29.4H119.4V24H114V29.4Z" fill="#191919"/>
<path fill-rule="evenodd" clip-rule="evenodd" d="M114 17.4H119.4V12H114V17.4Z" fill="#191919"/>
<path fill-rule="evenodd" clip-rule="evenodd" d="M114 5.4H119.4V0H114V5.4Z" fill="#191919"/>
<path fill-rule="evenodd" clip-rule="evenodd" d="M102 5.4H107.4V0H102V5.4Z" fill="#191919"/>
<path fill-rule="evenodd" clip-rule="evenodd" d="M90 41.4H95.4V36H90V41.4Z" fill="#191919"/>
<path fill-rule="evenodd" clip-rule="evenodd" d="M90 5.4H95.4V0H90V5.4Z" fill="#191919"/>
<path fill-rule="evenodd" clip-rule="evenodd" d="M78 17.4H83.4V12H78V17.4Z" fill="#191919"/>
<path fill-rule="evenodd" clip-rule="evenodd" d="M78 5.4H83.4V0H78V5.4Z" fill="#191919"/>
<path fill-rule="evenodd" clip-rule="evenodd" d="M66 29.4H71.4V24H66V29.4Z" fill="#191919"/>
<path fill-rule="evenodd" clip-rule="evenodd" d="M66 17.4H71.4V12H66V17.4Z" fill="#191919"/>
<path fill-rule="evenodd" clip-rule="evenodd" d="M54 5.4H59.4V0H54V5.4Z" fill="#191919"/>
<path fill-rule="evenodd" clip-rule="evenodd" d="M42 29.4H47.4V24H42V29.4Z" fill="#191919"/>
<path fill-rule="evenodd" clip-rule="evenodd" d="M42 5.4H83V0H42V5.4Z" fill="#191919"/>
<path fill-rule="evenodd" clip-rule="evenodd" d="M30 41.4H81V36H30V41.4Z" fill="#191919"/>
<path fill-rule="evenodd" clip-rule="evenodd" d="M30 29.4H35.4V24H30V29.4Z" fill="#191919"/>
<path fill-rule="evenodd" clip-rule="evenodd" d="M30 17.4H35.4V12H30V17.4Z" fill="#191919"/>
<path fill-rule="evenodd" clip-rule="evenodd" d="M30 5.4H35.4V0H30V5.4Z" fill="#191919"/>
<path fill-rule="evenodd" clip-rule="evenodd" d="M18 41.4H23.4V36H18V41.4Z" fill="#191919"/>
<path fill-rule="evenodd" clip-rule="evenodd" d="M18 17.4H23.4V12H18V17.4Z" fill="#191919"/>
<path fill-rule="evenodd" clip-rule="evenodd" d="M6 29.4H11.4V24H6V29.4Z" fill="#191919"/>
<path fill-rule="evenodd" clip-rule="evenodd" d="M35.6001 29.4H0.600098V24H35.6001V29.4Z" fill="#191919"/>
<path fill-rule="evenodd" clip-rule="evenodd" d="M61.5 17.4H108V12H61.5V17.4Z" fill="#191919"/>
</svg>
