<?xml version="1.0" encoding="UTF-8" standalone="no"?>
<!DOCTYPE svg PUBLIC "-//W3C//DTD SVG 1.1//EN" "http://www.w3.org/Graphics/SVG/1.1/DTD/svg11.dtd">
<svg width="100%" height="100%" viewBox="0 0 100 100" version="1.1" xmlns="http://www.w3.org/2000/svg" xmlns:xlink="http://www.w3.org/1999/xlink" xml:space="preserve" xmlns:serif="http://www.serif.com/" style="fill-rule:evenodd;clip-rule:evenodd;">
    <g transform="matrix(1,0,0,1,0,2.60685)">
        <g transform="matrix(1,0,0,1,13.1065,8)">
            <path d="M8.449,59.436L2,59.436L2,2L51.658,2L51.658,8.109" style="fill:none;fill-rule:nonzero;stroke:black;stroke-width:4px;"/>
        </g>
        <g transform="matrix(1,0,0,1,13.1065,8)">
            <path d="M17.423,68.41L10.974,68.41L10.974,10.974L60.633,10.974L60.633,17.083" style="fill:none;fill-rule:nonzero;stroke:black;stroke-width:4px;"/>
        </g>
        <g transform="matrix(1,0,0,1,13.1065,8)">
            <path d="M48.115,76.786L20.547,76.786L20.547,19.35L70.205,19.35L70.205,50.348" style="fill:none;fill-rule:nonzero;stroke:black;stroke-width:4px;"/>
        </g>
        <g transform="matrix(1,0,0,1,13.1065,8)">
            <rect x="28.923" y="26.53" width="12.564" height="12.564" style="fill:rgb(3,255,255);stroke:black;stroke-width:4px;"/>
        </g>
        <g transform="matrix(1,0,0,1,13.1065,8)">
            <rect x="48.068" y="26.53" width="12.564" height="12.564" style="fill:rgb(3,255,255);stroke:black;stroke-width:4px;"/>
        </g>
        <g transform="matrix(1,0,0,1,13.1065,8)">
            <rect x="28.923" y="45.675" width="12.564" height="12.564" style="fill:rgb(3,255,255);stroke:black;stroke-width:4px;"/>
        </g>
        <g transform="matrix(1,0,0,1,13.1065,8)">
            <path d="M51.146,65.162L71.787,65.162" style="fill:none;fill-rule:nonzero;stroke:black;stroke-width:4px;stroke-linecap:square;"/>
        </g>
        <g transform="matrix(1,0,0,1,13.1065,8)">
            <path d="M61.787,55.933L61.787,76.573" style="fill:none;fill-rule:nonzero;stroke:black;stroke-width:4px;stroke-linecap:square;"/>
        </g>
    </g>
</svg>
