<?xml version="1.0" encoding="UTF-8" standalone="no"?>
<!DOCTYPE svg PUBLIC "-//W3C//DTD SVG 1.1//EN" "http://www.w3.org/Graphics/SVG/1.1/DTD/svg11.dtd">
<svg width="100%" height="100%" viewBox="0 0 100 100" version="1.1" xmlns="http://www.w3.org/2000/svg" xmlns:xlink="http://www.w3.org/1999/xlink" xml:space="preserve" xmlns:serif="http://www.serif.com/" style="fill-rule:evenodd;clip-rule:evenodd;">
    <g transform="matrix(1,0,0,1,3,0)">
        <g transform="matrix(1,0,0,1,5,17.28)">
            <path d="M60.289,45.521C60.169,41.166 56.604,37.697 52.246,37.697L52.245,37.698L48.797,37.697L48.8,39.995L52.246,39.995L52.624,40.008C55.723,40.204 58.106,42.828 58.004,45.932C57.902,49.037 55.352,51.498 52.246,51.491L45.349,51.489L44.97,51.478C41.95,51.278 39.603,48.77 39.603,45.743L37.304,45.743L37.317,46.185C37.552,50.451 41.079,53.789 45.351,53.789L52.246,53.789L52.688,53.776C57.039,53.536 60.408,49.877 60.289,45.521ZM46.485,45.301C46.251,41.036 42.724,37.697 38.452,37.697L31.557,37.697L31.116,37.708C26.765,37.948 23.396,41.608 23.516,45.964C23.635,50.319 27.201,53.788 31.558,53.788L35.006,53.79L35.003,51.491L31.556,51.491L31.179,51.478C28.079,51.282 25.696,48.658 25.798,45.554C25.9,42.45 28.451,39.988 31.557,39.996L38.454,39.997L38.833,40.008C41.853,40.208 44.2,42.716 44.2,45.743L46.498,45.743L46.485,45.301Z"/>
        </g>
        <g transform="matrix(1,0,0,1,5,17.28)">
            <rect x="2" y="16.72" width="13.44" height="13.44" style="fill:rgb(3,255,255);stroke:black;stroke-width:4px;"/>
        </g>
        <g transform="matrix(1,0,0,1,5,17.28)">
            <rect x="23.76" y="16.72" width="13.44" height="13.44" style="fill:rgb(3,255,255);stroke:black;stroke-width:4px;"/>
        </g>
        <g transform="matrix(1,0,0,1,5,17.28)">
            <rect x="45.52" y="16.72" width="13.44" height="13.44" style="fill:rgb(3,255,255);stroke:black;stroke-width:4px;"/>
        </g>
        <g transform="matrix(1,0,0,1,5,17.28)">
            <rect x="68.56" y="16.72" width="13.44" height="13.44" style="fill:rgb(3,255,255);stroke:black;stroke-width:4px;"/>
        </g>
        <g transform="matrix(1,0,0,1,5,17.28)">
            <path d="M8.4,10.96L8.4,2L74.96,2L74.96,10.96" style="fill:none;fill-rule:nonzero;stroke:black;stroke-width:4px;"/>
        </g>
        <g transform="matrix(1,0,0,1,5,17.28)">
            <path d="M8.4,37.2L8.4,63.44L74.96,63.44L74.96,37.2" style="fill:none;fill-rule:nonzero;stroke:black;stroke-width:4px;"/>
        </g>
    </g>
</svg>
