<svg width="107" height="107" viewBox="0 0 107 107" fill="none" xmlns="http://www.w3.org/2000/svg">
<g clip-path="url(#clip0)">
<g filter="url(#filter0_d)">
<rect x="-105" y="-18" width="300" height="220" fill="white"/>
<rect x="-104.5" y="-17.5" width="299" height="219" stroke="#ECECEC"/>
</g>
<path fill-rule="evenodd" clip-rule="evenodd" d="M19.1897 84.4896H87.1297V16.5504H19.1897V84.4896Z" fill="#D1FF52"/>
<path fill-rule="evenodd" clip-rule="evenodd" d="M20.7896 82.8896H85.5296V18.1504H20.7896V82.8896ZM17.5896 86.0896H88.7296V14.9504H17.5896V86.0896Z" fill="black"/>
<path fill-rule="evenodd" clip-rule="evenodd" d="M2 69.4776H18.4888V66.2776H2V69.4776Z" fill="black"/>
<path fill-rule="evenodd" clip-rule="evenodd" d="M2 51.8112H18.4888V48.6104H2V51.8112Z" fill="black"/>
<path fill-rule="evenodd" clip-rule="evenodd" d="M2 34.1424H18.4888V30.9424H2V34.1424Z" fill="black"/>
<path fill-rule="evenodd" clip-rule="evenodd" d="M87.8313 69.4776H104.321V66.2776H87.8313V69.4776Z" fill="black"/>
<path fill-rule="evenodd" clip-rule="evenodd" d="M87.8313 51.8112H104.321V48.6104H87.8313V51.8112Z" fill="black"/>
<path fill-rule="evenodd" clip-rule="evenodd" d="M87.8313 34.1424H104.321V30.9424H87.8313V34.1424Z" fill="black"/>
<path fill-rule="evenodd" clip-rule="evenodd" d="M69.2273 16.5504H72.4281V3.80005H69.2273V16.5504Z" fill="black"/>
<path fill-rule="evenodd" clip-rule="evenodd" d="M51.5608 16.5504H54.7608V3.80005H51.5608V16.5504Z" fill="black"/>
<path fill-rule="evenodd" clip-rule="evenodd" d="M33.8921 16.5504H37.0921V3.80005H33.8921V16.5504Z" fill="black"/>
<path fill-rule="evenodd" clip-rule="evenodd" d="M69.2273 96.268H72.4281V84.4888H69.2273V96.268Z" fill="black"/>
<path fill-rule="evenodd" clip-rule="evenodd" d="M51.5608 96.268H54.7608V84.4888H51.5608V96.268Z" fill="black"/>
<path fill-rule="evenodd" clip-rule="evenodd" d="M33.8921 96.268H37.0921V84.4888H33.8921V96.268Z" fill="black"/>
<path fill-rule="evenodd" clip-rule="evenodd" d="M27.7407 76.4568H79.1511V25.0464H27.7407V76.4568Z" fill="white"/>
<path fill-rule="evenodd" clip-rule="evenodd" d="M29.3417 74.8568H77.5521V26.6464H29.3417V74.8568ZM26.1409 78.0568H80.7513V23.4464H26.1409V78.0568Z" fill="black"/>
<path fill-rule="evenodd" clip-rule="evenodd" d="M58.7125 37.6797C58.7125 40.6101 56.3373 42.9845 53.4069 42.9845C50.4773 42.9845 48.1021 40.6101 48.1021 37.6797C48.1021 34.7493 50.4773 32.3749 53.4069 32.3749C56.3373 32.3749 58.7125 34.7493 58.7125 37.6797Z" fill="#D1FF52"/>
<path fill-rule="evenodd" clip-rule="evenodd" d="M53.407 33.9747C51.3638 33.9747 49.7022 35.6371 49.7022 37.6795C49.7022 39.7227 51.3638 41.3851 53.407 41.3851C55.4502 41.3851 57.1126 39.7227 57.1126 37.6795C57.1126 35.6371 55.4502 33.9747 53.407 33.9747ZM53.407 44.5851C49.5998 44.5851 46.5022 41.4875 46.5022 37.6795C46.5022 33.8723 49.5998 30.7747 53.407 30.7747C57.215 30.7747 60.3126 33.8723 60.3126 37.6795C60.3126 41.4875 57.215 44.5851 53.407 44.5851Z" fill="black"/>
<path fill-rule="evenodd" clip-rule="evenodd" d="M68.7634 58.1028H65.7274V50.9684H41.1266V58.1028H38.0906V47.9316H68.7634V58.1028Z" fill="black"/>
<mask id="mask0" mask-type="alpha" maskUnits="userSpaceOnUse" x="2" y="3" width="103" height="94">
<path fill-rule="evenodd" clip-rule="evenodd" d="M2 96.2681H104.32V3.80005H2V96.2681Z" fill="white"/>
</mask>
<g mask="url(#mask0)">
<path fill-rule="evenodd" clip-rule="evenodd" d="M51.8472 49.4505H55.0472V42.9849H51.8472V49.4505Z" fill="black"/>
<path fill-rule="evenodd" clip-rule="evenodd" d="M35.4919 66.3344H43.7239V58.1024H35.4919V66.3344Z" fill="#D1FF52"/>
<path fill-rule="evenodd" clip-rule="evenodd" d="M37.0921 64.7344H42.1241V59.7024H37.0921V64.7344ZM33.8921 67.9344H45.3241V56.5024H33.8921V67.9344Z" fill="black"/>
<path fill-rule="evenodd" clip-rule="evenodd" d="M73.0664 61.4009L67.2456 67.2209L61.4248 61.4009L67.2456 55.5801L73.0664 61.4009Z" fill="#D1FF52"/>
<path fill-rule="evenodd" clip-rule="evenodd" d="M63.6874 61.4008L67.245 64.9584L70.8042 61.4008L67.245 57.8432L63.6874 61.4008ZM67.245 69.484L59.1626 61.4008L67.245 53.3176L75.329 61.4008L67.245 69.484Z" fill="black"/>
</g>
</g>
<defs>
<filter id="filter0_d" x="-110" y="-23" width="310" height="230" filterUnits="userSpaceOnUse" color-interpolation-filters="sRGB">
<feFlood flood-opacity="0" result="BackgroundImageFix"/>
<feColorMatrix in="SourceAlpha" type="matrix" values="0 0 0 0 0 0 0 0 0 0 0 0 0 0 0 0 0 0 127 0"/>
<feOffset/>
<feGaussianBlur stdDeviation="2.5"/>
<feColorMatrix type="matrix" values="0 0 0 0 0 0 0 0 0 0 0 0 0 0 0 0 0 0 0.1 0"/>
<feBlend mode="normal" in2="BackgroundImageFix" result="effect1_dropShadow"/>
<feBlend mode="normal" in="SourceGraphic" in2="effect1_dropShadow" result="shape"/>
</filter>
<clipPath id="clip0">
<rect width="300" height="220" fill="white" transform="translate(-105 -18)"/>
</clipPath>
</defs>
</svg>
