<svg width="562" height="376" viewBox="0 0 562 376" fill="none" xmlns="http://www.w3.org/2000/svg">
<path fill-rule="evenodd" clip-rule="evenodd" d="M-429 435H591V-57H-429V435Z" fill="#F0EFEE"/>
<g clip-path="url(#clip0)">
<path fill-rule="evenodd" clip-rule="evenodd" d="M389.201 33.1397C483.35 33.1397 559.672 109.461 559.672 203.609C559.672 297.757 483.35 374.079 389.201 374.079C315.35 374.079 249.897 326.525 227.076 256.287L389.201 203.609V33.1397Z" stroke="#D1FF52" stroke-width="1.3"/>
<path fill-rule="evenodd" clip-rule="evenodd" d="M389.201 33.1397C483.35 33.1397 559.672 109.461 559.672 203.609C559.672 297.757 483.35 374.079 389.201 374.079C315.35 374.079 249.897 326.525 227.076 256.287L389.201 203.609V33.1397Z" fill="#D1FF52"/>
<path fill-rule="evenodd" clip-rule="evenodd" d="M389.201 33.1397C483.35 33.1397 559.672 109.461 559.672 203.609C559.672 297.757 483.35 374.079 389.201 374.079C315.35 374.079 249.897 326.525 227.076 256.287L389.201 203.609V33.1397Z" stroke="#E3E3E3" stroke-width="1.3"/>
<path fill-rule="evenodd" clip-rule="evenodd" d="M227.076 256.288C217.08 225.522 216.043 192.547 224.087 161.216L389.202 203.609L227.076 256.288Z" fill="#B4B4B5"/>
<path fill-rule="evenodd" clip-rule="evenodd" d="M227.076 256.288C217.08 225.522 216.043 192.547 224.087 161.216L389.202 203.609L227.076 256.288Z" stroke="#F0EFEE" stroke-width="2.6" stroke-linejoin="bevel"/>
<path fill-rule="evenodd" clip-rule="evenodd" d="M227.076 150.931C243.938 99.034 284.627 58.3453 336.523 41.483L389.201 203.609L227.076 150.931Z" fill="#3E3A39"/>
<path fill-rule="evenodd" clip-rule="evenodd" d="M227.076 150.931C243.938 99.034 284.627 58.3453 336.523 41.483L389.201 203.609L227.076 150.931Z" stroke="#F0EFEE" stroke-width="2.6" stroke-linejoin="bevel"/>
<path fill-rule="evenodd" clip-rule="evenodd" d="M336.523 41.4831C353.537 35.9555 371.314 33.1397 389.201 33.1397V203.609L336.523 41.4831Z" fill="black"/>
<path fill-rule="evenodd" clip-rule="evenodd" d="M336.523 41.4831C353.537 35.9555 371.314 33.1397 389.201 33.1397V203.609L336.523 41.4831Z" stroke="#F0EFEE" stroke-width="2.6" stroke-linecap="square" stroke-linejoin="bevel"/>
<path d="M13.9216 43.1375H11.0876V51.1H9.33906V43.1375H6.50506V41.701H13.9216V43.1375ZM17.6824 46.9985C17.6824 46.7905 17.652 46.5955 17.5914 46.4135C17.535 46.2272 17.4484 46.0647 17.3314 45.926C17.2144 45.7873 17.0649 45.679 16.8829 45.601C16.7052 45.5187 16.4972 45.4775 16.2589 45.4775C15.7952 45.4775 15.429 45.6097 15.1604 45.874C14.896 46.1383 14.727 46.5132 14.6534 46.9985H17.6824ZM14.6209 47.967C14.6469 48.3093 14.7075 48.6062 14.8029 48.8575C14.8982 49.1045 15.0239 49.3103 15.1799 49.475C15.3359 49.6353 15.52 49.7567 15.7324 49.839C15.949 49.917 16.1874 49.956 16.4474 49.956C16.7074 49.956 16.9305 49.9257 17.1169 49.865C17.3075 49.8043 17.4722 49.7372 17.6109 49.6635C17.7539 49.5898 17.8774 49.5227 17.9814 49.462C18.0897 49.4013 18.1937 49.371 18.2934 49.371C18.4277 49.371 18.5274 49.4208 18.5924 49.5205L19.0539 50.1055C18.8762 50.3135 18.6769 50.489 18.4559 50.632C18.2349 50.7707 18.003 50.8833 17.7604 50.97C17.522 51.0523 17.2772 51.1108 17.0259 51.1455C16.7789 51.1802 16.5384 51.1975 16.3044 51.1975C15.8407 51.1975 15.4095 51.1217 15.0109 50.97C14.6122 50.814 14.2655 50.5865 13.9709 50.2875C13.6762 49.9842 13.4444 49.6115 13.2754 49.1695C13.1064 48.7232 13.0219 48.2075 13.0219 47.6225C13.0219 47.1675 13.0955 46.7407 13.2429 46.342C13.3902 45.939 13.6004 45.5902 13.8734 45.2955C14.1507 44.9965 14.4865 44.7603 14.8809 44.587C15.2795 44.4137 15.728 44.327 16.2264 44.327C16.6467 44.327 17.0345 44.3942 17.3899 44.5285C17.7452 44.6628 18.0507 44.86 18.3064 45.12C18.562 45.3757 18.7614 45.692 18.9044 46.069C19.0517 46.4417 19.1254 46.8685 19.1254 47.3495C19.1254 47.5922 19.0994 47.7568 19.0474 47.8435C18.9954 47.9258 18.8957 47.967 18.7484 47.967H14.6209ZM23.9026 48.253C23.4389 48.2747 23.0489 48.3158 22.7326 48.3765C22.4163 48.4328 22.1628 48.5065 21.9721 48.5975C21.7814 48.6885 21.6449 48.7947 21.5626 48.916C21.4803 49.0373 21.4391 49.1695 21.4391 49.3125C21.4391 49.5942 21.5214 49.7957 21.6861 49.917C21.8551 50.0383 22.0739 50.099 22.3426 50.099C22.6719 50.099 22.9558 50.0405 23.1941 49.9235C23.4368 49.8022 23.6729 49.6202 23.9026 49.3775V48.253ZM20.2236 45.3605C20.9906 44.6585 21.9136 44.3075 22.9926 44.3075C23.3826 44.3075 23.7314 44.3725 24.0391 44.5025C24.3468 44.6282 24.6068 44.8058 24.8191 45.0355C25.0314 45.2608 25.1918 45.5317 25.3001 45.848C25.4128 46.1643 25.4691 46.511 25.4691 46.888V51.1H24.7411C24.5894 51.1 24.4724 51.0783 24.3901 51.035C24.3078 50.9873 24.2428 50.8942 24.1951 50.7555L24.0521 50.2745C23.8831 50.4262 23.7184 50.5605 23.5581 50.6775C23.3978 50.7902 23.2309 50.8855 23.0576 50.9635C22.8843 51.0415 22.6979 51.1 22.4986 51.139C22.3036 51.1823 22.0869 51.204 21.8486 51.204C21.5669 51.204 21.3069 51.1672 21.0686 51.0935C20.8303 51.0155 20.6244 50.9007 20.4511 50.749C20.2778 50.5973 20.1434 50.4088 20.0481 50.1835C19.9528 49.9582 19.9051 49.696 19.9051 49.397C19.9051 49.228 19.9333 49.0612 19.9896 48.8965C20.0459 48.7275 20.1369 48.5672 20.2626 48.4155C20.3926 48.2638 20.5594 48.1208 20.7631 47.9865C20.9668 47.8522 21.2159 47.7352 21.5106 47.6355C21.8096 47.5358 22.1563 47.4557 22.5506 47.395C22.9449 47.33 23.3956 47.291 23.9026 47.278V46.888C23.9026 46.4417 23.8073 46.1123 23.6166 45.9C23.4259 45.6833 23.1508 45.575 22.7911 45.575C22.5311 45.575 22.3144 45.6053 22.1411 45.666C21.9721 45.7267 21.8226 45.796 21.6926 45.874C21.5626 45.9477 21.4434 46.0148 21.3351 46.0755C21.2311 46.1362 21.1141 46.1665 20.9841 46.1665C20.8714 46.1665 20.7761 46.1383 20.6981 46.082C20.6201 46.0213 20.5573 45.952 20.5096 45.874L20.2236 45.3605ZM27.0306 51.1V44.431H28.0121C28.2201 44.431 28.3566 44.5285 28.4216 44.7235L28.5256 45.2175C28.6426 45.0875 28.7639 44.9683 28.8896 44.86C29.0196 44.7517 29.1561 44.6585 29.2991 44.5805C29.4464 44.5025 29.6024 44.4418 29.7671 44.3985C29.9361 44.3508 30.1202 44.327 30.3196 44.327C30.7399 44.327 31.0844 44.4418 31.3531 44.6715C31.6261 44.8968 31.8297 45.198 31.9641 45.575C32.0681 45.354 32.1981 45.1655 32.3541 45.0095C32.5101 44.8492 32.6812 44.7192 32.8676 44.6195C33.0539 44.5198 33.2511 44.4462 33.4591 44.3985C33.6714 44.3508 33.8837 44.327 34.0961 44.327C34.4644 44.327 34.7916 44.3833 35.0776 44.496C35.3636 44.6087 35.6041 44.7733 35.7991 44.99C35.9941 45.2067 36.1414 45.471 36.2411 45.783C36.3451 46.095 36.3971 46.4525 36.3971 46.8555V51.1H34.7916V46.8555C34.7916 46.4308 34.6984 46.1123 34.5121 45.9C34.3257 45.6833 34.0527 45.575 33.6931 45.575C33.5284 45.575 33.3746 45.6032 33.2316 45.6595C33.0929 45.7158 32.9694 45.7982 32.8611 45.9065C32.7571 46.0105 32.6747 46.1427 32.6141 46.303C32.5534 46.4633 32.5231 46.6475 32.5231 46.8555V51.1H30.9111V46.8555C30.9111 46.4092 30.8201 46.0842 30.6381 45.8805C30.4604 45.6768 30.1982 45.575 29.8516 45.575C29.6176 45.575 29.3987 45.6335 29.1951 45.7505C28.9957 45.8632 28.8094 46.0192 28.6361 46.2185V51.1H27.0306ZM44.2771 46.173C44.6064 46.173 44.8924 46.1318 45.1351 46.0495C45.3821 45.9672 45.5836 45.8545 45.7396 45.7115C45.8999 45.5642 46.0191 45.3908 46.0971 45.1915C46.1751 44.9922 46.2141 44.7733 46.2141 44.535C46.2141 44.0583 46.0559 43.6922 45.7396 43.4365C45.4276 43.1808 44.9487 43.053 44.3031 43.053H43.1851V46.173H44.2771ZM48.7751 51.1H47.1956C46.8966 51.1 46.6799 50.983 46.5456 50.749L44.5696 47.7395C44.4959 47.6268 44.4136 47.5467 44.3226 47.499C44.2359 47.4513 44.1059 47.4275 43.9326 47.4275H43.1851V51.1H41.4366V41.701H44.3031C44.9401 41.701 45.4861 41.7682 45.9411 41.9025C46.4004 42.0325 46.7752 42.2167 47.0656 42.455C47.3602 42.6933 47.5769 42.9793 47.7156 43.313C47.8542 43.6423 47.9236 44.0063 47.9236 44.405C47.9236 44.7213 47.8759 45.0203 47.7806 45.302C47.6896 45.5837 47.5552 45.8393 47.3776 46.069C47.2042 46.2987 46.9876 46.5002 46.7276 46.6735C46.4719 46.8468 46.1794 46.9833 45.8501 47.083C45.9627 47.148 46.0667 47.226 46.1621 47.317C46.2574 47.4037 46.3441 47.5077 46.4221 47.629L48.7751 51.1ZM53.4508 46.9985C53.4508 46.7905 53.4205 46.5955 53.3598 46.4135C53.3035 46.2272 53.2168 46.0647 53.0998 45.926C52.9828 45.7873 52.8333 45.679 52.6513 45.601C52.4737 45.5187 52.2657 45.4775 52.0273 45.4775C51.5637 45.4775 51.1975 45.6097 50.9288 45.874C50.6645 46.1383 50.4955 46.5132 50.4218 46.9985H53.4508ZM50.3893 47.967C50.4153 48.3093 50.476 48.6062 50.5713 48.8575C50.6667 49.1045 50.7923 49.3103 50.9483 49.475C51.1043 49.6353 51.2885 49.7567 51.5008 49.839C51.7175 49.917 51.9558 49.956 52.2158 49.956C52.4758 49.956 52.699 49.9257 52.8853 49.865C53.076 49.8043 53.2407 49.7372 53.3793 49.6635C53.5223 49.5898 53.6458 49.5227 53.7498 49.462C53.8582 49.4013 53.9622 49.371 54.0618 49.371C54.1962 49.371 54.2958 49.4208 54.3608 49.5205L54.8223 50.1055C54.6447 50.3135 54.4453 50.489 54.2243 50.632C54.0033 50.7707 53.7715 50.8833 53.5288 50.97C53.2905 51.0523 53.0457 51.1108 52.7943 51.1455C52.5473 51.1802 52.3068 51.1975 52.0728 51.1975C51.6092 51.1975 51.178 51.1217 50.7793 50.97C50.3807 50.814 50.034 50.5865 49.7393 50.2875C49.4447 49.9842 49.2128 49.6115 49.0438 49.1695C48.8748 48.7232 48.7903 48.2075 48.7903 47.6225C48.7903 47.1675 48.864 46.7407 49.0113 46.342C49.1587 45.939 49.3688 45.5902 49.6418 45.2955C49.9192 44.9965 50.255 44.7603 50.6493 44.587C51.048 44.4137 51.4965 44.327 51.9948 44.327C52.4152 44.327 52.803 44.3942 53.1583 44.5285C53.5137 44.6628 53.8192 44.86 54.0748 45.12C54.3305 45.3757 54.5298 45.692 54.6728 46.069C54.8202 46.4417 54.8938 46.8685 54.8938 47.3495C54.8938 47.5922 54.8678 47.7568 54.8158 47.8435C54.7638 47.9258 54.6642 47.967 54.5168 47.967H50.3893ZM65.5817 44.431L63.4627 51.1H62.1757C62.0284 51.1 61.9265 51.0047 61.8702 50.814L60.6742 46.9595C60.6352 46.8295 60.5984 46.7017 60.5637 46.576C60.5334 46.446 60.5074 46.316 60.4857 46.186C60.4597 46.316 60.4294 46.4482 60.3947 46.5825C60.3644 46.7125 60.3297 46.8425 60.2907 46.9725L59.0752 50.814C59.0232 51.0047 58.9084 51.1 58.7307 51.1H57.4957L55.3832 44.431H56.6637C56.7807 44.431 56.8804 44.4592 56.9627 44.5155C57.045 44.5718 57.0992 44.6433 57.1252 44.73L58.0807 48.292C58.1284 48.487 58.1695 48.6777 58.2042 48.864C58.2432 49.0503 58.2757 49.2367 58.3017 49.423C58.3494 49.2367 58.3992 49.0503 58.4512 48.864C58.5075 48.6777 58.566 48.487 58.6267 48.292L59.7317 44.717C59.7577 44.6303 59.8075 44.5588 59.8812 44.5025C59.9592 44.4462 60.0524 44.418 60.1607 44.418H60.8692C60.9819 44.418 61.0772 44.4462 61.1552 44.5025C61.2375 44.5588 61.2917 44.6303 61.3177 44.717L62.3902 48.292C62.4465 48.487 62.4985 48.6798 62.5462 48.8705C62.5982 49.0568 62.648 49.2432 62.6957 49.4295C62.752 49.0612 62.8322 48.682 62.9362 48.292L63.9177 44.73C63.948 44.6433 64.0022 44.5718 64.0802 44.5155C64.1582 44.4592 64.2514 44.431 64.3597 44.431H65.5817ZM69.9783 48.253C69.5146 48.2747 69.1246 48.3158 68.8083 48.3765C68.492 48.4328 68.2385 48.5065 68.0478 48.5975C67.8571 48.6885 67.7206 48.7947 67.6383 48.916C67.556 49.0373 67.5148 49.1695 67.5148 49.3125C67.5148 49.5942 67.5971 49.7957 67.7618 49.917C67.9308 50.0383 68.1496 50.099 68.4183 50.099C68.7476 50.099 69.0315 50.0405 69.2698 49.9235C69.5125 49.8022 69.7486 49.6202 69.9783 49.3775V48.253ZM66.2993 45.3605C67.0663 44.6585 67.9893 44.3075 69.0683 44.3075C69.4583 44.3075 69.8071 44.3725 70.1148 44.5025C70.4225 44.6282 70.6825 44.8058 70.8948 45.0355C71.1071 45.2608 71.2675 45.5317 71.3758 45.848C71.4885 46.1643 71.5448 46.511 71.5448 46.888V51.1H70.8168C70.6651 51.1 70.5481 51.0783 70.4658 51.035C70.3835 50.9873 70.3185 50.8942 70.2708 50.7555L70.1278 50.2745C69.9588 50.4262 69.7941 50.5605 69.6338 50.6775C69.4735 50.7902 69.3066 50.8855 69.1333 50.9635C68.96 51.0415 68.7736 51.1 68.5743 51.139C68.3793 51.1823 68.1626 51.204 67.9243 51.204C67.6426 51.204 67.3826 51.1672 67.1443 51.0935C66.906 51.0155 66.7001 50.9007 66.5268 50.749C66.3535 50.5973 66.2191 50.4088 66.1238 50.1835C66.0285 49.9582 65.9808 49.696 65.9808 49.397C65.9808 49.228 66.009 49.0612 66.0653 48.8965C66.1216 48.7275 66.2126 48.5672 66.3383 48.4155C66.4683 48.2638 66.6351 48.1208 66.8388 47.9865C67.0425 47.8522 67.2916 47.7352 67.5863 47.6355C67.8853 47.5358 68.232 47.4557 68.6263 47.395C69.0206 47.33 69.4713 47.291 69.9783 47.278V46.888C69.9783 46.4417 69.883 46.1123 69.6923 45.9C69.5016 45.6833 69.2265 45.575 68.8668 45.575C68.6068 45.575 68.3901 45.6053 68.2168 45.666C68.0478 45.7267 67.8983 45.796 67.7683 45.874C67.6383 45.9477 67.5191 46.0148 67.4108 46.0755C67.3068 46.1362 67.1898 46.1665 67.0598 46.1665C66.9471 46.1665 66.8518 46.1383 66.7738 46.082C66.6958 46.0213 66.633 45.952 66.5853 45.874L66.2993 45.3605ZM74.6208 45.588C74.8288 45.1893 75.0758 44.8773 75.3618 44.652C75.6478 44.4223 75.9858 44.3075 76.3758 44.3075C76.6834 44.3075 76.9304 44.3747 77.1168 44.509L77.0128 45.7115C76.9911 45.7895 76.9586 45.8458 76.9153 45.8805C76.8763 45.9108 76.8221 45.926 76.7528 45.926C76.6878 45.926 76.5903 45.9152 76.4603 45.8935C76.3346 45.8718 76.2111 45.861 76.0898 45.861C75.9121 45.861 75.7539 45.887 75.6153 45.939C75.4766 45.991 75.3509 46.0668 75.2383 46.1665C75.1299 46.2618 75.0324 46.3788 74.9458 46.5175C74.8634 46.6562 74.7854 46.8143 74.7118 46.992V51.1H73.1063V44.431H74.0488C74.2134 44.431 74.3283 44.4613 74.3933 44.522C74.4583 44.5783 74.5016 44.6823 74.5233 44.834L74.6208 45.588ZM82.0135 46.134C81.8315 45.913 81.6322 45.757 81.4155 45.666C81.2032 45.575 80.9735 45.5295 80.7265 45.5295C80.4839 45.5295 80.265 45.575 80.07 45.666C79.875 45.757 79.7082 45.8957 79.5695 46.082C79.4309 46.264 79.3247 46.498 79.251 46.784C79.1774 47.0657 79.1405 47.3993 79.1405 47.785C79.1405 48.175 79.1709 48.5065 79.2315 48.7795C79.2965 49.0482 79.3875 49.2692 79.5045 49.4425C79.6215 49.6115 79.7645 49.735 79.9335 49.813C80.1025 49.8867 80.291 49.9235 80.499 49.9235C80.8327 49.9235 81.1165 49.8542 81.3505 49.7155C81.5845 49.5768 81.8055 49.3797 82.0135 49.124V46.134ZM83.619 41.441V51.1H82.6375C82.4252 51.1 82.2909 51.0025 82.2345 50.8075L82.098 50.164C81.8294 50.4717 81.5195 50.7208 81.1685 50.9115C80.8219 51.1022 80.4167 51.1975 79.953 51.1975C79.589 51.1975 79.2554 51.1217 78.952 50.97C78.6487 50.8183 78.3865 50.5995 78.1655 50.3135C77.9489 50.0232 77.7799 49.6657 77.6585 49.241C77.5415 48.8163 77.483 48.331 77.483 47.785C77.483 47.291 77.5502 46.8317 77.6845 46.407C77.8189 45.9823 78.0117 45.614 78.263 45.302C78.5144 44.99 78.8155 44.7473 79.1665 44.574C79.5175 44.3963 79.9119 44.3075 80.3495 44.3075C80.7222 44.3075 81.0407 44.366 81.305 44.483C81.5694 44.6 81.8055 44.7582 82.0135 44.9575V41.441H83.619Z" fill="#A9A9A9"/>
<path d="M360.541 35.2059H5.00049" stroke="black" stroke-width="1.3"/>
<path d="M303.683 94.6231H5.01074" stroke="black" stroke-width="1.3"/>
<path d="M13.9216 105.537H11.0876V113.5H9.33906V105.537H6.50506V104.101H13.9216V105.537ZM16.3096 106.727C16.8036 106.727 17.2521 106.807 17.6551 106.968C18.0624 107.128 18.4091 107.355 18.6951 107.65C18.9854 107.945 19.2086 108.304 19.3646 108.729C19.5206 109.154 19.5986 109.628 19.5986 110.152C19.5986 110.681 19.5206 111.158 19.3646 111.582C19.2086 112.007 18.9854 112.369 18.6951 112.668C18.4091 112.967 18.0624 113.197 17.6551 113.357C17.2521 113.517 16.8036 113.598 16.3096 113.598C15.8112 113.598 15.3584 113.517 14.9511 113.357C14.5437 113.197 14.1949 112.967 13.9046 112.668C13.6186 112.369 13.3954 112.007 13.2351 111.582C13.0791 111.158 13.0011 110.681 13.0011 110.152C13.0011 109.628 13.0791 109.154 13.2351 108.729C13.3954 108.304 13.6186 107.945 13.9046 107.65C14.1949 107.355 14.5437 107.128 14.9511 106.968C15.3584 106.807 15.8112 106.727 16.3096 106.727ZM16.3096 112.362C16.8642 112.362 17.2737 112.176 17.5381 111.803C17.8067 111.431 17.9411 110.885 17.9411 110.165C17.9411 109.446 17.8067 108.898 17.5381 108.521C17.2737 108.144 16.8642 107.955 16.3096 107.955C15.7462 107.955 15.3281 108.146 15.0551 108.527C14.7864 108.904 14.6521 109.45 14.6521 110.165C14.6521 110.88 14.7864 111.426 15.0551 111.803C15.3281 112.176 15.7462 112.362 16.3096 112.362ZM22.451 103.841V109.372H22.75C22.8583 109.372 22.9428 109.359 23.0035 109.333C23.0685 109.303 23.1335 109.245 23.1985 109.158L24.856 107.11C24.9253 107.019 25.0012 106.95 25.0835 106.902C25.1702 106.855 25.2807 106.831 25.415 106.831H26.884L24.8105 109.307C24.6632 109.502 24.5028 109.652 24.3295 109.756C24.4205 109.821 24.5007 109.897 24.57 109.983C24.6437 110.07 24.713 110.163 24.778 110.263L27.001 113.5H25.5515C25.4258 113.5 25.3175 113.48 25.2265 113.441C25.1355 113.398 25.0597 113.322 24.999 113.214L23.296 110.685C23.2353 110.586 23.1725 110.521 23.1075 110.49C23.0425 110.46 22.945 110.445 22.815 110.445H22.451V113.5H20.8455V103.841H22.451ZM31.7657 109.398C31.7657 109.19 31.7353 108.995 31.6747 108.813C31.6183 108.627 31.5317 108.465 31.4147 108.326C31.2977 108.187 31.1482 108.079 30.9662 108.001C30.7885 107.919 30.5805 107.877 30.3422 107.877C29.8785 107.877 29.5123 108.01 29.2437 108.274C28.9793 108.538 28.8103 108.913 28.7367 109.398H31.7657ZM28.7042 110.367C28.7302 110.709 28.7908 111.006 28.8862 111.257C28.9815 111.504 29.1072 111.71 29.2632 111.875C29.4192 112.035 29.6033 112.157 29.8157 112.239C30.0323 112.317 30.2707 112.356 30.5307 112.356C30.7907 112.356 31.0138 112.326 31.2002 112.265C31.3908 112.204 31.5555 112.137 31.6942 112.063C31.8372 111.99 31.9607 111.923 32.0647 111.862C32.173 111.801 32.277 111.771 32.3767 111.771C32.511 111.771 32.6107 111.821 32.6757 111.92L33.1372 112.505C32.9595 112.713 32.7602 112.889 32.5392 113.032C32.3182 113.171 32.0863 113.283 31.8437 113.37C31.6053 113.452 31.3605 113.511 31.1092 113.546C30.8622 113.58 30.6217 113.598 30.3877 113.598C29.924 113.598 29.4928 113.522 29.0942 113.37C28.6955 113.214 28.3488 112.986 28.0542 112.688C27.7595 112.384 27.5277 112.011 27.3587 111.569C27.1897 111.123 27.1052 110.607 27.1052 110.022C27.1052 109.567 27.1788 109.141 27.3262 108.742C27.4735 108.339 27.6837 107.99 27.9567 107.695C28.234 107.396 28.5698 107.16 28.9642 106.987C29.3628 106.814 29.8113 106.727 30.3097 106.727C30.73 106.727 31.1178 106.794 31.4732 106.928C31.8285 107.063 32.134 107.26 32.3897 107.52C32.6453 107.776 32.8447 108.092 32.9877 108.469C33.135 108.842 33.2087 109.268 33.2087 109.749C33.2087 109.992 33.1827 110.157 33.1307 110.243C33.0787 110.326 32.979 110.367 32.8317 110.367H28.7042ZM35.9371 107.65C36.0714 107.516 36.2123 107.392 36.3596 107.279C36.5113 107.162 36.6694 107.065 36.8341 106.987C37.0031 106.905 37.1829 106.842 37.3736 106.798C37.5643 106.751 37.7723 106.727 37.9976 106.727C38.3616 106.727 38.6844 106.79 38.9661 106.915C39.2478 107.037 39.4818 107.21 39.6681 107.435C39.8588 107.656 40.0018 107.923 40.0971 108.235C40.1968 108.543 40.2466 108.883 40.2466 109.255V113.5H38.6411V109.255C38.6411 108.848 38.5479 108.534 38.3616 108.313C38.1753 108.088 37.8914 107.975 37.5101 107.975C37.2328 107.975 36.9728 108.038 36.7301 108.163C36.4874 108.289 36.2578 108.46 36.0411 108.677V113.5H34.4356V106.831H35.4171C35.6251 106.831 35.7616 106.928 35.8266 107.123L35.9371 107.65ZM50.2373 105.81C50.1853 105.901 50.129 105.969 50.0683 106.012C50.012 106.051 49.9405 106.07 49.8538 106.07C49.7628 106.07 49.6632 106.038 49.5548 105.973C49.4508 105.904 49.3252 105.828 49.1778 105.745C49.0305 105.663 48.8572 105.589 48.6578 105.524C48.4628 105.455 48.231 105.42 47.9623 105.42C47.7197 105.42 47.5073 105.451 47.3253 105.511C47.1433 105.568 46.9895 105.648 46.8638 105.752C46.7425 105.856 46.6515 105.982 46.5908 106.129C46.5302 106.272 46.4998 106.43 46.4998 106.603C46.4998 106.824 46.5605 107.009 46.6818 107.156C46.8075 107.303 46.9722 107.429 47.1758 107.533C47.3795 107.637 47.6113 107.73 47.8713 107.812C48.1313 107.895 48.3978 107.984 48.6708 108.079C48.9438 108.17 49.2103 108.278 49.4703 108.404C49.7303 108.525 49.9622 108.681 50.1658 108.872C50.3695 109.058 50.532 109.288 50.6533 109.561C50.779 109.834 50.8418 110.165 50.8418 110.555C50.8418 110.98 50.7682 111.379 50.6208 111.751C50.4778 112.12 50.2655 112.443 49.9838 112.72C49.7065 112.993 49.3663 113.21 48.9633 113.37C48.5603 113.526 48.0988 113.604 47.5788 113.604C47.2798 113.604 46.9852 113.574 46.6948 113.513C46.4045 113.457 46.125 113.374 45.8563 113.266C45.592 113.158 45.3428 113.028 45.1088 112.876C44.8748 112.724 44.6668 112.555 44.4848 112.369L44.9983 111.53C45.0417 111.47 45.098 111.42 45.1673 111.381C45.2367 111.338 45.3103 111.316 45.3883 111.316C45.4967 111.316 45.6137 111.361 45.7393 111.452C45.865 111.539 46.0145 111.637 46.1878 111.745C46.3612 111.853 46.5627 111.953 46.7923 112.044C47.0263 112.131 47.3058 112.174 47.6308 112.174C48.1292 112.174 48.5148 112.057 48.7878 111.823C49.0608 111.585 49.1973 111.244 49.1973 110.802C49.1973 110.555 49.1345 110.354 49.0088 110.198C48.8875 110.042 48.725 109.912 48.5213 109.808C48.3177 109.7 48.0858 109.609 47.8258 109.535C47.5658 109.461 47.3015 109.381 47.0328 109.294C46.7642 109.208 46.4998 109.104 46.2398 108.982C45.9798 108.861 45.748 108.703 45.5443 108.508C45.3407 108.313 45.176 108.07 45.0503 107.78C44.929 107.485 44.8683 107.123 44.8683 106.694C44.8683 106.352 44.9355 106.018 45.0698 105.693C45.2085 105.368 45.4078 105.08 45.6678 104.829C45.9278 104.578 46.2485 104.376 46.6298 104.224C47.0112 104.073 47.4488 103.997 47.9428 103.997C48.4975 103.997 49.0088 104.084 49.4768 104.257C49.9448 104.43 50.3435 104.673 50.6728 104.985L50.2373 105.81ZM55.5698 110.653C55.1062 110.675 54.7162 110.716 54.3998 110.776C54.0835 110.833 53.83 110.906 53.6393 110.997C53.4487 111.088 53.3122 111.195 53.2298 111.316C53.1475 111.437 53.1063 111.569 53.1063 111.712C53.1063 111.994 53.1887 112.196 53.3533 112.317C53.5223 112.438 53.7412 112.499 54.0098 112.499C54.3392 112.499 54.623 112.44 54.8613 112.323C55.104 112.202 55.3402 112.02 55.5698 111.777V110.653ZM51.8908 107.76C52.6578 107.058 53.5808 106.707 54.6598 106.707C55.0498 106.707 55.3987 106.772 55.7063 106.902C56.014 107.028 56.274 107.206 56.4863 107.435C56.6987 107.661 56.859 107.932 56.9673 108.248C57.08 108.564 57.1363 108.911 57.1363 109.288V113.5H56.4083C56.2567 113.5 56.1397 113.478 56.0573 113.435C55.975 113.387 55.91 113.294 55.8623 113.155L55.7193 112.674C55.5503 112.826 55.3857 112.96 55.2253 113.077C55.065 113.19 54.8982 113.285 54.7248 113.363C54.5515 113.441 54.3652 113.5 54.1658 113.539C53.9708 113.582 53.7542 113.604 53.5158 113.604C53.2342 113.604 52.9742 113.567 52.7358 113.493C52.4975 113.415 52.2917 113.301 52.1183 113.149C51.945 112.997 51.8107 112.809 51.7153 112.583C51.62 112.358 51.5723 112.096 51.5723 111.797C51.5723 111.628 51.6005 111.461 51.6568 111.296C51.7132 111.127 51.8042 110.967 51.9298 110.815C52.0598 110.664 52.2267 110.521 52.4303 110.386C52.634 110.252 52.8832 110.135 53.1778 110.035C53.4768 109.936 53.8235 109.856 54.2178 109.795C54.6122 109.73 55.0628 109.691 55.5698 109.678V109.288C55.5698 108.842 55.4745 108.512 55.2838 108.3C55.0932 108.083 54.818 107.975 54.4583 107.975C54.1983 107.975 53.9817 108.005 53.8083 108.066C53.6393 108.127 53.4898 108.196 53.3598 108.274C53.2298 108.348 53.1107 108.415 53.0023 108.475C52.8983 108.536 52.7813 108.566 52.6513 108.566C52.5387 108.566 52.4433 108.538 52.3653 108.482C52.2873 108.421 52.2245 108.352 52.1768 108.274L51.8908 107.76ZM60.2955 103.841V113.5H58.69V103.841H60.2955ZM66.2137 109.398C66.2137 109.19 66.1834 108.995 66.1227 108.813C66.0664 108.627 65.9797 108.465 65.8627 108.326C65.7457 108.187 65.5962 108.079 65.4142 108.001C65.2365 107.919 65.0285 107.877 64.7902 107.877C64.3265 107.877 63.9604 108.01 63.6917 108.274C63.4274 108.538 63.2584 108.913 63.1847 109.398H66.2137ZM63.1522 110.367C63.1782 110.709 63.2389 111.006 63.3342 111.257C63.4295 111.504 63.5552 111.71 63.7112 111.875C63.8672 112.035 64.0514 112.157 64.2637 112.239C64.4804 112.317 64.7187 112.356 64.9787 112.356C65.2387 112.356 65.4619 112.326 65.6482 112.265C65.8389 112.204 66.0035 112.137 66.1422 112.063C66.2852 111.99 66.4087 111.923 66.5127 111.862C66.621 111.801 66.725 111.771 66.8247 111.771C66.959 111.771 67.0587 111.821 67.1237 111.92L67.5852 112.505C67.4075 112.713 67.2082 112.889 66.9872 113.032C66.7662 113.171 66.5344 113.283 66.2917 113.37C66.0534 113.452 65.8085 113.511 65.5572 113.546C65.3102 113.58 65.0697 113.598 64.8357 113.598C64.372 113.598 63.9409 113.522 63.5422 113.37C63.1435 113.214 62.7969 112.986 62.5022 112.688C62.2075 112.384 61.9757 112.011 61.8067 111.569C61.6377 111.123 61.5532 110.607 61.5532 110.022C61.5532 109.567 61.6269 109.141 61.7742 108.742C61.9215 108.339 62.1317 107.99 62.4047 107.695C62.682 107.396 63.0179 107.16 63.4122 106.987C63.8109 106.814 64.2594 106.727 64.7577 106.727C65.178 106.727 65.5659 106.794 65.9212 106.928C66.2765 107.063 66.582 107.26 66.8377 107.52C67.0934 107.776 67.2927 108.092 67.4357 108.469C67.583 108.842 67.6567 109.268 67.6567 109.749C67.6567 109.992 67.6307 110.157 67.5787 110.243C67.5267 110.326 67.427 110.367 67.2797 110.367H63.1522Z" fill="#A9A9A9"/>
<path d="M10.1971 169.673C10.5264 169.673 10.8124 169.632 11.0551 169.549C11.3021 169.467 11.5036 169.354 11.6596 169.211C11.8199 169.064 11.9391 168.891 12.0171 168.691C12.0951 168.492 12.1341 168.273 12.1341 168.035C12.1341 167.558 11.9759 167.192 11.6596 166.936C11.3476 166.681 10.8687 166.553 10.2231 166.553H9.10506V169.673H10.1971ZM14.6951 174.6H13.1156C12.8166 174.6 12.5999 174.483 12.4656 174.249L10.4896 171.239C10.4159 171.127 10.3336 171.047 10.2426 170.999C10.1559 170.951 10.0259 170.927 9.85256 170.927H9.10506V174.6H7.35656V165.201H10.2231C10.8601 165.201 11.4061 165.268 11.8611 165.402C12.3204 165.532 12.6952 165.717 12.9856 165.955C13.2802 166.193 13.4969 166.479 13.6356 166.813C13.7742 167.142 13.8436 167.506 13.8436 167.905C13.8436 168.221 13.7959 168.52 13.7006 168.802C13.6096 169.084 13.4752 169.339 13.2976 169.569C13.1242 169.799 12.9076 170 12.6476 170.173C12.3919 170.347 12.0994 170.483 11.7701 170.583C11.8827 170.648 11.9867 170.726 12.0821 170.817C12.1774 170.904 12.2641 171.008 12.3421 171.129L14.6951 174.6ZM19.3435 170.498C19.3435 170.29 19.3132 170.095 19.2525 169.913C19.1962 169.727 19.1095 169.565 18.9925 169.426C18.8755 169.287 18.726 169.179 18.544 169.101C18.3664 169.019 18.1584 168.977 17.92 168.977C17.4564 168.977 17.0902 169.11 16.8215 169.374C16.5572 169.638 16.3882 170.013 16.3145 170.498H19.3435ZM16.282 171.467C16.308 171.809 16.3687 172.106 16.464 172.357C16.5594 172.604 16.685 172.81 16.841 172.975C16.997 173.135 17.1812 173.257 17.3935 173.339C17.6102 173.417 17.8485 173.456 18.1085 173.456C18.3685 173.456 18.5917 173.426 18.778 173.365C18.9687 173.304 19.1334 173.237 19.272 173.163C19.415 173.09 19.5385 173.023 19.6425 172.962C19.7509 172.901 19.8549 172.871 19.9545 172.871C20.0889 172.871 20.1885 172.921 20.2535 173.02L20.715 173.605C20.5374 173.813 20.338 173.989 20.117 174.132C19.896 174.271 19.6642 174.383 19.4215 174.47C19.1832 174.552 18.9384 174.611 18.687 174.645C18.44 174.68 18.1995 174.697 17.9655 174.697C17.5019 174.697 17.0707 174.622 16.672 174.47C16.2734 174.314 15.9267 174.086 15.632 173.787C15.3374 173.484 15.1055 173.111 14.9365 172.669C14.7675 172.223 14.683 171.707 14.683 171.122C14.683 170.667 14.7567 170.241 14.904 169.842C15.0514 169.439 15.2615 169.09 15.5345 168.795C15.8119 168.496 16.1477 168.26 16.542 168.087C16.9407 167.914 17.3892 167.827 17.8875 167.827C18.3079 167.827 18.6957 167.894 19.051 168.028C19.4064 168.163 19.7119 168.36 19.9675 168.62C20.2232 168.876 20.4225 169.192 20.5655 169.569C20.7129 169.942 20.7865 170.368 20.7865 170.849C20.7865 171.092 20.7605 171.257 20.7085 171.343C20.6565 171.426 20.5569 171.467 20.4095 171.467H16.282ZM31.4471 167.931L29.3281 174.6H28.0411C27.8938 174.6 27.7919 174.505 27.7356 174.314L26.5396 170.459C26.5006 170.329 26.4638 170.202 26.4291 170.076C26.3988 169.946 26.3728 169.816 26.3511 169.686C26.3251 169.816 26.2948 169.948 26.2601 170.082C26.2298 170.212 26.1951 170.342 26.1561 170.472L24.9406 174.314C24.8886 174.505 24.7738 174.6 24.5961 174.6H23.3611L21.2486 167.931H22.5291C22.6461 167.931 22.7458 167.959 22.8281 168.015C22.9104 168.072 22.9646 168.143 22.9906 168.23L23.9461 171.792C23.9938 171.987 24.0349 172.178 24.0696 172.364C24.1086 172.55 24.1411 172.737 24.1671 172.923C24.2148 172.737 24.2646 172.55 24.3166 172.364C24.3729 172.178 24.4314 171.987 24.4921 171.792L25.5971 168.217C25.6231 168.13 25.6729 168.059 25.7466 168.002C25.8246 167.946 25.9178 167.918 26.0261 167.918H26.7346C26.8473 167.918 26.9426 167.946 27.0206 168.002C27.1029 168.059 27.1571 168.13 27.1831 168.217L28.2556 171.792C28.3119 171.987 28.3639 172.18 28.4116 172.37C28.4636 172.557 28.5134 172.743 28.5611 172.929C28.6174 172.561 28.6976 172.182 28.8016 171.792L29.7831 168.23C29.8134 168.143 29.8676 168.072 29.9456 168.015C30.0236 167.959 30.1168 167.931 30.2251 167.931H31.4471ZM35.8164 171.753C35.3527 171.775 34.9627 171.816 34.6464 171.876C34.33 171.933 34.0765 172.006 33.8859 172.097C33.6952 172.188 33.5587 172.295 33.4764 172.416C33.394 172.537 33.3529 172.669 33.3529 172.812C33.3529 173.094 33.4352 173.296 33.5999 173.417C33.7689 173.538 33.9877 173.599 34.2564 173.599C34.5857 173.599 34.8695 173.54 35.1079 173.423C35.3505 173.302 35.5867 173.12 35.8164 172.877V171.753ZM32.1374 168.86C32.9044 168.158 33.8274 167.807 34.9064 167.807C35.2964 167.807 35.6452 167.872 35.9529 168.002C36.2605 168.128 36.5205 168.306 36.7329 168.535C36.9452 168.761 37.1055 169.032 37.2139 169.348C37.3265 169.664 37.3829 170.011 37.3829 170.388V174.6H36.6549C36.5032 174.6 36.3862 174.578 36.3039 174.535C36.2215 174.487 36.1565 174.394 36.1089 174.255L35.9659 173.774C35.7969 173.926 35.6322 174.06 35.4719 174.177C35.3115 174.29 35.1447 174.385 34.9714 174.463C34.798 174.541 34.6117 174.6 34.4124 174.639C34.2174 174.682 34.0007 174.704 33.7624 174.704C33.4807 174.704 33.2207 174.667 32.9824 174.593C32.744 174.515 32.5382 174.401 32.3649 174.249C32.1915 174.097 32.0572 173.909 31.9619 173.683C31.8665 173.458 31.8189 173.196 31.8189 172.897C31.8189 172.728 31.847 172.561 31.9034 172.396C31.9597 172.227 32.0507 172.067 32.1764 171.915C32.3064 171.764 32.4732 171.621 32.6769 171.486C32.8805 171.352 33.1297 171.235 33.4244 171.135C33.7234 171.036 34.07 170.956 34.4644 170.895C34.8587 170.83 35.3094 170.791 35.8164 170.778V170.388C35.8164 169.942 35.721 169.612 35.5304 169.4C35.3397 169.183 35.0645 169.075 34.7049 169.075C34.4449 169.075 34.2282 169.105 34.0549 169.166C33.8859 169.227 33.7364 169.296 33.6064 169.374C33.4764 169.448 33.3572 169.515 33.2489 169.575C33.1449 169.636 33.0279 169.666 32.8979 169.666C32.7852 169.666 32.6899 169.638 32.6119 169.582C32.5339 169.521 32.471 169.452 32.4234 169.374L32.1374 168.86ZM40.4315 169.088C40.6395 168.689 40.8865 168.377 41.1725 168.152C41.4585 167.922 41.7965 167.807 42.1865 167.807C42.4942 167.807 42.7412 167.875 42.9275 168.009L42.8235 169.211C42.8019 169.289 42.7694 169.346 42.726 169.38C42.687 169.411 42.6329 169.426 42.5635 169.426C42.4985 169.426 42.401 169.415 42.271 169.393C42.1454 169.372 42.0219 169.361 41.9005 169.361C41.7229 169.361 41.5647 169.387 41.426 169.439C41.2874 169.491 41.1617 169.567 41.049 169.666C40.9407 169.762 40.8432 169.879 40.7565 170.017C40.6742 170.156 40.5962 170.314 40.5225 170.492V174.6H38.917V167.931H39.8595C40.0242 167.931 40.139 167.961 40.204 168.022C40.269 168.078 40.3124 168.182 40.334 168.334L40.4315 169.088ZM47.797 169.634C47.615 169.413 47.4157 169.257 47.199 169.166C46.9867 169.075 46.757 169.029 46.51 169.029C46.2674 169.029 46.0485 169.075 45.8535 169.166C45.6585 169.257 45.4917 169.396 45.353 169.582C45.2144 169.764 45.1082 169.998 45.0345 170.284C44.9609 170.566 44.924 170.899 44.924 171.285C44.924 171.675 44.9544 172.006 45.015 172.279C45.08 172.548 45.171 172.769 45.288 172.942C45.405 173.111 45.548 173.235 45.717 173.313C45.886 173.387 46.0745 173.423 46.2825 173.423C46.6162 173.423 46.9 173.354 47.134 173.215C47.368 173.077 47.589 172.88 47.797 172.624V169.634ZM49.4025 164.941V174.6H48.421C48.2087 174.6 48.0744 174.502 48.018 174.307L47.8815 173.664C47.6129 173.972 47.303 174.221 46.952 174.411C46.6054 174.602 46.2002 174.697 45.7365 174.697C45.3725 174.697 45.0389 174.622 44.7355 174.47C44.4322 174.318 44.17 174.099 43.949 173.813C43.7324 173.523 43.5634 173.166 43.442 172.741C43.325 172.316 43.2665 171.831 43.2665 171.285C43.2665 170.791 43.3337 170.332 43.468 169.907C43.6024 169.482 43.7952 169.114 44.0465 168.802C44.2979 168.49 44.599 168.247 44.95 168.074C45.301 167.896 45.6954 167.807 46.133 167.807C46.5057 167.807 46.8242 167.866 47.0885 167.983C47.3529 168.1 47.589 168.258 47.797 168.457V164.941H49.4025ZM54.6603 174.6V169.14L54.0818 169.049C53.9562 169.023 53.8543 168.98 53.7763 168.919C53.7027 168.854 53.6658 168.763 53.6658 168.646V167.989H54.6603V167.495C54.6603 167.114 54.7167 166.772 54.8293 166.468C54.9463 166.165 55.111 165.907 55.3233 165.695C55.54 165.483 55.8022 165.32 56.1098 165.207C56.4175 165.095 56.7642 165.038 57.1498 165.038C57.4575 165.038 57.7435 165.08 58.0078 165.162L57.9753 165.968C57.971 166.029 57.9537 166.078 57.9233 166.117C57.893 166.152 57.8518 166.18 57.7998 166.202C57.7522 166.219 57.6958 166.232 57.6308 166.241C57.5658 166.245 57.4965 166.247 57.4228 166.247C57.2322 166.247 57.061 166.269 56.9093 166.312C56.762 166.351 56.6363 166.423 56.5323 166.527C56.4283 166.627 56.3482 166.761 56.2918 166.93C56.2398 167.095 56.2138 167.3 56.2138 167.547V167.989H57.9493V169.133H56.2658V174.6H54.6603ZM61.8324 167.827C62.3264 167.827 62.7749 167.907 63.1779 168.067C63.5852 168.228 63.9319 168.455 64.2179 168.75C64.5082 169.045 64.7314 169.404 64.8874 169.829C65.0434 170.254 65.1214 170.728 65.1214 171.252C65.1214 171.781 65.0434 172.258 64.8874 172.682C64.7314 173.107 64.5082 173.469 64.2179 173.768C63.9319 174.067 63.5852 174.297 63.1779 174.457C62.7749 174.617 62.3264 174.697 61.8324 174.697C61.3341 174.697 60.8812 174.617 60.4739 174.457C60.0666 174.297 59.7177 174.067 59.4274 173.768C59.1414 173.469 58.9182 173.107 58.7579 172.682C58.6019 172.258 58.5239 171.781 58.5239 171.252C58.5239 170.728 58.6019 170.254 58.7579 169.829C58.9182 169.404 59.1414 169.045 59.4274 168.75C59.7177 168.455 60.0666 168.228 60.4739 168.067C60.8812 167.907 61.3341 167.827 61.8324 167.827ZM61.8324 173.462C62.3871 173.462 62.7966 173.276 63.0609 172.903C63.3296 172.531 63.4639 171.985 63.4639 171.265C63.4639 170.546 63.3296 169.998 63.0609 169.621C62.7966 169.244 62.3871 169.055 61.8324 169.055C61.2691 169.055 60.8509 169.246 60.5779 169.627C60.3092 170.004 60.1749 170.55 60.1749 171.265C60.1749 171.98 60.3092 172.526 60.5779 172.903C60.8509 173.276 61.2691 173.462 61.8324 173.462ZM67.8829 169.088C68.0909 168.689 68.3379 168.377 68.6239 168.152C68.9099 167.922 69.2479 167.807 69.6379 167.807C69.9455 167.807 70.1925 167.875 70.3789 168.009L70.2749 169.211C70.2532 169.289 70.2207 169.346 70.1774 169.38C70.1384 169.411 70.0842 169.426 70.0149 169.426C69.9499 169.426 69.8524 169.415 69.7224 169.393C69.5967 169.372 69.4732 169.361 69.3519 169.361C69.1742 169.361 69.016 169.387 68.8774 169.439C68.7387 169.491 68.613 169.567 68.5004 169.666C68.392 169.762 68.2945 169.879 68.2079 170.017C68.1255 170.156 68.0475 170.314 67.9739 170.492V174.6H66.3684V167.931H67.3109C67.4755 167.931 67.5904 167.961 67.6554 168.022C67.7204 168.078 67.7637 168.182 67.7854 168.334L67.8829 169.088ZM80.5689 166.637H77.7349V174.6H75.9864V166.637H73.1524V165.201H80.5689V166.637ZM84.3024 170.498C84.3024 170.29 84.2721 170.095 84.2114 169.913C84.1551 169.727 84.0684 169.565 83.9514 169.426C83.8344 169.287 83.6849 169.179 83.5029 169.101C83.3253 169.019 83.1173 168.977 82.8789 168.977C82.4153 168.977 82.0491 169.11 81.7804 169.374C81.5161 169.638 81.3471 170.013 81.2734 170.498H84.3024ZM81.2409 171.467C81.2669 171.809 81.3276 172.106 81.4229 172.357C81.5183 172.604 81.6439 172.81 81.7999 172.975C81.9559 173.135 82.1401 173.257 82.3524 173.339C82.5691 173.417 82.8074 173.456 83.0674 173.456C83.3274 173.456 83.5506 173.426 83.7369 173.365C83.9276 173.304 84.0923 173.237 84.2309 173.163C84.3739 173.09 84.4974 173.023 84.6014 172.962C84.7098 172.901 84.8138 172.871 84.9134 172.871C85.0478 172.871 85.1474 172.921 85.2124 173.02L85.6739 173.605C85.4963 173.813 85.2969 173.989 85.0759 174.132C84.8549 174.271 84.6231 174.383 84.3804 174.47C84.1421 174.552 83.8973 174.611 83.6459 174.645C83.3989 174.68 83.1584 174.697 82.9244 174.697C82.4608 174.697 82.0296 174.622 81.6309 174.47C81.2323 174.314 80.8856 174.086 80.5909 173.787C80.2963 173.484 80.0644 173.111 79.8954 172.669C79.7264 172.223 79.6419 171.707 79.6419 171.122C79.6419 170.667 79.7156 170.241 79.8629 169.842C80.0103 169.439 80.2204 169.09 80.4934 168.795C80.7708 168.496 81.1066 168.26 81.5009 168.087C81.8996 167.914 82.3481 167.827 82.8464 167.827C83.2668 167.827 83.6546 167.894 84.0099 168.028C84.3653 168.163 84.6708 168.36 84.9264 168.62C85.1821 168.876 85.3814 169.192 85.5244 169.569C85.6718 169.942 85.7454 170.368 85.7454 170.849C85.7454 171.092 85.7194 171.257 85.6674 171.343C85.6154 171.426 85.5158 171.467 85.3684 171.467H81.2409ZM91.0414 169.231C90.998 169.3 90.9525 169.35 90.9049 169.38C90.8572 169.406 90.7965 169.419 90.7229 169.419C90.6449 169.419 90.5604 169.398 90.4694 169.354C90.3827 169.311 90.2809 169.263 90.1639 169.211C90.0469 169.155 89.9125 169.105 89.7609 169.062C89.6135 169.019 89.438 168.997 89.2344 168.997C88.918 168.997 88.6689 169.064 88.4869 169.198C88.3092 169.333 88.2204 169.508 88.2204 169.725C88.2204 169.868 88.2659 169.989 88.3569 170.089C88.4522 170.184 88.5757 170.269 88.7274 170.342C88.8834 170.416 89.0589 170.483 89.2539 170.544C89.4489 170.6 89.646 170.663 89.8454 170.732C90.049 170.802 90.2484 170.882 90.4434 170.973C90.6384 171.06 90.8117 171.172 90.9634 171.311C91.1194 171.445 91.2429 171.608 91.3339 171.798C91.4292 171.989 91.4769 172.219 91.4769 172.487C91.4769 172.808 91.4184 173.105 91.3014 173.378C91.1887 173.647 91.0197 173.881 90.7944 174.08C90.569 174.275 90.2895 174.429 89.9559 174.541C89.6265 174.65 89.2452 174.704 88.8119 174.704C88.5822 174.704 88.3569 174.682 88.1359 174.639C87.9192 174.6 87.709 174.544 87.5054 174.47C87.306 174.396 87.1197 174.31 86.9464 174.21C86.7774 174.11 86.6279 174.002 86.4979 173.885L86.8684 173.274C86.916 173.2 86.9724 173.144 87.0374 173.105C87.1024 173.066 87.1847 173.046 87.2844 173.046C87.384 173.046 87.4772 173.075 87.5639 173.131C87.6549 173.187 87.7589 173.248 87.8759 173.313C87.9929 173.378 88.1294 173.439 88.2854 173.495C88.4457 173.551 88.6472 173.579 88.8899 173.579C89.0805 173.579 89.243 173.558 89.3774 173.514C89.516 173.467 89.6287 173.406 89.7154 173.332C89.8064 173.259 89.8714 173.174 89.9104 173.079C89.9537 172.979 89.9754 172.877 89.9754 172.773C89.9754 172.617 89.9277 172.49 89.8324 172.39C89.7414 172.29 89.6179 172.204 89.4619 172.13C89.3102 172.056 89.1347 171.991 88.9354 171.935C88.7404 171.874 88.5389 171.809 88.3309 171.74C88.1272 171.671 87.9257 171.59 87.7264 171.499C87.5314 171.404 87.3559 171.285 87.1999 171.142C87.0482 170.999 86.9247 170.823 86.8294 170.615C86.7384 170.407 86.6929 170.156 86.6929 169.861C86.6929 169.588 86.747 169.328 86.8554 169.081C86.9637 168.834 87.1219 168.62 87.3299 168.438C87.5422 168.252 87.8044 168.104 88.1164 167.996C88.4327 167.883 88.7967 167.827 89.2084 167.827C89.6677 167.827 90.0859 167.903 90.4629 168.054C90.8399 168.206 91.154 168.405 91.4054 168.652L91.0414 169.231ZM94.9304 174.704C94.3497 174.704 93.9034 174.541 93.5914 174.216C93.2837 173.887 93.1299 173.434 93.1299 172.858V169.133H92.4474C92.3607 169.133 92.287 169.105 92.2264 169.049C92.1657 168.993 92.1354 168.908 92.1354 168.795V168.158L93.2079 167.983L93.5459 166.163C93.5675 166.076 93.6087 166.009 93.6694 165.961C93.73 165.914 93.808 165.89 93.9034 165.89H94.7354V167.989H96.5164V169.133H94.7354V172.747C94.7354 172.955 94.7852 173.118 94.8849 173.235C94.9889 173.352 95.1297 173.41 95.3074 173.41C95.407 173.41 95.4894 173.4 95.5544 173.378C95.6237 173.352 95.6822 173.326 95.7299 173.3C95.7819 173.274 95.8274 173.25 95.8664 173.228C95.9054 173.202 95.9444 173.189 95.9834 173.189C96.031 173.189 96.07 173.202 96.1004 173.228C96.1307 173.25 96.1632 173.285 96.1979 173.332L96.6789 174.112C96.4449 174.307 96.1762 174.455 95.8729 174.554C95.5695 174.654 95.2554 174.704 94.9304 174.704ZM99.0679 168.75C99.2022 168.616 99.3431 168.492 99.4904 168.379C99.6421 168.262 99.8002 168.165 99.9649 168.087C100.134 168.005 100.314 167.942 100.504 167.898C100.695 167.851 100.903 167.827 101.128 167.827C101.492 167.827 101.815 167.89 102.097 168.015C102.379 168.137 102.613 168.31 102.799 168.535C102.99 168.756 103.133 169.023 103.228 169.335C103.328 169.643 103.377 169.983 103.377 170.355V174.6H101.772V170.355C101.772 169.948 101.679 169.634 101.492 169.413C101.306 169.188 101.022 169.075 100.641 169.075C100.364 169.075 100.104 169.138 99.8609 169.263C99.6182 169.389 99.3886 169.56 99.1719 169.777V174.6H97.5664V167.931H98.5479C98.7559 167.931 98.8924 168.028 98.9574 168.223L99.0679 168.75ZM109.223 170.498C109.223 170.29 109.193 170.095 109.132 169.913C109.076 169.727 108.989 169.565 108.872 169.426C108.755 169.287 108.605 169.179 108.423 169.101C108.246 169.019 108.038 168.977 107.799 168.977C107.336 168.977 106.97 169.11 106.701 169.374C106.437 169.638 106.268 170.013 106.194 170.498H109.223ZM106.161 171.467C106.187 171.809 106.248 172.106 106.343 172.357C106.439 172.604 106.564 172.81 106.72 172.975C106.876 173.135 107.061 173.257 107.273 173.339C107.49 173.417 107.728 173.456 107.988 173.456C108.248 173.456 108.471 173.426 108.657 173.365C108.848 173.304 109.013 173.237 109.151 173.163C109.294 173.09 109.418 173.023 109.522 172.962C109.63 172.901 109.734 172.871 109.834 172.871C109.968 172.871 110.068 172.921 110.133 173.02L110.594 173.605C110.417 173.813 110.217 173.989 109.996 174.132C109.775 174.271 109.544 174.383 109.301 174.47C109.063 174.552 108.818 174.611 108.566 174.645C108.319 174.68 108.079 174.697 107.845 174.697C107.381 174.697 106.95 174.622 106.551 174.47C106.153 174.314 105.806 174.086 105.511 173.787C105.217 173.484 104.985 173.111 104.816 172.669C104.647 172.223 104.562 171.707 104.562 171.122C104.562 170.667 104.636 170.241 104.783 169.842C104.931 169.439 105.141 169.09 105.414 168.795C105.691 168.496 106.027 168.26 106.421 168.087C106.82 167.914 107.269 167.827 107.767 167.827C108.187 167.827 108.575 167.894 108.93 168.028C109.286 168.163 109.591 168.36 109.847 168.62C110.103 168.876 110.302 169.192 110.445 169.569C110.592 169.942 110.666 170.368 110.666 170.849C110.666 171.092 110.64 171.257 110.588 171.343C110.536 171.426 110.436 171.467 110.289 171.467H106.161ZM114.052 174.704C113.472 174.704 113.025 174.541 112.713 174.216C112.406 173.887 112.252 173.434 112.252 172.858V169.133H111.569C111.483 169.133 111.409 169.105 111.348 169.049C111.288 168.993 111.257 168.908 111.257 168.795V168.158L112.33 167.983L112.668 166.163C112.689 166.076 112.731 166.009 112.791 165.961C112.852 165.914 112.93 165.89 113.025 165.89H113.857V167.989H115.638V169.133H113.857V172.747C113.857 172.955 113.907 173.118 114.007 173.235C114.111 173.352 114.252 173.41 114.429 173.41C114.529 173.41 114.611 173.4 114.676 173.378C114.746 173.352 114.804 173.326 114.852 173.3C114.904 173.274 114.949 173.25 114.988 173.228C115.027 173.202 115.066 173.189 115.105 173.189C115.153 173.189 115.192 173.202 115.222 173.228C115.253 173.25 115.285 173.285 115.32 173.332L115.801 174.112C115.567 174.307 115.298 174.455 114.995 174.554C114.691 174.654 114.377 174.704 114.052 174.704Z" fill="#A9A9A9"/>
<path fill-rule="evenodd" clip-rule="evenodd" d="M236.165 157.638C236.165 159.048 235.021 160.191 233.611 160.191C232.2 160.191 231.058 159.048 231.058 157.638C231.058 156.227 232.2 155.084 233.611 155.084C235.021 155.084 236.165 156.227 236.165 157.638Z" fill="#B4B4B5"/>
<path d="M315.059 304.48H5.01074" stroke="black" stroke-width="1.3"/>
<path d="M17.5486 312.101V321.5H16.0081V315.429C16.0081 315.186 16.0211 314.924 16.0471 314.642L13.2066 319.979C13.0722 320.235 12.8664 320.362 12.5891 320.362H12.3421C12.0647 320.362 11.8589 320.235 11.7246 319.979L8.85156 314.623C8.86456 314.766 8.87539 314.907 8.88406 315.045C8.89273 315.184 8.89706 315.312 8.89706 315.429V321.5H7.35656V312.101H8.67606C8.75406 312.101 8.82123 312.103 8.87756 312.107C8.93389 312.112 8.98373 312.123 9.02706 312.14C9.07473 312.157 9.11589 312.185 9.15056 312.224C9.18956 312.263 9.22639 312.315 9.26106 312.38L12.0756 317.6C12.1492 317.739 12.2164 317.882 12.2771 318.029C12.3421 318.176 12.4049 318.328 12.4656 318.484C12.5262 318.324 12.5891 318.17 12.6541 318.022C12.7191 317.871 12.7884 317.726 12.8621 317.587L15.6376 312.38C15.6722 312.315 15.7091 312.263 15.7481 312.224C15.7871 312.185 15.8282 312.157 15.8716 312.14C15.9192 312.123 15.9712 312.112 16.0276 312.107C16.0839 312.103 16.1511 312.101 16.2291 312.101H17.5486ZM22.7722 318.653C22.3085 318.675 21.9185 318.716 21.6022 318.776C21.2858 318.833 21.0323 318.906 20.8417 318.997C20.651 319.088 20.5145 319.195 20.4322 319.316C20.3498 319.437 20.3087 319.569 20.3087 319.712C20.3087 319.994 20.391 320.196 20.5557 320.317C20.7247 320.438 20.9435 320.499 21.2122 320.499C21.5415 320.499 21.8253 320.44 22.0637 320.323C22.3063 320.202 22.5425 320.02 22.7722 319.777V318.653ZM19.0932 315.76C19.8602 315.058 20.7832 314.707 21.8622 314.707C22.2522 314.707 22.601 314.772 22.9087 314.902C23.2163 315.028 23.4763 315.206 23.6887 315.435C23.901 315.661 24.0613 315.932 24.1697 316.248C24.2823 316.564 24.3387 316.911 24.3387 317.288V321.5H23.6107C23.459 321.5 23.342 321.478 23.2597 321.435C23.1773 321.387 23.1123 321.294 23.0647 321.155L22.9217 320.674C22.7527 320.826 22.588 320.96 22.4277 321.077C22.2673 321.19 22.1005 321.285 21.9272 321.363C21.7538 321.441 21.5675 321.5 21.3682 321.539C21.1732 321.582 20.9565 321.604 20.7182 321.604C20.4365 321.604 20.1765 321.567 19.9382 321.493C19.6998 321.415 19.494 321.301 19.3207 321.149C19.1473 320.997 19.013 320.809 18.9177 320.583C18.8223 320.358 18.7747 320.096 18.7747 319.797C18.7747 319.628 18.8028 319.461 18.8592 319.296C18.9155 319.127 19.0065 318.967 19.1322 318.815C19.2622 318.664 19.429 318.521 19.6327 318.386C19.8363 318.252 20.0855 318.135 20.3802 318.035C20.6792 317.936 21.0258 317.856 21.4202 317.795C21.8145 317.73 22.2652 317.691 22.7722 317.678V317.288C22.7722 316.842 22.6768 316.512 22.4862 316.3C22.2955 316.083 22.0203 315.975 21.6607 315.975C21.4007 315.975 21.184 316.005 21.0107 316.066C20.8417 316.127 20.6922 316.196 20.5622 316.274C20.4322 316.348 20.313 316.415 20.2047 316.475C20.1007 316.536 19.9837 316.566 19.8537 316.566C19.741 316.566 19.6457 316.538 19.5677 316.482C19.4897 316.421 19.4268 316.352 19.3792 316.274L19.0932 315.76ZM28.007 321.604C27.4263 321.604 26.98 321.441 26.668 321.116C26.3603 320.787 26.2065 320.334 26.2065 319.758V316.033H25.524C25.4373 316.033 25.3636 316.005 25.303 315.949C25.2423 315.893 25.212 315.808 25.212 315.695V315.058L26.2845 314.883L26.6225 313.063C26.6441 312.976 26.6853 312.909 26.746 312.861C26.8066 312.814 26.8846 312.79 26.98 312.79H27.812V314.889H29.593V316.033H27.812V319.647C27.812 319.855 27.8618 320.018 27.9615 320.135C28.0655 320.252 28.2063 320.31 28.384 320.31C28.4836 320.31 28.566 320.3 28.631 320.278C28.7003 320.252 28.7588 320.226 28.8065 320.2C28.8585 320.174 28.904 320.15 28.943 320.128C28.982 320.102 29.021 320.089 29.06 320.089C29.1076 320.089 29.1466 320.102 29.177 320.128C29.2073 320.15 29.2398 320.185 29.2745 320.232L29.7555 321.012C29.5215 321.207 29.2528 321.355 28.9495 321.454C28.6461 321.554 28.332 321.604 28.007 321.604ZM32.1575 315.988C32.3655 315.589 32.6125 315.277 32.8985 315.052C33.1845 314.822 33.5225 314.707 33.9125 314.707C34.2202 314.707 34.4672 314.775 34.6535 314.909L34.5495 316.111C34.5278 316.189 34.4953 316.246 34.452 316.28C34.413 316.311 34.3588 316.326 34.2895 316.326C34.2245 316.326 34.127 316.315 33.997 316.293C33.8713 316.272 33.7478 316.261 33.6265 316.261C33.4488 316.261 33.2907 316.287 33.152 316.339C33.0133 316.391 32.8877 316.467 32.775 316.566C32.6667 316.662 32.5692 316.779 32.4825 316.917C32.4002 317.056 32.3222 317.214 32.2485 317.392V321.5H30.643V314.831H31.5855C31.7502 314.831 31.865 314.861 31.93 314.922C31.995 314.978 32.0383 315.082 32.06 315.234L32.1575 315.988ZM37.1787 314.831V321.5H35.5667V314.831H37.1787ZM37.3997 312.887C37.3997 313.026 37.3715 313.156 37.3152 313.277C37.2589 313.399 37.183 313.505 37.0877 313.596C36.9967 313.687 36.8884 313.761 36.7627 313.817C36.637 313.869 36.5027 313.895 36.3597 313.895C36.221 313.895 36.0889 313.869 35.9632 313.817C35.8419 313.761 35.7357 313.687 35.6447 313.596C35.5537 313.505 35.48 313.399 35.4237 313.277C35.3717 313.156 35.3457 313.026 35.3457 312.887C35.3457 312.744 35.3717 312.61 35.4237 312.484C35.48 312.359 35.5537 312.25 35.6447 312.159C35.7357 312.068 35.8419 311.997 35.9632 311.945C36.0889 311.889 36.221 311.86 36.3597 311.86C36.5027 311.86 36.637 311.889 36.7627 311.945C36.8884 311.997 36.9967 312.068 37.0877 312.159C37.183 312.25 37.2589 312.359 37.3152 312.484C37.3715 312.61 37.3997 312.744 37.3997 312.887ZM44.7916 321.5H43.2446C43.1276 321.5 43.0322 321.47 42.9586 321.409C42.8892 321.348 42.8307 321.279 42.7831 321.201L41.3726 318.88C41.3509 318.954 41.3249 319.023 41.2946 319.088C41.2686 319.153 41.2382 319.214 41.2036 319.27L39.9556 321.201C39.9079 321.275 39.8494 321.344 39.7801 321.409C39.7107 321.47 39.6241 321.5 39.5201 321.5H38.0836L40.3716 318.061L38.1746 314.831H39.7216C39.8386 314.831 39.9252 314.848 39.9816 314.883C40.0379 314.913 40.0877 314.965 40.1311 315.039L41.5286 317.262C41.5762 317.115 41.6434 316.969 41.7301 316.826L42.8546 315.071C42.9499 314.911 43.0734 314.831 43.2251 314.831H44.7006L42.5101 317.99L44.7916 321.5ZM48.8349 321.5V314.831H49.8164C50.0244 314.831 50.1609 314.928 50.2259 315.123L50.3299 315.617C50.4469 315.487 50.5682 315.368 50.6939 315.26C50.8239 315.152 50.9604 315.058 51.1034 314.98C51.2507 314.902 51.4067 314.842 51.5714 314.798C51.7404 314.751 51.9246 314.727 52.1239 314.727C52.5442 314.727 52.8887 314.842 53.1574 315.071C53.4304 315.297 53.6341 315.598 53.7684 315.975C53.8724 315.754 54.0024 315.565 54.1584 315.409C54.3144 315.249 54.4856 315.119 54.6719 315.019C54.8582 314.92 55.0554 314.846 55.2634 314.798C55.4757 314.751 55.6881 314.727 55.9004 314.727C56.2687 314.727 56.5959 314.783 56.8819 314.896C57.1679 315.009 57.4084 315.173 57.6034 315.39C57.7984 315.607 57.9457 315.871 58.0454 316.183C58.1494 316.495 58.2014 316.852 58.2014 317.255V321.5H56.5959V317.255C56.5959 316.831 56.5027 316.512 56.3164 316.3C56.1301 316.083 55.8571 315.975 55.4974 315.975C55.3327 315.975 55.1789 316.003 55.0359 316.059C54.8972 316.116 54.7737 316.198 54.6654 316.306C54.5614 316.41 54.4791 316.543 54.4184 316.703C54.3577 316.863 54.3274 317.047 54.3274 317.255V321.5H52.7154V317.255C52.7154 316.809 52.6244 316.484 52.4424 316.28C52.2647 316.077 52.0026 315.975 51.6559 315.975C51.4219 315.975 51.2031 316.033 50.9994 316.15C50.8001 316.263 50.6137 316.419 50.4404 316.618V321.5H48.8349ZM61.4136 314.831V321.5H59.8016V314.831H61.4136ZM61.6346 312.887C61.6346 313.026 61.6064 313.156 61.5501 313.277C61.4938 313.399 61.4179 313.505 61.3226 313.596C61.2316 313.687 61.1233 313.761 60.9976 313.817C60.8719 313.869 60.7376 313.895 60.5946 313.895C60.4559 313.895 60.3238 313.869 60.1981 313.817C60.0768 313.761 59.9706 313.687 59.8796 313.596C59.7886 313.505 59.7149 313.399 59.6586 313.277C59.6066 313.156 59.5806 313.026 59.5806 312.887C59.5806 312.744 59.6066 312.61 59.6586 312.484C59.7149 312.359 59.7886 312.25 59.8796 312.159C59.9706 312.068 60.0768 311.997 60.1981 311.945C60.3238 311.889 60.4559 311.86 60.5946 311.86C60.7376 311.86 60.8719 311.889 60.9976 311.945C61.1233 311.997 61.2316 312.068 61.3226 312.159C61.4179 312.25 61.4938 312.359 61.5501 312.484C61.6064 312.61 61.6346 312.744 61.6346 312.887ZM64.574 315.65C64.7083 315.516 64.8491 315.392 64.9965 315.279C65.1481 315.162 65.3063 315.065 65.471 314.987C65.64 314.905 65.8198 314.842 66.0105 314.798C66.2011 314.751 66.4091 314.727 66.6345 314.727C66.9985 314.727 67.3213 314.79 67.603 314.915C67.8846 315.037 68.1186 315.21 68.305 315.435C68.4956 315.656 68.6386 315.923 68.734 316.235C68.8336 316.543 68.8835 316.883 68.8835 317.255V321.5H67.278V317.255C67.278 316.848 67.1848 316.534 66.9985 316.313C66.8121 316.088 66.5283 315.975 66.147 315.975C65.8696 315.975 65.6096 316.038 65.367 316.163C65.1243 316.289 64.8946 316.46 64.678 316.677V321.5H63.0725V314.831H64.054C64.262 314.831 64.3985 314.928 64.4635 315.123L64.574 315.65ZM72.0965 314.831V321.5H70.4845V314.831H72.0965ZM72.3175 312.887C72.3175 313.026 72.2893 313.156 72.233 313.277C72.1766 313.399 72.1008 313.505 72.0055 313.596C71.9145 313.687 71.8061 313.761 71.6805 313.817C71.5548 313.869 71.4205 313.895 71.2775 313.895C71.1388 313.895 71.0066 313.869 70.881 313.817C70.7596 313.761 70.6535 313.687 70.5625 313.596C70.4715 313.505 70.3978 313.399 70.3415 313.277C70.2895 313.156 70.2635 313.026 70.2635 312.887C70.2635 312.744 70.2895 312.61 70.3415 312.484C70.3978 312.359 70.4715 312.25 70.5625 312.159C70.6535 312.068 70.7596 311.997 70.881 311.945C71.0066 311.889 71.1388 311.86 71.2775 311.86C71.4205 311.86 71.5548 311.889 71.6805 311.945C71.8061 311.997 71.9145 312.068 72.0055 312.159C72.1008 312.25 72.1766 312.359 72.233 312.484C72.2893 312.61 72.3175 312.744 72.3175 312.887ZM75.2568 315.65C75.3912 315.516 75.532 315.392 75.6793 315.279C75.831 315.162 75.9892 315.065 76.1538 314.987C76.3228 314.905 76.5027 314.842 76.6933 314.798C76.884 314.751 77.092 314.727 77.3173 314.727C77.6813 314.727 78.0042 314.79 78.2858 314.915C78.5675 315.037 78.8015 315.21 78.9878 315.435C79.1785 315.656 79.3215 315.923 79.4168 316.235C79.5165 316.543 79.5663 316.883 79.5663 317.255V321.5H77.9608V317.255C77.9608 316.848 77.8677 316.534 77.6813 316.313C77.495 316.088 77.2112 315.975 76.8298 315.975C76.5525 315.975 76.2925 316.038 76.0498 316.163C75.8072 316.289 75.5775 316.46 75.3608 316.677V321.5H73.7553V314.831H74.7368C74.9448 314.831 75.0813 314.928 75.1463 315.123L75.2568 315.65ZM83.5528 318.003C83.7522 318.003 83.9255 317.977 84.0728 317.925C84.2202 317.869 84.3415 317.793 84.4368 317.697C84.5365 317.602 84.6102 317.487 84.6578 317.353C84.7098 317.219 84.7358 317.071 84.7358 316.911C84.7358 316.582 84.6362 316.322 84.4368 316.131C84.2418 315.936 83.9472 315.838 83.5528 315.838C83.1585 315.838 82.8617 315.936 82.6623 316.131C82.4673 316.322 82.3698 316.582 82.3698 316.911C82.3698 317.067 82.3937 317.212 82.4413 317.346C82.4933 317.481 82.567 317.598 82.6623 317.697C82.762 317.793 82.8855 317.869 83.0328 317.925C83.1845 317.977 83.3578 318.003 83.5528 318.003ZM85.3663 321.799C85.3663 321.669 85.3273 321.563 85.2493 321.48C85.1713 321.398 85.0652 321.335 84.9308 321.292C84.7965 321.244 84.6383 321.21 84.4563 321.188C84.2787 321.166 84.088 321.151 83.8843 321.142C83.685 321.129 83.477 321.119 83.2603 321.11C83.048 321.101 82.84 321.084 82.6363 321.058C82.4587 321.158 82.3135 321.275 82.2008 321.409C82.0925 321.543 82.0383 321.699 82.0383 321.877C82.0383 321.994 82.0665 322.102 82.1228 322.202C82.1835 322.306 82.2767 322.395 82.4023 322.469C82.5323 322.542 82.6992 322.599 82.9028 322.638C83.1065 322.681 83.3557 322.703 83.6503 322.703C83.9493 322.703 84.2072 322.679 84.4238 322.631C84.6405 322.588 84.8182 322.525 84.9568 322.443C85.0998 322.365 85.2038 322.269 85.2688 322.157C85.3338 322.048 85.3663 321.929 85.3663 321.799ZM86.9653 315.058V315.656C86.9653 315.847 86.8505 315.964 86.6208 316.007L86.0228 316.118C86.1138 316.348 86.1593 316.599 86.1593 316.872C86.1593 317.201 86.0922 317.5 85.9578 317.769C85.8278 318.033 85.6458 318.259 85.4118 318.445C85.1778 318.631 84.9005 318.776 84.5798 318.88C84.2635 318.98 83.9212 319.03 83.5528 319.03C83.4228 319.03 83.2972 319.023 83.1758 319.01C83.0545 318.997 82.9353 318.98 82.8183 318.958C82.6103 319.084 82.5063 319.225 82.5063 319.381C82.5063 319.515 82.567 319.615 82.6883 319.68C82.814 319.741 82.9787 319.784 83.1823 319.81C83.386 319.836 83.6178 319.853 83.8778 319.862C84.1378 319.866 84.4043 319.879 84.6773 319.901C84.9503 319.923 85.2168 319.962 85.4768 320.018C85.7368 320.07 85.9687 320.154 86.1723 320.271C86.376 320.388 86.5385 320.549 86.6598 320.752C86.7855 320.952 86.8483 321.21 86.8483 321.526C86.8483 321.821 86.7747 322.107 86.6273 322.384C86.4843 322.661 86.2742 322.908 85.9968 323.125C85.7238 323.342 85.3858 323.515 84.9828 323.645C84.5842 323.779 84.1292 323.847 83.6178 323.847C83.1152 323.847 82.6775 323.797 82.3048 323.697C81.9322 323.602 81.6223 323.472 81.3753 323.307C81.1283 323.147 80.9442 322.96 80.8228 322.748C80.7015 322.536 80.6408 322.315 80.6408 322.085C80.6408 321.773 80.734 321.513 80.9203 321.305C81.111 321.093 81.371 320.924 81.7003 320.798C81.5227 320.707 81.3818 320.586 81.2778 320.434C81.1738 320.282 81.1218 320.083 81.1218 319.836C81.1218 319.736 81.1392 319.634 81.1738 319.53C81.2128 319.422 81.267 319.316 81.3363 319.212C81.41 319.108 81.501 319.01 81.6093 318.919C81.7177 318.824 81.8455 318.74 81.9928 318.666C81.6548 318.484 81.3883 318.241 81.1933 317.938C81.0027 317.635 80.9073 317.279 80.9073 316.872C80.9073 316.543 80.9723 316.246 81.1023 315.981C81.2367 315.713 81.4208 315.485 81.6548 315.299C81.8932 315.108 82.1727 314.963 82.4933 314.863C82.8183 314.764 83.1715 314.714 83.5528 314.714C83.8388 314.714 84.1075 314.744 84.3588 314.805C84.6102 314.861 84.8398 314.946 85.0478 315.058H86.9653Z" fill="#A9A9A9"/>
<path d="M232.862 229.558H5.00977" stroke="black" stroke-width="1.3"/>
<path d="M12.3226 242.551L11.1786 239.424C11.1222 239.286 11.0637 239.121 11.0031 238.93C10.9424 238.74 10.8817 238.534 10.8211 238.313C10.7647 238.534 10.7062 238.742 10.6456 238.937C10.5849 239.128 10.5264 239.294 10.4701 239.437L9.33256 242.551H12.3226ZM15.4101 246.1H14.0581C13.9064 246.1 13.7829 246.063 13.6876 245.989C13.5922 245.911 13.5207 245.816 13.4731 245.703L12.7711 243.786H8.87756L8.17556 245.703C8.14089 245.803 8.07373 245.894 7.97406 245.976C7.87439 246.059 7.75089 246.1 7.60356 246.1H6.23856L9.93706 236.701H11.7181L15.4101 246.1ZM17.8873 239.431V246.1H16.2753V239.431H17.8873ZM18.1083 237.487C18.1083 237.626 18.0802 237.756 18.0238 237.877C17.9675 237.999 17.8917 238.105 17.7963 238.196C17.7053 238.287 17.597 238.361 17.4713 238.417C17.3457 238.469 17.2113 238.495 17.0683 238.495C16.9297 238.495 16.7975 238.469 16.6718 238.417C16.5505 238.361 16.4443 238.287 16.3533 238.196C16.2623 238.105 16.1887 237.999 16.1323 237.877C16.0803 237.756 16.0543 237.626 16.0543 237.487C16.0543 237.344 16.0803 237.21 16.1323 237.084C16.1887 236.959 16.2623 236.85 16.3533 236.759C16.4443 236.668 16.5505 236.597 16.6718 236.545C16.7975 236.489 16.9297 236.46 17.0683 236.46C17.2113 236.46 17.3457 236.489 17.4713 236.545C17.597 236.597 17.7053 236.668 17.7963 236.759C17.8917 236.85 17.9675 236.959 18.0238 237.084C18.0802 237.21 18.1083 237.344 18.1083 237.487ZM21.1452 240.588C21.3532 240.189 21.6002 239.877 21.8862 239.652C22.1722 239.422 22.5102 239.307 22.9002 239.307C23.2079 239.307 23.4549 239.375 23.6412 239.509L23.5372 240.711C23.5155 240.789 23.483 240.846 23.4397 240.88C23.4007 240.911 23.3465 240.926 23.2772 240.926C23.2122 240.926 23.1147 240.915 22.9847 240.893C22.859 240.872 22.7355 240.861 22.6142 240.861C22.4365 240.861 22.2784 240.887 22.1397 240.939C22.001 240.991 21.8754 241.067 21.7627 241.166C21.6544 241.262 21.5569 241.379 21.4702 241.517C21.3879 241.656 21.3099 241.814 21.2362 241.992V246.1H19.6307V239.431H20.5732C20.7379 239.431 20.8527 239.461 20.9177 239.522C20.9827 239.578 21.026 239.682 21.0477 239.834L21.1452 240.588ZM28.5952 241.134C28.4132 240.913 28.2139 240.757 27.9972 240.666C27.7849 240.575 27.5552 240.529 27.3082 240.529C27.0655 240.529 26.8467 240.575 26.6517 240.666C26.4567 240.757 26.2899 240.896 26.1512 241.082C26.0125 241.264 25.9064 241.498 25.8327 241.784C25.759 242.066 25.7222 242.399 25.7222 242.785C25.7222 243.175 25.7525 243.506 25.8132 243.779C25.8782 244.048 25.9692 244.269 26.0862 244.442C26.2032 244.611 26.3462 244.735 26.5152 244.813C26.6842 244.887 26.8727 244.923 27.0807 244.923C27.4144 244.923 27.6982 244.854 27.9322 244.715C28.1662 244.577 28.3872 244.38 28.5952 244.124V241.134ZM30.2007 236.441V246.1H29.2192C29.0069 246.1 28.8725 246.002 28.8162 245.807L28.6797 245.164C28.411 245.472 28.1012 245.721 27.7502 245.911C27.4035 246.102 26.9984 246.197 26.5347 246.197C26.1707 246.197 25.837 246.122 25.5337 245.97C25.2304 245.818 24.9682 245.599 24.7472 245.313C24.5305 245.023 24.3615 244.666 24.2402 244.241C24.1232 243.816 24.0647 243.331 24.0647 242.785C24.0647 242.291 24.1319 241.832 24.2662 241.407C24.4005 240.982 24.5934 240.614 24.8447 240.302C25.096 239.99 25.3972 239.747 25.7482 239.574C26.0992 239.396 26.4935 239.307 26.9312 239.307C27.3039 239.307 27.6224 239.366 27.8867 239.483C28.151 239.6 28.3872 239.758 28.5952 239.957V236.441H30.2007ZM33.4063 240.588C33.6143 240.189 33.8613 239.877 34.1473 239.652C34.4333 239.422 34.7713 239.307 35.1613 239.307C35.4689 239.307 35.7159 239.375 35.9023 239.509L35.7983 240.711C35.7766 240.789 35.7441 240.846 35.7008 240.88C35.6618 240.911 35.6076 240.926 35.5383 240.926C35.4733 240.926 35.3758 240.915 35.2458 240.893C35.1201 240.872 34.9966 240.861 34.8753 240.861C34.6976 240.861 34.5394 240.887 34.4008 240.939C34.2621 240.991 34.1364 241.067 34.0238 241.166C33.9154 241.262 33.8179 241.379 33.7313 241.517C33.6489 241.656 33.5709 241.814 33.4973 241.992V246.1H31.8918V239.431H32.8343C32.9989 239.431 33.1138 239.461 33.1788 239.522C33.2438 239.578 33.2871 239.682 33.3088 239.834L33.4063 240.588ZM39.6085 239.327C40.1025 239.327 40.551 239.407 40.954 239.567C41.3614 239.728 41.708 239.955 41.994 240.25C42.2844 240.545 42.5075 240.904 42.6635 241.329C42.8195 241.754 42.8975 242.228 42.8975 242.752C42.8975 243.281 42.8195 243.758 42.6635 244.182C42.5075 244.607 42.2844 244.969 41.994 245.268C41.708 245.567 41.3614 245.797 40.954 245.957C40.551 246.117 40.1025 246.197 39.6085 246.197C39.1102 246.197 38.6574 246.117 38.25 245.957C37.8427 245.797 37.4939 245.567 37.2035 245.268C36.9175 244.969 36.6944 244.607 36.534 244.182C36.378 243.758 36.3 243.281 36.3 242.752C36.3 242.228 36.378 241.754 36.534 241.329C36.6944 240.904 36.9175 240.545 37.2035 240.25C37.4939 239.955 37.8427 239.728 38.25 239.567C38.6574 239.407 39.1102 239.327 39.6085 239.327ZM39.6085 244.962C40.1632 244.962 40.5727 244.776 40.837 244.403C41.1057 244.031 41.24 243.485 41.24 242.765C41.24 242.046 41.1057 241.498 40.837 241.121C40.5727 240.744 40.1632 240.555 39.6085 240.555C39.0452 240.555 38.627 240.746 38.354 241.127C38.0854 241.504 37.951 242.05 37.951 242.765C37.951 243.48 38.0854 244.026 38.354 244.403C38.627 244.776 39.0452 244.962 39.6085 244.962ZM45.8345 244.371C46.0165 244.592 46.2137 244.748 46.426 244.839C46.6427 244.93 46.8767 244.975 47.128 244.975C47.3707 244.975 47.5895 244.93 47.7845 244.839C47.9795 244.748 48.1442 244.609 48.2785 244.423C48.4172 244.237 48.5233 244.003 48.597 243.721C48.6707 243.435 48.7075 243.099 48.7075 242.713C48.7075 242.323 48.675 241.994 48.61 241.725C48.5493 241.452 48.4605 241.231 48.3435 241.062C48.2265 240.893 48.0835 240.77 47.9145 240.692C47.7498 240.614 47.5613 240.575 47.349 240.575C47.0153 240.575 46.7315 240.646 46.4975 240.789C46.2635 240.928 46.0425 241.125 45.8345 241.381V244.371ZM45.75 240.341C46.023 240.033 46.3328 239.784 46.6795 239.593C47.0262 239.403 47.4335 239.307 47.9015 239.307C48.2655 239.307 48.597 239.383 48.896 239.535C49.1993 239.687 49.4593 239.908 49.676 240.198C49.897 240.484 50.066 240.839 50.183 241.264C50.3043 241.684 50.365 242.167 50.365 242.713C50.365 243.212 50.2978 243.673 50.1635 244.098C50.0292 244.523 49.8363 244.891 49.585 245.203C49.338 245.515 49.0368 245.76 48.6815 245.937C48.3305 246.111 47.9362 246.197 47.4985 246.197C47.1258 246.197 46.8073 246.141 46.543 246.028C46.2787 245.911 46.0425 245.751 45.8345 245.547V248.277H44.229V239.431H45.2105C45.4185 239.431 45.555 239.528 45.62 239.723L45.75 240.341Z" fill="#A9A9A9"/>
<path fill-rule="evenodd" clip-rule="evenodd" d="M224.087 161.215C224.977 157.757 225.972 154.328 227.076 150.931L389.202 203.609L224.087 161.215Z" fill="#717071"/>
<path fill-rule="evenodd" clip-rule="evenodd" d="M224.087 161.215C224.977 157.757 225.972 154.328 227.076 150.931L389.202 203.609L224.087 161.215Z" stroke="#F0EFEE" stroke-width="2.6" stroke-linejoin="bevel"/>
<path d="M232.862 157.684H5.00977" stroke="black" stroke-width="1.3"/>
</g>
<path d="M7.0332 10.2206L6.1713 19.1048H8.5802C8.8896 18.5523 9.3095 18.1545 9.862 17.8893C10.3482 17.6462 10.9449 17.5357 11.63 17.5357C12.6466 17.5357 13.4422 17.823 13.9726 18.4418C14.503 19.0385 14.7903 19.8783 14.7903 20.9391C14.7903 21.9115 14.4588 22.685 13.84 23.2596C13.1991 23.8342 12.4035 24.1215 11.4753 24.1215C10.6134 24.1215 9.9283 23.9226 9.4421 23.569C8.8675 23.1491 8.536 22.5082 8.4255 21.6463H5.884C5.9945 23.1049 6.6133 24.2762 7.7625 25.1381C8.7791 25.9116 10.0167 26.3094 11.4532 26.3094C13.0223 26.3094 14.3704 25.8453 15.5196 24.9171C16.7572 23.8784 17.376 22.5524 17.376 20.917C17.376 19.2153 16.8898 17.8672 15.9616 16.8948C15.0334 15.9224 13.8179 15.4362 12.3372 15.4362C11.63 15.4362 10.9891 15.5467 10.4145 15.7677C9.7736 15.9887 9.2211 16.3423 8.7349 16.8285H8.6686L9.1106 12.4969H16.6467V10.2206H7.0332ZM34.9541 17.3589C33.7165 17.3589 32.7441 17.7788 32.0811 18.6628C31.4623 19.4142 31.175 20.4308 31.175 21.6905C31.175 22.9281 31.4623 23.9226 32.0811 24.7182C32.7441 25.558 33.7165 26 34.9541 26C36.1917 26 37.142 25.558 37.805 24.7182C38.3796 23.9447 38.689 22.9281 38.689 21.6905C38.689 20.4308 38.3796 19.4142 37.805 18.6628C37.142 17.7788 36.1917 17.3589 34.9541 17.3589ZM32.6999 9.9112L23.8378 26.3094H25.7605L34.6226 9.9112H32.6999ZM23.5505 10.2206C22.3129 10.2206 21.3405 10.6405 20.6775 11.5245C20.0587 12.2759 19.7714 13.2925 19.7714 14.5522C19.7714 15.7898 20.0587 16.7843 20.6775 17.5799C21.3405 18.4197 22.3129 18.8617 23.5505 18.8617C24.7881 18.8617 25.7384 18.4197 26.4014 17.5799C26.976 16.8064 27.2854 15.7898 27.2854 14.5522C27.2854 13.2925 26.976 12.2759 26.4014 11.5245C25.7384 10.6405 24.7881 10.2206 23.5505 10.2206ZM34.9541 18.9722C35.4845 18.9722 35.8602 19.2595 36.0812 19.8562C36.258 20.2982 36.3464 20.8949 36.3464 21.6905C36.3464 22.4419 36.258 23.0386 36.1033 23.4806C35.8602 24.0773 35.4845 24.3867 34.9541 24.3867C34.4016 24.3867 34.0038 24.0994 33.7828 23.5248C33.606 23.0828 33.5176 22.464 33.5176 21.6905C33.5176 20.8949 33.606 20.2761 33.7828 19.8341C34.0038 19.2595 34.4016 18.9722 34.9541 18.9722ZM23.5505 11.8339C24.0809 11.8339 24.4566 12.1212 24.6776 12.7179C24.8544 13.1599 24.9428 13.7566 24.9428 14.5522C24.9428 15.3036 24.8544 15.9003 24.6997 16.3423C24.4566 16.939 24.0809 17.2484 23.5505 17.2484C22.998 17.2484 22.6002 16.9611 22.3792 16.3865C22.2024 15.9445 22.114 15.3257 22.114 14.5522C22.114 13.7566 22.2024 13.1378 22.3792 12.6958C22.6002 12.1212 22.998 11.8339 23.5505 11.8339Z" fill="black"/>
<path d="M10.1272 70.0206C9.5968 70.5731 8.9338 71.0814 8.1382 71.5676C7.3426 72.0096 6.5912 72.319 5.884 72.4958V75.0594C7.3426 74.6395 8.536 73.9986 9.4863 73.1367V85.8H12.072V70.0206H10.1272ZM16.0707 70.0206L15.2088 78.9048H17.6177C17.9271 78.3523 18.347 77.9545 18.8995 77.6893C19.3857 77.4462 19.9824 77.3357 20.6675 77.3357C21.6841 77.3357 22.4797 77.623 23.0101 78.2418C23.5405 78.8385 23.8278 79.6783 23.8278 80.7391C23.8278 81.7115 23.4963 82.485 22.8775 83.0596C22.2366 83.6342 21.441 83.9215 20.5128 83.9215C19.6509 83.9215 18.9658 83.7226 18.4796 83.369C17.905 82.9491 17.5735 82.3082 17.463 81.4463H14.9215C15.032 82.9049 15.6508 84.0762 16.8 84.9381C17.8166 85.7116 19.0542 86.1094 20.4907 86.1094C22.0598 86.1094 23.4079 85.6453 24.5571 84.7171C25.7947 83.6784 26.4135 82.3524 26.4135 80.717C26.4135 79.0153 25.9273 77.6672 24.9991 76.6948C24.0709 75.7224 22.8554 75.2362 21.3747 75.2362C20.6675 75.2362 20.0266 75.3467 19.452 75.5677C18.8111 75.7887 18.2586 76.1423 17.7724 76.6285H17.7061L18.1481 72.2969H25.6842V70.0206H16.0707ZM43.9917 77.1589C42.7541 77.1589 41.7817 77.5788 41.1187 78.4628C40.4999 79.2142 40.2126 80.2308 40.2126 81.4905C40.2126 82.7281 40.4999 83.7226 41.1187 84.5182C41.7817 85.358 42.7541 85.8 43.9917 85.8C45.2293 85.8 46.1796 85.358 46.8426 84.5182C47.4172 83.7447 47.7266 82.7281 47.7266 81.4905C47.7266 80.2308 47.4172 79.2142 46.8426 78.4628C46.1796 77.5788 45.2293 77.1589 43.9917 77.1589ZM41.7375 69.7112L32.8754 86.1094H34.7981L43.6602 69.7112H41.7375ZM32.5881 70.0206C31.3505 70.0206 30.3781 70.4405 29.7151 71.3245C29.0963 72.0759 28.809 73.0925 28.809 74.3522C28.809 75.5898 29.0963 76.5843 29.7151 77.3799C30.3781 78.2197 31.3505 78.6617 32.5881 78.6617C33.8257 78.6617 34.776 78.2197 35.439 77.3799C36.0136 76.6064 36.323 75.5898 36.323 74.3522C36.323 73.0925 36.0136 72.0759 35.439 71.3245C34.776 70.4405 33.8257 70.0206 32.5881 70.0206ZM43.9917 78.7722C44.5221 78.7722 44.8978 79.0595 45.1188 79.6562C45.2956 80.0982 45.384 80.6949 45.384 81.4905C45.384 82.2419 45.2956 82.8386 45.1409 83.2806C44.8978 83.8773 44.5221 84.1867 43.9917 84.1867C43.4392 84.1867 43.0414 83.8994 42.8204 83.3248C42.6436 82.8828 42.5552 82.264 42.5552 81.4905C42.5552 80.6949 42.6436 80.0761 42.8204 79.6341C43.0414 79.0595 43.4392 78.7722 43.9917 78.7722ZM32.5881 71.6339C33.1185 71.6339 33.4942 71.9212 33.7152 72.5179C33.892 72.9599 33.9804 73.5566 33.9804 74.3522C33.9804 75.1036 33.892 75.7003 33.7373 76.1423C33.4942 76.739 33.1185 77.0484 32.5881 77.0484C32.0356 77.0484 31.6378 76.7611 31.4168 76.1865C31.24 75.7445 31.1516 75.1257 31.1516 74.3522C31.1516 73.5566 31.24 72.9378 31.4168 72.4958C31.6378 71.9212 32.0356 71.6339 32.5881 71.6339Z" fill="black"/>
<path d="M10.1272 133.721C9.5968 134.273 8.9338 134.781 8.1382 135.268C7.3426 135.71 6.5912 136.019 5.884 136.196V138.759C7.3426 138.339 8.536 137.699 9.4863 136.837V149.5H12.072V133.721H10.1272ZM30.7672 140.859C29.5296 140.859 28.5572 141.279 27.8942 142.163C27.2754 142.914 26.9881 143.931 26.9881 145.19C26.9881 146.428 27.2754 147.423 27.8942 148.218C28.5572 149.058 29.5296 149.5 30.7672 149.5C32.0048 149.5 32.9551 149.058 33.6181 148.218C34.1927 147.445 34.5021 146.428 34.5021 145.19C34.5021 143.931 34.1927 142.914 33.6181 142.163C32.9551 141.279 32.0048 140.859 30.7672 140.859ZM28.513 133.411L19.6509 149.809H21.5736L30.4357 133.411H28.513ZM19.3636 133.721C18.126 133.721 17.1536 134.14 16.4906 135.024C15.8718 135.776 15.5845 136.792 15.5845 138.052C15.5845 139.29 15.8718 140.284 16.4906 141.08C17.1536 141.92 18.126 142.362 19.3636 142.362C20.6012 142.362 21.5515 141.92 22.2145 141.08C22.7891 140.306 23.0985 139.29 23.0985 138.052C23.0985 136.792 22.7891 135.776 22.2145 135.024C21.5515 134.14 20.6012 133.721 19.3636 133.721ZM30.7672 142.472C31.2976 142.472 31.6733 142.759 31.8943 143.356C32.0711 143.798 32.1595 144.395 32.1595 145.19C32.1595 145.942 32.0711 146.539 31.9164 146.981C31.6733 147.577 31.2976 147.887 30.7672 147.887C30.2147 147.887 29.8169 147.599 29.5959 147.025C29.4191 146.583 29.3307 145.964 29.3307 145.19C29.3307 144.395 29.4191 143.776 29.5959 143.334C29.8169 142.759 30.2147 142.472 30.7672 142.472ZM19.3636 135.334C19.894 135.334 20.2697 135.621 20.4907 136.218C20.6675 136.66 20.7559 137.257 20.7559 138.052C20.7559 138.804 20.6675 139.4 20.5128 139.842C20.2697 140.439 19.894 140.748 19.3636 140.748C18.8111 140.748 18.4133 140.461 18.1923 139.886C18.0155 139.444 17.9271 138.826 17.9271 138.052C17.9271 137.257 18.0155 136.638 18.1923 136.196C18.4133 135.621 18.8111 135.334 19.3636 135.334Z" fill="black"/>
<path d="M11.4532 206.211C9.862 206.211 8.536 206.719 7.4752 207.758C6.4144 208.775 5.884 210.079 5.884 211.67C5.884 213.217 6.326 214.477 7.2542 215.449C8.1824 216.466 9.4421 216.974 10.9891 216.974C11.7847 216.974 12.4919 216.819 13.1107 216.532C13.7516 216.222 14.3041 215.736 14.7682 215.095H14.8787V215.294C14.8787 216.753 14.5693 217.968 13.9726 218.941C13.3317 219.957 12.4919 220.488 11.4532 220.488C9.9283 220.488 9.0222 219.758 8.7128 218.3H6.1934C6.5691 221.173 8.315 222.609 11.4311 222.609C13.2433 222.609 14.7019 221.814 15.7848 220.223C16.8456 218.631 17.3981 216.532 17.3981 213.968C17.3981 211.537 16.8898 209.659 15.8732 208.289C14.8566 206.896 13.3759 206.211 11.4532 206.211ZM11.5416 208.355C12.4256 208.355 13.177 208.642 13.7516 209.217C14.3262 209.791 14.6135 210.565 14.6135 211.581C14.6135 212.598 14.3262 213.394 13.7958 213.99C13.2433 214.565 12.4919 214.874 11.5416 214.874C10.5692 214.874 9.8178 214.565 9.2874 213.99C8.7128 213.416 8.4476 212.642 8.4476 211.67C8.4476 210.697 8.7128 209.902 9.2874 209.283C9.862 208.664 10.6134 208.355 11.5416 208.355ZM34.9541 213.659C33.7165 213.659 32.7441 214.079 32.0811 214.963C31.4623 215.714 31.175 216.731 31.175 217.99C31.175 219.228 31.4623 220.223 32.0811 221.018C32.7441 221.858 33.7165 222.3 34.9541 222.3C36.1917 222.3 37.142 221.858 37.805 221.018C38.3796 220.245 38.689 219.228 38.689 217.99C38.689 216.731 38.3796 215.714 37.805 214.963C37.142 214.079 36.1917 213.659 34.9541 213.659ZM32.6999 206.211L23.8378 222.609H25.7605L34.6226 206.211H32.6999ZM23.5505 206.521C22.3129 206.521 21.3405 206.94 20.6775 207.824C20.0587 208.576 19.7714 209.592 19.7714 210.852C19.7714 212.09 20.0587 213.084 20.6775 213.88C21.3405 214.72 22.3129 215.162 23.5505 215.162C24.7881 215.162 25.7384 214.72 26.4014 213.88C26.976 213.106 27.2854 212.09 27.2854 210.852C27.2854 209.592 26.976 208.576 26.4014 207.824C25.7384 206.94 24.7881 206.521 23.5505 206.521ZM34.9541 215.272C35.4845 215.272 35.8602 215.559 36.0812 216.156C36.258 216.598 36.3464 217.195 36.3464 217.99C36.3464 218.742 36.258 219.339 36.1033 219.781C35.8602 220.377 35.4845 220.687 34.9541 220.687C34.4016 220.687 34.0038 220.399 33.7828 219.825C33.606 219.383 33.5176 218.764 33.5176 217.99C33.5176 217.195 33.606 216.576 33.7828 216.134C34.0038 215.559 34.4016 215.272 34.9541 215.272ZM23.5505 208.134C24.0809 208.134 24.4566 208.421 24.6776 209.018C24.8544 209.46 24.9428 210.057 24.9428 210.852C24.9428 211.604 24.8544 212.2 24.6997 212.642C24.4566 213.239 24.0809 213.548 23.5505 213.548C22.998 213.548 22.6002 213.261 22.3792 212.686C22.2024 212.244 22.114 211.626 22.114 210.852C22.114 210.057 22.2024 209.438 22.3792 208.996C22.6002 208.421 22.998 208.134 23.5505 208.134Z" fill="black"/>
<path d="M5.663 280.621V282.963H13.7295L8.0719 296.4H10.8123L16.3373 282.698V280.621H5.663ZM23.8185 280.311C21.9621 280.311 20.5256 281.063 19.509 282.61C18.5366 284.068 18.0504 286.035 18.0504 288.51C18.0504 290.986 18.5366 292.952 19.509 294.411C20.5256 295.936 21.9621 296.709 23.8185 296.709C25.6528 296.709 27.0893 295.936 28.128 294.411C29.1004 292.952 29.5866 290.986 29.5866 288.51C29.5866 286.035 29.1004 284.068 28.128 282.61C27.0893 281.063 25.6528 280.311 23.8185 280.311ZM23.8185 282.499C25.0561 282.499 25.9401 283.184 26.4705 284.599C26.8241 285.549 27.0009 286.853 27.0009 288.51C27.0009 290.146 26.8241 291.45 26.4705 292.422C25.9401 293.814 25.0561 294.522 23.8185 294.522C22.5588 294.522 21.6748 293.814 21.1665 292.422C20.8129 291.45 20.6361 290.146 20.6361 288.51C20.6361 286.853 20.8129 285.549 21.1665 284.599C21.6748 283.184 22.5588 282.499 23.8185 282.499ZM47.1426 287.759C45.905 287.759 44.9326 288.179 44.2696 289.063C43.6508 289.814 43.3635 290.831 43.3635 292.091C43.3635 293.328 43.6508 294.323 44.2696 295.118C44.9326 295.958 45.905 296.4 47.1426 296.4C48.3802 296.4 49.3305 295.958 49.9935 295.118C50.5681 294.345 50.8775 293.328 50.8775 292.091C50.8775 290.831 50.5681 289.814 49.9935 289.063C49.3305 288.179 48.3802 287.759 47.1426 287.759ZM44.8884 280.311L36.0263 296.709H37.949L46.8111 280.311H44.8884ZM35.739 280.621C34.5014 280.621 33.529 281.041 32.866 281.925C32.2472 282.676 31.9599 283.693 31.9599 284.952C31.9599 286.19 32.2472 287.184 32.866 287.98C33.529 288.82 34.5014 289.262 35.739 289.262C36.9766 289.262 37.9269 288.82 38.5899 287.98C39.1645 287.206 39.4739 286.19 39.4739 284.952C39.4739 283.693 39.1645 282.676 38.5899 281.925C37.9269 281.041 36.9766 280.621 35.739 280.621ZM47.1426 289.372C47.673 289.372 48.0487 289.66 48.2697 290.256C48.4465 290.698 48.5349 291.295 48.5349 292.091C48.5349 292.842 48.4465 293.439 48.2918 293.881C48.0487 294.477 47.673 294.787 47.1426 294.787C46.5901 294.787 46.1923 294.499 45.9713 293.925C45.7945 293.483 45.7061 292.864 45.7061 292.091C45.7061 291.295 45.7945 290.676 45.9713 290.234C46.1923 289.66 46.5901 289.372 47.1426 289.372ZM35.739 282.234C36.2694 282.234 36.6451 282.521 36.8661 283.118C37.0429 283.56 37.1313 284.157 37.1313 284.952C37.1313 285.704 37.0429 286.3 36.8882 286.742C36.6451 287.339 36.2694 287.648 35.739 287.648C35.1865 287.648 34.7887 287.361 34.5677 286.787C34.3909 286.345 34.3025 285.726 34.3025 284.952C34.3025 284.157 34.3909 283.538 34.5677 283.096C34.7887 282.521 35.1865 282.234 35.739 282.234Z" fill="black"/>
<defs>
<clipPath id="clip0">
<rect width="556" height="342" fill="white" transform="translate(5 32.9)"/>
</clipPath>
</defs>
</svg>
