<svg width="238" height="63" viewBox="0 0 238 63" fill="none" xmlns="http://www.w3.org/2000/svg">
<rect x="-94" y="-372" width="1440" height="661" fill="#191919"/>
<g clip-path="url(#clip0)">
<path fill-rule="evenodd" clip-rule="evenodd" d="M207.041 54.1056C207.028 53.8897 207.01 53.7289 207.01 53.5683C207.009 49.3688 207.014 45.1694 207 40.97C206.999 40.587 207.143 40.4194 207.48 40.2804C213.116 37.96 218.748 35.6279 224.38 33.2983C225.596 32.7954 226.812 32.2929 228.027 31.789C228.134 31.7445 228.245 31.7026 228.343 31.6403C228.893 31.288 228.88 30.5261 228.317 30.1948C228.174 30.1109 228.017 30.0507 227.863 29.9871C225.355 28.9491 222.845 27.9169 220.341 26.8697C219.995 26.7249 219.699 26.7092 219.343 26.8584C215.425 28.4966 211.501 30.1183 207.578 31.7432C207.427 31.8057 207.271 31.8545 207.079 31.9234C207.051 31.7785 207.012 31.6715 207.012 31.5646C207.009 28.9483 207.016 26.3319 207.001 23.7157C207 23.3729 207.173 23.262 207.44 23.1526C209.428 22.3379 211.411 21.5127 213.396 20.6921C218.274 18.6754 223.152 16.6587 228.032 14.6442C228.403 14.491 228.722 14.3035 228.754 13.8459C228.786 13.4078 228.608 13.1313 228.136 12.9347C227.014 12.4667 225.89 12.0042 224.766 11.5403C218.993 9.15694 213.22 6.77134 207.443 4.39694C207.112 4.26104 206.983 4.08184 207.002 3.72544C207.029 3.18204 207.009 2.63614 207.009 1.99994C207.256 2.08674 207.423 2.13684 207.583 2.20284C210.325 3.33274 213.067 4.46384 215.807 5.59614C219.195 6.99554 222.582 8.39634 225.969 9.79694C227.585 10.4653 229.21 11.1145 230.814 11.8095C232.251 12.4316 233.015 13.5458 233.036 15.1261C233.052 16.3757 233.057 17.626 233.034 18.8755C233.007 20.4098 232.282 21.5228 230.87 22.1194C228.217 23.2404 225.547 24.3213 222.884 25.4194C222.793 25.4572 222.703 25.4995 222.546 25.5693C222.744 25.6592 222.886 25.729 223.032 25.7891C225.573 26.8343 228.113 27.8809 230.655 28.9214C231.693 29.3466 232.477 30.0306 232.837 31.1136C232.961 31.4862 233.028 31.8949 233.03 32.2874C233.046 35.2036 233.051 38.1201 233.034 41.0363C233.025 42.5268 232.321 43.6337 230.969 44.2459C229.497 44.912 227.989 45.4972 226.496 46.1147C220.768 48.4828 215.04 50.8498 209.313 53.2172C208.712 53.4654 208.113 53.7156 207.51 53.9597C207.378 54.0136 207.236 54.0458 207.041 54.1056Z" fill="#D1FF52"/>
<path fill-rule="evenodd" clip-rule="evenodd" d="M82.125 16.335C81.435 16.625 80.7 16.77 79.92 16.77C79.16 16.77 78.45 16.625 77.79 16.335C77.13 16.045 76.545 15.655 76.035 15.165C75.525 14.675 75.125 14.105 74.835 13.455C74.545 12.805 74.4 12.11 74.4 11.37C74.4 10.61 74.545 9.89997 74.835 9.23997C75.125 8.57997 75.525 7.99997 76.035 7.49997C76.545 6.99997 77.13 6.60997 77.79 6.32997C78.45 6.04997 79.16 5.90997 79.92 5.90997C80.7 5.90997 81.435 6.04997 82.125 6.32997C82.815 6.60997 83.42 6.99997 83.94 7.49997C84.46 7.99997 84.87 8.57997 85.17 9.23997C85.47 9.89997 85.62 10.61 85.62 11.37C85.62 12.11 85.47 12.805 85.17 13.455C84.87 14.105 84.46 14.675 83.94 15.165C83.42 15.655 82.815 16.045 82.125 16.335ZM71.07 51V42.9H54.87V7.28997H44.73V51H71.07ZM18.45 48.93V60.87H9.15002V19.89H14.91C16.07 19.89 16.83 20.41 17.19 21.45L17.88 23.73C19.1 22.43 20.485 21.365 22.035 20.535C23.585 19.705 25.43 19.29 27.57 19.29C29.19 19.29 30.69 19.65 32.07 20.37C33.45 21.09 34.64 22.13 35.64 23.49C36.64 24.85 37.425 26.515 37.995 28.485C38.565 30.455 38.85 32.69 38.85 35.19C38.85 37.53 38.525 39.69 37.875 41.67C37.225 43.65 36.315 45.37 35.145 46.83C33.975 48.29 32.575 49.43 30.945 50.25C29.315 51.07 27.51 51.48 25.53 51.48C23.91 51.48 22.55 51.25 21.45 50.79C20.35 50.33 19.35 49.71 18.45 48.93ZM20.73 44.16C21.55 44.48 22.41 44.64 23.31 44.64C24.17 44.64 24.96 44.47 25.68 44.13C26.4 43.79 27.025 43.245 27.555 42.495C28.085 41.745 28.5 40.77 28.8 39.57C29.1 38.37 29.25 36.91 29.25 35.19C29.25 33.55 29.13 32.17 28.89 31.05C28.65 29.93 28.315 29.025 27.885 28.335C27.455 27.645 26.94 27.15 26.34 26.85C25.74 26.55 25.07 26.4 24.33 26.4C22.97 26.4 21.85 26.65 20.97 27.15C20.09 27.65 19.25 28.38 18.45 29.34V42.54C19.15 43.3 19.91 43.84 20.73 44.16ZM84.66 51V19.89H75.36V51H84.66ZM113.01 50.265C111.39 51.075 109.6 51.48 107.64 51.48C106.7 51.48 105.86 51.39 105.12 51.21C104.38 51.03 103.7 50.775 103.08 50.445C102.46 50.115 101.895 49.72 101.385 49.26C100.875 48.8 100.38 48.3 99.9 47.76L99.57 49.32C99.41 49.96 99.15 50.4 98.79 50.64C98.43 50.88 97.95 51 97.35 51H91.17V6.08997H100.47V23.19C101.67 22.05 102.985 21.135 104.415 20.445C105.845 19.755 107.44 19.41 109.2 19.41C110.96 19.41 112.56 19.77 114 20.49C115.44 21.21 116.67 22.235 117.69 23.565C118.71 24.895 119.495 26.5 120.045 28.38C120.595 30.26 120.87 32.36 120.87 34.68C120.87 37.2 120.55 39.49 119.91 41.55C119.27 43.61 118.365 45.375 117.195 46.845C116.025 48.315 114.63 49.455 113.01 50.265ZM105.24 44.64C104.4 44.64 103.57 44.48 102.75 44.16C101.93 43.84 101.17 43.3 100.47 42.54V29.34C101.29 28.38 102.12 27.65 102.96 27.15C103.8 26.65 104.79 26.4 105.93 26.4C106.79 26.4 107.555 26.555 108.225 26.865C108.895 27.175 109.455 27.675 109.905 28.365C110.355 29.055 110.695 29.945 110.925 31.035C111.155 32.125 111.27 33.45 111.27 35.01C111.27 36.81 111.12 38.325 110.82 39.555C110.52 40.785 110.105 41.775 109.575 42.525C109.045 43.275 108.41 43.815 107.67 44.145C106.93 44.475 106.12 44.64 105.24 44.64ZM136.995 29.1C136.185 29.82 135.5 30.82 134.94 32.1V51H125.64V19.89H131.16C131.62 19.89 132.005 19.93 132.315 20.01C132.625 20.09 132.885 20.215 133.095 20.385C133.305 20.555 133.465 20.78 133.575 21.06C133.685 21.34 133.78 21.68 133.86 22.08L134.34 24.69C135.3 23.01 136.405 21.69 137.655 20.73C138.905 19.77 140.34 19.29 141.96 19.29C143.36 19.29 144.5 19.62 145.38 20.28L144.78 27.12C144.68 27.56 144.515 27.86 144.285 28.02C144.055 28.18 143.74 28.26 143.34 28.26C143.18 28.26 142.97 28.25 142.71 28.23C142.45 28.21 142.18 28.185 141.9 28.155C141.62 28.125 141.335 28.095 141.045 28.065C140.755 28.035 140.49 28.02 140.25 28.02C138.89 28.02 137.805 28.38 136.995 29.1ZM155.76 51.48C156.82 51.48 157.785 51.395 158.655 51.225C159.525 51.055 160.345 50.795 161.115 50.445C161.885 50.095 162.63 49.67 163.35 49.17C164.07 48.67 164.82 48.09 165.6 47.43L166.26 49.14C166.56 49.9 166.935 50.4 167.385 50.64C167.835 50.88 168.5 51 169.38 51H173.64V31.56C173.64 29.78 173.36 28.14 172.8 26.64C172.24 25.14 171.435 23.845 170.385 22.755C169.335 21.665 168.055 20.815 166.545 20.205C165.035 19.595 163.34 19.29 161.46 19.29C158.84 19.29 156.385 19.695 154.095 20.505C151.805 21.315 149.72 22.55 147.84 24.21L149.52 27.12C149.8 27.56 150.16 27.94 150.6 28.26C151.04 28.58 151.58 28.74 152.22 28.74C152.94 28.74 153.56 28.62 154.08 28.38C154.6 28.14 155.135 27.87 155.685 27.57C156.235 27.27 156.86 27 157.56 26.76C158.26 26.52 159.16 26.4 160.26 26.4C161.64 26.4 162.705 26.805 163.455 27.615C164.205 28.425 164.58 29.74 164.58 31.56V32.88C161.02 32.96 158.07 33.32 155.73 33.96C153.39 34.6 151.53 35.395 150.15 36.345C148.77 37.295 147.8 38.345 147.24 39.495C146.68 40.645 146.4 41.78 146.4 42.9C146.4 44.3 146.62 45.535 147.06 46.605C147.5 47.675 148.125 48.57 148.935 49.29C149.745 50.01 150.73 50.555 151.89 50.925C153.05 51.295 154.34 51.48 155.76 51.48ZM156.15 44.685C156.73 45.115 157.58 45.33 158.7 45.33C159.9 45.33 160.95 45.12 161.85 44.7C162.75 44.28 163.66 43.6 164.58 42.66V38.34C162.72 38.42 161.19 38.58 159.99 38.82C158.79 39.06 157.84 39.36 157.14 39.72C156.44 40.08 155.955 40.49 155.685 40.95C155.415 41.41 155.28 41.91 155.28 42.45C155.28 43.51 155.57 44.255 156.15 44.685Z" fill="#D1FF52"/>
</g>
<defs>
<clipPath id="clip0">
<rect width="1240" height="461" fill="white" transform="translate(6 -272)"/>
</clipPath>
</defs>
</svg>
